<svg xmlns="http://www.w3.org/2000/svg" viewBox="0 0 1255.98 3874.04"><defs><style>.cls-1{opacity:0.8;}.cls-2{fill:#202020;}</style></defs><g id="Layer_2" data-name="Layer 2"><g id="Layer_1-2" data-name="Layer 1"><g class="cls-1"><path class="cls-2" d="M340,3738.32a171.56,171.56,0,0,1,5.75-19.55,126.49,126.49,0,0,1,8.49-18.53c1.6-3,3.48-5.83,5.31-8.68l3-4.13c1-1.39,2.09-2.66,3.13-4a132,132,0,0,1,13.83-14.6c9.79-9,20.27-16.77,30.17-24.85s19.27-16.55,26.69-26.39a85.13,85.13,0,0,0,5.14-7.6,70.86,70.86,0,0,0,4.19-8.06l.86-2.07c.3-.69.51-1.41.77-2.11.54-1.39.91-2.85,1.33-4.28a57.12,57.12,0,0,0,1.62-8.79,50,50,0,0,0-1.13-17.53c-.19-.71-.42-1.39-.62-2.09l-.32-1c-.11-.34-.26-.67-.38-1l-.79-2-.95-1.93-.47-1-.56-.92-1.11-1.83c-.86-1.13-1.64-2.37-2.57-3.38-7.33-8.38-19.84-12.38-30.65-10.07a22.64,22.64,0,0,0-13.47,8.34,28.31,28.31,0,0,0-5.52,15.37,43.15,43.15,0,0,0,.21,8.57,55.17,55.17,0,0,0,1.8,8.5c.22.69.42,1.39.66,2.08l.75,2,1.73,4.07c.62,1.34,1.33,2.64,2,4s1.48,2.56,2.2,3.85c6.18,10.11,14.6,18.81,24,26.2a163.42,163.42,0,0,0,30.81,18.74,203.24,203.24,0,0,0,33.87,12.64,217.32,217.32,0,0,0,71.76,6.82c24.17-1.58,48.1-6.65,71.35-14.08q13.53-4.34,26.67-9.6t25.86-11.34c8.49-4,16.82-8.31,25-12.75,2.05-1.14,4.13-2.2,6.14-3.39l6.06-3.53,12.1-7a755.07,755.07,0,0,0,90.7-64c57-46.72,107.05-100.58,151.65-159.08q33.38-44,62.8-91.4l3.72-5.9,3.7-6c2.5-4,5.06-8,7.77-11.88,5.48-7.78,11.63-15.38,19.34-21.57a60.31,60.31,0,0,1,12.65-7.82,36.71,36.71,0,0,1,7.21-2.57,37.92,37.92,0,0,1,7.61-1.07,44.91,44.91,0,0,1,15.07,1.92,40.73,40.73,0,0,1,13.62,7,29.67,29.67,0,0,1,9.54,12.54,24.89,24.89,0,0,1,1.64,7.95,29.29,29.29,0,0,1-.13,4.07,23.22,23.22,0,0,1-.85,4,19.38,19.38,0,0,1-4.09,7.41,15.05,15.05,0,0,1-7.56,4.6,23.8,23.8,0,0,1-8.21.46c-.65-.06-1.28-.13-1.91-.22l-1.85-.32-3.72-.65-3.65-.94-1.83-.48-1.78-.61-3.56-1.24-3.46-1.49-1.73-.75-1.67-.87-3.34-1.75-3.21-2-1.6-1-1.53-1.09-3.07-2.19-2.92-2.37-1.45-1.19c-.48-.41-.93-.85-1.39-1.27l-2.76-2.56a100.47,100.47,0,0,1-9.87-11.35,102.48,102.48,0,0,1-14.29-26.52,125.58,125.58,0,0,1-4.28-14.5c-.63-2.44-1-4.93-1.53-7.41-.22-1.24-.39-2.49-.58-3.74s-.39-2.49-.51-3.75c-.66-5-.94-10.05-1.16-15.1s-.12-10.11.15-15.17c.09-2.53.31-5.05.47-7.58s.42-5,.73-7.56c.52-5,1.28-10.07,2.11-15.08a402,402,0,0,1,14.21-58c5.95-18.82,13-37.07,20.24-55.07,14.61-35.95,30.54-70.77,43.66-106.46a513.47,513.47,0,0,0,16.86-54.28,323.81,323.81,0,0,0,8.73-56c.12-2.36.18-4.72.28-7.09s.22-4.74.17-7a77.06,77.06,0,0,0-1.38-13.76,47,47,0,0,0-4.36-12.81,23.36,23.36,0,0,0-8.57-9.42,19,19,0,0,0-5.88-2.19,17.9,17.9,0,0,0-6.23-.18,20.84,20.84,0,0,0-11.15,5.88,40,40,0,0,0-7.84,11,59,59,0,0,0-4.68,13.07,56.35,56.35,0,0,0-1.53,13.89,36.43,36.43,0,0,0,2.67,13.34,15.86,15.86,0,0,0,3.5,5.22,9.84,9.84,0,0,0,5.13,2.64c3.86.8,7.93-1,11.37-4s6.4-6.75,9.32-10.76,5.71-8,8.46-12.1a275.64,275.64,0,0,0,14.82-25.71,298,298,0,0,0,12.23-27.28c3.67-9.31,7-18.79,9.85-28.44s5.49-19.41,7.7-29.3,4.13-19.86,5.78-29.92c6.47-40.26,8.55-81.59,7.66-123.18l-.21-7.8c-.11-2.59-.2-5.17-.36-7.76s-.33-5.17-.62-7.74l-.38-3.86-.49-3.86a175.8,175.8,0,0,0-6.57-30.35,130.63,130.63,0,0,0-12.54-28.36l-2-3.3c-.67-1.11-1.46-2.14-2.19-3.21s-1.45-2.15-2.25-3.16l-2.41-3.05a54,54,0,0,0-10.82-10.71,27.65,27.65,0,0,0-6.46-3.52,23.74,23.74,0,0,0-3.47-1,18.35,18.35,0,0,0-3.49-.32c-4.68,0-9.56,2-12.44,5.4a10.59,10.59,0,0,0-2.48,6,10.1,10.1,0,0,0,1.79,6.18,16,16,0,0,0,11.72,6.74,12.36,12.36,0,0,0,3.39-.19,12.7,12.7,0,0,0,1.6-.46,11.41,11.41,0,0,0,1.6-.72,36.93,36.93,0,0,0,6.4-4,21.45,21.45,0,0,0,4.87-5.35,16.57,16.57,0,0,0,2.37-6.63,21.89,21.89,0,0,0-.36-7.24,37.45,37.45,0,0,0-2.44-7.17,71.28,71.28,0,0,0-8.16-13.29,174.82,174.82,0,0,0-21.94-23.14c-8-7.16-16.36-13.9-25-20.32s-17.55-12.57-26.67-18.38c-4.56-2.9-9.17-5.73-13.85-8.4-2.34-1.34-4.7-2.64-7.08-3.84-1.2-.6-2.35-1.14-3.56-1.63l-3.78-1.53a2614.32,2614.32,0,0,0-249.21-87c-4.58-1.35-10.28-3.05-16.73-4.87s-13.65-3.92-21.24-6c-15.16-4.25-31.89-8.69-47.15-12.73-30.54-8-55.17-14.55-50.09-12.92-41.62-11.29-83-23.28-123.26-38.21q-30.19-11.16-59.28-24.91a529.49,529.49,0,0,1-56.17-31A430,430,0,0,1,374,2049.51a583.41,583.41,0,0,1-45.47-44.72c-28.73-31.27-54.7-64.68-81.1-97.48L237.48,1895c-3.31-4.1-6.66-8.15-10-12.2-6.69-8.11-13.52-16.07-20.33-24.1-13.58-16-27.12-32.08-42.06-46.67a244.49,244.49,0,0,0-23.56-20.47,147,147,0,0,0-26.52-16c-1.16-.52-2.36-1.17-3.48-1.58a17.59,17.59,0,0,0-3.41-1c-2.28-.42-4.35-.09-5.45,1.3s-1.53,3.9-1.53,6.22a18.72,18.72,0,0,0,1.51,6.92,22.35,22.35,0,0,0,9.49,10.61,30.13,30.13,0,0,0,14.12,3.85,32.92,32.92,0,0,0,14.45-2.76l1.66-.81,1.58-.92c1.06-.67,2.11-1.43,3.16-2.13s2.05-1.53,3.07-2.3l1.5-1.17,1.44-1.27a71.49,71.49,0,0,0,10.39-11.18,82.91,82.91,0,0,0,7.94-13.08,109.56,109.56,0,0,0,9.18-29.32c.87-5.08,1.48-10.21,1.89-15.36s.53-10.33.53-15.51c-.11-20.73-2.91-41.41-6.94-61.78a618.56,618.56,0,0,0-15.56-60.4c-5.13-16.71-10.83-33.34-16.85-49.94s-12.41-33.16-18.75-49.79C112.26,1451,98.32,1418,84.75,1384.89c-3.37-8.3-6.77-16.57-10.07-24.9l-4.94-12.48L64.92,1335l-2.4-6.26-2.32-6.3q-2.3-6.3-4.61-12.59c-2.91-8.45-6-16.84-8.64-25.35-5.64-16.93-10.52-34.06-14.87-51.25q-1.56-6.46-3.1-12.93c-.54-2.14-1-4.32-1.4-6.48l-1.33-6.5c-.88-4.33-1.82-8.64-2.54-13l-1.13-6.51-1-6.52A523.54,523.54,0,0,1,15.4,1096q.24-21.37,2.33-42.62,1.07-10.62,2.59-21.17c.25-1.79.49-3.43.64-5.18l.42-5.26c.27-3.53.53-7.07.89-10.62A125.43,125.43,0,0,1,25.87,990,42.5,42.5,0,0,1,30,979.8a27.85,27.85,0,0,1,1.59-2.36,19,19,0,0,1,2-2.14A14.5,14.5,0,0,1,36,973.5l1.36-.69a11.7,11.7,0,0,1,1.44-.51,13.63,13.63,0,0,1,11.47,2A20.89,20.89,0,0,1,57,983.33a44.4,44.4,0,0,1,2.89,10.56,67.39,67.39,0,0,1,.79,10.79,64.16,64.16,0,0,1-.92,10.79,34.52,34.52,0,0,1-1.33,5.37c-.15.44-.33.89-.5,1.33s-.41.9-.62,1.33a16.59,16.59,0,0,1-1.59,2.47,8,8,0,0,1-2.5,2.11,6.39,6.39,0,0,1-3.38.68,12.89,12.89,0,0,1-5.59-2.08l-4.54-2.91c-1.44-1.06-2.9-2.11-4.32-3.2a79.9,79.9,0,0,1-14.86-15.49,92,92,0,0,1-10.45-18.67C4.59,973.23,1.81,959.12.65,945a230.73,230.73,0,0,1,.75-42.3c2.9-28.06,9.81-55.5,18.67-82.09s19.6-52.51,30.36-78.29c5.37-12.88,10.75-25.79,16.33-38.59S78,678.2,83.67,665.45c6.26-14.18,16.19-36.58,25.34-58.61,4.58-11,8.93-22,12.65-31.67s6.76-18.24,8.93-24.36c12.69-36.14,22.41-73.06,26.64-110.47l.69-7,.34-3.51.25-3.51.49-7c.09-2.34.26-4.67.27-7a168.67,168.67,0,0,0-1.45-27.82,102.2,102.2,0,0,0-7.4-26.53A66.24,66.24,0,0,0,134.48,336c-6.74-5.92-15.55-9.24-24.49-10.12a51,51,0,0,0-13.47.37,46.92,46.92,0,0,0-12.83,3.89,35.21,35.21,0,0,0-10.77,7.65A28.17,28.17,0,0,0,69,343a25.71,25.71,0,0,0-1.45,2.93c-.2.51-.45,1-.61,1.52l-.5,1.56A12.15,12.15,0,0,0,66,350.6l-.34,1.6c-.1,1.09-.31,2.17-.32,3.27a32.26,32.26,0,0,0,.36,6.58,40,40,0,0,0,1.6,6.43,54.2,54.2,0,0,0,2.58,6.16A70.09,70.09,0,0,0,77.18,386c.69.89,1.4,1.76,2.13,2.63l2.26,2.53,2.26,2.54c.73.86,1.59,1.6,2.38,2.41A114.62,114.62,0,0,0,107.34,413c15.34,9.56,32.7,15.55,50.44,18.76a202.29,202.29,0,0,0,26.9,2.84,246.73,246.73,0,0,0,27.06-.37c9-.61,18-1.62,26.9-2.95s17.78-3.07,26.59-5,17.53-4.24,26.19-6.72,17.26-5.19,25.78-8.15c17-6,34-12.12,50.78-18.75a1421.55,1421.55,0,0,0,195-93.9c24.66-14.22,47.37-28.54,69.33-42.49s43.22-27.38,64.87-39.94a623,623,0,0,1,67.12-34.39c23.43-10,48.37-18.58,75.54-23.19,2.46-.45,5.94-1,10.26-1.66l7.13-.81c1.29-.13,2.62-.31,4-.41l4.29-.28a223.47,223.47,0,0,1,41.85,1.11,132.2,132.2,0,0,1,19.81,3.64,84.55,84.55,0,0,1,12.52,4.36,58.77,58.77,0,0,1,13.11,7.86l1.6,1.29,1.53,1.44a41.11,41.11,0,0,1,3,3.07c1,1.08,1.81,2.26,2.72,3.44a32.58,32.58,0,0,1,2.36,3.94,37.31,37.31,0,0,1,3.84,18.54,36.19,36.19,0,0,1-1.88,9.94,30.53,30.53,0,0,1-2.13,4.81,25.43,25.43,0,0,1-3.05,4.47,23.84,23.84,0,0,1-9,6.64,25.52,25.52,0,0,1-5.53,1.56,24.53,24.53,0,0,1-5.81.16,27.33,27.33,0,0,1-11-3.62,35.35,35.35,0,0,1-8.9-7.45,37.5,37.5,0,0,1-9.21-21.63,54,54,0,0,1,4.27-23.57,107.27,107.27,0,0,1,12-20.95A367.24,367.24,0,0,1,995.5,84a387.51,387.51,0,0,1,81.94-49.91,392.92,392.92,0,0,1,41.43-16A387.37,387.37,0,0,1,1158,7.87c3.1-.65,6.15-1.3,9.17-1.79s6-1.09,8.87-1.54l8.55-1.24c2.79-.43,5.53-.66,8.2-1,5.34-.68,10.45-1,15.25-1.42,2.41-.21,4.75-.26,7-.39s4.45-.25,6.56-.31c4.22-.07,8.13-.18,11.71-.19l9.67.14c5.75.2,10,.46,12.69.58,1.31.08-1.09,0-6.76-.27L1244,.25l-6-.06c-2.2,0-4.59-.11-7.17,0l-8.26.17a380.37,380.37,0,0,0-42.9,4c-8.34,1.2-17.19,2.93-26.51,4.94-9.28,2.17-19.05,4.61-29.09,7.77-5,1.48-10.12,3.29-15.32,5-2.59.91-5.17,1.92-7.8,2.89l-4,1.47L1093,28c-10.59,4.21-21.33,9.15-32.16,14.69-5.44,2.71-10.81,5.75-16.27,8.78l-8.11,4.81c-2.73,1.6-5.38,3.37-8.1,5.06-10.77,6.91-21.46,14.49-31.92,22.77a371.34,371.34,0,0,0-58.26,57.94c-2.16,2.77-4.36,5.51-6.49,8.32s-4.19,5.71-6.15,8.68a93,93,0,0,0-10,19.07,60.47,60.47,0,0,0-2.79,10.57,48.28,48.28,0,0,0-.44,11,36.46,36.46,0,0,0,8.78,20.16,34.48,34.48,0,0,0,8.5,7.22,26.07,26.07,0,0,0,10.67,3.64,22,22,0,0,0,5.73-.12,23.37,23.37,0,0,0,5.5-1.57,22.83,22.83,0,0,0,9-6.94,28.94,28.94,0,0,0,5-10,31.72,31.72,0,0,0,1.07-5.44,35.17,35.17,0,0,0,.23-5.52,36.73,36.73,0,0,0-2-10.83,36.09,36.09,0,0,0-2.24-5.05,30.22,30.22,0,0,0-3.1-4.56,49.65,49.65,0,0,0-16.72-13.39,77.62,77.62,0,0,0-9.76-4.11q-5-1.68-10.09-2.85t-10.19-1.91l-10.18-1.26c-3.39-.3-6.77-.52-10.14-.78s-6.74-.21-10.09-.31c-26.85-.24-52.57,4.47-76,11.41s-44.66,16.12-63.69,25.35-35.85,18.79-50.48,27.43S665.07,236.7,655,243c-20.15,12.69-30.87,19.57-29.17,18.51L653,244.43c7.65-4.79,16.73-10.44,27.08-16.69s22-13.09,34.78-20.14,26.82-14.27,42-21.12c7.56-3.47,15.46-6.7,23.57-9.88s16.55-6.06,25.25-8.59a275.54,275.54,0,0,1,54.74-10.76,224.55,224.55,0,0,1,57.73,2.44c9.56,1.83,19.15,4.63,27.69,9.68a49.48,49.48,0,0,1,11.54,9.3,34.5,34.5,0,0,1,2.38,2.87c.38.49.76,1,1.1,1.51s.7,1,1,1.59a32.46,32.46,0,0,1,3,6.86,36.53,36.53,0,0,1,1.45,14.72,31.65,31.65,0,0,1-4.77,13.94A22.74,22.74,0,0,1,950,229.31a22,22,0,0,1-7.31,1.25,23.93,23.93,0,0,1-7.25-1.18,30.59,30.59,0,0,1-12.09-7.61,37.52,37.52,0,0,1-7.89-11.57,33,33,0,0,1-2.87-13.5,48.82,48.82,0,0,1,1.74-13.31c2.31-8.58,6.44-16.25,11-23.23,2.27-3.5,4.67-6.83,7.1-10l7.34-9.37a370.94,370.94,0,0,1,56.38-55.8c2-1.67,4.08-3.16,6-4.66s3.75-2.93,5.57-4.21c3.63-2.58,6.86-5,9.83-7l7.75-5.23,5.43-3.43a374.54,374.54,0,0,0-76.61,63.91L950,128.88c-1.35,1.51-2.72,3-4,4.58l-3.89,4.65-1.94,2.32-1.87,2.37c-2.46,3.18-5,6.28-7.36,9.52s-4.65,6.53-6.76,9.92A77.34,77.34,0,0,0,914.4,184a49.85,49.85,0,0,0-1.58,11.84c0,1,0,2,.07,3l.13,1.5.21,1.5a34.79,34.79,0,0,0,1.5,5.8,36.62,36.62,0,0,0,14.35,18.41,26.27,26.27,0,0,0,11.07,4.07,22.72,22.72,0,0,0,5.94-.11,22.41,22.41,0,0,0,5.67-1.73,21.51,21.51,0,0,0,5-3.15,23.51,23.51,0,0,0,4-4.33,29,29,0,0,0,4.6-10.57,36,36,0,0,0-2.2-22.35,29.38,29.38,0,0,0-2.79-4.95,45.17,45.17,0,0,0-3.55-4.35,46.54,46.54,0,0,0-8.48-7.2,63.46,63.46,0,0,0-9.69-5.24,84.87,84.87,0,0,0-10.28-3.64c-3.47-1-7-1.78-10.52-2.45-1.76-.34-3.53-.61-5.29-.89l-5.31-.65-5.28-.64-5.29-.4c-1.76-.12-3.52-.27-5.28-.37l-5.26-.14c-28.09-.73-55.35,4-80.74,11.7s-49.18,18.15-71.52,29.59-43.38,23.86-63.54,36.31-39.5,24.91-58.4,36.79A1423.35,1423.35,0,0,1,402.7,380.52c-15.76,6.7-31.14,12.71-46,18.44-7.46,2.75-14.74,5.54-22,8.12s-14.24,5.14-21.22,7.46c-27.87,9.33-54.25,15.71-78.78,19.11s-47.2,3.88-67.41,1.36-37.86-8-52.19-15.45c-1.84-.85-3.51-1.93-5.22-2.88l-2.53-1.45c-.83-.48-1.61-1-2.4-1.55-1.58-1.05-3.15-2.05-4.65-3.09l-4.31-3.26c-1.45-1-2.74-2.19-4-3.3s-2.59-2.18-3.79-3.31l-3.45-3.39-1.68-1.65c-.53-.56-1-1.15-1.54-1.71-8.36-8.84-13.89-17.8-16.41-25.89a37.37,37.37,0,0,1-1.8-11.16,30.42,30.42,0,0,1,1.21-8.57,29.81,29.81,0,0,1,4.16-8.63c.44-.63.68-.9.65-.88a8.89,8.89,0,0,0-.76,1,28.91,28.91,0,0,0-4.06,8.33,31.19,31.19,0,0,0-.86,3.57,37.67,37.67,0,0,0-.39,4.17,36.18,36.18,0,0,0,1.08,9.78c1.69,7.05,5.77,14.71,11.75,22.25a125.91,125.91,0,0,0,23.32,22.17c1.16.93,2.45,1.7,3.7,2.55l3.84,2.52,4.06,2.34c1.37.79,2.75,1.6,4.2,2.29s2.9,1.44,4.37,2.17,3,1.32,4.55,2c3,1.39,6.27,2.48,9.52,3.68a160.46,160.46,0,0,0,20.74,5.5l2.73.55,2.76.44c1.85.28,3.71.62,5.6.86,3.77.44,7.6.94,11.5,1.18s7.85.43,11.86.62c4,0,8.07.11,12.17-.06s8.26-.34,12.46-.57,8.42-.67,12.69-1.2q12.81-1.42,26-3.93c8.78-1.68,17.68-3.61,26.65-5.94s18-4.91,27.13-7.8l6.84-2.22,6.85-2.33,13.79-4.91c18.46-6.69,37.32-13.8,56.31-21.63s38.23-16.11,57.52-25c38.52-17.85,77.37-37.76,115.34-59.76,19-11,37.8-22.43,56.34-34.21s37-23.58,55.6-34.95,37.26-22.29,56.23-32.14a475,475,0,0,1,57.75-25.64,321.8,321.8,0,0,1,39.28-11.37,245.56,245.56,0,0,1,44.72-5.77l5.95-.12c1,0,2,0,3,0l3,.08,6.08.16c2,.06,4.08.28,6.14.41s4.13.26,6.2.51l6.25.76a121.74,121.74,0,0,1,12.62,2.12c8.41,1.87,16.93,4.66,24.66,9.42A48.27,48.27,0,0,1,957,179.46c.82.83,1.47,1.8,2.21,2.7a14.7,14.7,0,0,1,1,1.42,16.43,16.43,0,0,1,.94,1.5,32.64,32.64,0,0,1,2.88,6.47,36.16,36.16,0,0,1,1.52,14.21A31.07,31.07,0,0,1,961,219.62a21.69,21.69,0,0,1-26.81,8.58A31.83,31.83,0,0,1,921.75,219a36.87,36.87,0,0,1-7.39-13.95,30.61,30.61,0,0,1-1.1-8c0-.67,0-1.34,0-2l.12-2c0-1.36.29-2.69.44-4a60.74,60.74,0,0,1,4.84-15.61c4.6-10,11.18-19.16,18.21-28,3.44-4.51,7.18-8.83,10.87-13.26,3.86-4.29,7.66-8.69,11.77-12.89s8.28-8.39,12.54-12.57l6.61-6.11c2.19-2.07,4.53-4,6.8-6,9.23-7.91,18.9-15.62,29.21-22.81a375,375,0,0,0-38.78,31.48c-6.72,6.14-13.3,12.9-19.93,19.94s-13,14.66-19.2,22.69-12.37,16.32-17,25.72a62.07,62.07,0,0,0-5.21,14.81l-.38,1.94c-.13.65-.18,1.31-.28,2s-.19,1.3-.22,2l-.11,2a33.77,33.77,0,0,0,6.76,22.42A33.33,33.33,0,0,0,932.28,227a24.91,24.91,0,0,0,7.57,2.33,21.13,21.13,0,0,0,15-3.71,22.7,22.7,0,0,0,5.43-5.59,30.4,30.4,0,0,0,4.91-14.5,35.71,35.71,0,0,0-1.94-15,30.75,30.75,0,0,0-3.38-6.67c-.66-1-1.5-2-2.24-2.95s-1.65-1.83-2.47-2.74a49.89,49.89,0,0,0-11.65-8.59c-8.42-4.55-17.48-7-26.24-8.63-4.38-.83-8.74-1.26-13-1.79-2.12-.3-4.23-.42-6.32-.57l-6.17-.45a235.76,235.76,0,0,0-43.13,2,276,276,0,0,0-28.93,5.64A347.15,347.15,0,0,0,776,180.13c-13.24,5.3-25.25,10.89-36.32,16.41s-21.16,11-30.54,16.3-18,10.41-26.17,15.33c-32.48,19.72-56.71,35.82-82.45,51.73-6.45,3.94-12.92,8-19.71,12L570.5,298l-10.79,6.22c-7.33,4.29-15.13,8.53-23.35,13.14-8.3,4.46-17,9.27-26.53,14.15-18.94,9.86-40.59,20.65-66.3,32.37-6.44,2.9-13.08,6-20.07,9l-10.63,4.63-11.09,4.66q-22.58,9.51-49,19.41c-7.25,2.68-14.65,5.47-22.26,8.13s-15.35,5.48-23.35,8a468.73,468.73,0,0,1-50.3,13.16c-8.77,1.73-17.72,3.22-26.83,4.38s-18.4,1.86-27.81,2.15c-18.78.6-38.17-.82-57.17-5.69a144.32,144.32,0,0,1-27.78-10.16,123.94,123.94,0,0,1-25.14-16.36c-1.88-1.67-3.89-3.22-5.64-5.05l-2.7-2.67-1.35-1.33-1.27-1.42-2.53-2.84c-.84-.94-1.7-1.88-2.49-2.88-1.6-2-3.14-4-4.55-6.16A58.87,58.87,0,0,1,64.66,369a37.19,37.19,0,0,1-1.84-15.48,29.59,29.59,0,0,1,1.82-7.7,30.92,30.92,0,0,1,3.82-6.95,35.7,35.7,0,0,1,5.44-5.75,42.77,42.77,0,0,1,6.54-4.4,45.56,45.56,0,0,1,7.22-3.11c1.23-.46,2.51-.75,3.76-1.12s2.54-.62,3.84-.8a53,53,0,0,1,15.64-.48,49.91,49.91,0,0,1,15.13,4.1,43.61,43.61,0,0,1,6.86,3.93c1.11.71,2.09,1.61,3.13,2.42l2.84,2.7,1.42,1.36,1.29,1.47,2.56,3,2.29,3.17c.38.53.79,1,1.13,1.59l1,1.68a77.57,77.57,0,0,1,6.76,14,116.8,116.8,0,0,1,6.27,30.19c.48,5.11.56,10.22.61,15.32s-.19,10.2-.59,15.24a414.72,414.72,0,0,1-8.39,59.54C145,521.73,132,558.23,118.37,592.28c-6.84,17-13.92,33.48-20.88,49.36l-20.34,46c-6.5,14.76-12.66,29-18.31,42.6s-11.09,26.57-16,38.78c5.11-12.72,11.25-27.51,18.06-44s14.7-34.44,23.18-53.66,17.54-39.64,26.49-61.09,17.78-43.91,25.5-67.21a547,547,0,0,0,18.9-71.86c2.26-12.24,4-24.55,5.14-36.85l.43-4.6.32-4.61.31-4.6c.11-1.54.14-3.07.22-4.6.2-6.14.26-12.25-.11-18.33a145.55,145.55,0,0,0-2.08-18,110,110,0,0,0-4.68-17.29,81.2,81.2,0,0,0-8-15.71A65.84,65.84,0,0,0,135,333.69a43.1,43.1,0,0,0-15-7.92,55.18,55.18,0,0,0-8.15-1.78,59.55,59.55,0,0,0-8.21-.45,53.92,53.92,0,0,0-8.06.76c-1.33.19-2.63.53-3.93.81s-2.57.66-3.81,1.13a42.44,42.44,0,0,0-13.64,7.44,42.86,42.86,0,0,1,6.9-4.59A49.79,49.79,0,0,1,88.65,326a53.56,53.56,0,0,1,15.74-2.41c10.49-.08,20.82,2.92,28.89,8.87a64.39,64.39,0,0,1,10.39,10.42l2.12,2.94c.35.49.71,1,1,1.46l.93,1.54,1.84,3.07,1.59,3.17a93.49,93.49,0,0,1,8.1,26.22c3,17.68,2.24,34.81.77,50.93a425.7,425.7,0,0,1-6.79,46.09c-6,29.23-14.1,55.57-23,80.4s-18.56,48.21-28.59,71.52S81.2,676.74,70.54,701.34c-5.34,12.3-10.63,24.95-16.05,38.12s-11.09,26.72-16.71,41S26.56,809.67,21.46,825.6l-1.92,6-1.82,6.12c-1.26,4.09-2.33,8.29-3.51,12.51l-1.62,6.42c-.54,2.15-1.08,4.32-1.54,6.52l-1.47,6.62c-.44,2.23-.87,4.48-1.31,6.74q-2.62,13.56-4,28.05a244.88,244.88,0,0,0-1.12,29.78c.15,5.09.5,10.25,1.06,15.44a156.75,156.75,0,0,0,2.59,15.66,113.78,113.78,0,0,0,4.56,15.59,95.82,95.82,0,0,0,7.06,15.07,83.55,83.55,0,0,0,7.31,10.47c1.32,1.73,2.89,3.26,4.36,4.91.78.78,1.59,1.53,2.39,2.31l1.21,1.16,1.28,1.08,2.59,2.17,2.75,2,1.39,1,1.45.93,2.93,1.85c1.9,1.15,4,2,5.4,1.38s2.77-2.54,3.61-4.53a31.27,31.27,0,0,0,1.74-6.74,59.23,59.23,0,0,0,.67-7.22,64.17,64.17,0,0,0-1.13-14.73,39.16,39.16,0,0,0-2.09-7.1,21.86,21.86,0,0,0-3.69-6.19,11.23,11.23,0,0,0-5.76-3.55,9.43,9.43,0,0,0-6.6.72,12.93,12.93,0,0,0-4.81,4.59,30.86,30.86,0,0,0-3.12,6.46,78.77,78.77,0,0,0-3.47,14.36c-.77,4.93-1.28,9.92-1.71,15l-.59,7.64-.34,3.88c-.12,1.29-.31,2.67-.49,3.93a477.5,477.5,0,0,0-5.08,66.12c-.12,9.39.17,18.74.56,28,.28,4.65.47,9.3.87,13.93.18,2.31.37,4.62.55,6.93l.67,6.92c.21,2.3.48,4.59.75,6.89l.81,6.87c.66,4.57,1.2,9.14,1.95,13.67,1.35,9.1,3.05,18.1,4.93,27,1.71,9,4,17.8,6.08,26.64,1.12,4.4,2.36,8.77,3.53,13.14l1.78,6.56,2,6.49c1.31,4.33,2.58,8.66,3.92,13l4.2,12.84c1.36,4.29,2.89,8.52,4.36,12.76s2.92,8.48,4.49,12.68,3.11,8.4,4.66,12.59,3.19,8.35,4.78,12.52c3.17,8.34,6.52,16.6,9.8,24.87q10,24.74,20.25,49.23c6.78,16.35,13.55,32.67,20.08,49.06,1.62,4.1,3.28,8.18,4.88,12.29l4.76,12.34,9.42,24.67c12.51,32.9,24.24,66.16,33.28,100.33a500,500,0,0,1,11.06,52c2.67,17.55,4.24,35.4,3.51,53.34a165.06,165.06,0,0,1-3.21,26.79,110.37,110.37,0,0,1-8.71,25.76,82.09,82.09,0,0,1-7,11.78,75,75,0,0,1-8.95,10.47,73.44,73.44,0,0,1-10.71,8.71,33.61,33.61,0,0,1-6.15,3.51,36.92,36.92,0,0,1-6.79,2.14,37.2,37.2,0,0,1-14.16.18,36.34,36.34,0,0,1-6.88-2,30.18,30.18,0,0,1-6.3-3.55,26,26,0,0,1-8.67-11.56,21.28,21.28,0,0,1-1.39-7.26,22.44,22.44,0,0,1,.29-3.74,11.45,11.45,0,0,1,1.33-3.8,7.58,7.58,0,0,1,3.22-3,9.05,9.05,0,0,1,4.11-.84,19.9,19.9,0,0,1,7.28,1.8l6.31,3,1.58.75,1.53.85,3,1.69c1,.57,2,1.12,3,1.71l2.94,1.88c1.95,1.27,4,2.44,5.84,3.83l5.69,4.07,5.51,4.32A171.37,171.37,0,0,0,121,1774.32l-7.24-3.47a25.9,25.9,0,0,0-4.12-1.4,13.33,13.33,0,0,0-4.77-.33,8,8,0,0,0-4.89,2.42,10,10,0,0,0-2.33,4.85,21,21,0,0,0,.56,10.17,26.11,26.11,0,0,0,11.85,14.8,32.51,32.51,0,0,0,5.76,2.63,37.29,37.29,0,0,0,24.57-.48,30.28,30.28,0,0,0,2.87-1.24,29.64,29.64,0,0,0,2.76-1.52c.88-.54,1.67-1.12,2.52-1.68s1.68-1.1,2.45-1.73c1.59-1.24,3.21-2.42,4.68-3.79.75-.67,1.52-1.3,2.24-2l2.13-2.11c.73-.69,1.4-1.43,2.06-2.19l2-2.24,1.86-2.34.92-1.18.86-1.22,1.72-2.44c.54-.83,1-1.69,1.58-2.53,1.08-1.66,2-3.43,2.94-5.16,7.3-14.1,10.83-29.62,12.26-45a236.31,236.31,0,0,0-.65-45.93,406.51,406.51,0,0,0-7.38-44.84c-3.22-14.75-7.07-29.3-11.32-43.7-8.51-28.81-18.7-57-29.42-85-5.36-14-10.66-28.08-16.27-42.11L117,1453l-4.29-10.51q-4.32-10.51-8.66-21.06C92.41,1393.33,80.51,1365,69.32,1336c-5.65-14.52-10.95-29.27-16.13-44.22-5-15-9.87-30.2-14-45.77-4.38-15.5-7.83-31.41-11-47.53q-4.51-24.24-6.87-49.4a517.57,517.57,0,0,1-.7-87.8c.66-7.78,1.44-15.58,2.47-23.29l.78-5.78.2-1.44c.06-.5.13-1,.18-1.51.11-1,.2-2,.28-3l.88-11.51a144.62,144.62,0,0,1,3.22-21.95A47.14,47.14,0,0,1,32.05,983c.36-.76.82-1.45,1.23-2.16a16.57,16.57,0,0,1,1.44-1.92,14.05,14.05,0,0,1,1.62-1.65,10.77,10.77,0,0,1,1.85-1.19,8.9,8.9,0,0,1,2.05-.77l1.08-.17a6.83,6.83,0,0,1,1.11,0,9.78,9.78,0,0,1,4.33,1,12.09,12.09,0,0,1,3.61,2.67,20.81,20.81,0,0,1,2.68,3.87,35.27,35.27,0,0,1,3.15,9.24,58.22,58.22,0,0,1,1.17,9.85,66.33,66.33,0,0,1-.34,9.88,44.8,44.8,0,0,1-.76,4.82,25.53,25.53,0,0,1-1.35,4.52l-.47,1c-.18.35-.37.67-.56,1a8.21,8.21,0,0,1-1.27,1.61,3.28,3.28,0,0,1-3.13.87,12.32,12.32,0,0,1-4-1.84c-1.37-.89-2.76-1.73-4.1-2.65A78.09,78.09,0,0,1,16.33,992C10.44,980.6,7,968.09,5.17,955.48a198,198,0,0,1-1.54-38.16,293.55,293.55,0,0,1,4.51-37.93c4.55-25.1,12-49.66,20.89-74-8.74,24.25-16.42,49.55-21,75.92A289.7,289.7,0,0,0,3.8,921.45a183.13,183.13,0,0,0,3,40.64C9.38,975.46,14,988.6,21.63,1000a76.77,76.77,0,0,0,13.52,15.33,75,75,0,0,0,8.2,6.19l2.18,1.38a17.58,17.58,0,0,0,2.11,1.23,4.91,4.91,0,0,0,3.44.68,5,5,0,0,0,2.49-2.49,9.09,9.09,0,0,0,.54-1c.16-.33.31-.67.45-1s.27-.73.39-1.12.24-.77.34-1.17a49.7,49.7,0,0,0,1.44-10.06,59.13,59.13,0,0,0-2.27-20.31A31.87,31.87,0,0,0,52.55,983a19.06,19.06,0,0,0-2.69-3.89,10.11,10.11,0,0,0-7.79-3.38,8.18,8.18,0,0,0-4,1.11,12.72,12.72,0,0,0-3.3,3,30.58,30.58,0,0,0-4.37,8.91,105.57,105.57,0,0,0-3.94,20.66c-.38,3.53-.67,7.09-.94,10.67s-.47,7.15-1,10.93q-3.17,21.27-4.36,42.81a508.77,508.77,0,0,0,2.55,86,564.18,564.18,0,0,0,16.23,83.9c7.37,27.38,16.4,54.09,26.16,80.18,8.12,21.66,17.77,45.3,27.12,67.7s18.28,43.59,25.1,60.3C98,1404,77.23,1356.73,59.8,1308.11c-8.71-24.29-16.56-48.92-22.9-74A553.88,553.88,0,0,1,23,1157.94q-1.83-16.85-2.64-34.09c-.53-11.48-.6-23.08-.33-34.76s.95-23.44,2.14-35.22c.24-3,.65-5.89,1-8.85s.72-5.9,1.13-8.85l.61-4.44.3-2.32c.09-.78.17-1.55.23-2.31q.36-4.51.7-9c.47-6,1-11.93,2-17.79s2.33-11.65,4.81-16.67A23.33,23.33,0,0,1,35,980.14a12.2,12.2,0,0,1,2.67-2.57,9.82,9.82,0,0,1,1.5-.86l.81-.26.4-.13.43-.06.85-.13H43c.15,0,.29,0,.44.06l.89.13a10.43,10.43,0,0,1,3.26,1.39,12.67,12.67,0,0,1,2.72,2.57,24,24,0,0,1,3.73,7.33A56.78,56.78,0,0,1,56.45,1005a63.34,63.34,0,0,1-.68,8.84,25.43,25.43,0,0,1-2.33,8,6.28,6.28,0,0,1-2,2.46,2.11,2.11,0,0,1-1,.29,4,4,0,0,1-1.38-.23,15.28,15.28,0,0,1-3.55-1.86c-1.26-.82-2.56-1.58-3.78-2.45a73.14,73.14,0,0,1-13.44-12,88.85,88.85,0,0,1-17.51-31.61A143.38,143.38,0,0,1,4.33,940.2a235.77,235.77,0,0,1,1-37.18c.62-6.19,1.45-12.36,2.45-18.51l.79-4.6.88-4.59.88-4.58c.31-1.53.67-3,1-4.56,5.34-24.34,13.13-48.09,21.9-71.33s18.48-46.07,27.91-68.79c19-45.31,39.82-89,57.39-132.73,8.82-21.82,16.82-43.61,23.5-65.39q5.06-16.31,9-32.62c2.59-10.86,4.9-21.68,6.66-32.46s3.15-21.5,4.09-32.13c.38-5.32.82-10.59,1-15.88s.21-10.53-.05-15.75A130.4,130.4,0,0,0,158,368.54c-.3-1.24-.74-2.45-1.14-3.66s-.79-2.42-1.25-3.6c-1-2.35-1.85-4.74-3.06-7-.57-1.13-1.1-2.28-1.71-3.38l-2-3.25c-.33-.53-.63-1.09-1-1.6l-1.1-1.53c-.74-1-1.46-2-2.21-3s-1.63-1.9-2.45-2.84l-1.22-1.41L139.6,336l-2.68-2.57c-.94-.82-1.93-1.62-2.93-2.37a46.18,46.18,0,0,0-13.2-6.61,55.46,55.46,0,0,0-28.26-1.11,47.84,47.84,0,0,0-13,4.86,36.88,36.88,0,0,0-10.69,8.66,30.85,30.85,0,0,0-6.26,12.08,35.15,35.15,0,0,0-.66,13.21,45.68,45.68,0,0,0,3.91,12.65,73.16,73.16,0,0,0,10.42,16c1.32,1.5,2.88,3.28,4.63,5.25.84,1,1.87,1.95,2.88,3l3.18,3.14c1.17,1.11,2.44,2.14,3.67,3.22s2.45,2.21,3.8,3.17c2.65,2,5.27,4.08,8.14,5.87a126.45,126.45,0,0,0,18,10c3.2,1.37,6.4,2.83,9.74,4l2.49.91,1.25.45,1.27.4,5.09,1.57a171.43,171.43,0,0,0,21,4.6,226.68,226.68,0,0,0,43.15,2.36,333.62,333.62,0,0,0,42.21-4.43c-23.22,3.94-46.93,5.82-70.56,3.94a183.87,183.87,0,0,1-35-6.09,141.55,141.55,0,0,1-32.81-13.88,120.23,120.23,0,0,1-27.44-21.79L78,393.07c-1-1.1-2-2.17-2.9-3.35a86.15,86.15,0,0,1-5.26-7.23,54.27,54.27,0,0,1-7.41-16.59,34.76,34.76,0,0,1,.33-18.62,29.93,29.93,0,0,1,4.18-8.55,36.29,36.29,0,0,1,6.46-6.92,40.48,40.48,0,0,1,7.9-5,45.79,45.79,0,0,1,8.7-3.3,55.87,55.87,0,0,1,18.38-1.88A52.65,52.65,0,0,1,126.42,326a46.48,46.48,0,0,1,8.17,4.77,69.74,69.74,0,0,1,6.94,6.3,70.92,70.92,0,0,1,10.7,15.16A84.74,84.74,0,0,1,159,369.41c.88,3,1.48,6,2.13,9,.5,3,1.06,6,1.37,9.09a155.82,155.82,0,0,1,1.12,18.31c.05,6.11-.13,12.24-.61,18.3s-1,12.15-1.64,18.22a461.84,461.84,0,0,1-14.49,72.05,723,723,0,0,1-24,70.1c-18.13,46.13-39.67,91.13-59.15,137.14-9.61,23.08-19.48,46.17-28.46,69.55s-17,47.16-22.66,71.53a330.17,330.17,0,0,0-6.46,36.91,241.31,241.31,0,0,0-1.56,37.31,152.08,152.08,0,0,0,5.64,36.59c3.49,11.79,8.9,23,16.65,32.38A74.9,74.9,0,0,0,40,1018.37c1.23.89,2.42,1.82,3.73,2.6l1.92,1.23c.65.41,1.29.83,1.87,1.12a6.17,6.17,0,0,0,2.92.92,1.85,1.85,0,0,0,.85-.27,3.81,3.81,0,0,0,1-.92,10.82,10.82,0,0,0,1-1.56,14.11,14.11,0,0,0,.77-1.77,31.39,31.39,0,0,0,1.12-4.12,58.12,58.12,0,0,0,1-8.9,58.88,58.88,0,0,0-2-17.78,26.09,26.09,0,0,0-3.46-7.68,15.72,15.72,0,0,0-1.22-1.55,11.73,11.73,0,0,0-1.38-1.27A8.48,8.48,0,0,0,45,976.77a9.35,9.35,0,0,0-1.75-.35,6.65,6.65,0,0,0-.89,0,4.3,4.3,0,0,0-.88,0,8.4,8.4,0,0,0-3.2,1.06,15,15,0,0,0-5,5.92c-2.58,5.08-4,11.12-5,17.13s-1.57,12.23-2.05,18.45c-.24,3.12-.44,6.24-.75,9.45-.08.81-.18,1.63-.3,2.48l-.32,2.32-.63,4.63c-.46,3.08-.79,6.17-1.15,9.27l-.53,4.63-.42,4.65q-1.74,18.58-2,37.23a525,525,0,0,0,4.28,74.12c1.43,10.85,3.25,22.56,5.72,34.84S35.45,1227.78,39,1241c7,26.43,16.12,54.16,26.29,81.53S86.52,1377,97,1402.33s20.32,49.12,28.39,69.67c5.87,15.15,11.67,30.28,17.44,45.55s11.28,30.67,16.45,46.24,10,31.32,14.14,47.27,7.8,32.12,10.42,48.51a296.12,296.12,0,0,1,4.08,49.76,176.34,176.34,0,0,1-1.94,25.1,123.5,123.5,0,0,1-6.15,24.61,90.74,90.74,0,0,1-12,22.63c-.63.87-1.32,1.7-2,2.55s-1.33,1.69-2.06,2.48l-2.15,2.41-2.28,2.28-1.15,1.14-1.21,1.07-2.43,2.12-2.55,2c-.43.33-.85.67-1.28,1l-1.34.91-2.67,1.81c-1,.57-2,1.2-3,1.67a34.81,34.81,0,0,1-6.35,2.4,38.38,38.38,0,0,1-13.36,1.19,35.5,35.5,0,0,1-13-3.61,29.2,29.2,0,0,1-5.76-3.87,27.89,27.89,0,0,1-4.62-5.2,24.53,24.53,0,0,1-4.45-13.25l0-1.81.19-1.8a14.05,14.05,0,0,1,1.08-3.79,9.08,9.08,0,0,1,2.83-3.57,9.31,9.31,0,0,1,4.22-1.71,16.42,16.42,0,0,1,7.5,1,56.86,56.86,0,0,1,6,2.64c3.9,1.71,7.54,3.87,11.25,5.91,1.81,1.09,3.57,2.25,5.36,3.38.88.57,1.79,1.12,2.66,1.71l2.57,1.83c1.71,1.24,3.46,2.41,5.12,3.7l5,3.89c6.5,5.31,12.79,10.87,18.71,16.76,3,2.88,5.87,5.93,8.81,8.9s5.72,6.06,8.48,9.17c5.6,6.15,11,12.45,16.38,18.75l16,18.9,8,9.48,7.91,9.56c21,25.53,41.19,51.55,62.06,76.81,10.41,12.64,21,25.06,32,37.12l4.1,4.53,4.17,4.45,4.18,4.44c1.38,1.49,2.78,3,4.22,4.39l8.54,8.67,8.74,8.44,2,1.9,2,1.85,4,3.69c2.7,2.46,5.37,4.95,8.17,7.28l4.16,3.56c1.38,1.19,2.76,2.38,4.2,3.5l8.54,6.84c11.54,8.92,23.57,17.22,35.94,25s25.1,14.94,38.11,21.59,26.3,12.76,39.75,18.49c26.91,11.47,54.57,21.16,82.49,30s56.17,16.62,84.48,24.23,56.71,14.95,85,22.84,56.4,16.17,84.37,25q83.94,26.36,165.88,58.29,20.47,8,40.8,16.27c1.67.66,3.5,1.44,5.14,2.29s3.3,1.71,4.92,2.61c3.23,1.79,6.39,3.66,9.53,5.57q9.42,5.74,18.5,12a410.16,410.16,0,0,1,35.08,26.64c5.59,4.79,11,9.76,16.17,15.05a134.52,134.52,0,0,1,14.28,17,69.08,69.08,0,0,1,5.69,9.67,38.9,38.9,0,0,1,3.45,10.89,22.47,22.47,0,0,1-1.26,11.62,24.09,24.09,0,0,1-7.14,9.22c-.73.63-1.54,1.14-2.31,1.72s-1.62,1-2.43,1.5-1.67.89-2.5,1.34a15.46,15.46,0,0,1-2.77,1.16,16.2,16.2,0,0,1-6,.62,19.61,19.61,0,0,1-5.78-1.43,19.29,19.29,0,0,1-9-7.56,14.18,14.18,0,0,1-2-5.77,13.06,13.06,0,0,1,.79-6.11,16.5,16.5,0,0,1,8-8.67,21.79,21.79,0,0,1,11.43-2.33,26.05,26.05,0,0,1,11,3.56,43.64,43.64,0,0,1,8.93,7q2,2,3.8,4.1c1.22,1.41,2.31,2.89,3.48,4.34s2.21,3,3.27,4.48l1.59,2.27c.51.77,1,1.57,1.47,2.35a122.83,122.83,0,0,1,10,19.73,172,172,0,0,1,10.83,42.68c.94,7.29,1.56,14.61,1.79,22s.39,14.61.44,21.92a700.69,700.69,0,0,1-4.62,87.5c-1.73,14.51-4,29-6.87,43.28s-6.46,28.51-10.77,42.47a347.66,347.66,0,0,1-15.39,41,292.1,292.1,0,0,1-20.92,38.49c-2,3.08-4.1,6.05-6.16,9.07s-4.3,5.89-6.59,8.78a42.39,42.39,0,0,1-8,7.8,20.86,20.86,0,0,1-5,2.67,14.49,14.49,0,0,1-5.74.85,13.8,13.8,0,0,1-5.61-1.58,14.89,14.89,0,0,1-4.44-3.71,25.87,25.87,0,0,1-4.72-10.21,51.25,51.25,0,0,1,0-22.05,61.32,61.32,0,0,1,8-20.54,39,39,0,0,1,7.17-8.5,25.51,25.51,0,0,1,4.59-3.24,21,21,0,0,1,5.24-2.12,22.33,22.33,0,0,1,20.94,5.67,30.7,30.7,0,0,1,6.38,9.13,50.32,50.32,0,0,1,3.53,10.48,81.29,81.29,0,0,1,1.68,21.87c-.2,7.28-.73,14.55-1.49,21.8a332.64,332.64,0,0,1-7.62,43c-6.88,28.3-16.94,55.66-27.82,82.56s-22.72,53.42-33.62,80.28-20.92,54.11-27.89,82.23a351.37,351.37,0,0,0-7.93,42.65,198.94,198.94,0,0,0-.65,43.29c1.49,14.35,5,28.59,11.4,41.59a95.31,95.31,0,0,0,27,33.4,78.07,78.07,0,0,0,18.76,10.71c1.69.63,3.41,1.2,5.11,1.8s3.49.92,5.24,1.38,3.56.64,5.33,1a32.54,32.54,0,0,0,5.4.38,15.45,15.45,0,0,0,5.3-1,12,12,0,0,0,4.43-3,17.68,17.68,0,0,0,4.29-9.78,22.4,22.4,0,0,0-1.3-10.67,25.6,25.6,0,0,0-6-9,38,38,0,0,0-19.07-9.73,40.34,40.34,0,0,0-10.8-.79,35.28,35.28,0,0,0-10.58,2.25,53.84,53.84,0,0,0-9.62,5c-1.55.92-3,2.08-4.42,3.13-.71.57-1.39,1.16-2.09,1.74s-1.38,1.16-2,1.79l-2,1.86-1.89,1.95c-1.28,1.28-2.42,2.68-3.63,4-2.3,2.79-4.55,5.62-6.62,8.58-4.21,5.87-8,12-11.8,18.15l-11.55,18.29c-1.94,3-3.81,6.12-5.81,9.12l-6,9-6,9-3,4.5c-1,1.5-2.07,3-3.09,4.44l-12.42,17.69c-2,3-4.23,5.82-6.36,8.73l-6.43,8.68-6.42,8.67c-2.19,2.86-4.43,5.68-6.65,8.52-4.45,5.65-8.83,11.36-13.35,17l-13.77,16.61-3.45,4.16c-1.15,1.38-2.36,2.71-3.54,4.06l-7.13,8.1c-9.35,10.93-19.36,21.26-29.13,31.8l-15.2,15.28-3.8,3.82c-1.27,1.27-2.52,2.55-3.85,3.77l-7.85,7.37-7.85,7.38-3.93,3.68c-1.32,1.22-2.69,2.38-4,3.57L840,3529c-2.66,2.41-5.51,4.6-8.27,6.89l-8.34,6.79-8.34,6.8-8.58,6.49-8.59,6.48-4.29,3.24-2.14,1.62c-.73.53-1.47,1-2.2,1.54l-17.65,12.28-4.41,3.07-4.53,2.89-9.06,5.78-9.06,5.77-2.26,1.45-2.32,1.35-4.65,2.69-18.57,10.79c-6.27,3.43-12.58,6.81-19,10-9.51,4.81-19.18,9.34-29,13.51s-19.7,7.94-29.68,11.3c4.43-1.42,8.73-3,13-4.53s8.48-3.19,12.64-4.93a369.52,369.52,0,0,1-56.8,18.39c-28.56,6.72-58.1,9.44-87,6.14a205.16,205.16,0,0,1-81.85-27.29c-12.34-7.41-23.81-16.41-32.92-27.46a83.57,83.57,0,0,1-11.43-18,57,57,0,0,1-5.45-20.38c-.46-7,.67-14.2,4.21-20.15a25,25,0,0,1,6.84-7.59,26.07,26.07,0,0,1,9.33-4.19,34.73,34.73,0,0,1,20.39,1.7,32.85,32.85,0,0,1,15.86,12.79c.7,1.23,1.4,2.27,1.89,3.25L449,3560c.56,1.46.91,2.35,1.06,2.75.28.79-.16-.46-1.33-3.19l-1.12-2.27c-.45-.82-1-1.69-1.58-2.66a33.05,33.05,0,0,0-4.81-5.93,35,35,0,0,0-17.62-9,34.52,34.52,0,0,0-11.54-.28,26.89,26.89,0,0,0-11.12,4.31,24.83,24.83,0,0,0-7.89,9.06,31.49,31.49,0,0,0-3.36,11.53,50.37,50.37,0,0,0,3.05,22,78.82,78.82,0,0,0,7.69,15.18,77.18,77.18,0,0,1-8.17-16.8,52.39,52.39,0,0,1-2.66-15.9,37.18,37.18,0,0,1,1.63-11.14,24.61,24.61,0,0,1,1.09-2.93,8.6,8.6,0,0,1,.46-1,4.34,4.34,0,0,0-.32.74c-.19.47-.45,1.16-.76,2a34.76,34.76,0,0,0-1.4,6.29,29.05,29.05,0,0,1,4.42-11.95,26.23,26.23,0,0,1,3.52-4.27,22.17,22.17,0,0,1,4.1-3.11,23,23,0,0,1,4.44-2.09,26,26,0,0,1,4.64-1.21,30.33,30.33,0,0,1,4.77-.44,32.51,32.51,0,0,1,4.9.28,31.66,31.66,0,0,0-11.2.55,24.82,24.82,0,0,0-9.93,4.73,21.39,21.39,0,0,0-3.85,3.93,26,26,0,0,0-3,4.71,31.33,31.33,0,0,0-2.93,10.82,50.4,50.4,0,0,0,3.41,22.59,82.18,82.18,0,0,0,11.62,20.23,106.73,106.73,0,0,0,16.52,16.74,145.63,145.63,0,0,0,19.49,13.44A204.83,204.83,0,0,0,508,3661.94l5.88.94c2,.35,3.94.5,5.91.76,3.94.54,7.91.77,11.87,1.1,2,.14,4,.18,6,.27l3,.12c1,0,2,0,3,0l6,0,6-.2,3-.11,3-.2c2-.15,4-.25,6-.43,4-.42,7.93-.75,11.87-1.34a309.48,309.48,0,0,0,46.74-10.11c7.64-2.33,15.25-4.76,22.74-7.57,3.77-1.32,7.47-2.85,11.21-4.28s7.42-3,11.07-4.63c7.36-3.14,14.59-6.59,21.8-10.09s14.29-7.24,21.3-11.13c13.89-8,27.89-15.9,41.27-24.78l10.15-6.49c3.33-2.24,6.59-4.58,9.89-6.86l9.88-6.9,4.94-3.45,4.81-3.63,19.21-14.57L833,3533.13A916.91,916.91,0,0,0,903.38,3467l16.48-17.68c1.39-1.45,2.7-3,4-4.5l4-4.54,8-9.09c5.39-6,10.41-12.32,15.58-18.51l7.71-9.32c2.52-3.15,5-6.35,7.46-9.53-2.32,2.88-5,6.39-8.18,10.24l-10.56,12.66-5.88,7.07c-2,2.44-4.18,4.8-6.33,7.28l-13.33,15.15c-4.58,5.07-9.34,10.05-13.94,15l-6.85,7.34c-2.29,2.38-4.61,4.66-6.84,6.92L882,3488.36c-2,2-4,3.82-5.81,5.58l-5.28,5a803.46,803.46,0,0,1-98.59,80c-2.15,1.48-4.27,3-6.42,4.45l-6.56,4.2L746.24,3596,743,3598l-1.62,1-1.67,1-6.63,3.87-13.2,7.68a484.34,484.34,0,0,1-53.42,26.4c-24.94,10.43-51,18.76-77.78,23.21a255.38,255.38,0,0,1-40.56,3.67,224.38,224.38,0,0,1-40.58-3.35,203.15,203.15,0,0,1-39.14-11.17c-1.58-.64-3.18-1.2-4.73-1.91l-4.65-2.08-2.33-1c-.77-.35-1.52-.76-2.29-1.13l-4.56-2.28a166.85,166.85,0,0,1-17.51-10.33c-11.17-7.59-21.4-16.69-29.12-27.61s-13.13-23.71-12.63-36.74c.23-6.44,2.07-12.78,5.91-17.67a23.88,23.88,0,0,1,15.74-8.94c12.46-1.84,26.17,3.91,32.76,14.69a40.87,40.87,0,0,1,4.11,8.59,48.42,48.42,0,0,1,2.06,9.39,57,57,0,0,1,.16,9.69,60.07,60.07,0,0,1-1.55,9.59,63.48,63.48,0,0,1-7.57,17.9c-.81,1.42-1.75,2.77-2.64,4.14s-1.88,2.69-2.9,4c-2,2.62-4.14,5.12-6.37,7.55-17.92,19.55-41.93,33-60.28,53.35A120.56,120.56,0,0,0,348.44,3714a181.44,181.44,0,0,0-10.52,38.7c-3.32,19.32-4.7,38.65-7.66,57.41a219.21,219.21,0,0,1-5.88,27.56,138.44,138.44,0,0,1-10.13,25.62c-5.48,10.39-6.78,12.75-5.07,9.35l4.67-9.11a140.52,140.52,0,0,0,7-16.09,174.07,174.07,0,0,0,6.23-22.52c1.76-8.4,3.12-17.58,4.31-27.16C333.75,3778.57,335.45,3757.69,340,3738.32ZM580.8,2153.9c67.88,22.08,135.57,37.58,205,57.84,24.5,7.06,48.71,14.43,73,22.21,30.06,9.6,62.16,20.46,95.18,32.37q48,17.37,95.16,36.67c2,.82,3.94,1.54,5.9,2.45s3.81,1.9,5.68,2.92c3.73,2,7.39,4.21,11,6.42q10.88,6.66,21.31,14a369.41,369.41,0,0,1,39.87,31.65,176.77,176.77,0,0,1,17.49,18.5,90.81,90.81,0,0,1,7.3,10.44,48.13,48.13,0,0,1,5.12,11.66,28.51,28.51,0,0,1,1,6.3,21.44,21.44,0,0,1-.8,6.33,20.07,20.07,0,0,1-2.82,5.72,22.91,22.91,0,0,1-2.06,2.44,24,24,0,0,1-2.35,2.16c-.81.7-1.71,1.27-2.56,1.91s-1.81,1.12-2.74,1.64-1.88,1-2.85,1.43a13,13,0,0,1-3.06.92,17.25,17.25,0,0,1-12.19-2.78c-3.54-2.3-6.45-5.93-7-10.21a12.17,12.17,0,0,1,0-3.19,12.89,12.89,0,0,1,.9-3,14,14,0,0,1,3.79-5.07,19.54,19.54,0,0,1,11.73-4.4,23.29,23.29,0,0,1,12.17,3.19,43.08,43.08,0,0,1,9.92,7.91,101.53,101.53,0,0,1,8.09,9.83,121,121,0,0,1,12.62,22.09A120.83,120.83,0,0,0,1171.9,2422a101.52,101.52,0,0,0-8.15-9.92,42.51,42.51,0,0,0-10.11-8,23,23,0,0,0-12.46-3,19.22,19.22,0,0,0-11.87,4.93,13.67,13.67,0,0,0-3.59,5.47,11.51,11.51,0,0,0-.37,6.55,16.14,16.14,0,0,0,8.21,10,16.62,16.62,0,0,0,13,1.53,15.05,15.05,0,0,0,1.57-.62l1.48-.76a31.93,31.93,0,0,0,2.91-1.64c1-.54,1.84-1.26,2.76-1.89.45-.33.86-.72,1.29-1.08a13.3,13.3,0,0,0,1.24-1.13,22.07,22.07,0,0,0,4.06-5.38,18.54,18.54,0,0,0,2-6.47,22.59,22.59,0,0,0,.18-3.39,27.64,27.64,0,0,0-.36-3.39c-.15-1.12-.47-2.21-.73-3.32s-.65-2.17-1.09-3.22a59.11,59.11,0,0,0-6.41-12,112.67,112.67,0,0,0-8.36-10.79,209.22,209.22,0,0,0-19.55-19.38,410,410,0,0,0-45-33.88c-8-5.21-16.15-10.33-24.8-14.86-1.08-.56-2.18-1.1-3.31-1.6s-2.26-.93-3.39-1.4l-6.79-2.76c-4.54-1.84-9.09-3.7-13.69-5.51-36.71-14.64-75.13-29-115.69-43q39.3,13.53,77.47,28,19.1,7.24,37.91,14.75c6.29,2.46,12.52,5,18.76,7.54l4.67,1.89c1.6.67,3.11,1.43,4.61,2.21,3,1.56,5.92,3.22,8.82,4.92,11.57,6.84,22.7,14.26,33.5,22.06a361.39,361.39,0,0,1,31,25c4.88,4.48,9.61,9.11,14,14a110.23,110.23,0,0,1,12,15.75,56.4,56.4,0,0,1,4.44,8.9,32.19,32.19,0,0,1,2.19,9.76,20.19,20.19,0,0,1-2,9.84,22.91,22.91,0,0,1-6.36,7.72,39.92,39.92,0,0,1-8.52,5.1,15.73,15.73,0,0,1-10,.41,19.41,19.41,0,0,1-8.6-5.06,14.13,14.13,0,0,1-4.21-9,12.25,12.25,0,0,1,.82-5,15.12,15.12,0,0,1,2.63-4.31,18,18,0,0,1,3.89-3.18,21.1,21.1,0,0,1,4.57-2,22.66,22.66,0,0,1,4.9-.85,22.4,22.4,0,0,1,5,.35,27.69,27.69,0,0,1,4.72,1.45,33.49,33.49,0,0,1,4.38,2.25,44.64,44.64,0,0,1,7.62,6.12,69.23,69.23,0,0,1,6.4,7.3c2.06,2.49,3.85,5.18,5.7,7.82.88,1.35,1.7,2.74,2.56,4.11.41.69.86,1.36,1.24,2.06l1.16,2.13c.74,1.42,1.59,2.8,2.25,4.26l2.09,4.35c.66,1.47,1.26,3,1.89,4.44.3.74.63,1.47.92,2.22l.83,2.26a150.27,150.27,0,0,1,5.57,18.39A207.6,207.6,0,0,1,1199,2508c.55,12.72.68,25.41.59,38.08a689.32,689.32,0,0,1-4.68,75.59,498.71,498.71,0,0,1-14.29,73.92,345,345,0,0,1-27.32,69.76,263.69,263.69,0,0,1-19.82,31.74l-2.8,3.76c-.92,1.25-1.86,2.5-2.87,3.69a40,40,0,0,1-6.64,6.49,19.92,19.92,0,0,1-4,2.38,13.87,13.87,0,0,1-4.4,1.26,13.12,13.12,0,0,1-6.7-1.08,7,7,0,0,1-1-.55,9.84,9.84,0,0,1-1-.61,17.76,17.76,0,0,1-5.49-7.25,34.56,34.56,0,0,1-2.39-8.94,53.32,53.32,0,0,1,.92-18.5,60.77,60.77,0,0,1,6.53-17.35,42.43,42.43,0,0,1,5.43-7.5,27.77,27.77,0,0,1,7.18-5.74,20.17,20.17,0,0,1,8.74-2.5,21.31,21.31,0,0,1,16.45,6.76,30.14,30.14,0,0,1,5.15,7.6,55.68,55.68,0,0,1,4.82,17.87,82.76,82.76,0,0,1,.54,9.31c0,3.11-.21,6.24-.3,9.36a304,304,0,0,1-4.15,37.3c-2.21,12.34-5.09,24.57-8.49,36.66-.88,3-1.68,6.06-2.64,9.06l-2.81,9-3,9c-1,3-2.1,5.94-3.14,8.92-4.28,11.86-8.88,23.63-13.66,35.35-9.6,23.44-19.87,46.7-29.61,70.33-11.75,28.59-22.76,57.73-30.41,88a347.73,347.73,0,0,0-8.53,46.12c-1.67,15.6-2,31.47.24,47.16a130.9,130.9,0,0,0,5.38,23.13,103.51,103.51,0,0,0,10,21.64c8.32,13.59,20,25.37,34.2,33a71.82,71.82,0,0,0,22.83,7.7,33.33,33.33,0,0,0,6.12.57,17.15,17.15,0,0,0,6.31-1.11,13.62,13.62,0,0,0,5.26-3.84,17.71,17.71,0,0,0,3.13-5.58,21.06,21.06,0,0,0,1.17-6.22,23.64,23.64,0,0,0-.57-6.27,22.92,22.92,0,0,0-2.2-5.9,25.91,25.91,0,0,0-3.58-5.15,34.11,34.11,0,0,0-9.8-7.56,42.29,42.29,0,0,0-11.64-4.07,41,41,0,0,0-17.32.24,32,32,0,0,0-4.18,1.28c-1.37.51-2.65,1.15-4,1.73s-2.54,1.35-3.81,2-2.42,1.54-3.63,2.31a73.79,73.79,0,0,0-12.73,11.38,129.26,129.26,0,0,0-10.4,13.35c-3.19,4.63-6.16,9.37-9.09,14.12s-5.91,9.42-8.85,14.13l-8.87,14.06-9.17,13.83a1129.34,1129.34,0,0,1-78.91,105.19c22.21-26.13,43.12-53.33,62.83-81.34l7.37-10.52,1.85-2.63,1.78-2.67,3.56-5.34,7.11-10.7,3.56-5.34c1.18-1.79,2.29-3.62,3.45-5.42l13.7-21.72c2.24-3.65,4.51-7.3,6.87-10.89s4.79-7.15,7.42-10.57A85.14,85.14,0,0,1,1079,3240.9a58.21,58.21,0,0,1,11.46-6.21,36.66,36.66,0,0,1,12.88-2.4,42.11,42.11,0,0,1,24.68,7.58,28.91,28.91,0,0,1,8.74,9.78,23.54,23.54,0,0,1,2.28,6.23,25.46,25.46,0,0,1,.41,6.63,20.69,20.69,0,0,1-1.6,6.47,15.58,15.58,0,0,1-3.85,5.5,12.71,12.71,0,0,1-6,3.06,22.12,22.12,0,0,1-6.63.28c-2.18-.17-4.29-.65-6.43-1a31.46,31.46,0,0,1-3.16-.74l-3.14-.82-3.06-1.05c-1-.38-2.07-.67-3-1.13-2-.9-4-1.65-5.89-2.71a85.2,85.2,0,0,1-20.84-15.2,99.43,99.43,0,0,1-15.69-20.43c-1.14-1.83-2-3.79-3.06-5.69s-1.8-3.91-2.7-5.86-1.59-4-2.3-6l-1-3.06-.51-1.53-.44-1.55a141.26,141.26,0,0,1-4.78-25.28c-1.58-17.1-.55-34.34,2-51.26,5.07-33.9,15.47-66.72,27.74-98.58s26.37-63,39.29-94.63,24.62-63.8,31.7-97.22a303.86,303.86,0,0,0,6.36-50.73,83.23,83.23,0,0,0-1.93-25.42,44.78,44.78,0,0,0-4.73-11.84,25.31,25.31,0,0,0-8.84-9.08,21.81,21.81,0,0,0-12.31-2.85,20.22,20.22,0,0,0-6.22,1.45,24.71,24.71,0,0,0-5.53,3.23,36.56,36.56,0,0,0-8.46,9.54,57.16,57.16,0,0,0-5.48,11.56,65.06,65.06,0,0,0-3,12.45,52.22,52.22,0,0,0-.22,12.8,33.32,33.32,0,0,0,3.63,12.25,16.13,16.13,0,0,0,4.1,4.94,12.71,12.71,0,0,0,5.85,2.62,13,13,0,0,0,6.4-.51,20.22,20.22,0,0,0,5.67-3,46,46,0,0,0,8.88-9.24c2.53-3.44,5.16-6.81,7.51-10.37,1.19-1.78,2.46-3.5,3.59-5.31l3.43-5.41c4.44-7.29,8.68-14.72,12.43-22.4,2-3.79,3.68-7.7,5.5-11.57.87-1.94,1.69-3.92,2.54-5.88s1.68-3.92,2.44-5.92l2.36-5.95,2.2-6,1.09-3,1-3,2-6.07,1.89-6.12.94-3.06.87-3.08,1.74-6.17,1.6-6.2a493.27,493.27,0,0,0,9.93-50.26,683.54,683.54,0,0,0,6.6-102.2c-.07-8.54-.19-17.08-.59-25.63a221,221,0,0,0-2.69-25.53c-2.8-16.88-7.8-33.55-16-48.67a116.26,116.26,0,0,0-14.73-21.13,49.36,49.36,0,0,0-9.79-8.54,26.32,26.32,0,0,0-12.36-4.35,21,21,0,0,0-12.7,3.39,15.9,15.9,0,0,0-4.69,4.83,9.06,9.06,0,0,0-.8,1.51,9.92,9.92,0,0,0-.6,1.6,11.36,11.36,0,0,0-.58,3.38,12.89,12.89,0,0,0,1.68,6.59,17.21,17.21,0,0,0,4.38,5.1,18.79,18.79,0,0,0,12.54,4.15,16.1,16.1,0,0,0,3.36-.59,16.52,16.52,0,0,0,3.09-1.32,31.06,31.06,0,0,0,2.87-1.59l1.4-.85,1.33-1a23.15,23.15,0,0,0,8.27-10.25,22.65,22.65,0,0,0,.65-13.18A44.91,44.91,0,0,0,1159,2390a110.16,110.16,0,0,0-15.73-20.48,236.76,236.76,0,0,0-18.74-17.66,419.55,419.55,0,0,0-41.24-30.7c-7.18-4.7-14.45-9.24-22-13.41-1.89-1-3.79-2-5.77-3s-4-1.66-6-2.49l-11.9-4.83Q990,2278.31,941.61,2261q-96.83-34.56-196.35-61.62c-33.14-9-66.4-17.55-99.48-26.77s-66-19.12-98.27-30.86-63.89-25.36-93.93-42-58.39-36.34-83.71-59.56c-12.7-11.57-24.88-23.75-36.56-36.4s-22.95-25.71-34-39c-22.09-26.52-43.24-53.91-65.28-80.69-2.77-3.33-5.51-6.69-8.3-10l-8.4-9.95-16.82-19.81q-8.46-9.9-17.22-19.58c-5.92-6.4-12-12.7-18.28-18.74-1.57-1.52-3.22-3-4.82-4.45l-2.42-2.22-2.5-2.13c-1.68-1.41-3.31-2.87-5-4.24l-5.18-4.07c-.85-.69-1.74-1.33-2.64-2l-2.69-1.92-2.69-1.91c-.91-.62-1.85-1.19-2.78-1.79-1.87-1.16-3.69-2.41-5.61-3.5l-5.79-3.23c-1-.56-2-1-3-1.48l-3-1.42c-1-.47-2-1-3-1.42a27.47,27.47,0,0,0-3.38-1.18,17.28,17.28,0,0,0-3.76-.6,10.37,10.37,0,0,0-4.2.68,8.29,8.29,0,0,0-3.6,2.84,11,11,0,0,0-1.66,3.83,22.2,22.2,0,0,0,1.84,14.31,26.93,26.93,0,0,0,9.31,10.71,30.2,30.2,0,0,0,6.32,3.18c1.09.45,2.23.72,3.35,1.07s2.27.54,3.42.69a37.23,37.23,0,0,0,20.55-2.51c.54-.23,1.06-.51,1.59-.76a14.52,14.52,0,0,0,1.56-.83c.5-.3,1-.59,1.51-.9l1.39-1a76,76,0,0,0,10.5-8.43,79.91,79.91,0,0,0,8.89-10.12,92.77,92.77,0,0,0,7.07-11.43,108,108,0,0,0,9-25.13,156,156,0,0,0,3.61-26.29A224.08,224.08,0,0,0,187,1692a365.83,365.83,0,0,0-7.23-52.16c-3.54-17.2-8-34.18-13-51s-10.56-33.44-16.46-50-12.18-32.89-18.39-49.25-12.66-32.74-19.34-49q6.43,15.75,12.61,31.58l6.08,15.87q3,7.92,6,15.83c8,21.12,15.79,42.34,22.75,63.8s13.17,43.15,18,65.16,8.34,44.36,9,67c.14,5.64.1,11.3-.16,16.95s-.83,11.3-1.65,16.91a118.45,118.45,0,0,1-9.44,32.71,84.93,84.93,0,0,1-8.73,14.78,77.56,77.56,0,0,1-11.7,12.59c-1.06,1-2.2,1.84-3.34,2.72l-1.7,1.32-1.78,1.21a35,35,0,0,1-7.72,4.28,37.2,37.2,0,0,1-17.43,2.32,32.45,32.45,0,0,1-16.5-6.36,25.75,25.75,0,0,1-9.42-15.15,21.61,21.61,0,0,1-.34-4.62,16.91,16.91,0,0,1,.75-4.68,10.11,10.11,0,0,1,1.13-2.38,8,8,0,0,1,1.94-2,8.58,8.58,0,0,1,2.51-1.22,10.86,10.86,0,0,1,2.61-.36,16.24,16.24,0,0,1,4.71.73,26.62,26.62,0,0,1,4.14,1.62l3.84,1.82,1.92.91,1,.46.93.52a168.39,168.39,0,0,1,28,18.89,290.59,290.59,0,0,1,24.57,23c15.53,16.16,29.65,33.49,44.12,50.44s28.42,34.47,42.36,51.91c27.86,34.89,55.73,69.91,87.23,101.7,15.75,15.87,32.3,31,50.25,44.42,8.9,6.81,18.19,13.1,27.6,19.21,4.77,3,9.48,6,14.36,8.81,2.43,1.41,4.82,2.89,7.28,4.25l7.37,4.1c2.44,1.39,4.95,2.67,7.44,4s5,2.65,7.49,3.9c5.05,2.49,10.06,5.06,15.19,7.41,10.17,4.87,20.56,9.31,31,13.66Q548.32,2143.45,580.8,2153.9Zm-122.12-50c-31.93-17.11-62-37.62-88.63-61.86-13.37-12.07-26.08-24.82-38.28-38s-23.89-26.82-35.34-40.61c-22.91-27.58-44.76-55.9-67.57-83.33-2.83-3.45-5.73-6.84-8.6-10.25l-8.65-10.18c-5.76-6.78-11.5-13.57-17.32-20.3s-11.77-13.34-17.89-19.79-12.47-12.67-19.11-18.59a185.54,185.54,0,0,0-29.19-21.69l-4-2.22c-1.35-.72-2.64-1.54-4-2.15l-4.15-2a37.72,37.72,0,0,0-4.24-1.86,17.85,17.85,0,0,0-4.68-1,8.24,8.24,0,0,0-4.92,1.1,6.73,6.73,0,0,0-1.91,1.81,8.74,8.74,0,0,0-1.11,2.28,16.07,16.07,0,0,0-.7,4.77,23.39,23.39,0,0,0,7.54,16.89,30,30,0,0,0,17,7.55,36.08,36.08,0,0,0,18.42-2.51c.73-.29,1.43-.67,2.14-1s1.37-.78,2.05-1.17c1.31-.84,2.57-1.73,3.85-2.6s2.45-1.88,3.68-2.82,2.34-2,3.51-3A82.1,82.1,0,0,0,177,1760.71a130.63,130.63,0,0,0,8.07-36,220.83,220.83,0,0,0,.08-36.82c-.44-6.12-1.11-12.21-1.91-18.28s-1.75-12.12-2.85-18.14a606.62,606.62,0,0,0-17.79-70.85c-7.19-23.16-15.34-45.89-23.82-68.3-4.26-11.2-8.48-22.34-12.78-33.44l-3.21-8.31c-1.1-2.75-2.2-5.51-3.29-8.26q-3.27-8.25-6.62-16.44c-8.88-21.84-17.93-43.37-26.7-64.71-17.55-42.68-33.77-84.81-45.85-126.7-6-21-10.79-41.85-14.54-62.52-1.8-10.34-3.34-20.62-4.5-30.85-.64-5.1-1.07-10.2-1.57-15.26s-.83-10.11-1.08-15.13a507,507,0,0,1,0-58.86c.35-4.77.6-9.52,1.07-14.21.22-2.35.41-4.69.66-7s.53-4.65.79-7c.51-4.62,1.22-9.17,1.8-13.74s.75-9.14,1.13-13.64c.74-9,1.7-17.84,4-26.2a34.35,34.35,0,0,1,5.37-11.53,12.33,12.33,0,0,1,4.75-3.84,11,11,0,0,1,6-.69,11.55,11.55,0,0,1,5.48,2.41A16.49,16.49,0,0,1,53.57,981a35.45,35.45,0,0,1,4.06,11.39,64,64,0,0,1,1.11,11.91,62.13,62.13,0,0,1-1,11.69,65.22,65.22,0,0,0,.89-15.79,50.84,50.84,0,0,0-3.14-15.45,23.36,23.36,0,0,0-4-6.72,12.57,12.57,0,0,0-6.51-4,10.86,10.86,0,0,0-7.5.89A14.45,14.45,0,0,0,32,980.39c-2.76,4.49-4.21,9.69-5.35,14.86a144.26,144.26,0,0,0-2.33,15.8c-.53,5.31-.85,10.65-1.3,16s-1.45,10.62-2.05,16a505,505,0,0,0,1.35,128.69c1.45,10.7,3.19,21.38,5.38,32l1.63,7.95.82,4,.41,2,.48,2q1.89,7.9,3.8,15.81c5.41,21,11.85,41.81,19,62.42,1.83,5.14,3.55,10.31,5.47,15.42s3.79,10.24,5.69,15.36,3.93,10.2,5.9,15.31,4,10.17,6.06,15.26c8.16,20.33,16.61,40.59,25,60.92s16.8,40.75,24.75,61.39,15.91,41.3,23.33,62.24,14.29,42.13,20.11,63.68,10.61,43.45,13.37,65.73c.69,5.57,1.21,11.16,1.61,16.76s.57,11.23.6,16.86-.24,11.26-.7,16.89a146.33,146.33,0,0,1-2.32,16.77c-2.2,11.07-5.72,22-11.38,31.91a77.45,77.45,0,0,1-22.69,25.22c-1.19.79-2.32,1.64-3.57,2.38a31.47,31.47,0,0,1-3.87,2,33.63,33.63,0,0,1-8.34,2.35,36,36,0,0,1-17.15-1.52,26.17,26.17,0,0,1-13.66-10.48,23.36,23.36,0,0,1-3.35-8.12,20.46,20.46,0,0,1-.36-4.42,16.29,16.29,0,0,1,.69-4.44,7.4,7.4,0,0,1,2.69-3.88,7.77,7.77,0,0,1,4.54-1.34,15.94,15.94,0,0,1,4.44.74,27.68,27.68,0,0,1,4,1.62l3.88,1.83c1.29.62,2.6,1.19,3.83,1.92l3.74,2.08c1.25.7,2.52,1.36,3.71,2.16A191.24,191.24,0,0,1,157.29,1801a198.41,198.41,0,0,0-24.48-18.75c-4.05-2.69-8.23-4.92-12.26-7.08l-6.12-2.89a21.88,21.88,0,0,0-6.41-2.07,10.32,10.32,0,0,0-3.46,0,7.05,7.05,0,0,0-3.22,1.49,7.15,7.15,0,0,0-2,2.83,12.09,12.09,0,0,0-.8,3.14,20.72,20.72,0,0,0,2,11.76,25.26,25.26,0,0,0,6.81,8.71,28.77,28.77,0,0,0,9,4.85,35.82,35.82,0,0,0,17.69,1.15,34.45,34.45,0,0,0,7.41-2.21,33.5,33.5,0,0,0,6-3.43,74.11,74.11,0,0,0,14.73-13,70.21,70.21,0,0,0,4.83-6.12c.19-.28.12-.17-.22.31l-.71,1c-.32.42-.71.92-1.18,1.5l-1.6,2-2.15,2.43c-.77.91-1.7,1.81-2.7,2.8l-1.56,1.55-1.77,1.55c-.61.53-1.22,1.1-1.89,1.65l-2.11,1.63c-1.42,1.17-3.06,2.2-4.74,3.36a13.41,13.41,0,0,1-1.32.83c-.46.27-.92.55-1.4.81-1,.47-2,1-3.05,1.39s-2.17.77-3.3,1.14-2.33.61-3.56.79a36.11,36.11,0,0,1-15.93-.76,30.35,30.35,0,0,1-8.17-3.63,25.75,25.75,0,0,1-3.72-2.93,27.54,27.54,0,0,1-3.19-3.68,27.88,27.88,0,0,1-2.48-4.37,23.47,23.47,0,0,1-1.51-5,19.41,19.41,0,0,1-.23-5.34,11.38,11.38,0,0,1,1.67-5.4,6.81,6.81,0,0,1,2.25-2.08,7.37,7.37,0,0,1,2.93-.88,14.51,14.51,0,0,1,5.8.8,41,41,0,0,1,5.3,2.27c1.73.84,3.52,1.63,5.26,2.53,3.43,1.93,7,3.77,10.42,6.06l2.61,1.66,1.32.84,1.27.91,5.17,3.68A245,245,0,0,1,162.78,1806c6.68,6.32,13.32,13.14,20,20.38s13.24,14.93,20,22.87l20.82,24.54c7.1,8.43,14.26,17.19,21.56,26.2,14.58,18,29.62,37.1,45.67,56.68,8,9.76,16.31,19.68,25,29.56s17.7,19.78,27.13,29.61c4.79,4.84,9.56,9.78,14.6,14.53l3.75,3.61,1.88,1.81,1.94,1.76,7.77,7.07a424.94,424.94,0,0,0,33.45,26.75l8.32,5.85c3.41,2.24,7.33,4.9,11.78,7.75C435.32,2090.65,446.29,2097.18,458.68,2103.87Z"/><path class="cls-2" d="M1075.62,3244.91c-7.7,6.37-13.93,14.34-19.53,22.61-2.8,4.15-5.47,8.39-8.11,12.65s-5.35,8.48-8,12.73l-8,12.72c-2.7,4.23-5.55,8.37-8.31,12.56l-8.36,12.54c-2.82,4.16-5.76,8.24-8.64,12.36a1087,1087,0,0,1-74.51,95,910.68,910.68,0,0,1-85.42,85.17,771.56,771.56,0,0,1-96.3,71.67c25.92-15.89,49.06-32.78,72.5-51.37l8.79-7.1c2.93-2.41,6-4.73,8.82-7.31l17.77-15.47c11.81-10.84,24.15-22.2,36.67-35l6.42-6.42c2.16-2.13,4.18-4.41,6.28-6.61l12.54-13.38c1-1.12,2.11-2.22,3.13-3.37l3.05-3.46,6.12-6.94,6.14-7c2-2.32,4.12-4.63,6.08-7.05l12-14.39c2-2.42,4-4.78,6-7.26l5.81-7.41,11.67-14.9,11.32-15.28,5.69-7.66c1.86-2.58,3.67-5.21,5.51-7.81l11-15.71c3.63-5.28,7.13-10.66,10.71-16s7.18-10.69,10.57-16.18l10.36-16.38c3.46-5.47,6.78-11,10.37-16.4a139.68,139.68,0,0,1,11.69-15.44,84.79,84.79,0,0,1,6.8-6.87,64.77,64.77,0,0,1,7.69-5.83c5.42-3.44,11.38-6.24,17.78-6.84a41.16,41.16,0,0,1,18.9,2.47,33,33,0,0,1,15.22,11.16,21.49,21.49,0,0,1,4.2,13.32,18.37,18.37,0,0,1-.62,4.67,15.28,15.28,0,0,1-4.69,7.89,11.24,11.24,0,0,1-4,2.14,16.13,16.13,0,0,1-4.61.61,30.79,30.79,0,0,1-4.77-.39l-4.76-.83c-1.57-.37-3.12-.8-4.68-1.2a23.78,23.78,0,0,1-2.31-.73l-2.28-.79a81.66,81.66,0,0,1-31.54-21.77,99,99,0,0,1-19.73-32.91,136.71,136.71,0,0,1-7.48-37.66,212.88,212.88,0,0,1,1.46-38.29,347.93,347.93,0,0,1,6.94-37.48,496.32,496.32,0,0,1,16-52.27c6.17-17.18,13.07-34.13,20.17-51,14.19-33.78,29.26-67.4,41.4-102.32a464.14,464.14,0,0,0,15.15-53.41,306.48,306.48,0,0,0,6.73-55.31,83.62,83.62,0,0,0-.56-14.13,62.25,62.25,0,0,0-3.27-13.88,35.16,35.16,0,0,0-7.52-12.44,23.68,23.68,0,0,0-13.09-6.84,22.34,22.34,0,0,0-7.52,0,23.21,23.21,0,0,0-7.08,2.52,33.11,33.11,0,0,0-10.72,9.92,54.21,54.21,0,0,0-6.68,12.74,65.86,65.86,0,0,0-3.54,13.89,52.72,52.72,0,0,0-.17,14.42,31.8,31.8,0,0,0,4.87,13.9,15.77,15.77,0,0,0,5.83,5.23c.59.3,1.23.52,1.85.78a16.75,16.75,0,0,0,1.94.5,14.85,14.85,0,0,0,4,.26,17.66,17.66,0,0,0,7.39-2.44,30.12,30.12,0,0,0,5.89-4.55,55.67,55.67,0,0,0,4.82-5.41c1.46-1.88,2.82-3.77,4.24-5.66.69-.95,1.41-1.88,2.09-2.84l2-2.91c1.31-2,2.71-3.85,4-5.85a282.17,282.17,0,0,0,14.13-24.43c4.34-8.35,8.16-17,11.75-25.67s6.67-17.62,9.57-26.58,5.34-18.07,7.62-27.21,4.17-18.39,5.89-27.66c6.75-37.13,9.53-74.95,9.71-112.77,0-9.46-.07-18.92-.36-28.39a233.16,233.16,0,0,0-2.44-28.49c-2.84-18.87-8.32-37.62-17.87-54.46-1.18-2.11-2.51-4.13-3.76-6.2s-2.75-4-4.17-5.95-3-3.82-4.53-5.68a67.19,67.19,0,0,0-5.08-5.34,38,38,0,0,0-12.71-8.17,30,30,0,0,0-3.76-1.08c-.66-.11-1.32-.22-2-.31s-1.33-.11-2-.12a23.19,23.19,0,0,0-7.83,1.26,20.76,20.76,0,0,0-7,4,16,16,0,0,0-4.61,6.92,13.86,13.86,0,0,0-.14,8.5,17.06,17.06,0,0,0,4.33,7,20.89,20.89,0,0,0,6.69,4.47,19.35,19.35,0,0,0,8,1.58,16.29,16.29,0,0,0,4.14-.59,15.85,15.85,0,0,0,2-.71l.49-.21.42-.22.83-.43,1.67-.86,1.63-1c1.1-.61,2.1-1.43,3.15-2.16a28.88,28.88,0,0,0,5.47-5.62,21.83,21.83,0,0,0,3.36-7.29c.14-.66.33-1.32.41-2l.22-2,0-2c0-.67-.08-1.31-.12-2a33.08,33.08,0,0,0-1.69-7.53,59.4,59.4,0,0,0-6.8-13.25,113.66,113.66,0,0,0-8.94-11.56,213.5,213.5,0,0,0-20.63-20.29c-7.26-6.31-14.79-12.28-22.51-18s-15.62-11.18-23.68-16.41q-6.06-3.93-12.26-7.63c-4.15-2.46-8.31-4.87-12.76-7.05-1.09-.53-2.36-1.08-3.43-1.5l-3.33-1.35-6.66-2.69q-6.66-2.71-13.34-5.35l-13.37-5.29-13.41-5.2c-17.92-6.87-35.9-13.62-54-20.1S913,2249.4,894.73,2243.3c-9.12-3.1-18.29-6.05-27.45-9.06s-18.35-5.89-27.57-8.72q-27.62-8.62-55.49-16.59c-37.14-10.72-74.63-20.31-112-30.35s-74.68-20.56-111.28-33.27-72.55-27.5-106.46-46.27a460.67,460.67,0,0,1-56-36.29c-21.56-16.25-43-36.74-60.44-55.24,16.78,17.79,34.37,34.82,53.41,49.92l3.56,2.85c1.2.93,2.42,1.83,3.63,2.75l7.3,5.46c5,3.49,9.88,7.08,15,10.37s10.21,6.58,15.35,9.81c2.59,1.58,5.22,3.09,7.83,4.63l3.92,2.31,4,2.21c42.4,23.73,87.85,41.3,133.91,56s92.93,26.74,139.54,39.17,92.9,25.76,138.59,40.53,90.89,30.67,135.52,47.77l16.7,6.47,16.66,6.59,16.59,6.7,4.15,1.68c1.42.57,2.88,1.26,4.23,1.94,2.71,1.38,5.34,2.84,7.95,4.35,10.39,6,20.4,12.57,30.19,19.43s19.31,14.12,28.46,21.85a214.48,214.48,0,0,1,25.68,25.21,92.82,92.82,0,0,1,10.43,14.94,48.13,48.13,0,0,1,3.68,8.54,29.42,29.42,0,0,1,1.47,9.44,21.21,21.21,0,0,1-2.39,9.49,24.31,24.31,0,0,1-6.2,7.42,40.15,40.15,0,0,1-7.93,5,15.75,15.75,0,0,1-4.84,1.54,17.36,17.36,0,0,1-5,0,20.52,20.52,0,0,1-9.06-3.78,17.88,17.88,0,0,1-6.17-7.79,13.88,13.88,0,0,1-.94-5.12,9.5,9.5,0,0,1,.08-1.31,9.13,9.13,0,0,1,.21-1.29,8.63,8.63,0,0,1,.33-1.26c.14-.41.25-.83.42-1.22a16.46,16.46,0,0,1,2.68-4.35,18.65,18.65,0,0,1,3.81-3.25,20.33,20.33,0,0,1,4.43-2.14,22.68,22.68,0,0,1,4.74-1.11,23.5,23.5,0,0,1,4.89-.05,24.35,24.35,0,0,1,4.74,1c6.14,2,11.22,5.93,15.47,10.28a75.33,75.33,0,0,1,5.92,6.89c1.93,2.32,3.6,4.83,5.33,7.3a123.65,123.65,0,0,1,8.82,15.72l1,2,.88,2.07,1.75,4.15,1.55,4.22c.26.7.53,1.4.77,2.11l.69,2.14a170.89,170.89,0,0,1,4.63,17.33,218.66,218.66,0,0,1,4.34,35.47q1.3,35.55-.58,71a600.14,600.14,0,0,1-7.88,70.51,441.2,441.2,0,0,1-17.46,68.73,310.78,310.78,0,0,1-30.4,64l-2.38,3.75c-.81,1.24-1.67,2.45-2.5,3.68l-2.51,3.66c-.83,1.23-1.75,2.39-2.62,3.59-1.79,2.36-3.47,4.78-5.43,7.09a41.19,41.19,0,0,1-6.56,6.36,19.5,19.5,0,0,1-8.6,3.94,14.17,14.17,0,0,1-9.48-1.76,17.18,17.18,0,0,1-6.4-7,32.36,32.36,0,0,1-2.92-8.74,51.69,51.69,0,0,1-.08-18.06,64.85,64.85,0,0,1,5.25-17.2,43.8,43.8,0,0,1,10.64-14.65,25.29,25.29,0,0,1,8-4.74,22.39,22.39,0,0,1,4.56-1.14,23.09,23.09,0,0,1,13.62,2.56,21,21,0,0,1,3.87,2.61,24.21,24.21,0,0,1,3.28,3.28c4,4.77,6.27,10.54,7.75,16.34a77.49,77.49,0,0,1,2.15,17.78c0,1.49,0,3-.08,4.45l-.17,4.43-.17,4.43c-.07,1.47-.23,2.94-.33,4.42a291.17,291.17,0,0,1-4.69,35.08c-1,5.82-2.42,11.55-3.72,17.31l-2.2,8.56c-.71,2.87-1.59,5.68-2.38,8.52-6.5,22.68-14.8,44.76-23.63,66.58s-18.31,43.36-27.38,65.06c-4.53,10.85-9,21.74-13.19,32.71s-8.17,22.05-11.83,33.21-6.84,22.49-9.63,33.91-4.89,23-6.56,34.62a223.19,223.19,0,0,0-2.11,35.13,171.27,171.27,0,0,0,1.38,17.54,134.63,134.63,0,0,0,3.49,17.24,106.86,106.86,0,0,0,5.9,16.55,93.58,93.58,0,0,0,8.61,15.31,97.38,97.38,0,0,0,11.21,13.53,91.78,91.78,0,0,0,13.62,11.09,73.87,73.87,0,0,0,15.71,7.83l2.08.72,1,.36,1.06.28,4.26,1.11a69.39,69.39,0,0,0,8.69,1.24,15.14,15.14,0,0,0,8.35-1.68,13.63,13.63,0,0,0,5.49-6.47,21.26,21.26,0,0,0-.3-16.95c-2.35-5.37-6.8-9.6-11.8-12.58a41.06,41.06,0,0,0-16.62-5.4,37.41,37.41,0,0,0-17.32,2.16A56.64,56.64,0,0,0,1075.62,3244.91Z"/><path class="cls-2" d="M39,1238.61c-14.59-54.82-20.87-111.86-17.37-167.79q.66-10.48,1.77-20.89c.42-3.47.75-6.94,1.23-10.39l.72-5.17.35-2.59c.11-.81.27-1.87.35-2.75.38-3.64.58-7.1.86-10.57s.57-6.91,1-10.31a96.2,96.2,0,0,1,4-19.7,26.9,26.9,0,0,1,4.16-8.1,9.65,9.65,0,0,1,2.88-2.49,6.55,6.55,0,0,1,3.32-.86,8,8,0,0,1,3.56.68,9.15,9.15,0,0,1,3.06,2.17,20.43,20.43,0,0,1,4.27,7.59,55.83,55.83,0,0,1,2.46,19.07,54.21,54.21,0,0,1-1.09,9.55,23.78,23.78,0,0,1-1.27,4.24c-.15.29-.25.56-.42.87s-.34.62-.51.88a5.68,5.68,0,0,1-1,1.19,5.06,5.06,0,0,0,.88-1c.16-.23.31-.49.47-.77l.23-.42.19-.4a22.31,22.31,0,0,0,1.26-3.78,51.4,51.4,0,0,0,1.2-8.87,59.6,59.6,0,0,0-1.7-18.46,26.15,26.15,0,0,0-3.6-8.1,11.79,11.79,0,0,0-2.75-2.87A9.06,9.06,0,0,0,44.1,977a9.41,9.41,0,0,0-3.63,0,8.28,8.28,0,0,0-3.17,1.71A14.14,14.14,0,0,0,34.6,982a27,27,0,0,0-2.11,4.2,55.07,55.07,0,0,0-2.87,9.64c-.73,3.37-1.28,6.84-1.73,10.35-.92,7-1.32,14.2-2,21.67-.09.94-.19,1.89-.33,2.89l-.38,2.74c-.25,1.81-.51,3.62-.76,5.44-.53,3.63-.87,7.29-1.32,11s-.71,7.35-1.08,11-.54,7.39-.81,11.09a507.67,507.67,0,0,0,2.52,89c1.71,14.59,3.91,29,6.76,42.91q1.07,5.23,2.13,10.41l.53,2.58.61,2.56q.6,2.57,1.22,5.1l2.41,10.1c.84,3.33,1.78,6.62,2.65,9.89,2.39,9.23,5.25,18.34,8,27.48l4.44,13.61c1.44,4.55,3,9.05,4.62,13.55,3.08,9,6.45,18,9.75,26.95s6.81,17.86,10.39,26.72c14.09,35.55,29.28,70.7,43.46,106.25,1.76,4.45,3.56,8.88,5.29,13.35l5.17,13.39q5.09,13.38,10.19,26.76c6.75,17.87,13.27,35.85,19.2,54s11.36,36.49,15.87,55A438.8,438.8,0,0,1,186.62,1678a439.69,439.69,0,0,0-10.12-56.39c-4.49-18.57-9.88-36.94-15.82-55.15s-12.45-36.26-19.22-54.24q-5.1-13.45-10.23-27L126,1471.75l-5.33-13.47c-14.31-35.92-29.67-71.6-44-108S49,1276.93,39,1238.61Z"/><path class="cls-2" d="M338,2007.51q-16.07-17.05-31.19-35.09t-30-36.6c-11.38-14.16-22.72-28.46-34.27-42.68-2.89-3.56-5.78-7.12-8.71-10.65s-5.83-7.1-8.82-10.6l-17.83-21c-11.91-14-24-28.14-37.3-41.28a254.69,254.69,0,0,0-21-18.73l-2.78-2.18c-.93-.73-1.85-1.46-2.83-2.13l-5.78-4.11c-4-2.56-7.95-5.17-12.17-7.39l-3.12-1.73-3.24-1.53-3.24-1.53a28.41,28.41,0,0,0-3.49-1.46,20.45,20.45,0,0,0-4-1,12.55,12.55,0,0,0-4.69.2,9,9,0,0,0-4.6,2.72,10.81,10.81,0,0,0-2.32,4.4,22.94,22.94,0,0,0,2,15.92,27.45,27.45,0,0,0,10.76,11.38,31.38,31.38,0,0,0,7.13,3.08c1.23.4,2.49.65,3.74.93s2.53.42,3.8.49,2.55.13,3.83.16,2.55-.09,3.82-.26a35.47,35.47,0,0,0,7.5-1.61,32.68,32.68,0,0,0,7.06-3.2c.58-.32,1.09-.67,1.59-1l1.51-1,1.51-1c.5-.35,1-.74,1.46-1.11a75,75,0,0,0,10.78-9.92c1.67-1.79,3.16-3.74,4.67-5.66s2.86-4,4.09-6.08a86.91,86.91,0,0,0,6.63-13,105,105,0,0,0,4.65-13.76c.67-2.32,1.15-4.69,1.69-7s.95-4.72,1.28-7.11c3-19,2.44-38.31.48-57.27a270.1,270.1,0,0,1,1.55,30.25,178.33,178.33,0,0,1-2.65,30.29,114.74,114.74,0,0,1-9.18,29.22,82.68,82.68,0,0,1-18.12,25l-2.92,2.56c-1,.86-2,1.6-3,2.41s-2.08,1.54-3.15,2.26-2.07,1.47-3.32,2.15a36.4,36.4,0,0,1-15.48,4.69,37.69,37.69,0,0,1-16-2.24,30.48,30.48,0,0,1-7.28-3.9,28,28,0,0,1-5.89-5.91,24.38,24.38,0,0,1-4.89-16,17.37,17.37,0,0,1,.85-4.43,9.09,9.09,0,0,1,8-6.35,14.76,14.76,0,0,1,4.63.38,24.88,24.88,0,0,1,4,1.3c1.24.53,2.32,1.08,3.49,1.63,2.28,1.11,4.64,2.1,6.82,3.4l3.33,1.85c1.1.63,2.23,1.21,3.28,1.92l6.4,4.08a216.14,216.14,0,0,1,23.6,18.85c7.43,6.75,14.48,13.9,21.24,21.26,13.57,14.71,26.19,30.12,39.1,45.26,25.81,30.47,50.06,62.21,75.53,93a37.88,37.88,0,0,1,3.08,3.44l3.63,4.25,4.9,5.67C315.5,1982.81,325.82,1994.58,338,2007.51Z"/></g></g></g></svg>