<svg xmlns="http://www.w3.org/2000/svg" viewBox="0 0 1286.47 2824.86"><defs><style>.cls-1{opacity:0.8;}.cls-2{fill:#202020;}</style></defs><g id="Layer_2" data-name="Layer 2"><g id="Layer_1-2" data-name="Layer 1"><g class="cls-1"><path class="cls-2" d="M1193.72,40.65l-13,5.77-12.86,5.9c-8.53,4-17.07,7.77-25.44,11.82l-25.05,12-24.64,12.19c-32.6,16.38-64.32,33.06-95.32,50.31s-61.3,35-91.18,53.35S847,229.28,817.75,249c-22.51,15.48-45.11,30.42-66,46.76A338.2,338.2,0,0,0,722,321.67c-4.64,4.59-9.06,9.38-13.24,14.32a158.15,158.15,0,0,0-11.61,15.45,134.9,134.9,0,0,0-9.41,16.66,106.31,106.31,0,0,0-6.49,17.8,93.07,93.07,0,0,0-3,18.59c-.14,1.56-.1,3.14-.16,4.71,0,.78-.06,1.58,0,2.34l.07,2.3a62.44,62.44,0,0,0,1.22,9.06,48.84,48.84,0,0,0,2.67,8.66,40.18,40.18,0,0,0,4.2,7.85,31.48,31.48,0,0,0,13,11.08,24,24,0,0,0,16.3,1.45,22.46,22.46,0,0,0,7.28-3.69,28.7,28.7,0,0,0,5.73-6.24,32.55,32.55,0,0,0,5.37-16.39c0-.72.11-1.45.05-2.17l-.12-2.16A32.6,32.6,0,0,0,733,417a36,36,0,0,0-3.12-8.35,45.44,45.44,0,0,0-4.94-7.61,60,60,0,0,0-6.37-6.69,67.4,67.4,0,0,0-15.67-10.31,103.37,103.37,0,0,0-18-6.71,109.38,109.38,0,0,0-19.1-3.44,141,141,0,0,0-19.62-.4,171.68,171.68,0,0,0-19.74,2.18c-6.57,1.08-13.12,2.51-19.62,4.23s-13,3.67-19.43,5.85c-12.87,4.39-25.61,9.54-38.26,15.2s-25.26,11.77-38,18l-38.5,18.78c-51.24,25.15-100.15,50.11-147.62,76.88-23.74,13.36-47.1,27.21-70.16,41.76q-17.3,10.93-34.36,22.42c-11.37,7.65-22.57,15.63-33.48,24.1S165.23,620.39,155,630c-5.09,4.84-10.07,9.81-14.88,15L133,652.84c-2.38,2.63-4.64,5.38-7,8.07A418.35,418.35,0,0,0,99.9,695c-2.1,2.92-4.05,5.95-6,9s-4,6-5.84,9.12l-5.66,9.28L77,731.83c-7,12.72-13.66,25.78-19.67,39.2S45.89,798.2,40.93,812.19a599.71,599.71,0,0,0-23.1,86.75c-.67,3.72-1.44,7.42-2,11.16s-1.23,7.48-1.84,11.22c-1.07,7.5-2.19,15-3,22.59C9.18,959,7.8,974.26,7.07,989.58s-1.06,30.71-.88,46.14l.25,11.59.45,11.59,1,23.34a211.27,211.27,0,0,0,2.09,23A88.18,88.18,0,0,0,16,1127.14a56.37,56.37,0,0,0,12.73,18.33c.7.63,1.37,1.28,2.08,1.89l2.18,1.78a55.19,55.19,0,0,0,4.56,3.17,14.36,14.36,0,0,0,4.57,1.86,6.21,6.21,0,0,0,4.07-.48c2.48-1.18,4.33-4.33,4.72-7.46.44-3.29-.33-6.89-1.41-10.55-2.27-7.45-4.5-15-9-20.69a21.45,21.45,0,0,0-3.76-3.68c-.65-.55-1.48-1-2.22-1.53-.39-.24-.78-.44-1.17-.66l-.59-.33-.59-.27a11.4,11.4,0,0,0-4.61-1.25,5.74,5.74,0,0,0-3.78,1.32,11.15,11.15,0,0,0-2.86,3.8,29.46,29.46,0,0,0-1.9,5.08,67.67,67.67,0,0,0-1.94,11.27,191.72,191.72,0,0,0-.31,27.85c.55,11.17,1.77,23.45,3.17,34.61s3,21.22,4.11,28l1.3,7.54c.27,1.51.4,1.91.35,1,4.07,30.46,9.87,60.58,16.35,90.46s13.69,59.54,20.76,89.15,14,59.22,20,89,11,59.64,14.14,89.73c3.44,30.1,3.8,60.3,5.81,90.16,1,14.93,2.43,29.81,4.89,44.49a232.68,232.68,0,0,0,11.12,43,191.7,191.7,0,0,0,20.09,39.4,215.3,215.3,0,0,0,28.44,33.9,267.87,267.87,0,0,0,34.46,27.9,342.22,342.22,0,0,0,38.32,22.47A495.42,495.42,0,0,0,310,1915.77q18.08,5.91,36.58,10.8l9.25,2.4,9.3,2.28,9.31,2.27,9.34,2.13A1202.44,1202.44,0,0,0,534,1960.07c40.54,3.84,81.08,5.86,121.49,5.82s80.73-1.65,121-2.41,80.49-.63,120.5,3,79.68,10.7,117.76,23.28c10.55,3.52,27.23,9.31,42.74,16.73,2,.84,3.88,1.84,5.78,2.79l5.61,2.82,2.75,1.37,1.35.68,1.31.74,5.06,2.84,4.73,2.66c.76.43,1.5.84,2.22,1.26l2.06,1.3,7,4.43c1.45,1,3,1.82,4.35,2.83l4.23,3c2.8,2,5.65,3.95,8.41,6a177.88,177.88,0,0,1,15.83,13.32,110.12,110.12,0,0,1,13.7,15.55,78.85,78.85,0,0,1,9.84,18.28,60.38,60.38,0,0,1,3.52,20.5c-.08,1.74,0,3.48-.29,5.2l-.28,2.59-.46,2.57-.23,1.28-.32,1.27-.66,2.53c-.26.83-.56,1.65-.84,2.47a21.18,21.18,0,0,1-.94,2.44l-1,2.4c-.37.79-.83,1.54-1.24,2.31a44.62,44.62,0,0,1-2.82,4.42,38.92,38.92,0,0,1-7.31,7.53,29.46,29.46,0,0,1-9.25,5.13,35.31,35.31,0,0,1-10.35,1.87,38.25,38.25,0,0,1-10.39-1.07,36.66,36.66,0,0,1-9.73-3.83,31.24,31.24,0,0,1-8.17-6.65,25.49,25.49,0,0,1-6-19.92,27,27,0,0,1,3.43-10,33.9,33.9,0,0,1,6.65-8.07,42.06,42.06,0,0,1,8.53-5.82,44.16,44.16,0,0,1,19.83-4.95,36.14,36.14,0,0,1,10.27,1.34,50.25,50.25,0,0,1,4.84,1.7c.81.28,1.56.68,2.34,1l2.3,1.1a63.54,63.54,0,0,1,16,12.36,93.93,93.93,0,0,1,12,15.91,157.22,157.22,0,0,1,9.18,17.53c1.36,3,2.57,6,3.86,9.05.65,1.5,1.23,3,1.81,4.56l1.74,4.59A295.88,295.88,0,0,1,1205.58,2275c-.21,3.25-.35,6.51-.6,9.76l-.93,9.73-1.26,9.7c-.48,3.24-1.06,6.49-1.82,9.73-1.54,6.45-3.76,13-7.76,18.73a31.54,31.54,0,0,1-7.35,7.55,19.09,19.09,0,0,1-4.83,2.7,22,22,0,0,1-5.36,1.31,25.67,25.67,0,0,1-10.74-1,22.14,22.14,0,0,1-9.4-5.69,16.24,16.24,0,0,1-3.21-4.87,14.72,14.72,0,0,1-1.13-5.85c0-.5.06-1,.1-1.48s.17-1,.26-1.46a14.12,14.12,0,0,1,.87-2.84,9.09,9.09,0,0,1,.65-1.33,12.45,12.45,0,0,1,.75-1.27,16.13,16.13,0,0,1,1.83-2.26,19.63,19.63,0,0,1,4.47-3.49,24,24,0,0,1,16.08-2.57l1.37.3c.46.11.9.29,1.35.43a19.58,19.58,0,0,1,2.56,1.05c.83.36,1.59.85,2.39,1.27s1.53,1,2.23,1.51a36.07,36.07,0,0,1,7.43,7.48,61.15,61.15,0,0,1,7.59,13.86c.91,2.39,1.72,4.78,2.57,7.15.21.6.43,1.19.62,1.78l.49,1.82c.33,1.2.65,2.41,1,3.61a127.68,127.68,0,0,1,3.85,28.83,153.55,153.55,0,0,1-2.44,27.94c-.46,2.26-.91,4.52-1.37,6.77s-1.14,4.44-1.71,6.66-1.27,4.38-1.95,6.56-1.34,4.35-2.18,6.46a175.92,175.92,0,0,1-11.18,24.81,189.16,189.16,0,0,1-14.76,23.09c-2.68,3.75-5.61,7.33-8.52,11l-4.56,5.34c-1.51,1.78-3.14,3.49-4.72,5.25q-9.62,10.43-20.5,20.36c-1.28,1.24-3.12,3-5.43,5.06s-5.13,4.53-8.31,7.26c-6.41,5.42-14.43,11.85-23.24,18.64-11.84,9.05-37.39,27.91-70.12,50.52s-72.72,48.77-112.77,73.06c-20,12.15-39.58,24.33-56.23,38.07a193,193,0,0,0-22.45,21.51,138.94,138.94,0,0,0-16.42,22.87,124.17,124.17,0,0,0-10.1,22.3,105.6,105.6,0,0,0-4.39,19.52c-.15,1.45-.29,2.85-.43,4.2s-.11,2.64-.17,3.87-.12,2.41-.08,3.52.09,2.17.13,3.16,0,1.93.12,2.79.19,1.65.28,2.38l.39,3.56c.12.92-.12-.74-.6-4.63-.06-.49-.12-1-.19-1.56s-.06-1.16-.09-1.79c-.06-1.25-.13-2.64-.2-4.17a100.14,100.14,0,0,1,.54-10.68,102.05,102.05,0,0,1,7.63-28.91c.59-1.35,1.09-2.76,1.79-4.12l2-4.18c.7-1.41,1.51-2.8,2.27-4.23l1.18-2.14c.43-.71.86-1.41,1.29-2.13,1.69-2.88,3.64-5.7,5.61-8.62,1-1.41,2.12-2.84,3.19-4.29s2.27-2.83,3.42-4.28c9.41-11.37,21.41-22.34,35.17-32.62s29.26-20,45.43-29.92c32.41-19.82,66.64-41.85,100.23-64.85,16.79-11.5,33.45-23.21,49.67-35s32.14-23.41,47-35.39a404.51,404.51,0,0,0,40.75-37,240,240,0,0,0,30.21-38.88c2.06-3.21,3.8-6.52,5.57-9.7.92-1.58,1.66-3.22,2.46-4.81l2.31-4.73c.69-1.58,1.36-3.15,2-4.7s1.37-3,1.91-4.59,1.14-3,1.69-4.53c.28-.74.56-1.48.83-2.21s.48-1.48.71-2.21a168.19,168.19,0,0,0,4.56-16.5c.51-2.58,1-5,1.46-7.4s.66-4.64,1-6.77c2-17.17.47-26.47.71-25a135.91,135.91,0,0,1-.64,23.21c-.2,1.62-.47,3.31-.72,5.07s-.46,3.61-.89,5.48-.78,3.83-1.19,5.84c-.18,1-.46,2-.73,3s-.54,2.07-.82,3.12a168.1,168.1,0,0,1-9.79,27.26,189.89,189.89,0,0,1-16.8,29.32,249.83,249.83,0,0,1-23.68,29c-17.82,18.9-39.22,36.5-61.41,53.08-44.37,33.19-90.69,64.86-128.18,89-18.73,12.08-35.24,22.3-48,30.13s-21.7,13.48-25.59,16c10.15-6.65,20.4-12.92,30.53-19.17S940.21,2661,950,2654.75q29.38-18.75,56.83-37.46t53.07-37.2c17-12.37,33.62-24.49,49.29-37a411.71,411.71,0,0,0,43.33-39.34c12.93-13.94,24.35-28.68,33.11-44.45l1.63-3c.55-1,1.09-2,1.56-3l3-6c.94-2,1.77-4.06,2.66-6.08.43-1,.89-2,1.29-3l1.15-3.09c.38-1,.76-2,1.15-3.07l.57-1.53.5-1.55c.65-2.08,1.3-4.14,2-6.2s1.1-4.17,1.65-6.24l.8-3.11.63-3.13a135.29,135.29,0,0,0,1.48-49.3c-.38-2-.75-3.94-1.13-5.89l-.28-1.47-.39-1.43-.78-2.87a111.44,111.44,0,0,0-3.65-11.18c-.65-1.83-1.45-3.6-2.27-5.35a55.49,55.49,0,0,0-2.73-5.11,40.76,40.76,0,0,0-7.09-9,31.49,31.49,0,0,0-4.53-3.45,23.25,23.25,0,0,0-5.14-2.37,18.86,18.86,0,0,0-5.56-.86,21.42,21.42,0,0,0-5.54.64,22,22,0,0,0-5.15,2,18.29,18.29,0,0,0-4.3,3.43,13.24,13.24,0,0,0-3.38,10.11,12.49,12.49,0,0,0,1.71,5.1,15.22,15.22,0,0,0,3.53,4,21.62,21.62,0,0,0,9.45,4.23,22.15,22.15,0,0,0,10.18-.36,17.19,17.19,0,0,0,4.63-2.06c.7-.47,1.37-1,2-1.45s1.27-1.08,1.9-1.62c4.88-4.58,7.84-10.62,9.81-16.65a101.37,101.37,0,0,0,3.82-18.33,290.82,290.82,0,0,0,1.33-68.13q-1.63-15.69-4.51-29.93c-.48-2.37-1-4.69-1.55-7l-.78-3.44c-.27-1.14-.58-2.26-.87-3.38q-.89-3.36-1.74-6.64t-1.92-6.44c-.32-1.06-.64-2.11-1-3.16s-.7-2.07-1-3.09q-1-3.08-2.06-6.07c-.68-2-1.47-3.94-2.18-5.87s-1.42-3.85-2.21-5.7l-2.31-5.49-1.14-2.7-1.19-2.63c-.78-1.75-1.63-3.43-2.44-5.11s-1.67-3.31-2.55-4.9a113.21,113.21,0,0,0-11.33-17.19,68.66,68.66,0,0,0-13.24-12.58,51.59,51.59,0,0,0-14.32-7.22,31.54,31.54,0,0,0-7.07-1.34,37.27,37.27,0,0,0-6.69,0,42,42,0,0,0-20.16,7.46,31.86,31.86,0,0,0-9.38,10.12,23,23,0,0,0-2.48,6.12c-.24,1-.21,1,0-.11a24.11,24.11,0,0,1,2.43-5.88,31.94,31.94,0,0,1,8.07-9.11,41.13,41.13,0,0,1,15.88-7.5,38.9,38.9,0,0,1,10.64-1,33.09,33.09,0,0,1,11.56,2.5c7.83,2.93,15.37,8.46,21.94,15.73s12.14,16.33,17,26.32c2.47,5,4.6,10.3,6.88,15.7q1.54,4.11,3.14,8.31c1.05,2.81,2,5.71,3,8.6a293.83,293.83,0,0,1,14.22,77.65,290.29,290.29,0,0,1-1.2,43.05l-.25,2.74-.36,2.74-.72,5.5c-.47,3.67-1.12,7.34-2,11a64.46,64.46,0,0,1-3.37,10.7,37.94,37.94,0,0,1-5.8,9.65,23.68,23.68,0,0,1-8.92,6.85,22,22,0,0,1-21.59-3.68,13.84,13.84,0,0,1-3.46-4.57,11.69,11.69,0,0,1-1.07-5.62,13.31,13.31,0,0,1,5.48-9.84,20.07,20.07,0,0,1,10.84-3.91,19.41,19.41,0,0,1,11.26,2.62,26.36,26.36,0,0,1,4.78,3.42,32.62,32.62,0,0,1,4,4.27,51.85,51.85,0,0,1,6.16,10c.84,1.78,1.65,3.58,2.31,5.43l2,5.56a58.17,58.17,0,0,1,1.68,5.65l.77,2.85.39,1.43.28,1.45,1.11,5.79a28.94,28.94,0,0,1,.43,2.92l.34,2.93c.59,3.9.61,7.84.84,11.76,0,2,0,3.93-.07,5.89l0,2.95c0,1-.15,1.95-.22,2.93l-.47,5.86-.81,5.82-.42,2.9-.57,2.88-1.16,5.74-1.47,5.66-.74,2.82-.87,2.78-1.77,5.55c-.67,1.82-1.35,3.63-2,5.45l-1,2.71-1.14,2.66q-1.15,2.65-2.29,5.31l-2.54,5.18-1.27,2.58-1.38,2.52-2.77,5-3,4.88-1.5,2.43c-.5.8-1,1.57-1.58,2.36l-3.18,4.7c-4.41,6.13-8.93,12.12-13.81,17.73-6,7-12.74,14.14-20.14,21.24s-15.48,14.22-24.17,21.39c-17.39,14.36-37.23,28.91-58.91,44.6S1012,2613.39,986,2630.67q-19.51,12.95-40.74,26.42-10.62,6.73-21.7,13.57c-7.38,4.56-14.92,9.14-22.52,13.9l30.3-18.86c11-6.91,22.75-14.42,34.85-22.33,24.2-15.81,49.79-33.25,73.88-50.41,12-8.57,23.73-17.06,34.71-25.19s21.27-15.88,30.41-23.13,17.14-14,23.71-19.88,11.73-10.88,15.36-14.46c16.69-16.66,29-32.8,38-48,1.14-1.89,2.13-3.82,3.17-5.68l1.52-2.77,1.37-2.8c.89-1.85,1.82-3.65,2.64-5.46s1.56-3.62,2.31-5.38,1.45-3.53,2.09-5.27l1.9-5.14q.81-2.58,1.6-5.07c.52-1.67,1.06-3.3,1.44-4.95a147.72,147.72,0,0,0,5.3-36.21,117.14,117.14,0,0,0-8.86-47.62,50.74,50.74,0,0,0-9-14.45,27.31,27.31,0,0,0-7-5.51c-.65-.39-1.37-.67-2.06-1s-1.43-.51-2.16-.75a19.14,19.14,0,0,0-4.63-.6,19.66,19.66,0,0,0-9.44,2.28,13.52,13.52,0,0,0-6.64,7.4,6.26,6.26,0,0,0-.21.61l-.13.64a10.85,10.85,0,0,0-.22,1.29,9.51,9.51,0,0,0,0,1.31,9.65,9.65,0,0,0,.1,1.32,11,11,0,0,0,2.07,4.95,17.84,17.84,0,0,0,9.84,6.2,20.3,20.3,0,0,0,12.59-.57,14.33,14.33,0,0,0,2.92-1.54l1.39-1c.48-.33.89-.74,1.34-1.11a27.75,27.75,0,0,0,4.7-5.33,47.48,47.48,0,0,0,6.19-13.92,112.85,112.85,0,0,0,3.11-16.41,286.7,286.7,0,0,0,2.67-37.37,295.17,295.17,0,0,0-8.34-70.73,284.86,284.86,0,0,0-11.84-37.25c-2.55-6.16-5.06-12.44-8.15-18.48a125.7,125.7,0,0,0-10.57-17.51,74,74,0,0,0-14.23-14.87c-.66-.56-1.4-1-2.1-1.51s-1.4-1-2.14-1.45l-2.24-1.3c-.38-.21-.74-.45-1.13-.64l-1.16-.56-2.34-1.12-2.43-.92a25.14,25.14,0,0,0-2.44-.84c-.81-.26-1.65-.43-2.48-.62a38.39,38.39,0,0,0-20.44,1.7,37.09,37.09,0,0,0-16.86,11.83,24.79,24.79,0,0,0-4.46,9.19,21.87,21.87,0,0,0,4.41,19.24,27.32,27.32,0,0,0,8,6.52,35.06,35.06,0,0,0,20.27,4,30.14,30.14,0,0,0,10-2.8,22.83,22.83,0,0,0,4.39-2.7l2.05-1.62c.66-.57,1.25-1.22,1.88-1.82l.93-.91.84-1c.54-.68,1.13-1.32,1.64-2a39.89,39.89,0,0,0,2.79-4.44,44.7,44.7,0,0,0,2.25-4.74c.32-.81.57-1.65.87-2.48l.42-1.24.33-1.28a51.18,51.18,0,0,0,1.66-10.38c0-1.75.15-3.5,0-5.26s-.26-3.49-.44-5.23a54.29,54.29,0,0,0-2.39-10.17c-.49-1.66-1.24-3.26-1.86-4.88s-1.43-3.19-2.3-4.71a85.9,85.9,0,0,0-12-17,138.05,138.05,0,0,0-15.07-14.26c-2.66-2.19-5.38-4.29-8.13-6.34l-8.38-5.9-4.17-2.92-4.28-2.7L1084,2025l-8.66-4.89-4.3-2.42-4.38-2.21-8.67-4.38-8.73-4-4.33-1.95c-1.44-.65-2.91-1.19-4.36-1.79l-8.64-3.48c-1.42-.6-2.88-1.1-4.31-1.61l-4.31-1.54c-2.86-1-5.67-2.1-8.51-3l-8.46-2.67-4.16-1.32L998,1988.6a501.8,501.8,0,0,0-61.48-13.29,476.1,476.1,0,0,1,73.6,16.61c28.55,8.81,59.81,22.42,88.86,41.82l10.77,7.53q5.3,3.92,10.35,8.17a118.92,118.92,0,0,1,18.33,18.93,71.66,71.66,0,0,1,12,23.14,55,55,0,0,1,2,12.78,52,52,0,0,1-.94,12.78,48.43,48.43,0,0,1-4.05,12,38.19,38.19,0,0,1-12,14,26.37,26.37,0,0,1-5.34,2.85,28.75,28.75,0,0,1-5.78,1.69,34.07,34.07,0,0,1-5.94.59,34.8,34.8,0,0,1-21.68-7.09,28.25,28.25,0,0,1-4-3.89,23.77,23.77,0,0,1-3-4.58,22.25,22.25,0,0,1-1.78-5.06,21.42,21.42,0,0,1-.4-2.63,21,21,0,0,1-.13-2.63,25.22,25.22,0,0,0,.6,5.63,23.92,23.92,0,0,0,2,5.22,25.51,25.51,0,0,0,7.11,8.29,34.66,34.66,0,0,0,19.84,6.81,30.93,30.93,0,0,0,19.09-5.43,38.39,38.39,0,0,0,12.08-14.75,50.67,50.67,0,0,0,4.52-17.74,57,57,0,0,0-1.57-17.44,63.63,63.63,0,0,0-6.3-15.55,84.25,84.25,0,0,0-9.24-13.24,142,142,0,0,0-22.41-20.83c-2-1.5-3.93-3-6-4.35l-5.95-4.16c-3.89-2.84-8-5.25-12-7.76a332.74,332.74,0,0,0-48.94-24.71c-33.51-13.62-69.15-22.88-112.51-28.84-21.7-2.93-45.37-4.86-71.78-5.8s-55.55-.81-88.26,0c-24.36.55-52.62,1.63-83.2,2.27-14.58.23-28.77.26-43.64.1l-11.3-.21-5.77-.12-5.88-.2-12.09-.41-12.65-.61a1234.83,1234.83,0,0,1-156.59-17.76q-38-6.76-74.92-15.75a669.53,669.53,0,0,1-72.75-21.59,435.94,435.94,0,0,1-68.9-31.6c-21.95-12.69-42.72-27.86-60.67-46.29a207.09,207.09,0,0,1-24.37-30A191.49,191.49,0,0,1,116.75,1771a221,221,0,0,1-11.35-37.69,347.69,347.69,0,0,1-5.75-39.3c.5,4.55.83,8.7,1.36,12.62s.9,7.67,1.49,11.39c.28,1.87.55,3.74.83,5.63s.7,3.81,1.06,5.78.69,4,1.19,6.11,1,4.27,1.51,6.55a222.55,222.55,0,0,0,10.71,32.64,189.87,189.87,0,0,0,16,29.82,223.65,223.65,0,0,0,44.35,49.08,316.58,316.58,0,0,0,54.31,35.73,464.83,464.83,0,0,0,59.27,25.7c20.32,7.22,41.08,13.38,62.26,18.67s42.67,10,64.62,14.26a1253,1253,0,0,0,137.86,18.77c18.51,1.56,40.7,2.71,63.17,3.2s45.23.33,64.87,0c39.89-.72,77.48-2.22,114.4-2.47s73.17.54,110,4.62c-36.66-3.89-75.3-4.61-114.92-4s-80.32,2.37-121.47,2.86-82.74-.88-123.85-4.36-81.75-9.11-121.12-16.38c-32.68-6-71.83-14.65-96.82-21.7,8.9,2.57,17.88,4.9,26.87,7.13l13.5,3.27c4.5,1.07,9,2.05,13.54,3.09,18.08,4,36.26,7.74,54.55,10.92s36.66,6.09,55.13,8.45,37,4.41,55.58,6c16.24,1.29,32.81,2.47,49.66,3.12l6.32.29,6.36.19,12.77.37c8.55.12,17.15.31,25.81.28,34.61.06,69.94-1.26,105.55-2.27s71.55-1.69,107.27-.12c17.86.76,35.65,2.09,53.26,4.17,4.4.57,8.8,1,13.18,1.7l13.09,2,13,2.34c4.32.79,8.59,1.77,12.88,2.65a452.48,452.48,0,0,1,50,13.94,345.09,345.09,0,0,1,46.64,19.83,312.92,312.92,0,0,1,41.84,25.73,173.31,173.31,0,0,1,18.27,15.16c2.79,2.72,5.48,5.52,8,8.45a94,94,0,0,1,6.79,9.14,75.59,75.59,0,0,1,5.32,9.84,56.57,56.57,0,0,1,3.47,10.36,53.89,53.89,0,0,1,1.32,10.69l0,1.34,0,1.33c0,.89,0,1.78-.11,2.66-.19,1.76-.32,3.53-.68,5.24a51,51,0,0,1-1.17,5.1c-.24.83-.56,1.64-.83,2.46l-.42,1.22c-.16.4-.34.78-.51,1.18a38.68,38.68,0,0,1-5.09,8.73l-1.6,1.92c-.52.64-1.17,1.17-1.74,1.76a35.43,35.43,0,0,1-3.76,3.17,26.44,26.44,0,0,1-8.59,4,31.51,31.51,0,0,1-9.41,1,33.84,33.84,0,0,1-9.21-1.62,31.39,31.39,0,0,1-8.19-4,25.2,25.2,0,0,1-6.21-6.1,20.42,20.42,0,0,1-3.3-7.66,21.4,21.4,0,0,1,0-8.17,25.18,25.18,0,0,1,8.16-13.61,35,35,0,0,1,6.78-4.86,40,40,0,0,1,11.58-4.26,38,38,0,0,1,10.13-.51,30,30,0,0,1,6.2,1.15c1,.26,2,.73,3.09,1.1l1.55.59,1.51.72a50.63,50.63,0,0,1,11.49,7.47c7.13,6.1,13.11,14,18.06,22.62,2.48,4.32,4.73,8.81,6.81,13.4,1.06,2.28,2,4.63,3,7s2,4.65,2.82,7,1.76,4.72,2.63,7.07l2.37,7.11c.82,2.36,1.49,4.74,2.18,7.11.35,1.19.69,2.37,1,3.54l.51,1.77.45,1.77c-.49-2-1.13-4-1.71-6s-1.16-4-1.78-6l-2-5.89-1-2.94c-.35-1-.73-1.94-1.09-2.92l-2.18-5.81c-.72-1.94-1.58-3.83-2.36-5.75-1.58-3.83-3.19-7.64-5-11.31s-3.72-7.33-5.84-10.82c-1-1.78-2.17-3.45-3.27-5.17s-2.31-3.34-3.58-4.91-2.56-3.13-3.86-4.66c-.68-.74-1.39-1.45-2.08-2.18s-1.42-1.42-2.16-2.09-1.44-1.39-2.23-2l-2.32-1.87c-.79-.61-1.62-1.14-2.43-1.72-.41-.27-.8-.58-1.22-.83l-1.28-.75c-.85-.46-1.65-1-2.52-1.41l-2.61-1.24c-.87-.41-1.79-.69-2.69-1l-1.35-.51-1.34-.39a29.07,29.07,0,0,0-5.51-1,32.41,32.41,0,0,0-5.66,0,38.94,38.94,0,0,0-21.12,8.12,32.93,32.93,0,0,0-4.11,3.89,28.91,28.91,0,0,0-3.22,4.53,21.08,21.08,0,0,0-2.71,10.4,20.05,20.05,0,0,0,2.88,10.3,23.85,23.85,0,0,0,7.81,7.73,32.91,32.91,0,0,0,22.09,4.47,26.8,26.8,0,0,0,10.56-3.91,35.75,35.75,0,0,0,8.36-7.94,40.35,40.35,0,0,0,5.44-10.44,45.52,45.52,0,0,0,2.49-11.72,52.27,52.27,0,0,0-3.39-23.86,76.52,76.52,0,0,0-12.85-21.21,133.58,133.58,0,0,0-18.36-17.66,301.88,301.88,0,0,0-43.52-28.59c-30.79-16.58-64.41-28.31-99-36.26s-70.33-12-106.17-13.68-71.92-1.16-108-.25-72.12,2.28-108.14,2.17c-9,0-18-.19-27-.33s-18-.51-26.92-1-17.89-1-26.81-1.48c-8.92-.68-17.83-1.27-26.7-2.12-31.48-2.66-73.19-8.05-114.47-15.86-20.64-3.89-41.18-8.34-60.35-12.92s-37-9.37-52.15-14.07A520.48,520.48,0,0,1,250,1899.14a348,348,0,0,1-61.37-36c-19.15-14.24-36.66-31.1-50.77-50.7a195.94,195.94,0,0,1-30.76-65.17c-6.26-23.3-9-47.24-10.5-71s-2.09-47.4-4-70.8c-3.69-46.85-12.19-93-22.15-138.41-9-41-19.34-81.69-28.71-122.67-4.69-20.49-9.16-41-13.1-61.71q-3-15.49-5.49-31.09L22,1243.87l-1.15-7.82-1.08-7.82c-.34-2.53-.76-5.13-1.15-7.72-3.2-20.77-6-41.67-7.12-62.78-.26-5.28-.43-10.58-.38-15.89a141.56,141.56,0,0,1,.93-16,73.21,73.21,0,0,1,1.41-8,35.09,35.09,0,0,1,2.85-8A19.36,19.36,0,0,1,18.8,1106a13.31,13.31,0,0,1,4-3,12,12,0,0,1,5-1,15.56,15.56,0,0,1,4.66.92,17.26,17.26,0,0,1,2.07.85,19.55,19.55,0,0,1,1.93,1,20.4,20.4,0,0,1,1.81,1.12A17.67,17.67,0,0,1,40,1107a27.43,27.43,0,0,1,5.94,6.29c3.23,4.71,5.16,9.9,6.82,15,.8,2.55,1.59,5,2.31,7.66a32.38,32.38,0,0,1,1.24,8.43,21.18,21.18,0,0,1-.13,2.24,17.91,17.91,0,0,1-.42,2.28,16.57,16.57,0,0,1-1.78,4.29,14.3,14.3,0,0,1-3,3.66,11.43,11.43,0,0,1-9.38,2.57,16.64,16.64,0,0,1-4.4-1.38,28.26,28.26,0,0,1-3.75-2.12c-1.17-.78-2.22-1.61-3.33-2.41a60.8,60.8,0,0,1-11.5-11.61,65.51,65.51,0,0,1-8-14.19A90.2,90.2,0,0,1,6,1112.24c-2.17-10.5-2.85-21.1-3.3-31.59l-1.24-31.4q-1-31.47.84-62.93t6.39-62.57A626.92,626.92,0,0,1,20.94,862.1,556.38,556.38,0,0,1,64.7,744.61a454.39,454.39,0,0,1,71.71-102.48c7.09-7.68,14.62-15,22.38-21.94s15.79-13.66,24-20.07c16.45-12.85,33.76-24.49,51.18-35.86,34.9-22.7,70.79-43.76,107.22-63.72s73.39-38.84,110.55-57.21q27.87-13.79,55.85-27.26c18.64-9,37.26-18.08,56.45-25.84s38.88-14.35,59.23-18c2.54-.43,5.08-.89,7.65-1.2,1.28-.17,2.55-.37,3.83-.51l3.86-.39c1.28-.15,2.56-.24,3.85-.31l3.86-.25,3.87-.1c1.29,0,2.58-.08,3.87,0a123.07,123.07,0,0,1,30.59,3.86,98.14,98.14,0,0,1,28.29,12,65,65,0,0,1,11.83,9.79,49.8,49.8,0,0,1,8.81,12.49,44.25,44.25,0,0,1,2.76,7.12,35,35,0,0,1,1.26,7.51,35.46,35.46,0,0,1-2.39,14.94l-.72,1.77c-.24.58-.57,1.13-.84,1.7s-.55,1.15-.9,1.68l-1,1.61a14,14,0,0,1-1.1,1.55L729.5,447l-1.29,1.39a13,13,0,0,1-1.34,1.34,25.44,25.44,0,0,1-13.35,6.59,28.62,28.62,0,0,1-14.83-1.85,30,30,0,0,1-6.62-3.63,35.11,35.11,0,0,1-3-2.33c-.47-.41-.91-.87-1.37-1.3a15.39,15.39,0,0,1-1.32-1.36l-1.25-1.42c-.41-.49-.77-1-1.16-1.51a37.55,37.55,0,0,1-2.14-3.13,47.25,47.25,0,0,1-3.41-6.78,56.09,56.09,0,0,1-3.75-14.72,76.07,76.07,0,0,1-.14-15.24l.32-3.81.55-3.79.28-1.89.38-1.87.77-3.75,1-3.69.49-1.85c.18-.61.39-1.21.59-1.82l1.18-3.63,1.37-3.57.69-1.79c.24-.59.51-1.16.77-1.75l1.55-3.49c.56-1.15,1.15-2.28,1.71-3.42s1.14-2.28,1.79-3.38l1.87-3.34c.65-1.1,1.34-2.17,2-3.26,1.31-2.2,2.79-4.27,4.21-6.4,3-4.16,6-8.24,9.33-12.13s6.74-7.69,10.25-11.39,7.22-7.24,11-10.68c7.51-6.93,15.4-13.45,23.49-19.72s16.37-12.28,24.74-18.17c6.22-4.43,12.51-8.77,18.81-13.08l18.77-12.88-16.28,10.92,17.75-12.05q8.94-5.91,17.86-11.77Q884.46,200.63,938.05,169c9-5.22,17.88-10.49,26.85-15.63l27-15.23L1019,123.33c4.5-2.48,9.06-4.85,13.6-7.24l13.62-7.16c14.89-7.77,1.77-.8-17.89,9.65-4.94,2.58-10.19,5.54-15.56,8.47l-16,8.79c-10.32,5.75-19.52,11.11-25.1,14.32L994,137.58,1004.2,132l-6.06,3.66c12.53-6.93,20-10.89,28.9-15.56A2479.51,2479.51,0,0,0,792.67,263.64c-18.95,13-37.74,26.23-55.17,41-4.38,3.69-8.6,7.54-12.75,11.45s-8.13,8-12,12.19-7.52,8.55-11,13.07c-.9,1.11-1.69,2.29-2.53,3.43s-1.68,2.28-2.45,3.47l-2.37,3.53-2.22,3.62a114.25,114.25,0,0,0-13.18,31,93.49,93.49,0,0,0-2.69,16.62l-.18,2.1,0,2.1c0,1.41-.08,2.82-.07,4.21a65.42,65.42,0,0,0,.69,8.27,61.11,61.11,0,0,0,1.84,8.06,49.6,49.6,0,0,0,3.06,7.63,37,37,0,0,0,10,12.57,29.27,29.27,0,0,0,14.42,6.28,24.93,24.93,0,0,0,7.81-.16l1.87-.47c.31-.09.64-.14.94-.25l.9-.36c.6-.25,1.22-.43,1.8-.73l1.71-.93a24.18,24.18,0,0,1-7.88,2.72,26,26,0,0,1-10.56-.72c-7.54-2-14.94-7.78-19.46-15.77a48.8,48.8,0,0,1-5.08-12.83,61,61,0,0,1-1.7-13.37,96.88,96.88,0,0,1,2.51-23c3.33-14.52,10-28.18,18.48-40.46a207.79,207.79,0,0,1,29.48-33.49,389,389,0,0,1,34-27.95c11.63-8.63,23.37-16.78,34.92-24.62l12-8.25c4-2.76,8-5.52,12.1-8.2l24.41-16.22L869,213.34c4.1-2.68,8.28-5.25,12.44-7.85L894,197.7q50.12-31,101.65-59.63c34.28-19,68.9-37,103.49-54.16l13-6.38,6.47-3.18,6.51-3.09L1151,59l25.88-11.86c4.28-2,8.6-3.88,12.91-5.78l12.88-5.7,9.51-4.16c3.17-1.39,6.36-2.7,9.53-4l19-8c6.28-2.7,12.63-5.16,18.9-7.72l18.72-7.55c7.82-3.08,9.63-3.73,7.14-2.65L1266.8,9.32c-9.35,3.91-21.31,8.79-34,14.33L1213.22,32ZM31.76,1290.27q-3.68-18.82-6.7-37.55-1.5-9.37-2.79-18.77c-.44-3.13-.83-6.27-1.29-9.36l-1.41-9.36c-1.84-12.5-3.48-25.06-4.69-37.75A327.2,327.2,0,0,1,13.13,1139a128.16,128.16,0,0,1,1-13.7,49.78,49.78,0,0,1,3.36-13.38,16.36,16.36,0,0,1,4-5.8,9.16,9.16,0,0,1,6.81-2.19,16.94,16.94,0,0,1,6.71,2.21,27.16,27.16,0,0,1,5.69,4c4.24,4,6.88,9.43,8.9,14.92,1,2.76,1.88,5.58,2.75,8.42a43.15,43.15,0,0,1,1.95,8.86,16.29,16.29,0,0,1-1.6,9.15,12.69,12.69,0,0,1-3,3.78,9.65,9.65,0,0,1-4.38,2.15,10.67,10.67,0,0,1-4.87-.25,18.67,18.67,0,0,1-4.42-1.9,38.1,38.1,0,0,1-3.94-2.64c-1.3-.9-2.49-2-3.73-2.94a63.7,63.7,0,0,1-6.45-6.59,61.63,61.63,0,0,1-5.32-7.53,70.93,70.93,0,0,1-7.15-16.89c-3.36-11.8-4.29-24-4.86-36.17l-.7-18.21c-.24-6.06-.52-12.13-.68-18.2S3,1034,3,1027.94c0-3,0-6.07,0-9.11l.18-9.1c0-3,.16-6.07.29-9.1l.37-9.1.54-9.09.27-4.55.36-4.54.73-9.07.89-9.07c.55-6,1.37-12.06,2.08-18.09a661,661,0,0,1,13.36-71.63,669.06,669.06,0,0,0-19.39,149.6l-.11,5v15c.13,6.71.19,13.48.51,20.3L3.9,1076c.24,6.93.55,14,1.22,21a126.32,126.32,0,0,0,3.73,21.23,70,70,0,0,0,9,20.17,59.71,59.71,0,0,0,15.9,16,24.63,24.63,0,0,0,5.19,2.81,12.19,12.19,0,0,0,6.14.82,10.24,10.24,0,0,0,5.65-2.88,14.24,14.24,0,0,0,3.3-5.26,13.42,13.42,0,0,1-4.75,6.47,9.85,9.85,0,0,1-3.84,1.62,10.82,10.82,0,0,1-4.13-.06,20.41,20.41,0,0,1-7.11-3.19c-1.06-.7-2-1.47-3.06-2.2s-1.94-1.57-2.92-2.35a60.61,60.61,0,0,1-16.88-24.31c-3.62-9.22-5.29-19-6.28-28.62s-1.2-19.32-1.58-28.88l-.59-14.34c-.23-4.77-.31-9.54-.41-14.31s-.11-9.51-.12-14.26.08-9.48.17-14.21Q3.13,982.93,6,955A641.35,641.35,0,0,1,26.49,846.28,541.33,541.33,0,0,1,66,745.07,454.39,454.39,0,0,1,126,656c1.47-1.68,2.89-3.41,4.4-5l4.54-4.93,4.54-4.93,4.67-4.8q9.44-9.51,19.53-18.31a499.42,499.42,0,0,1,42.27-32.86c58.85-40.63,121.46-76,186.3-109.58,39.23-20.36,79.18-40,119.59-59.55,20.2-9.8,40.49-19.59,61.58-27.66a320.54,320.54,0,0,1,32.21-10.54c5.46-1.48,11-2.69,16.55-3.78s11.17-1.89,16.82-2.38c15.89-1.52,32-.7,47.15,3.5a106.6,106.6,0,0,1,21.79,8.67,64.73,64.73,0,0,1,18,14.43A43.91,43.91,0,0,1,736,418.42a34.44,34.44,0,0,1-3.4,21.85,31.39,31.39,0,0,1-6.71,8.85,24.7,24.7,0,0,1-9.48,5.44c-7,2.14-14.93.73-21.34-2.94a29,29,0,0,0,16.75,3.9c.72-.06,1.43-.16,2.14-.28s1.4-.35,2.1-.52a8,8,0,0,0,1-.28l1-.39,1-.39.5-.19.48-.26,1.91-1c.61-.38,1.19-.82,1.79-1.23.29-.21.61-.39.88-.63l.82-.72a18.71,18.71,0,0,0,1.61-1.47,34.42,34.42,0,0,0,8.46-32.66,44.27,44.27,0,0,0-8.06-15.76,54.18,54.18,0,0,0-6.08-6.6c-1.07-1.05-2.25-2-3.39-2.95s-2.36-1.86-3.61-2.7a69.44,69.44,0,0,0-7.7-4.7l-2-1-2.07-.94c-1.38-.61-2.73-1.3-4.15-1.85a112.4,112.4,0,0,0-17.29-5.48A130.72,130.72,0,0,0,645,370.68a194.6,194.6,0,0,0-36,5.66c-23.68,5.89-46.42,15.14-68.61,25.31-11.11,5.09-22.1,10.45-33.11,15.76l-33,16q-33,16.11-65.62,32.71c-43.53,22.21-86.55,45.4-128.45,70.49q-31.41,18.83-61.87,39.2c-20.27,13.59-40,28.15-58.16,44.45a340.28,340.28,0,0,0-26,25.77c-8.35,8.93-16.09,18.4-23.64,28l-5.5,7.33c-.91,1.23-1.85,2.44-2.74,3.68l-2.63,3.75-5.26,7.51-5,7.67-2.51,3.83-2.4,3.9-4.79,7.82c-1.55,2.63-3,5.3-4.57,8s-3,5.3-4.46,8A511.83,511.83,0,0,0,40.43,802.3c-1,2.87-2.14,5.73-3.16,8.62l-3,8.68L32.85,824l-1.37,4.38-2.73,8.76c-3.41,11.75-6.69,23.54-9.4,35.48A643.07,643.07,0,0,0,6.74,944.88l-.55,4.56L5.73,954l-.92,9.14-.74,9.16c-.25,3.05-.5,6.1-.66,9.16l-.54,9.18c-.17,3.05-.26,6.12-.39,9.18-.29,6.12-.35,12.25-.48,18.37-.11,12.26,0,24.52.49,36.77l.72,18.34c.22,6.11.44,12.25.89,18.39a161.6,161.6,0,0,0,2.27,18.4A89.27,89.27,0,0,0,11.63,1128a61.93,61.93,0,0,0,9.76,16.07,59.44,59.44,0,0,0,6.66,6.71c1.21,1,2.42,2,3.71,2.93a35.33,35.33,0,0,0,4,2.66,19.69,19.69,0,0,0,4.65,2,12,12,0,0,0,5.34.21,10.8,10.8,0,0,0,4.86-2.46,13.76,13.76,0,0,0,3.2-4.15,15.73,15.73,0,0,0,1.57-4.92,21,21,0,0,0,.09-5,46.8,46.8,0,0,0-2.1-9.31c-1.8-5.86-3.66-11.91-7-17.45a28.34,28.34,0,0,0-6.45-7.39l-1-.75-1-.68-1-.66-1.07-.6a22,22,0,0,0-4.62-2,12.86,12.86,0,0,0-5.38-.38,10.16,10.16,0,0,0-5.05,2.34,16.27,16.27,0,0,0-3.31,4.07,29.71,29.71,0,0,0-2,4.52,52.29,52.29,0,0,0-2.23,9.29c-.49,3.1-.8,6.22-1,9.32a263.44,263.44,0,0,0,.84,37.08c1,12.29,2.48,24.53,4.19,36.72.86,6.1,1.79,12.19,2.73,18.26.46,3,.84,6,1.27,9.1s.89,6.09,1.33,9.14c3.67,24.37,8.35,48.59,13.51,72.69,10.34,48.2,22.67,96,33.46,144.09s20,96.69,23.88,145.9c2,24.58,2.43,49.38,4.2,74.24.89,12.43,2.09,24.88,4,37.28a261.34,261.34,0,0,0,8.08,36.82,196.63,196.63,0,0,0,35.07,66.79c15.78,19.83,35.13,36.57,56.05,50.65s43.54,25.61,66.8,35.3a591.39,591.39,0,0,0,71.59,24.21q-23.56-6.46-46.55-14.65c-15.28-5.52-30.32-11.66-45-18.62-3.63-1.8-7.31-3.5-10.89-5.41l-5.4-2.79-5.33-2.93-2.66-1.46-2.63-1.53-5.24-3.07-5.17-3.19c-1.73-1.07-3.45-2.13-5.13-3.27l-5.06-3.35c-1.68-1.14-3.32-2.33-5-3.49-3.34-2.29-6.53-4.8-9.77-7.23-6.35-5-12.61-10.18-18.47-15.78A217.64,217.64,0,0,1,135.3,1807,194.61,194.61,0,0,1,123,1786c-1.92-3.57-3.48-7.32-5.17-11-.84-1.84-1.5-3.76-2.26-5.63s-1.49-3.77-2.18-5.67a256.13,256.13,0,0,1-11.36-46.94c-2.44-15.9-3.7-31.89-4.6-47.85s-1.47-31.9-2.38-47.8-2.39-31.73-4.25-47.55l-1.51-11.86-1.73-11.83c-.55-4-1.2-7.89-1.85-11.82s-1.25-7.88-2-11.81c-2.74-15.73-5.89-31.42-9.19-47.09C61.26,1416.51,44.33,1354.22,31.76,1290.27ZM53,1382.56c6,25.25,12.18,50.4,17.86,75.57s11,50.34,15.22,75.62,7.62,50.62,9.51,76,2.36,50.85,4.43,76.16c1.43,17.2,3.48,34.53,7.45,51.57l1.5,6.39,1.77,6.32.89,3.17c.3,1.05.68,2.08,1,3.13l2.08,6.24c.7,2.08,1.58,4.1,2.36,6.15l1.2,3.07.61,1.53.68,1.51,2.72,6c.92,2,2,3.92,3,5.89l1.51,2.94,1.63,2.87c1.11,1.9,2.17,3.83,3.32,5.71,2.37,3.71,4.68,7.46,7.29,11s5.26,7.07,7.93,10.57c2.86,3.35,5.62,6.79,8.66,10s6.07,6.37,9.17,9.49c1.58,1.53,3.21,3,4.81,4.52.81.74,1.6,1.5,2.42,2.24l2.49,2.15a258.69,258.69,0,0,0,20.68,16.29l5.38,3.78,5.48,3.61c1.82,1.23,3.68,2.37,5.54,3.52s3.7,2.32,5.59,3.41c7.52,4.46,15.19,8.6,22.94,12.52A466.52,466.52,0,0,0,287.69,1912c16.11,6,32.39,11,48.66,15.58,8.14,2.24,16.27,4.38,24.4,6.32l12.15,2.92,12.13,2.74,6,1.36,6,1.27,12,2.52,12,2.33,6,1.15,6,1.07,11.85,2.11,11.8,1.93,5.86,1,5.85.87,11.64,1.73c30.95,4.31,61,7.36,89.78,9.3s56.29,2.64,82.15,2.61,50.08-.79,72.37-1.51c-15.19.44-30.42.86-45.68,1.09s-30.57.34-45.91,0-30.7-.8-46.09-1.56c-7.69-.49-15.39-.84-23.09-1.47l-11.56-.86-11.56-1a1233.27,1233.27,0,0,1-184.62-31.09c-15.29-3.83-30.52-8.07-45.59-12.91s-30-10.28-44.67-16.46c-29.26-12.41-57.68-27.76-82.82-47.88-6.32-5-12.29-10.38-18.12-15.94-2.83-2.87-5.75-5.66-8.43-8.68-1.35-1.5-2.76-3-4.06-4.49l-3.92-4.63c-1.33-1.52-2.52-3.15-3.77-4.74s-2.52-3.17-3.67-4.83c-2.33-3.31-4.72-6.58-6.84-10l-1.64-2.56c-.55-.85-1.09-1.71-1.58-2.59l-3-5.27-.76-1.32-.7-1.35-1.39-2.71-1.39-2.71c-.48-.9-.93-1.81-1.33-2.74a217.79,217.79,0,0,1-15.4-46.19,378.52,378.52,0,0,1-6.74-48.39c2.46,30.92,7.26,55,13.21,72.32A190.54,190.54,0,0,0,128,1792c3.22,5.61,3.64,6.33,1.52,2.64l-2.06-3.6c-.87-1.45-1.71-3.27-2.78-5.32-.53-1-1.09-2.12-1.68-3.27s-1.12-2.44-1.73-3.75l-1.89-4.17c-.69-1.44-1.22-3-1.88-4.63a236.73,236.73,0,0,1-13.89-52.91c-1.71-11.09-3-23.24-4-36.34s-1.59-27.15-2.31-42c-.37-7.45-.75-15.11-1.27-23q-.21-2.94-.4-5.93t-.51-6c-.36-4-.65-8.1-1.08-12.21-1.64-16.48-4-33.69-6.86-51.55-5.75-35.73-14.24-74-23.84-114.38Z" transform="translate(0 -1.03)"/><path class="cls-2" d="M667,369.68A117.32,117.32,0,0,1,688,373.77a112,112,0,0,1,19.91,8.1,68.48,68.48,0,0,1,17.08,13,55.26,55.26,0,0,1,6.6,8.48,44.39,44.39,0,0,1,4.53,9.73A35.4,35.4,0,0,1,738,423.6a37.64,37.64,0,0,1-1.48,10.6c-.28.84-.49,1.72-.83,2.55l-1,2.48-1.22,2.39c-.39.8-.93,1.52-1.39,2.29a31.22,31.22,0,0,1-7.23,7.8,24.16,24.16,0,0,1-9.6,4.44,26,26,0,0,1-10.58.19,31.48,31.48,0,0,1-10-3.62,36.44,36.44,0,0,1-8.28-6.66,45.34,45.34,0,0,1-10-18.64,60.38,60.38,0,0,1-2-10.5l-.21-2.67-.08-2.67c0-1.79.07-3.58.11-5.37A104.81,104.81,0,0,1,685,365c6.23-12.88,14.75-24.52,24.22-35.17a273.81,273.81,0,0,1,31.06-29.38,298.31,298.31,0,0,0-23.71,21.25,196.24,196.24,0,0,0-20.51,24,131.11,131.11,0,0,0-15.79,28.92A100.84,100.84,0,0,0,673.43,410a59,59,0,0,0,5.13,25.45,43.56,43.56,0,0,0,7.26,11,34.35,34.35,0,0,0,10.67,8,30.81,30.81,0,0,0,13.06,3,23.57,23.57,0,0,0,6.73-.88,19.25,19.25,0,0,0,3.24-1.08l.8-.31c.26-.11.51-.26.76-.39l1.51-.81a29.39,29.39,0,0,0,9.85-9.39,37.22,37.22,0,0,0,5.35-12.6,35.64,35.64,0,0,0,.4-13.77,41.65,41.65,0,0,0-4.63-13,59.67,59.67,0,0,0-19-20.1C699,375,680.37,369.75,661.7,368.67a154,154,0,0,0-28.06,1A217.33,217.33,0,0,0,606.06,375c-18.16,4.69-35.73,11.33-52.84,18.72s-33.8,15.6-50.42,23.6-33.1,16.05-49.4,24.08c-46.83,23.08-93.57,47.05-139.5,73.09q-34.44,19.53-68.11,40.8c-22.35,14.29-44.66,28.89-65.7,45.45q-7.89,6.21-15.52,12.75T149.66,627q-7.31,6.94-14.18,14.35l-6.81,7.42c-2.27,2.48-4.4,5.09-6.61,7.63l-3.29,3.83c-1.09,1.28-2.11,2.62-3.17,3.92l-6.32,7.89-6.06,8.08c-1,1.36-2,2.68-3,4.07l-2.9,4.14c-7.84,11-15,22.43-21.83,34.1l-5,8.8-4.78,9c-.79,1.5-1.61,3-2.37,4.49l-2.25,4.54c-1.49,3-3.06,6-4.47,9.12-5.81,12.23-11.08,24.73-16,37.37-4.77,12.7-9.26,25.52-13.16,38.54S19.93,860.4,17,873.69A687.32,687.32,0,0,0,.06,1036.46l.21,10.29c.08,3.43.26,6.86.38,10.29q.41,10.24.82,20.49c.55,13.69,1.27,27.73,5.08,41.5a73.22,73.22,0,0,0,8.63,19.72A60.48,60.48,0,0,0,30,1154.66l2.2,1.61c.77.53,1.57,1,2.41,1.53a21.08,21.08,0,0,0,5.7,2.37,12.61,12.61,0,0,0,12.8-4,16.83,16.83,0,0,0,3.25-5.65,18.66,18.66,0,0,0,1-6.23,39.11,39.11,0,0,0-2-11.14c-1-3.33-2-6.67-3.32-10.05a48.82,48.82,0,0,0-5-9.95,30.34,30.34,0,0,0-3.7-4.52c-.34-.36-.71-.69-1.09-1s-.73-.68-1.14-1l-1.19-.91-1.2-.79a28.66,28.66,0,0,0-5.22-2.76,16.13,16.13,0,0,0-6.52-1.18,11.92,11.92,0,0,0-6.81,2.49,16.7,16.7,0,0,0-4.24,5,37.82,37.82,0,0,0-3.76,10.8,115.52,115.52,0,0,0-2,21.29,363.42,363.42,0,0,0,2.42,41.81c1.49,13.83,3.48,27.62,5.63,41.31l.39,2.55.36,2.52.72,5.17c.48,3.45,1,6.88,1.52,10.33,1.07,6.87,2.18,13.75,3.4,20.6,2.39,13.72,5.09,27.39,7.94,41,5.72,27.27,12.15,54.39,18.66,81.51,5.06,21.39,16.64,68.56,24,104.23-14.14-68.72-32.91-136.08-46.23-204.4q-5-25.61-8.77-51.39l-.89-6.45-.44-3.17-.49-3.18-1.94-12.84c-1.25-8.58-2.39-17.18-3.34-25.8s-1.73-17.26-2.2-25.94a228.91,228.91,0,0,1-.11-26.2A93.31,93.31,0,0,1,12.58,1119a43,43,0,0,1,1.94-6.67,22.77,22.77,0,0,1,3.71-6.53,12.13,12.13,0,0,1,7.36-4.31,14.84,14.84,0,0,1,8,1.14,31.71,31.71,0,0,1,6.25,3.56,26.51,26.51,0,0,1,5.26,5,44.91,44.91,0,0,1,6.55,12.15c.8,2.09,1.49,4.18,2.14,6.26s1.29,4.11,1.87,6.31a35.38,35.38,0,0,1,1.19,7,22.26,22.26,0,0,1-.1,3.73,17.72,17.72,0,0,1-.88,3.81,15.68,15.68,0,0,1-4.37,6.63,12.3,12.3,0,0,1-3.65,2.23,11.61,11.61,0,0,1-4.25.8,16.46,16.46,0,0,1-7.56-2,32.68,32.68,0,0,1-3.07-1.82c-1-.64-1.83-1.32-2.75-2a62.11,62.11,0,0,1-9.81-9.23A66.27,66.27,0,0,1,7.8,1121.59,122.83,122.83,0,0,1,3,1095.83c-.79-8.62-1-17.2-1.35-25.7l-.53-12.75c-.15-4.27-.38-8.54-.43-12.82S.5,1036,.51,1031.75s0-8.54,0-12.81A698.91,698.91,0,0,1,9.05,917.1a612,612,0,0,1,24.11-99c5.41-16.09,11.48-32,18.37-47.46a507.27,507.27,0,0,1,23-45.36A468.81,468.81,0,0,1,102,682.62a423.31,423.31,0,0,1,32.27-39.18c22.91-25,49.61-46.15,77.44-65.16s56.49-36.76,85.6-53.71c58.23-33.88,118.33-64.35,178.9-93.89l45.53-22c15.21-7.29,30.55-14.38,46.28-20.57a306,306,0,0,1,48.4-15C633,369.59,650.07,368,667,369.68Z" transform="translate(0 -1.03)"/><path class="cls-2" d="M490.71,1962q30.5,4,61.07,6.53t61,3.44c40.52,1.43,80.57.31,119.58-.77-35.45.8-77.49,2-120.44.37a1241.14,1241.14,0,0,1-125.38-10.78q-40.87-5.57-81.32-13.84c-6.72-1.44-13.47-2.76-20.16-4.32s-13.41-3-20.08-4.65c-13.36-3.13-26.69-6.64-39.88-10.52a542,542,0,0,1-77.25-28.81c-24.85-11.74-48.69-25.9-70-43.39,21.24,17.54,45,31.77,69.95,43.6a542.39,542.39,0,0,0,77.68,29.12c13.33,3.94,26.83,7.5,40.39,10.7s27.24,6.29,41,9.17Q448.17,1956.29,490.71,1962Z" transform="translate(0 -1.03)"/><path class="cls-2" d="M75.27,1491.65c4.5,21.93,8.51,43.94,11.7,66.35,3.75,25.65,6,51.54,7.16,77.8s2.18,52.89,6.09,79.55a267.73,267.73,0,0,0,8.71,39.65,193.81,193.81,0,0,0,16,37.73c13.32,24,31.72,45.09,52.93,62.49A234.1,234.1,0,0,1,147,1824.57c-2.38-2.73-4.53-5.67-6.76-8.54-1.13-1.41-2.15-2.93-3.19-4.41l-3.13-4.46-2.93-4.6c-.95-1.54-2-3-2.85-4.64-1.78-3.17-3.69-6.26-5.27-9.53a203.29,203.29,0,0,1-15.6-40.51,296.56,296.56,0,0,1-7.93-42.42c-3.38-28.51-3.81-57.06-5.46-85.39l-.68-10.62-.88-10.61-.45-5.3-.55-5.3-1.13-10.6c-1.74-14.11-3.64-28.23-6.05-42.31a15.68,15.68,0,0,1-.76-3.22c-.41-2.13-1-5.26-1.79-9.17C80.05,1515.1,77.9,1504.12,75.27,1491.65Z" transform="translate(0 -1.03)"/></g></g></g></svg>