<svg xmlns="http://www.w3.org/2000/svg" viewBox="0 0 879.61 2732.69"><defs><style>.cls-1{opacity:0.8;}.cls-2{fill:#202020;}</style></defs><g id="Layer_2" data-name="Layer 2"><g id="Layer_1-2" data-name="Layer 1"><g class="cls-1"><path class="cls-2" d="M793.63,36c-15.76,6.65-31.13,13.73-45.86,21.67l-5.55,2.91-5.45,3.07c-3.62,2.06-7.25,4.07-10.83,6.15-7.06,4.33-14.19,8.48-21,13a581.14,581.14,0,0,0-76.63,59.33l-8.69,8.23-4.32,4.12-4.21,4.23-8.38,8.47-8.11,8.68c-1.35,1.46-2.73,2.88-4,4.36l-3.92,4.46c-2.59,3-5.24,5.92-7.8,8.93-5,6.12-10.16,12.09-14.91,18.39-9.8,12.37-18.8,25.32-27.53,38.45-4.22,6.67-8.56,13.26-12.5,20.11l-3,5.09c-1,1.7-2,3.4-3,5.14l-5.73,10.4a545.59,545.59,0,0,0-30.27,66.25q-3,8.47-6.06,16.92a79.27,79.27,0,0,0-3.49,15.89,69.62,69.62,0,0,0-.11,16,34.17,34.17,0,0,0,4.08,13.46,14.26,14.26,0,0,0,3.64,4.13,11.67,11.67,0,0,0,4.62,2.07c.22.05.44.12.67.16l.71.08.72.1h.61c.2,0,.41,0,.61,0l.57-.05a6.59,6.59,0,0,0,1.11-.17,9,9,0,0,0,4.07-2.07,15.52,15.52,0,0,0,3.5-4.4,23.74,23.74,0,0,0,2.24-6.07,25.26,25.26,0,0,0-.42-13,16.53,16.53,0,0,0-2.69-5.22,16,16,0,0,0-4.39-3.82,26.43,26.43,0,0,0-12.8-3.89c-9.45-.5-19.81,3.13-28.12,9.15a49.86,49.86,0,0,0-5.86,5c-.45.45-.88.92-1.32,1.37l-1.31,1.51-1.32,1.52-1.25,1.6a91.88,91.88,0,0,0-8.82,14c-5.21,10-9.17,21.19-13.33,32.68-1,2.87-2.07,5.78-3.21,8.67l-3.48,8.66q-1.75,4.33-3.5,8.68l-.87,2.17-1,2.13-2,4.25q-1.95,4.26-3.92,8.53l-2,4.27c-.63,1.44-1.41,2.8-2.11,4.2l-8.69,16.76c-24.38,44.2-55.59,85.47-91.65,124.42-17.95,19.24-36.43,37.24-55.2,54.42l-7,6.44c-2.34,2.14-4.75,4.2-7.11,6.3L219,720.49l-3.55,3.13-3.59,3.06-14.38,12.21q-7.22,6.06-14.65,12t-15.22,11.45c-5.22,3.66-10.54,7.21-16.06,10.53a193.1,193.1,0,0,1-17.13,9.12c-1.45.73-3,1.31-4.47,2s-3,1.3-4.54,1.86l-4.59,1.73L116.1,789c-1.55.54-3.16.94-4.75,1.38s-3.16.89-4.81,1.23c-3.27.77-6.57,1.33-9.89,1.77a109.39,109.39,0,0,1-20.07.75,96.8,96.8,0,0,1-39.21-10.38,88,88,0,0,1-9-5.49,80,80,0,0,1-8.21-6.75,75.45,75.45,0,0,1-7.17-8,70.65,70.65,0,0,1-5.89-9.11A62.33,62.33,0,0,1,.6,733.73,67.5,67.5,0,0,1,0,722.92c.1-1.8.12-3.61.35-5.39.1-.89.17-1.79.3-2.68l.43-2.66a77.14,77.14,0,0,1,18.59-38.36,66.87,66.87,0,0,1,17.13-13.71c1.67-.82,3.28-1.76,5-2.44.86-.36,1.7-.75,2.58-1.08l2.64-.93c.88-.33,1.79-.55,2.69-.8s1.81-.52,2.71-.7c1.81-.36,3.61-.77,5.45-1a69.16,69.16,0,0,1,22,.45,82,82,0,0,1,10.63,2.72,85.48,85.48,0,0,1,10.1,4.12,103.46,103.46,0,0,1,33.69,26.64,113.45,113.45,0,0,1,12.32,17.74c1.75,3.17,3.37,6.41,4.83,9.75.71,1.66,1.33,3.32,2,5l1,2.49.86,2.54,1.71,5.09,1.46,5.15c.52,1.71.9,3.45,1.32,5.19s.86,3.46,1.18,5.21c1.45,7,2.46,14,3.27,21,3,28.2,1.57,56.35,2.33,84.14s3.13,55.85,9.18,83.18a257,257,0,0,0,12.2,40q3.95,9.71,8.81,19a172.56,172.56,0,0,0,10.87,17.84c2,2.89,4.09,5.64,6.2,8.41s4.41,5.39,6.79,7.94l1.75,1.94,1.83,1.87,1.83,1.87.92.93,1,.89,3.86,3.54,1.92,1.78c.65.59,1.35,1.12,2,1.69a249.58,249.58,0,0,0,35,24.09C276,1068.63,284,1073.11,293,1078s19,10.23,28.11,15.34c2.26,1.3,4.49,2.5,6.6,3.76l6.07,3.58c3.83,2.29,7.18,4.46,9.93,6.11,5.38,3.53,8.27,5.28,7,4a212.87,212.87,0,0,1,32.46,28.64,291.86,291.86,0,0,1,26.56,33.63c16,23.49,29.13,48.41,41.93,73.1,6.37,12.34,13,24.89,17.65,38.53a111.45,111.45,0,0,1,5.18,21.18,84.64,84.64,0,0,1,.76,11.05c0,1.85-.12,3.71-.18,5.56-.09,1-.18,1.91-.29,2.86s-.26,1.89-.43,2.83a61.8,61.8,0,0,1-8,21,57,57,0,0,1-15.24,16.71,42,42,0,0,1-21.74,8.13c-1,.08-2,.06-3,.09s-2-.08-3-.17-1.94-.2-3-.4a27.66,27.66,0,0,1-3.05-.73,32.42,32.42,0,0,1-10.77-5.67,31.48,31.48,0,0,1-8-9.26,23.31,23.31,0,0,1-3.09-12.59,19.72,19.72,0,0,1,1.57-6.64,25.14,25.14,0,0,1,1.53-3l.95-1.39c.33-.45.71-.88,1.07-1.32a20,20,0,0,1,5.29-4.28,22.32,22.32,0,0,1,6.16-2.32,32.28,32.28,0,0,1,12.11-.09,48.55,48.55,0,0,1,10.95,3.31,54.77,54.77,0,0,1,9.84,5.48,48.56,48.56,0,0,1,4.48,3.53c1.38,1.25,2.61,2.47,3.92,3.7a143.52,143.52,0,0,1,25.23,34,179.84,179.84,0,0,1,8.93,19.09q2,4.88,3.65,9.85c1.14,3.3,2.19,6.66,3.12,10.08a93.91,93.91,0,0,1,3.52,21.26,59.93,59.93,0,0,1-.59,11.09,52.17,52.17,0,0,1-1.11,5.51c-.21.91-.51,1.83-.81,2.75l-.46,1.38-.54,1.33a42.74,42.74,0,0,1-13.84,18.12,34.81,34.81,0,0,1-10.51,5.41,22.07,22.07,0,0,1-2.93.75c-.5.1-1,.23-1.49.29l-1.52.17-1.52.15H461l-1.53,0c-.52,0-1.07-.09-1.6-.14a25.81,25.81,0,0,1-11.6-4.61,29.9,29.9,0,0,1-8.26-8.88,26.94,26.94,0,0,1-3.94-11.74,21,21,0,0,1,3-12.75,21.88,21.88,0,0,1,9.77-8.52,27.31,27.31,0,0,1,12.18-2.19,37.21,37.21,0,0,1,11.5,2.35,40.64,40.64,0,0,1,10.21,5.5,34.69,34.69,0,0,1,3.78,3.21c1.15,1.16,2.17,2.31,3.24,3.48s2,2.45,2.91,3.76,1.82,2.6,2.56,4a54.62,54.62,0,0,1,6.53,17.74,69.13,69.13,0,0,1,.77,18.65,87.31,87.31,0,0,1-3.71,18,110.06,110.06,0,0,1-16.61,32.36,113,113,0,0,1-12,13.78c-1.08,1.09-2.24,2.09-3.36,3.13s-2.29,1.94-3.44,2.92-2.28,1.95-3.45,2.87l-3.55,2.74c-9.48,7.27-19.44,13.67-29.36,19.86s-19.83,12.25-29.27,18.76c-2.39,1.59-4.65,3.33-7,5s-4.51,3.47-6.76,5.2-4.35,3.61-6.44,5.5l-3.09,2.88-1.54,1.43-1.46,1.51a127.68,127.68,0,0,0-11,12.63,140.79,140.79,0,0,0-9.18,13.94,160.27,160.27,0,0,0-11.29,24.67,214.28,214.28,0,0,0-7.43,26.22,350.58,350.58,0,0,0-6.78,54.36c-.5,9.15-.8,18.33-1,27.51l-.18,13.86v1.77c0,.58,0,1.18-.08,1.8l-.25,3.52-.51,6.89q-2,27.54-3.93,55-3.82,54.93-7.19,109.63-1.64,27.35-3,54.66c-.87,18.18-1.75,36.45-2.12,54.52,0,5,.07,11.47.68,18.49.3,3.52.75,7.17,1.36,10.84a104.41,104.41,0,0,0,2.51,10.94,79.74,79.74,0,0,0,3.79,10.28c.33.82.75,1.59,1.15,2.36s.78,1.54,1.17,2.3c.8,1.49,1.72,2.88,2.52,4.27a80.6,80.6,0,0,0,10,12.47,81.68,81.68,0,0,0,29.7,19.25c11.07,4.18,23.11,6.17,34.64,5s22.54-6,29.2-14.91a30.82,30.82,0,0,0,6.36-14.82,24.55,24.55,0,0,0-.24-7.85,20.21,20.21,0,0,0-2.92-7.11,23.69,23.69,0,0,0-12-9.54,16.63,16.63,0,0,0-14.24,1.48c-4.26,2.59-7.49,7.06-9.35,12a31.54,31.54,0,0,0-1.82,7.79,36.9,36.9,0,0,0,.16,8.12,67.39,67.39,0,0,0,4.47,16.34c2.12,5.38,4.67,10.76,7.14,16.23,4.94,10.89,9.84,21.87,14.08,33.16a197.75,197.75,0,0,1,10,35c.59,3,.95,6,1.34,9.07.23,1.52.27,3.06.41,4.59s.28,3,.28,4.6l.08,4.61c.06,1.54-.09,3.08-.12,4.62a91.64,91.64,0,0,1-.74,9.22,144.62,144.62,0,0,1-9.46,35.29c-2.22,5.63-4.67,11.13-7.29,16.53-1.29,2.7-2.68,5.36-4.06,8l-2.06,4-2.17,3.92a344.67,344.67,0,0,1-19,30.49,355.07,355.07,0,0,1-22.11,28.31q-11.76,13.61-24.85,26t-27.43,23.4a360.14,360.14,0,0,1-90.86,51.09,344.15,344.15,0,0,1-47.84,14.4c-2,.5-4.13.88-6.22,1.3l-6.28,1.24c-4.23.77-8.55,1.43-12.95,1.95a132.22,132.22,0,0,1-13.51.92,93.39,93.39,0,0,1-14.08-.72,59.82,59.82,0,0,1-17.93-4c-1-.38-2-.86-3-1.3-.52-.23-1-.45-1.56-.71L91,2538.5a46.12,46.12,0,0,1-6.5-4,50.34,50.34,0,0,1-17.9-25.65,46.64,46.64,0,0,1-1.87-9.7,39.26,39.26,0,0,1,.75-11.56,33.3,33.3,0,0,1,16.07-22,34.7,34.7,0,0,1,14.82-4.26,43.68,43.68,0,0,1,15.5,1.92,51.29,51.29,0,0,1,14.37,7,53.23,53.23,0,0,1,6.38,5.32,47.82,47.82,0,0,1,5.5,6.54,40.41,40.41,0,0,1,4.26,7.76c.63,1.41,1,2.73,1.45,4.1l.65,2,.49,2.09a60.28,60.28,0,0,1,1.47,17.15c-.68,11.49-4.11,22.57-9,32.74a128.12,128.12,0,0,1-8.31,14.67c-3.09,4.7-6.35,9.11-9.7,13.4-6.69,8.58-13.62,16.64-19.87,24.74-3.12,4.05-6.08,8.11-8.78,12.22a101,101,0,0,0-7.15,12.52,120.55,120.55,0,0,0-9.13,25.89c-.46,2.17-1,4.29-1.37,6.44s-.71,4.25-1.06,6.34-.53,4.19-.79,6.23-.37,4.09-.56,6.08c-.6,8-.84,15.52-.76,22.41,0,3.43.13,6.71.17,9.8s.24,6,.35,8.73c.52,10.86,1.08,18.56,1.24,22,.12,1.72-.67-6.23-1.66-21.33-.44-7.55-.92-16.88-.8-27.66l0-4.11q.09-2.08.18-4.23c.08-2.87.33-5.8.56-8.83.1-1.51.27-3,.46-4.57s.36-3.11.54-4.69.5-3.15.76-4.76c.12-.8.25-1.61.38-2.42s.34-1.61.5-2.42c.34-1.63.69-3.27,1-4.92s.87-3.29,1.31-5,1-3.32,1.51-5c.27-.83.54-1.67.82-2.51l.41-1.27.49-1.24c.66-1.65,1.32-3.33,2-5s1.53-3.3,2.3-5a101.33,101.33,0,0,1,5.39-9.86,206.68,206.68,0,0,1,13.84-19.4c5.09-6.48,10.54-13,15.9-20,2.67-3.49,5.33-7.07,7.88-10.79a135.69,135.69,0,0,0,7.16-11.75,98.84,98.84,0,0,0,10-26.45c.29-1.17.46-2.37.65-3.57s.42-2.39.5-3.62l.32-3.65.06-3.7a59,59,0,0,0-2-14.78c-.32-1.21-.77-2.39-1.15-3.59-.21-.6-.37-1.19-.62-1.79l-.77-1.81a43.57,43.57,0,0,0-3.9-6.72,49.08,49.08,0,0,0-5-5.82,51.43,51.43,0,0,0-5.89-4.87,52.75,52.75,0,0,0-6.56-3.87,49.4,49.4,0,0,0-7.1-2.8A41.16,41.16,0,0,0,96,2464a31.54,31.54,0,0,0-15,5.08,30.43,30.43,0,0,0-10.33,11.94,33.72,33.72,0,0,0-3.22,15.1,43.26,43.26,0,0,0,2.85,14.59,49.28,49.28,0,0,0,7.07,12.67,46,46,0,0,0,10.4,9.92c.49.35,1,.66,1.52,1s1,.64,1.53.9l3.07,1.65a65.77,65.77,0,0,0,6.36,2.65,67.29,67.29,0,0,0,13,3.24,95.08,95.08,0,0,0,12.92,1q6.35,0,12.46-.57a210,210,0,0,0,23.24-3.67c7.4-1.49,14.47-3.23,21.2-5a337,337,0,0,0,35.89-12l3.84-1.52c1.26-.5,2.47-1,3.67-1.55,2.39-1,4.7-2,6.89-3,4.35-2,8.35-3.82,11.84-5.63,14.06-7,21.18-11.52,20-10.89l-5.92,3.28-5.59,2.94c-1.06.55-2.19,1.16-3.39,1.77l-3.82,1.88a357.08,357.08,0,0,1-43.77,18.13c-9.12,3.09-19.09,6-29.72,8.53l-8.1,1.84-8.34,1.66c-5.64,1.06-11.47,2-17.46,2.54a115.23,115.23,0,0,1-18.44.38,75.78,75.78,0,0,1-18.86-3.51,60.64,60.64,0,0,1-9.06-3.9l-2.19-1.18c-.72-.45-1.45-.89-2.16-1.37a43.13,43.13,0,0,1-4-3.1,47.87,47.87,0,0,1-12.05-16.18,44.69,44.69,0,0,1-3.2-9.68,38.14,38.14,0,0,1-.81-10.3,32.27,32.27,0,0,1,2.24-10.25,29.65,29.65,0,0,1,5.61-8.95A28.71,28.71,0,0,1,84.6,2468a31.27,31.27,0,0,1,10-3,40.68,40.68,0,0,1,19.63,2.68,47.84,47.84,0,0,1,16.1,10.34,42.46,42.46,0,0,1,6,7.33,36.5,36.5,0,0,1,4,8.42,55.4,55.4,0,0,1,3,17.32,68.72,68.72,0,0,1-1.83,16.38,100.67,100.67,0,0,1-10.87,27.14c-2.21,3.87-4.5,7.47-6.8,10.71s-4.51,6.23-6.6,9c-4.23,5.48-8,10-10.87,13.62s-5.07,6.31-6.39,8c6.76-8.7,13.86-17.14,20.35-26a152.55,152.55,0,0,0,9.13-13.76,117,117,0,0,0,7.25-14.74c4.12-10.09,6.53-21,6.06-31.87-.11-1.36-.11-2.72-.32-4.07s-.38-2.69-.61-4-.63-2.64-.94-4-.83-2.58-1.25-3.86a34.62,34.62,0,0,0-3.56-7.41,42.4,42.4,0,0,0-5-6.42,46.61,46.61,0,0,0-12.79-9.47,44.2,44.2,0,0,0-15.07-4.54,33.12,33.12,0,0,0-15.64,1.84,28,28,0,0,0-12.5,9.5,29.53,29.53,0,0,0-5.6,14.35,38.43,38.43,0,0,0,1.3,14.91,46.72,46.72,0,0,0,16,23.84,57.87,57.87,0,0,0,25.79,10.39,103,103,0,0,0,26.75.41c4.36-.45,8.66-1.09,12.9-1.82l3.17-.56,3.14-.64,6.24-1.27c8.26-1.88,16.37-3.87,24.24-6.28a349.52,349.52,0,0,0,84.72-38.23,357.34,357.34,0,0,0,64.48-51.11,351.34,351.34,0,0,0,45.43-55.92A320.55,320.55,0,0,0,400,2357.23,246.82,246.82,0,0,0,412.42,2330a143.31,143.31,0,0,0,7.41-26.58,94.33,94.33,0,0,0,1.38-12.87c.07-2.11.24-4.19.14-6.26l-.06-3.07,0-1.53-.12-1.51a131.09,131.09,0,0,0-3.44-22.81,203.26,203.26,0,0,0-5.91-20.08c-4.41-12.5-9.18-23.36-13.5-32.95s-8.4-17.85-11.13-25.39a59.68,59.68,0,0,1-4.1-19.88,38.18,38.18,0,0,1,.68-7.51,36.74,36.74,0,0,1,1.57-5.54,34.42,34.42,0,0,1,2.76-5.78c.55-.88.5-.84-.1.06a31,31,0,0,0-2.76,5.56c-.14.35-.28.72-.42,1.1s-.25.8-.38,1.21c-.28.83-.5,1.74-.72,2.7s-.37,2-.57,3.08-.28,2.24-.29,3.45a52,52,0,0,0,2.32,16.59,147.31,147.31,0,0,0,7.79,19.66c3.19,7,6.67,14.66,10.18,22.94s7.07,17.22,10.12,26.89a163.3,163.3,0,0,1,6.79,31.15,113.94,113.94,0,0,1,.53,17,103.26,103.26,0,0,1-2.16,17.53,166,166,0,0,1-12,35.18,334.54,334.54,0,0,1-42,68.11,356.19,356.19,0,0,1-60.22,59.46,357.26,357.26,0,0,1-73.55,44.19,342.09,342.09,0,0,1-79.86,24.49,143.32,143.32,0,0,1-26.76,2.08c-9.41-.29-19.47-1.9-28.93-6.54-9.57-4.45-17.61-13.13-21.86-23.84a39.61,39.61,0,0,1-2.82-17.42,28.7,28.7,0,0,1,7.13-17.07,26.54,26.54,0,0,1,7.68-6,29.06,29.06,0,0,1,9.45-2.94,39.08,39.08,0,0,1,19.82,2.85,45.13,45.13,0,0,1,17,12,38.92,38.92,0,0,1,5.94,9.07c.34.85.76,1.69,1,2.55l.87,2.59.43,1.31.32,1.33c.21.9.42,1.79.64,2.69a61.22,61.22,0,0,1,0,22.3c-.12.94-.36,1.86-.55,2.79l-.63,2.78c-.25.92-.51,1.84-.77,2.76s-.51,1.85-.84,2.75c-.61,1.82-1.22,3.65-2,5.43-.37.89-.7,1.81-1.09,2.69l-1.2,2.66a126.23,126.23,0,0,1-12,20.41c-4.62,6.53-9.7,12.84-14.84,19.22,6-7.64,13-16.22,19.4-26.42a115.55,115.55,0,0,0,8.52-16.56,85.31,85.31,0,0,0,5.48-18.89,61,61,0,0,0,0-20.4,22.69,22.69,0,0,0-.54-2.55l-.62-2.53c-.53-1.65-1.08-3.31-1.7-4.94a36.61,36.61,0,0,0-5.37-9.05,44,44,0,0,0-16.57-12.56,39,39,0,0,0-20.21-3.31,28.49,28.49,0,0,0-9.68,3,25.13,25.13,0,0,0-7.69,6.29,27.78,27.78,0,0,0-6.28,17.8,39.42,39.42,0,0,0,4.11,17.44,44.4,44.4,0,0,0,9.81,13.33,39.07,39.07,0,0,0,6.12,4.65c1,.68,2.17,1.19,3.23,1.77a33.59,33.59,0,0,0,3.23,1.51,61.5,61.5,0,0,0,12.43,3.79,89.94,89.94,0,0,0,19,1.39,139.42,139.42,0,0,0,15.43-1.36c4.94-.7,9.68-1.56,14.23-2.53,9.12-1.79,17.46-4,25.22-6.15a340.91,340.91,0,0,0,39.78-14.24,332.38,332.38,0,0,0,30.12-14.7c9-5,17.26-9.9,25.42-15.37s16.36-11.21,25-18.07,17.78-14.65,27.72-24.27l3.79-3.68,3.81-3.9c2.62-2.62,5.2-5.45,7.89-8.37l2-2.21,2-2.3,4.12-4.73,4.15-5c1.41-1.7,2.84-3.44,4.22-5.26l4.29-5.52,4.28-5.85c1.48-2,2.88-4.05,4.32-6.15s2.95-4.22,4.35-6.46A315.84,315.84,0,0,0,399,2353.31a221.43,221.43,0,0,0,12.64-28.51,124.9,124.9,0,0,0,7.15-32.35,122.3,122.3,0,0,0-2.87-34.88c-2.53-11.77-6.6-23.5-11.27-35.21q-3.56-8.76-7.5-17.57t-8-17.75a103.43,103.43,0,0,1-6.68-19.08,52.83,52.83,0,0,1-1.28-10.4,38.46,38.46,0,0,1,1.26-10.66,35.72,35.72,0,0,1,4.33-10,29,29,0,0,1,7.57-8.14,23.75,23.75,0,0,1,10.61-4.2,24.48,24.48,0,0,1,11.32,1.27,30.61,30.61,0,0,1,16.57,14.4c.4.85.83,1.7,1.2,2.56s.65,1.79.94,2.69l.66,2.79.36,2.78a33,33,0,0,1-1,11,40.71,40.71,0,0,1-11,18.55,42.22,42.22,0,0,1-8.59,6.52,50,50,0,0,1-9.72,4.29,64.69,64.69,0,0,1-20.55,2.93,85.7,85.7,0,0,1-20.12-2.7,92.54,92.54,0,0,1-35.33-17.62,81,81,0,0,1-23.38-30.31c-5.06-11.6-7.15-23.77-8-35.32a324.19,324.19,0,0,1-.12-33.24c.65-21.12,1.57-40.52,2.39-57.75-.63,17.94-1.55,41.81-2,69.34-.07,6.91.05,14.1.6,21.49.32,3.69.69,7.43,1.32,11.2.26,1.88.68,3.77,1,5.66s.83,3.8,1.38,5.68a80.32,80.32,0,0,0,9.47,22c.27.43.52.88.8,1.3l.88,1.25,1.76,2.5c1.23,1.63,2.54,3.2,3.84,4.79l2.09,2.26c.7.75,1.38,1.52,2.14,2.21,1.5,1.41,2.94,2.89,4.55,4.17a90.55,90.55,0,0,0,20.87,13.33,92.53,92.53,0,0,0,23.81,7.15,74.06,74.06,0,0,0,24.81-.06,53.78,53.78,0,0,0,11.9-3.61,42.64,42.64,0,0,0,10.56-6.49,41.88,41.88,0,0,0,8.09-9.2,36.17,36.17,0,0,0,4.85-11.11,31.2,31.2,0,0,0,.61-12,26.18,26.18,0,0,0-4.36-11,28.11,28.11,0,0,0-18.76-12.06,21.52,21.52,0,0,0-11,1.3,23.68,23.68,0,0,0-8.73,6.09,26.45,26.45,0,0,1,4.28-3.71,23.19,23.19,0,0,1,5-2.55,21.59,21.59,0,0,1,10.89-1,25.84,25.84,0,0,1,9.81,3.89,29.18,29.18,0,0,1,7.45,7,27.19,27.19,0,0,1,4.46,8.92,27.67,27.67,0,0,1,.85,9.67,35.22,35.22,0,0,1-6.36,17.22A39.88,39.88,0,0,1,414.79,2185a45.59,45.59,0,0,1-7.62,3.6,50.22,50.22,0,0,1-7.91,2.24,67.1,67.1,0,0,1-15.75,1.25c-2.57-.08-5.12-.29-7.62-.62-1.25-.14-2.48-.37-3.71-.58s-2.46-.38-3.66-.69l-3.59-.85c-1.19-.27-2.34-.68-3.51-1-2.34-.64-4.57-1.54-6.82-2.34a91.64,91.64,0,0,1-12.63-6.14,85.73,85.73,0,0,1-20.88-16.94A76.74,76.74,0,0,1,307.26,2141a96.19,96.19,0,0,1-4-12.14,123.7,123.7,0,0,1-2.36-12.46,193.77,193.77,0,0,1-1.46-25.29c0-8.5.29-17,.5-25.79.51-17.52,1.19-35.91,2.12-55.95,1.82-40.07,4.46-86.77,8.51-146.43.72-11.1,1.5-23.1,2.33-35.8q.61-9.53,1.25-19.56c.06-.79.11-1.59.16-2.38s0-1.65,0-2.47v-5q0-5.14.06-10.39c.31-13.35.82-26.37,2-40a321.79,321.79,0,0,1,6.54-43.52c1.34-6.1,3-12.13,4.82-18.07a176.76,176.76,0,0,1,6.46-17.48,161.68,161.68,0,0,1,8.29-16.61,149.07,149.07,0,0,1,10.27-15.38l2.87-3.62c1-1.19,2-2.33,3-3.5s2.06-2.27,3.12-3.38l3.18-3.32c1.09-1.07,2.22-2.09,3.32-3.14s2.2-2.11,3.37-3.09l3.46-2.94,1.73-1.47,1.78-1.4A344,344,0,0,1,407.92,1590c9.92-6.31,19.82-12.4,29.28-18.91l3.54-2.45,3.46-2.53c1.15-.85,2.33-1.66,3.44-2.54l3.35-2.63c2.28-1.72,4.36-3.62,6.53-5.43s4.12-3.74,6.07-5.72a105.62,105.62,0,0,0,19-27.16,85.2,85.2,0,0,0,8.83-31.44,56.94,56.94,0,0,0-1.06-15.94,47.16,47.16,0,0,0-5.81-14.56c-.76-1.06-1.43-2.19-2.24-3.22s-1.58-2.09-2.51-3l-1.34-1.44c-.45-.48-.87-.88-1.34-1.3a30.24,30.24,0,0,0-2.95-2.3,31,31,0,0,0-14-5.23c-4.88-.51-9.67.54-12.83,3.37a13.47,13.47,0,0,0-2.1,2.42,10.1,10.1,0,0,0-1.35,2.76,12.58,12.58,0,0,0-.3,6.36,20.16,20.16,0,0,0,7.42,11.68,17.54,17.54,0,0,0,6.13,3.08,12.21,12.21,0,0,0,3.32.46c.59,0,1.18,0,1.78,0l1.77-.19a23.89,23.89,0,0,0,6.91-2.2,29.21,29.21,0,0,0,6.18-4.28,31.85,31.85,0,0,0,5.07-5.78,37.11,37.11,0,0,0,2.05-3.3,38.37,38.37,0,0,0,1.62-3.51l.37-.9.3-.91c.18-.62.43-1.2.57-1.86l.49-1.92.37-2a53.38,53.38,0,0,0,.71-8,73.73,73.73,0,0,0-2-16.5,148.33,148.33,0,0,0-4.86-16.53q-2.88-8.21-6.54-16.15a149.57,149.57,0,0,0-18.09-29.88,117.89,117.89,0,0,1,11.58,17.81,205,205,0,0,1,9.06,19.55c3.68,9.42,7,19.1,8.7,28.59.42,2.38.78,4.75,1,7.11.13,1.17.15,2.34.22,3.51s.06,2.34,0,3.48a46.35,46.35,0,0,1-.69,6.8,41.08,41.08,0,0,1-1.67,6.4,33.77,33.77,0,0,1-2.84,5.83c-.51,1-1.2,1.79-1.79,2.69l-1,1.26-.51.63-.55.58a30.87,30.87,0,0,1-4.72,4.23,27,27,0,0,1-5.37,2.92,20,20,0,0,1-5.71,1.35l-.71.08c-.24,0-.49,0-.73,0H460a14.4,14.4,0,0,1-2.57-.44,17.69,17.69,0,0,1-9.1-6.31,16.64,16.64,0,0,1-3.81-10.14,10.09,10.09,0,0,1,.28-2.42,8.93,8.93,0,0,1,.81-2.2,10.65,10.65,0,0,1,1.33-2,11.91,11.91,0,0,1,1.78-1.7,15.14,15.14,0,0,1,10.16-2.7,28.74,28.74,0,0,1,11.69,3.35,30.31,30.31,0,0,1,5.11,3.41c.37.34.78.65,1.13,1l.54.51.55.6c.72.81,1.52,1.56,2.17,2.42a42.39,42.39,0,0,1,6.68,11.08c3.33,8,4.21,17.11,3.25,26.13a85.3,85.3,0,0,1-7.6,26.49,105.67,105.67,0,0,1-15.15,23.7,96.48,96.48,0,0,1-9.9,10.12c-1.85,1.56-3.67,3.16-5.54,4.7l-5.78,4.52c-7.83,5.91-16.17,11.39-24.72,16.83s-17.32,10.84-26,16.69a229.94,229.94,0,0,0-25.47,19.42c-2,1.88-4,3.7-6,5.63s-3.86,3.94-5.69,6A147.69,147.69,0,0,0,347.8,1641a162.1,162.1,0,0,0-8.78,14.37c-2.62,5-5.08,10.1-7.22,15.37a181.37,181.37,0,0,0-8.62,26.83,263,263,0,0,0-5.39,30.22c-2.53,20.64-3.08,41.55-3.39,59.53q-.07,6.83-.15,13.55c0,1.1,0,2.2,0,3.29s-.13,2.07-.18,3.18l-.48,6.65q-.94,13.27-1.87,26.24c-1.24,17.32-2.45,34.3-3.65,51.13-2.38,33.67-4.68,66.74-6.76,100.67,1.68-33.77,3.71-69,6-105.22q1.75-27.13,3.55-54.89.93-13.76,1.85-27.61.06-6.93.11-13.89c.05-4.69.15-9.41.28-14.13.56-18.88,1.76-38,4.81-57a247.08,247.08,0,0,1,6.13-28.28,184.14,184.14,0,0,1,9.95-27.38c2-4.45,4.3-8.75,6.69-13a145.08,145.08,0,0,1,8-12.3c.72-1,1.42-2,2.16-2.95l2.27-2.87c1.48-2,3.15-3.73,4.73-5.59s3.35-3.54,5-5.3c.83-.9,1.72-1.71,2.61-2.54l2.65-2.47c14.3-13,30.3-23.08,45.7-32.8,6.38-4,13-8.31,19.58-12.78s12.87-9.23,18.74-14.15l4.27-3.74c.73-.61,1.35-1.24,2-1.86s1.3-1.23,1.91-1.88a101,101,0,0,0,6.91-7.81,108.28,108.28,0,0,0,10.17-15.46,112.26,112.26,0,0,1-6.35,9.94,102,102,0,0,1-7.43,9.15c-.67.71-1.32,1.45-2,2.15l-2.08,2.07c-1.43,1.34-2.81,2.66-4.39,4s-3.06,2.63-4.64,3.9l-4.81,3.75c-13.05,9.84-27.38,18.41-41.76,27.58s-28.84,19.1-41.55,31.64a145.3,145.3,0,0,0-30.07,44A206.14,206.14,0,0,0,318.45,1709a355,355,0,0,0-5.65,47.26q-.69,12-.91,24c-.08,4-.14,8-.17,12.06s0,7.9-.05,11.87q-1.53,23.94-3.08,48.21c-2,32.49-4,65.3-5.81,98s-3.5,65.35-4.81,97.5c-.33,8-.65,16-.89,24s-.55,15.94-.49,24a171.26,171.26,0,0,0,1.75,24.19,104.88,104.88,0,0,0,2.5,12c.25,1,.53,2,.85,3s.6,1.95.93,2.92c.71,1.93,1.37,3.87,2.22,5.74a79.74,79.74,0,0,0,12.89,20.7,88.82,88.82,0,0,0,17.85,15.76,93.81,93.81,0,0,0,43,15.47,72.69,72.69,0,0,0,22.55-1.19,51,51,0,0,0,20.62-9.43,43.89,43.89,0,0,0,13.52-17.87,34.69,34.69,0,0,0,1.56-22.37,31.05,31.05,0,0,0-5.14-10.07,33.35,33.35,0,0,0-8-7.54,29.49,29.49,0,0,0-10.05-4.43,25.89,25.89,0,0,0-21.16,4.27,31.29,31.29,0,0,0-7.25,7.38,38.49,38.49,0,0,0-6.95,22.38c0,.76,0,1.54.07,2.36s.13,1.65.2,2.54a65.22,65.22,0,0,0,2.83,12.93,96.14,96.14,0,0,0,3.48,10c1.65,4,3.45,7.88,5.21,11.81s3.58,8,5.35,12c3.55,8.15,7,16.54,10.06,25.12a187.66,187.66,0,0,1,7.37,26.1,118.25,118.25,0,0,1,2.44,26.05c.17-14.45-2.72-29-7.12-43.15s-10.39-28.06-16.61-42l-4.7-10.22c-1.57-3.47-3.14-7-4.54-10.78a80.64,80.64,0,0,1-3.5-11.76,52.26,52.26,0,0,1-1.19-12.86,40.88,40.88,0,0,1,2.73-13.22,36,36,0,0,1,7.3-11.84,29.15,29.15,0,0,1,12.48-7.93,27.45,27.45,0,0,1,15.14-.11,32.41,32.41,0,0,1,12.77,6.89,34.55,34.55,0,0,1,8.69,11.55c4.31,9.32,3.36,19.67-.23,28.28a43.92,43.92,0,0,1-7.34,11.78,46.54,46.54,0,0,1-10.5,9.06,58.63,58.63,0,0,1-25.44,8.22,84.53,84.53,0,0,1-25.87-1.73,96.87,96.87,0,0,1-24.26-8.85A91.12,91.12,0,0,1,322,2171.87a83.53,83.53,0,0,1-16-21,87.25,87.25,0,0,1-5.27-12.19,105.18,105.18,0,0,1-3.39-12.66c-.83-4.25-1.43-8.52-1.86-12.77s-.63-8.47-.75-12.68c-.2-8.4,0-16.7.34-24.85s.6-16.36,1-24.54c1.43-32.72,3.27-65.54,5.22-98.42s4.08-65.8,6.27-98.69q1.68-24.55,3.35-49.07l.09-12.1c.05-4.13.11-8.27.21-12.41.19-8.29.5-16.59,1-24.89a351.52,351.52,0,0,1,6.28-49.75,196.9,196.9,0,0,1,16.12-48.05,145.46,145.46,0,0,1,12.63-20.94c.64-.88,1.27-1.78,1.94-2.66l2.08-2.61c1.36-1.77,2.87-3.46,4.37-5.19l1.13-1.3,1.2-1.24,2.41-2.51c.82-.83,1.61-1.71,2.47-2.5l2.58-2.4a204.16,204.16,0,0,1,22.48-17.85c7.94-5.52,16.16-10.64,24.28-15.69s16.16-10,23.75-15.22a209.46,209.46,0,0,0,21.12-16.24,89.36,89.36,0,0,0,8.54-8.78,99.55,99.55,0,0,0,7.14-9.4,98.09,98.09,0,0,0,10-19.12,75.59,75.59,0,0,0,5.52-28.18,45.14,45.14,0,0,0-8-25.74c-.64-.92-1.39-1.77-2.07-2.66s-1.54-1.67-2.3-2.51a25.68,25.68,0,0,0-4.86-3.76,27.1,27.1,0,0,0-11.73-3.9,16.72,16.72,0,0,0-5.47.41,10.21,10.21,0,0,0-4.1,2,8.3,8.3,0,0,0-3,7.6,16.64,16.64,0,0,0,9.28,12.43,12.36,12.36,0,0,0,2.35.81c.39.09.78.15,1.17.2l.58.06h.68a16.37,16.37,0,0,0,5.51-.78,20.38,20.38,0,0,0,5.35-2.53,29,29,0,0,0,8.76-9.11,31.73,31.73,0,0,0,2.81-5.81,39.25,39.25,0,0,0,1.6-6.45,50.71,50.71,0,0,0,.56-6.91,66.8,66.8,0,0,0-.4-7.16c-1.09-9.64-4.3-19.62-7.92-29.38-7.4-19.36-18-37.52-32.52-51.76l-2.75-2.62c-.45-.43-.84-.75-1.26-1.12s-.86-.72-1.32-1a41.87,41.87,0,0,0-5.76-3.7,36.79,36.79,0,0,0-12.63-4.19,18.39,18.39,0,0,0-5.73.11,10.25,10.25,0,0,0-2.27.69c-.36.13-.64.33-1,.48a8.27,8.27,0,0,0-.83.59,7.05,7.05,0,0,0-1.41,1.47,10.84,10.84,0,0,0-1.09,1.92,7.83,7.83,0,0,0-.46,4.08c.38,3,2.54,6.51,5.55,9.1a21.09,21.09,0,0,0,5,3.23,21.64,21.64,0,0,0,2.68,1,17,17,0,0,0,2.84.51,25.88,25.88,0,0,0,12.38-1.63,35.92,35.92,0,0,0,11.2-7.12,49.29,49.29,0,0,0,14-23.77,42.07,42.07,0,0,0,1.17-6.8,68.18,68.18,0,0,0,.18-7.17,78.2,78.2,0,0,0-1.79-14.51,121.83,121.83,0,0,0-3.77-13c-1.53-4.3-3.3-8.56-5.18-12.81-3.82-8.49-8.21-16.9-12.62-25.42s-8.81-17-13.37-25.31-9.21-16.63-14.1-24.72a327.69,327.69,0,0,0-32.7-45.88l-4.66-5.22c-1.56-1.74-3.23-3.36-4.84-5l-2.44-2.51-2.54-2.39c-1.7-1.58-3.36-3.22-5.1-4.75a227,227,0,0,0-22.1-17q-11.73-7.76-24.12-14.74c-8.26-4.67-16.64-9.2-25.08-13.77s-16.89-9.21-25.2-14.22l-3.13-1.86-3.09-1.94c-2-1.31-4.12-2.59-6.16-3.92-4-2.76-8.12-5.43-12-8.44a170.8,170.8,0,0,1-40.86-42.35c-11.07-16.3-19.21-34.34-25.21-52.86a319.63,319.63,0,0,1-12.33-56.78,528,528,0,0,1-4-57.62c-.39-19.24.2-38.29-.46-57.2s-2.47-37.69-7.6-55.61c-.33-1.11-.61-2.25-1-3.35l-1.11-3.3c-.38-1.1-.72-2.21-1.12-3.3L144,722a90.72,90.72,0,0,0-5.84-12.51,104.62,104.62,0,0,0-16.54-22,93.14,93.14,0,0,0-21.83-16.66A70.47,70.47,0,0,0,74,662.38a58.87,58.87,0,0,0-13.53,0,52.91,52.91,0,0,0-13.07,3.18,55.49,55.49,0,0,0-21.75,15.69,67.83,67.83,0,0,0-13.18,23.79,63.82,63.82,0,0,0-2.65,27,54.06,54.06,0,0,0,3.35,13.15A52.32,52.32,0,0,0,19.82,757a63.34,63.34,0,0,0,20.65,17.79,82.92,82.92,0,0,0,26.11,8.95,98,98,0,0,0,27.78.75,92.66,92.66,0,0,0,13.7-2.59l3.39-.9c1.12-.31,2.23-.7,3.34-1l3.34-1.08,3.28-1.23a163.44,163.44,0,0,0,25.28-12.3c16.19-9.62,31.06-21.37,45.62-33.45s28.92-24.43,42.85-37.23c7.06-6.3,13.87-12.86,20.75-19.35l2.57-2.44,2.52-2.49,5-5,5-5c1.68-1.67,3.37-3.32,5-5,6.51-6.85,13.18-13.54,19.45-20.62,3.16-3.5,6.38-7,9.5-10.51l9.22-10.76,4.59-5.39,4.43-5.52,8.86-11.05,8.49-11.34,4.23-5.67c1.4-1.9,2.7-3.87,4.06-5.8l8.05-11.65c2.62-3.92,5.08-8,7.63-11.92,5.21-7.87,9.71-16.17,14.48-24.31,1.22-2,2.27-4.14,3.36-6.23l3.27-6.27,3.26-6.28c.54-1.05,1.11-2.09,1.62-3.15l1.48-3.21L398,482.87l1.49-3.21,1.33-3.27,2.65-6.56,2.65-6.56c.88-2.19,1.79-4.37,2.58-6.59l4.85-13.27a213.28,213.28,0,0,1,11.06-25.85,96,96,0,0,1,7.29-11.93c.65-1,1.37-1.88,2.09-2.79s1.42-1.85,2.2-2.71a57.06,57.06,0,0,1,28.67-18.47,46.27,46.27,0,0,1,13.57-1.73,35.67,35.67,0,0,1,13.21,2.83,31.08,31.08,0,0,1,5.86,3.33,21.3,21.3,0,0,1,4.77,4.56,26.08,26.08,0,0,1,4.95,12.21,33.53,33.53,0,0,1-.77,13.34,28,28,0,0,1-6.09,11.63,17.08,17.08,0,0,1-11.11,5.7,18.87,18.87,0,0,1-3.19,0,24.55,24.55,0,0,1-3.2-.53,18.67,18.67,0,0,1-5.91-2.42,22.55,22.55,0,0,1-8.19-9.8,34.72,34.72,0,0,1-2.24-6.28,48.83,48.83,0,0,1-1.28-6.63,81.12,81.12,0,0,1,1.58-27.19c.49-2.23,1.1-4.43,1.76-6.6s1.51-4.36,2.3-6.54c1.61-4.38,3.16-8.78,4.81-13.13l5.22-13c.84-2.17,1.78-4.3,2.73-6.43l2.82-6.39c2.66-6.42,5.75-12.65,8.67-18.93,1.43-3.16,3.06-6.21,4.62-9.29l4.7-9.19L496,306.92c3-5.77,6-11.55,9.08-17.27l4.81-8.47c1.61-2.81,3.14-5.67,4.86-8.41A571.59,571.59,0,0,1,664.06,104.55c12.37-8.93,1.4-1.06-14.28,11.69l-12.3,10.37-12.32,11c-3.91,3.67-7.56,7.22-10.8,10.33L612,150.24c-.73.73-1.42,1.45-2.08,2.13l-3.5,3.65,4.46-4.45c1.46-1.49,3-2.84,4.43-4.21l7.89-7.41c1.14-1.1,2.22-2.07,3.19-2.91l2.5-2.21,2.18-1.92-4.39,4.71c4.8-4.37,8.67-7.78,12.24-10.79l10.5-8.37c-63.79,52.69-116.79,119.1-152.77,194.16A518.38,518.38,0,0,0,473,370.33c-.92,2.51-1.65,4.77-2.3,7.16s-1.15,4.81-1.59,7.24a84.34,84.34,0,0,0-1.25,14.75,56.71,56.71,0,0,0,1.81,14.27,26.16,26.16,0,0,0,6,11.51,16.25,16.25,0,0,0,10.67,4.86,13.23,13.23,0,0,0,10.42-3.71,23.1,23.1,0,0,0,6.14-11.09,30,30,0,0,0,.38-13.28,20.69,20.69,0,0,0-5.8-11,25.06,25.06,0,0,0-5.29-3.69,29.35,29.35,0,0,0-6.23-2.41,35.66,35.66,0,0,0-13.69-.69,49.06,49.06,0,0,0-13.66,4,51.35,51.35,0,0,1,16.8-3.86,34.66,34.66,0,0,1,10.44,1.1,28.52,28.52,0,0,1,5.08,1.89,30.82,30.82,0,0,1,4.67,2.87,18.36,18.36,0,0,1,3.46,3.58,19.4,19.4,0,0,1,2.42,4.52,22.69,22.69,0,0,1,1.35,5.1c.16.87.2,1.76.29,2.63s.07,1.75,0,2.62a29.31,29.31,0,0,1-1.92,9.54,22.34,22.34,0,0,1-4,6.67,13.48,13.48,0,0,1-6,4,11,11,0,0,1-1.69.41,20.05,20.05,0,0,1-1.78.16,15.67,15.67,0,0,1-1.89-.1l-1-.11c-.33,0-.64-.14-1-.2a14.48,14.48,0,0,1-6.68-3.25,19.13,19.13,0,0,1-4.79-6.38c-2.53-5.14-3.69-11.44-4-17.77a80.64,80.64,0,0,1,1.59-19.09,78.16,78.16,0,0,1,2.42-9.2q1.68-4.73,3.35-9.44l1.68-4.71c.56-1.56,1.11-3.13,1.74-4.66q1.83-4.62,3.64-9.2l1.82-4.58c.6-1.51,1.29-3,1.93-4.49l3.89-8.92c1.25-3,2.65-5.86,4-8.73l4.11-8.59c.91-2,1.94-3.94,2.93-5.9l3-5.88,3-5.88,3.2-5.78L514,280.8c1.07-1.93,2.11-3.88,3.27-5.76l6.79-11.39c9.34-15,19.25-29.77,29.95-44s22.06-27.88,34-41S612.6,153,625.66,141s26.69-23.25,40.68-33.93,28.47-20.58,43.22-29.86c3.69-2.31,7.45-4.5,11.16-6.76,1.86-1.11,3.71-2.26,5.58-3.34L732,63.92l5.66-3.18c1.88-1.06,3.76-2.12,5.68-3.1l11.45-6c1.89-1,3.84-1.92,5.77-2.86L766.32,46l5.77-2.79,5.84-2.62c3.9-1.71,7.77-3.5,11.67-5.15l11.76-4.8a518.74,518.74,0,0,1,70.42-22c7.47-1.73,9.21-2,6.84-1.27-1.19.37-3.4,1-6.43,1.82l-11.14,3.17c-2.19.63-4.54,1.24-7,2l-7.69,2.4-8.29,2.59-8.66,3c-2.94,1-6,2-9,3.11l-9,3.39C805.37,31.06,799.43,33.62,793.63,36ZM386.49,1156.82a231.26,231.26,0,0,0-23.48-25,223.73,223.73,0,0,0-27.1-20.79c-19.08-12.63-39.78-23-60.28-34.79-7.29-4.06-14.41-8.39-21.43-12.87A225,225,0,0,1,234,1048.56c-4.08-3.21-7.89-6.88-11.83-10.53-3.78-3.82-7.55-7.77-11-12-.88-1.07-1.78-2.12-2.64-3.21l-2.55-3.32-1.28-1.67-1.21-1.72c-.81-1.15-1.63-2.3-2.44-3.46-3.15-4.71-6.21-9.54-9-14.61-2.71-4.9-5.07-10-7.36-15.06s-4.29-10.31-6.1-15.59a266.7,266.7,0,0,1-9-32.14c-4.74-21.75-7.16-43.89-8.34-66-.58-11.08-.82-22.16-.86-33.25s.11-22.16,0-33.24-.52-22.17-1.56-33.21a197,197,0,0,0-5.66-32.78,197.3,197.3,0,0,1,5.43,33c1,11.2,1.29,22.52,1.34,34s-.17,23-.16,34.75.3,23.64,1,35.7c1.43,24.11,4.38,49,11,74.15.79,3.15,1.76,6.27,2.66,9.43s1.95,6.28,3.09,9.4,2.28,6.25,3.48,9.38c.62,1.56,1.29,3.1,1.93,4.66s1.34,3.1,2,4.64c1.36,3.11,2.91,6.15,4.44,9.22s3.21,6.08,5,9,3.65,5.92,5.54,8.88,4,5.79,6.18,8.59A191.31,191.31,0,0,1,179.82,974a278.3,278.3,0,0,1-14.08-51.35c-6.24-34.69-7.14-69.45-6.86-103.48,0-17-.06-33.91-1.71-50.58a215.07,215.07,0,0,0-3.86-24.7c-.48-2-.9-4.06-1.44-6.06l-1.68-6-1.95-5.9c-.31-1-.68-2-1.06-2.91L146,720.17a104.68,104.68,0,0,0-28.18-39.95,99.67,99.67,0,0,0-9.72-7.53,90.35,90.35,0,0,0-10.63-6.12,71.59,71.59,0,0,0-23.37-7,61.24,61.24,0,0,0-24.23,2.1,56.81,56.81,0,0,0-21,12.15,67.47,67.47,0,0,0-14.75,19.44,70.81,70.81,0,0,0-7.26,23.34,62.37,62.37,0,0,0,1.63,24.43,55.6,55.6,0,0,0,4.67,11.42,59.1,59.1,0,0,0,7,10.14A68.09,68.09,0,0,0,39.45,778a85.83,85.83,0,0,0,23.2,8.44,101.61,101.61,0,0,0,49.14-1.88c16-4.49,30.93-12.1,44.82-21.09s26.91-19.38,39.65-30q4.76-4,9.52-8c3.18-2.67,6.38-5.32,9.5-8.08l9.42-8.2c1.57-1.38,3.16-2.73,4.71-4.12l4.65-4.21,11.22-10.23,11-10.49c1.83-1.75,3.69-3.48,5.51-5.26l5.4-5.38c3.59-3.61,7.24-7.16,10.8-10.81,7-7.4,14.19-14.68,21-22.37l5.15-5.7,2.58-2.86c.85-1,1.67-1.95,2.51-2.92l10-11.75c.83-1,1.68-2,2.49-3l2.41-3,4.82-6c3.21-4,6.48-8,9.5-12.24l9.26-12.48c3-4.25,5.88-8.56,8.83-12.84,1.47-2.15,3-4.27,4.4-6.45l4.16-6.62,4.17-6.62c1.37-2.23,2.84-4.39,4.09-6.69l7.81-13.64,1.95-3.42,1.8-3.5,3.61-7c1.68-3.31,3.43-6.57,5-9.91s3.07-6.73,4.59-10.08,3.11-6.7,4.53-10.09l4.07-10.26c1.34-3.41,2.74-6.81,4-10.24l3.69-10.28c2.42-6.82,4.88-13.56,7.66-20.1A124.84,124.84,0,0,1,431.79,410c.93-1.47,1.94-2.87,2.94-4.29l1.57-2.05.79-1,.84-1a52,52,0,0,1,7.16-7.22,55,55,0,0,1,8.34-5.76,53.65,53.65,0,0,1,9.21-4.17,43.73,43.73,0,0,1,19.62-2.35,42.23,42.23,0,0,0-15.52,1,54.8,54.8,0,0,0-14.66,6,55.37,55.37,0,0,0-12.41,9.92A82.67,82.67,0,0,0,430,412c-5.7,9.29-9.9,19.55-13.78,30l-5.76,15.76c-.94,2.65-2.07,5.23-3.09,7.85l-3.16,7.83c-1.07,2.6-2.05,5.23-3.2,7.8l-3.53,7.66-3.52,7.65-1.78,3.83-1.94,3.74-7.76,15c-2.76,4.89-5.59,9.73-8.39,14.6s-5.82,9.59-8.8,14.34l-4.51,7.1-1.12,1.78-1.19,1.73L356,562.08c-3.2,4.6-6.34,9.25-9.58,13.81l-10,13.47-2.52,3.36L331.26,596,326,602.55l-5.25,6.55c-1.77,2.16-3.62,4.26-5.43,6.39l-5.46,6.38c-1.83,2.11-3.59,4.28-5.5,6.33l-11.28,12.41q-22.9,24.5-47.42,47.36t-50.31,44.17c-8.55,7.16-17.25,14.17-26.23,20.8A242.36,242.36,0,0,1,141,771,145.29,145.29,0,0,1,110,783.57a97.59,97.59,0,0,1-16.41,3.14,103.4,103.4,0,0,1-16.69.34,91.12,91.12,0,0,1-32.25-7.82A67.54,67.54,0,0,1,18.73,759a55.36,55.36,0,0,1-8-14.43A57.59,57.59,0,0,1,7.5,728.37a67.76,67.76,0,0,1,6.28-32.12,65.91,65.91,0,0,1,20.34-25.49,53.7,53.7,0,0,1,14.43-7.63,57.45,57.45,0,0,1,16-3,67.9,67.9,0,0,1,31.77,6.76A92.73,92.73,0,0,1,122.9,686a105,105,0,0,1,19,26.67,143,143,0,0,1,10.64,31.15l.46,2,.39,2,.77,4.07c.49,2.71.86,5.45,1.29,8.18s.68,5.48.95,8.24.55,5.5.7,8.27c.78,11.05,1,22.16,1,33.3s-.11,22.29,0,33.5.51,22.41,1.28,33.61,1.86,22.39,3.44,33.54,3.69,22.23,6.39,33.2a258.84,258.84,0,0,0,10.23,32.35,203,203,0,0,0,15,30.59,173.18,173.18,0,0,0,20.47,27.41,175.81,175.81,0,0,0,25.59,22.74,305.54,305.54,0,0,0,28.53,18.52c9.77,5.65,19.68,11,29.5,16.32,19.67,10.64,39,21.65,56.08,35.49s31.46,30.76,44.15,48.89,23.66,37.63,34.11,57.45q3.93,7.43,7.8,14.92c2.58,5,5.17,10,7.65,15,5,10,9.47,20,12.47,30.33a91.49,91.49,0,0,1,3.18,15.6l.32,3.92.09,3.92c0,1.3-.11,2.6-.15,3.89,0,.67-.09,1.28-.15,1.9s-.13,1.24-.23,1.86a49,49,0,0,1-4.53,14.45,49.87,49.87,0,0,1-8.6,12.49,39.51,39.51,0,0,1-11.82,8.72,28.16,28.16,0,0,1-13.68,2.71,14.61,14.61,0,0,1-1.74-.16l-.86-.11-.78-.14a19.41,19.41,0,0,1-3.08-.93,22.15,22.15,0,0,1-5.74-3.39c-3.49-2.81-6.08-6.77-6.62-10.43a9.14,9.14,0,0,1,.62-5.1c.09-.2.16-.4.27-.6l.34-.61a11.65,11.65,0,0,1,.75-1.13,10.26,10.26,0,0,1,1.83-1.78,11.48,11.48,0,0,1,2.33-1.24,15,15,0,0,1,2.83-.72,22.64,22.64,0,0,1,6.64.18,40.34,40.34,0,0,1,13.69,5.16,40.8,40.8,0,0,1,6,4.29l.68.6.72.69,1.46,1.39c1,.92,1.92,1.88,2.85,2.86a130.88,130.88,0,0,1,19.35,26,171,171,0,0,1,13.46,29.89c3.57,10.4,6.35,20.95,6.32,31.14a50.12,50.12,0,0,1-.59,7.49,41.23,41.23,0,0,1-1.8,7,35.34,35.34,0,0,1-3.21,6.31,33.31,33.31,0,0,1-4.49,5.45,24.17,24.17,0,0,1-11.55,6.47,20.56,20.56,0,0,1-3.11.42l-1.56,0a3.29,3.29,0,0,1-.72,0c-.23,0-.46,0-.68-.08a14.14,14.14,0,0,1-5.37-2.12,18.4,18.4,0,0,1-7.44-9.68,12.08,12.08,0,0,1-.47-5.42,9,9,0,0,1,2.05-4.44,10.58,10.58,0,0,1,4.23-3,15.43,15.43,0,0,1,5.84-1,28.12,28.12,0,0,1,18.43,7.82c.81.82,1.66,1.8,2.49,2.69s1.55,1.91,2.25,2.92a43.33,43.33,0,0,1,6.25,13.29c2.59,9.61,2.17,20.23-.45,30.43a96.88,96.88,0,0,1-13,29.08c7.66-11.55,13.17-24.67,14.93-38a58.62,58.62,0,0,0,.51-10,48.12,48.12,0,0,0-1.2-9.7c-.31-1.59-.83-3.11-1.28-4.66s-1.1-3-1.82-4.43a21.19,21.19,0,0,0-1.07-2.13c-.4-.69-.76-1.4-1.18-2.07l-1.32-2c-.42-.68-1-1.27-1.44-1.91a19.25,19.25,0,0,0-1.53-1.85l-1.62-1.77a25.2,25.2,0,0,0-3.36-2.86,30.22,30.22,0,0,0-8.08-4.07,24.56,24.56,0,0,0-8.6-1.28,14,14,0,0,0-7.18,2.17,11,11,0,0,0-2.54,2.41,9.61,9.61,0,0,0-1.55,3,11.9,11.9,0,0,0,.21,7.18,18.63,18.63,0,0,0,10.92,11.54,13.21,13.21,0,0,0,3.72.74c.69,0,1.39,0,2.08,0s1.39-.09,2.08-.23a22.47,22.47,0,0,0,8.05-3.14,31.91,31.91,0,0,0,11.84-13.87c.29-.72.62-1.43.88-2.15s.5-1.45.72-2.21.41-1.55.59-2.33.32-1.58.45-2.38a50.64,50.64,0,0,0,.58-9.81,86.45,86.45,0,0,0-3.45-20.21,177.86,177.86,0,0,0-16.26-39,138.76,138.76,0,0,0-11.76-17.45c-1.12-1.35-2.2-2.73-3.35-4s-2.29-2.65-3.52-3.89-2.4-2.54-3.68-3.72l-1.88-1.82c-.64-.59-1.19-1.09-1.84-1.61a44,44,0,0,0-17.36-8.69,25.74,25.74,0,0,0-9.08-.61,11.16,11.16,0,0,0-9.17,6.4,10.6,10.6,0,0,0-1,3.6,13.74,13.74,0,0,0,2,7.78A23,23,0,0,0,421.32,1364c.36.09.72.14,1.07.22s.78.1,1.17.15c.78.12,1.56.15,2.35.2s1.57,0,2.36,0,1.57-.11,2.35-.21a31.93,31.93,0,0,0,9.15-2.7A42.89,42.89,0,0,0,455,1349.13a52.78,52.78,0,0,0,9.13-18,44.69,44.69,0,0,0,1.71-9.94c0-1.72.23-3.44.13-5.17l-.05-2.59c0-.87-.13-1.73-.19-2.6a91.35,91.35,0,0,0-4.27-20.59,174.93,174.93,0,0,0-8-20c-3-6.56-6.39-13.06-9.75-19.59s-6.74-13.06-10.18-19.54C419.8,1205.21,405.13,1179.58,386.49,1156.82Zm47.15,71.61c5.58,10.42,11.07,20.93,16.44,31.41S460.36,1281,463.72,1292a94.32,94.32,0,0,1,3.57,16.85,66.5,66.5,0,0,1-.15,17,54,54,0,0,1-15.1,29.55,41,41,0,0,1-13.74,9.14,31,31,0,0,1-16,1.86,24.72,24.72,0,0,1-13.81-7.46,21.75,21.75,0,0,1-4.37-6.53,14.62,14.62,0,0,1-1.18-7.38,12.6,12.6,0,0,1,.94-3.55,14.22,14.22,0,0,1,1.9-3.21,12.94,12.94,0,0,1,6-4.23,20.47,20.47,0,0,1,7.7-1,34.13,34.13,0,0,1,8,1.42,44.87,44.87,0,0,1,7.68,3.06,46.88,46.88,0,0,1,7,4.36c1.11.82,2.15,1.7,3.18,2.63l3.09,2.93c2,2,4,4,5.85,6.19a133.38,133.38,0,0,1,13.8,18.71,161.71,161.71,0,0,1,10.81,20.78,194.85,194.85,0,0,1,8,22.14,86.85,86.85,0,0,1,3.82,22.91c.08,7.65-1.23,15.37-5,21.86s-9.38,12-16.2,14.69a23,23,0,0,1-10.59,1.47,18.53,18.53,0,0,1-9.54-4.23,22.57,22.57,0,0,1-6.46-8.51,16.47,16.47,0,0,1-1.19-10.15,13.12,13.12,0,0,1,2-4.56,14.08,14.08,0,0,1,3.58-3.6,17.61,17.61,0,0,1,9.86-3,32,32,0,0,1,20.26,7.38,27.09,27.09,0,0,1,2,1.83l1.91,2.06c.66.67,1.21,1.44,1.8,2.17a24.14,24.14,0,0,1,1.66,2.25c.51.79,1.08,1.53,1.54,2.35l1.38,2.44a50,50,0,0,1,5,16,64.05,64.05,0,0,1,.48,11.25,80.39,80.39,0,0,1-4.42,22.15,104,104,0,0,1-9.7,20.4c-2,3.21-4.12,6.29-6.37,9.28s-4.72,5.8-7.28,8.5a97.93,97.93,0,0,1-8.15,7.61c-1.43,1.19-2.81,2.45-4.29,3.59l-4.41,3.45c-11.89,9-24.53,16.81-37,24.69-6.21,3.94-12.38,7.88-18.37,12-3,2-5.93,4.23-8.86,6.36-1.45,1.09-2.86,2.23-4.28,3.34L378,1613l-2.07,1.75a150.5,150.5,0,0,0-15.47,14.91,130.43,130.43,0,0,0-12.74,16.84,161.39,161.39,0,0,0-17.23,36.94,237.28,237.28,0,0,0-8.69,37.8c-1.87,12.44-2.9,24.63-3.54,36.45s-.81,23.26-.84,34.29v8.19c0,1.35,0,2.69,0,4,0,.67,0,1.32-.06,2l-.12,2q-.46,7.94-.91,15.56l.69-10.38.35-5.2.17-2.57c.06-.86,0-1.73,0-2.59,0-6.92.07-13.91.2-20.87.28-14,.88-27.93,2.22-41.91a291.37,291.37,0,0,1,6.86-41.66,179.13,179.13,0,0,1,14.65-39.87,137.8,137.8,0,0,1,25.17-34.53c10.23-10.06,21.8-18.62,33.74-26.46s24.18-15.23,36-23.21c5.88-4,11.66-8.18,17.2-12.63,1.4-1.1,2.71-2.29,4.07-3.43s2.72-2.29,4-3.51a97.67,97.67,0,0,0,7.34-7.61c2.34-2.65,4.47-5.48,6.56-8.33s4-5.86,5.7-9c.91-1.52,1.7-3.11,2.54-4.66s1.58-3.17,2.27-4.8a95.76,95.76,0,0,0,3.81-9.9,92.83,92.83,0,0,0,2.64-10.25,78.83,78.83,0,0,0,1.24-10.48,62.38,62.38,0,0,0-.41-10.5,53.74,53.74,0,0,0-2.32-10.19,50.3,50.3,0,0,0-4.41-9.43,49.29,49.29,0,0,0-6.41-8.21,33,33,0,0,0-17.86-9.39,23.88,23.88,0,0,0-10,.24,15.46,15.46,0,0,0-8.09,4.95,13.54,13.54,0,0,0-3.3,8.71,19,19,0,0,0,2.5,9.39c3.2,5.82,9.13,10.42,15.6,11.06a23.23,23.23,0,0,0,9.85-1.31,28.71,28.71,0,0,0,8.78-5.13A36.38,36.38,0,0,0,489,1452.94a53.08,53.08,0,0,0,1.5-21,107.78,107.78,0,0,0-4.83-21.09,186.47,186.47,0,0,0-7.91-20.42,147,147,0,0,0-23.48-36.79,144.45,144.45,0,0,1,20.62,30.94c2.48,4.91,4.52,9.64,6.28,14.09s3.22,8.66,4.49,12.55a108.34,108.34,0,0,1,4.56,19.73,60.19,60.19,0,0,1,.35,12.2c-.09,1.41-.24,2.49-.35,3.28s-.19,1.28-.23,1.48c-.09.41.1-.3.33-2.13a51.6,51.6,0,0,0,.42-8.8,79.4,79.4,0,0,0-2.1-15.15,164.81,164.81,0,0,0-6.42-20.67,174.16,174.16,0,0,0-11.69-24.81,136.34,136.34,0,0,0-19.44-26.27c-2-2.13-4.2-4.22-6.41-6.24a44.9,44.9,0,0,0-7.32-5.21,41.56,41.56,0,0,0-17.74-5.68,19.23,19.23,0,0,0-9.09,1.46,13.43,13.43,0,0,0-7.44,15.41,20.66,20.66,0,0,0,4.84,8.78,26.15,26.15,0,0,0,8.5,6.21,21.71,21.71,0,0,0,5.07,1.62c.85.19,1.8.24,2.71.37s1.84.14,2.76.11c7.43,0,14.88-2.94,21.09-7.77a52.17,52.17,0,0,0,14.85-19,53.69,53.69,0,0,0,4-11.84,50.28,50.28,0,0,0,.89-6.25l.12-3.22c0-.53.06-1.07.05-1.61l0-1.62a89.5,89.5,0,0,0-4.75-26,192.24,192.24,0,0,0-10.77-25.54c-1.56-3.09-4.07-7.94-7.28-14.06S438,1236.52,433.64,1228.43Z" transform="translate(0 -7.04)"/><path class="cls-2" d="M396.19,484.7c2.89-5.86,5.16-12,7.68-18,1.21-3,2.5-6,3.66-9.1l3.41-9.22c4.51-12.28,9.12-24.65,15.81-35.94.79-1.43,1.73-2.78,2.6-4.17s1.87-2.68,2.8-4,2-2.6,3.05-3.84,2.11-2.5,3.27-3.65a58.15,58.15,0,0,1,15.71-11.47,53.19,53.19,0,0,1,18.54-5.56,38,38,0,0,1,18.89,2.63,31.81,31.81,0,0,1,8.07,5,22.44,22.44,0,0,1,5.52,7.54,32.72,32.72,0,0,1-.86,27.5,23.12,23.12,0,0,1-5.63,7.29,18.35,18.35,0,0,1-3.78,2.5,18.54,18.54,0,0,1-2.1.81l-1.07.33c-.37.08-.74.14-1.11.21a18.2,18.2,0,0,1-4.49.21l-2.28-.3c-.74-.18-1.49-.32-2.22-.54a19.31,19.31,0,0,1-7.75-4.46,24,24,0,0,1-5.23-7.46,48.44,48.44,0,0,1-4-18.34,84.45,84.45,0,0,1,1.48-19,83.52,83.52,0,0,1,2.31-9.26l.74-2.26.83-2.28,1.68-4.57-2.62,6.88c-.81,2.24-1.49,4.51-2.11,6.8a88.5,88.5,0,0,0-2.48,13.92,74.53,74.53,0,0,0-.09,14.09,59.2,59.2,0,0,0,1.09,7,42.22,42.22,0,0,0,2.17,6.73,23.72,23.72,0,0,0,8.83,11,19.91,19.91,0,0,0,6.79,2.73,20.77,20.77,0,0,0,7.5.26,17.8,17.8,0,0,0,7.14-2.88,22.52,22.52,0,0,0,5.64-5.67,32.65,32.65,0,0,0,5.49-15.85,33.47,33.47,0,0,0-1.1-11.81,25.93,25.93,0,0,0-5.75-10.52,30.34,30.34,0,0,0-10-6.86,37,37,0,0,0-11.92-2.88,50.91,50.91,0,0,0-24.16,4.57,59.4,59.4,0,0,0-20.21,14.64,84.91,84.91,0,0,0-7.7,10,118.91,118.91,0,0,0-6.34,10.95c-1.89,3.76-3.63,7.61-5.27,11.51s-3.14,7.83-4.61,11.79c-2.95,7.91-5.64,15.91-8.93,23.68q-2.35,5.86-4.74,11.75c-.74,2-1.71,3.86-2.57,5.79l-2.66,5.77-2.66,5.76c-.91,1.92-1.72,3.88-2.74,5.74l-5.86,11.29L378.92,517c-1,1.87-2.11,3.69-3.15,5.53l-6.36,11-1.59,2.76-1.7,2.69-3.41,5.38-6.83,10.74-7.23,10.47c-2.42,3.48-4.75,7-7.34,10.37a710.28,710.28,0,0,1-65.22,76.46c-16.63,16.95-33.95,33.31-51.79,49.18l-13.52,11.78c-4.5,3.93-9.13,7.73-13.69,11.6s-9.17,7.71-13.83,11.45-9.34,7.46-14.11,11a246.58,246.58,0,0,1-29.78,19.4,171.72,171.72,0,0,1-16,7.54c-1.35.56-2.74,1-4.11,1.56l-2.06.76-2.08.68c-1.4.44-2.78.9-4.18,1.32l-4.24,1.12a95.3,95.3,0,0,1-34.47,2.33,82.1,82.1,0,0,1-32.54-10.53,70.58,70.58,0,0,1-7-4.79,68.6,68.6,0,0,1-6.26-5.66,54.25,54.25,0,0,1-9.59-13.63,48.78,48.78,0,0,1-3-7.72,55,55,0,0,1-1.65-8.17,58.6,58.6,0,0,1-.43-8.38,64.19,64.19,0,0,1,.82-8.41,65.36,65.36,0,0,1,1.89-8.26,70.07,70.07,0,0,1,6.92-15.48,65.56,65.56,0,0,1,4.9-6.89,60.82,60.82,0,0,1,5.73-6.16A54.89,54.89,0,0,1,38.6,673a47.8,47.8,0,0,1,15-6.81,58.4,58.4,0,0,1,33.12,1.49,78.29,78.29,0,0,1,15.5,7.25A94.23,94.23,0,0,1,116,685.31a101.84,101.84,0,0,1,21.25,27.51c.7,1.27,1.3,2.59,2,3.89s1.22,2.61,1.74,4c1.06,2.76,2.25,5.46,3.12,8.29l1.4,4.21,1.21,4.29.61,2.14.52,2.18,1,4.35A240.32,240.32,0,0,1,153.4,782c.68,12.16.76,24.45.76,36.84s-.06,24.95.38,37.51,1.19,25.16,2.51,37.75,3.16,25.16,5.69,37.67a283.23,283.23,0,0,0,10.16,37.05,216.25,216.25,0,0,0,16,35.34c3.25,5.64,6.78,11.14,10.59,16.45.94,1.34,2,2.62,2.94,3.93l1.48,2c.51.65,1,1.27,1.56,1.9l3.13,3.79,3.28,3.66c1.08,1.24,2.23,2.42,3.38,3.59s2.27,2.37,3.46,3.49l7.23,6.67,7.57,6.23,7.82,5.83A354.81,354.81,0,0,0,274.07,1082c22.22,12.43,44.79,23.48,65,37.39a199.19,199.19,0,0,1,28.21,23.26,247.37,247.37,0,0,1,24.05,27.92c14.78,19.87,27.24,41.68,39.14,64,2.33,4.4,5.34,10.17,8.79,16.81s7.36,14.08,11,21.89a149.38,149.38,0,0,1,9.11,24.23,88.81,88.81,0,0,1,2.35,12.18,73.22,73.22,0,0,1,.36,11.57,73.41,73.41,0,0,0-2-21.58,128.25,128.25,0,0,0-7.28-21.42c-3-7.07-6.53-14.06-10.17-21.11s-7.32-14.15-11-21.15c-7.42-14-15-27.8-23.26-41.09a328.47,328.47,0,0,0-27.09-37.8,205.68,205.68,0,0,0-33-31.78c-6-4.69-12.44-8.92-18.93-13.08-3.3-2-6.6-4-9.94-6s-6.71-3.91-10.15-5.78c-13.63-7.6-27.62-14.85-41.4-22.8s-27.31-16.76-39.7-27.25A169,169,0,0,1,196,1014.07a205.51,205.51,0,0,1-21.39-43.15,289.76,289.76,0,0,1-12.24-46.06,426,426,0,0,1-5.72-46.9c-1.1-15.66-1.49-31.32-1.47-46.89s.17-31-.59-46.2-2.43-30.33-6.08-44.87a152.24,152.24,0,0,0-7.14-21.17,100.41,100.41,0,0,0-11-19.09A95.74,95.74,0,0,0,97.5,671a77.05,77.05,0,0,0-10-4.27A67.86,67.86,0,0,0,77,664.13a56.53,56.53,0,0,0-10.7-.79,53.4,53.4,0,0,0-10.62,1.18,50.12,50.12,0,0,0-19.26,8.57,61.51,61.51,0,0,0-8,7.11,62.38,62.38,0,0,0-6.69,8.48,65.73,65.73,0,0,0-10.82,41.21,58,58,0,0,0,2,10.54A50,50,0,0,0,17,750.27a57.58,57.58,0,0,0,13.82,16.47,69.88,69.88,0,0,0,18.84,11,88.26,88.26,0,0,0,21.42,5.41,99.35,99.35,0,0,0,22.21.21,97,97,0,0,0,11-1.8c1.82-.37,3.62-.94,5.43-1.39s3.58-1.06,5.37-1.62c14.25-4.66,27.72-11.77,40.35-20.16s24.62-17.9,36.42-27.68l17.57-14.84c5.76-5.05,11.57-10.06,17.31-15.15,22.88-20.41,45-41.74,65.78-64.3a668.5,668.5,0,0,0,57.87-71.62A505.31,505.31,0,0,0,396.19,484.7Z" transform="translate(0 -7.04)"/><path class="cls-2" d="M363.16,1616.36a141.62,141.62,0,0,0-19.35,22.76,158.65,158.65,0,0,0-14.25,26,201.12,201.12,0,0,0-9.51,27.61,272.48,272.48,0,0,0-5.76,28.13,461.29,461.29,0,0,0-4.49,55.84c-.12,4.59-.22,9.17-.27,13.73s-.08,8.92-.12,13.37c0,1.13-.09,2-.15,3l-.24,3.37q-.24,3.36-.47,6.71-.48,6.7-.94,13.38c.63-8,1.29-16.38,2-25,.08-.94.05-2.06.07-3.09l.05-3.18q0-3.36.11-6.76c.09-4.54.19-9.15.35-13.82.61-18.69,1.83-38.38,5-58.23a256.71,256.71,0,0,1,6.45-29.67c1.35-4.9,3-9.74,4.69-14.54s3.68-9.51,5.88-14.1a150,150,0,0,1,15.34-25.95,139.54,139.54,0,0,1,19.55-21.47c1.19-1.16,2.48-2.16,3.71-3.24s2.49-2.14,3.76-3.17l3.85-3,1.92-1.5,2-1.43,3.91-2.86c1.31-1,2.64-1.83,4-2.75,2.63-1.84,5.3-3.59,7.95-5.34,10.65-7,21.34-13.41,31.57-20.2,2.58-1.68,5.06-3.43,7.57-5.15s4.91-3.55,7.35-5.33l3.54-2.77c1.19-.92,2.38-1.84,3.49-2.82L455,1552c.58-.48,1.12-1,1.63-1.45l1.57-1.45a101.65,101.65,0,0,0,20.28-27.76,92.2,92.2,0,0,0,6.19-15.94,72.57,72.57,0,0,0,2.66-16.43,51.17,51.17,0,0,0-1.83-15.82,39.93,39.93,0,0,0-6.93-13.68l-1.19-1.51-1.32-1.42-.65-.72c-.22-.24-.42-.4-.62-.6-.4-.39-.84-.76-1.28-1.13a26.78,26.78,0,0,0-6-3.67c-4.33-2-9.24-2.72-12.94-1.93a10,10,0,0,0-4.46,2.1,9.17,9.17,0,0,0-1.52,1.76,6.33,6.33,0,0,0-.88,1.88,9.46,9.46,0,0,0,0,4.76,15.69,15.69,0,0,0,2.57,5.31,15.45,15.45,0,0,1-2.52-5.33,9.21,9.21,0,0,1,0-4.71,6.32,6.32,0,0,1,.89-1.85,9.44,9.44,0,0,1,1.51-1.71,9.84,9.84,0,0,1,4.41-2c3.65-.75,8.51,0,12.78,2a26.72,26.72,0,0,1,5.93,3.68,20.42,20.42,0,0,1,2.5,2.45l1.3,1.41,1.18,1.51a39.78,39.78,0,0,1,6.77,13.63,51.3,51.3,0,0,1,1.68,15.75,73.76,73.76,0,0,1-2.8,16.38,93.84,93.84,0,0,1-6.34,15.89,99.48,99.48,0,0,1-9.16,14.71A95.71,95.71,0,0,1,456.93,1549l-1.59,1.45c-.54.49-1.14,1-1.7,1.46l-3.45,2.9c-1.15,1-2.39,1.87-3.57,2.81s-2.37,1.89-3.63,2.78c-2.5,1.78-4.93,3.62-7.52,5.35l-3.84,2.62-3.92,2.57c-10.48,6.86-21.52,13.45-32.51,20.7A225.35,225.35,0,0,0,363.16,1616.36Z" transform="translate(0 -7.04)"/><path class="cls-2" d="M462.09,1321.25a47.81,47.81,0,0,1-9.08,24.41c-5.14,7.14-12.36,12.74-20.11,14.63a25.24,25.24,0,0,1-6.68.72c-.56,0-1.12,0-1.68-.11s-1.14-.13-1.64-.21a16.14,16.14,0,0,1-2.85-.78,19.69,19.69,0,0,1-9.57-7.77,11.61,11.61,0,0,1-1.78-4.89,7.5,7.5,0,0,1,3.74-7.08,7.81,7.81,0,0,1,2.19-.84,13.15,13.15,0,0,1,2.8-.38,31,31,0,0,1,13.62,3.24,41.49,41.49,0,0,1,6.53,3.77,34.68,34.68,0,0,1,2.9,2.28l.69.6.76.73,1.53,1.46a128.5,128.5,0,0,1,20.89,26.82,170.39,170.39,0,0,1,14.34,31.62,126.5,126.5,0,0,1,4.6,16.55,63,63,0,0,1,1.29,16.08,40.49,40.49,0,0,1-1.17,7.53,14.7,14.7,0,0,1-.5,1.77c-.19.55-.33,1.12-.57,1.67l-.67,1.65-.81,1.61a32.59,32.59,0,0,1-4.06,5.93,26.44,26.44,0,0,1-5.24,4.61,20,20,0,0,1-5.89,2.79,16.81,16.81,0,0,1-3,.54l-.75.09-.76,0a12.38,12.38,0,0,1-1.41,0c-3.26-.28-7-2.62-9.43-6a16.9,16.9,0,0,0,4.67,4.35,11.73,11.73,0,0,0,5.35,1.75,19.22,19.22,0,0,0,12.66-4.26,29.83,29.83,0,0,0,9.24-11.92,32.72,32.72,0,0,0,1.3-3.59l.5-1.94.4-2a47.72,47.72,0,0,0,.66-8.26A73.83,73.83,0,0,0,482.7,1421a162.46,162.46,0,0,0-5.54-17.69,159.89,159.89,0,0,0-16.67-33.09,129.31,129.31,0,0,0-11.25-14.52q-3.06-3.4-6.38-6.55a42.11,42.11,0,0,0-3.14-2.81c-1.08-.83-2.19-1.64-3.36-2.38a39.21,39.21,0,0,0-15.13-5.87,18.25,18.25,0,0,0-6.94.2,8.4,8.4,0,0,0-4.59,2.67,13.28,13.28,0,0,0-.82,1.08,13.7,13.7,0,0,0-.65,1.25,7.79,7.79,0,0,0-.66,2.49,10.64,10.64,0,0,0,1.24,5.7,20.57,20.57,0,0,0,10.55,9.43,16.85,16.85,0,0,0,3.35,1l1.91.25,1.93.11a26.59,26.59,0,0,0,7.69-1,34.86,34.86,0,0,0,14-8.23c-.15-.1.44-.82,1.53-2.15a60.65,60.65,0,0,0,4.38-6,53.89,53.89,0,0,0,5-10.07A45.94,45.94,0,0,0,462.09,1321.25Z" transform="translate(0 -7.04)"/></g></g></g></svg>