<svg xmlns="http://www.w3.org/2000/svg" viewBox="0 0 483.69 629.79"><defs><style>.cls-1,.cls-3,.cls-5{fill:none;}.cls-1,.cls-2,.cls-3,.cls-4,.cls-5{stroke:#000;stroke-width:2px;}.cls-1,.cls-2,.cls-3{stroke-miterlimit:10;}.cls-2{fill:#666;}.cls-3,.cls-4,.cls-5{stroke-linecap:round;}.cls-4,.cls-5{stroke-linejoin:round;}</style></defs><g id="head"><path class="cls-1" d="M622.92,657c.2,1.72.4,3.45.57,5.19.88,8.87,1.34,17.93,1.34,27.12,0,9.71-.06,18.79-.35,27.34-1.11,32.3-5.56,57.15-22.8,80.92-9.13,12.58-28.43,28.51-39.49,36.76-16.3,12.17-30.81,19.75-50.5,19.75-13,0-22.23-9-33.92-14.64-19.49-9.46-38-23.56-51.41-45.28-18.77-30.31-27.23-57.43-27.23-101.45,0-11,1.9-20.29,3.4-30.82" transform="translate(-328.89 -492.18)"/><path class="cls-1" d="M655.56,678.53c-3.23,11.16-3.47,23-2.87,34.58a25,25,0,0,1-.38,7.87,12.22,12.22,0,0,1-9.36,8.65,14.79,14.79,0,0,1-11.83-3.49,24.61,24.61,0,0,1-6.64-9.46c.29-8.55.35-17.63.35-27.34,0-9.19-.46-18.25-1.34-27.12a17.22,17.22,0,0,1,13.09-8.6,16.05,16.05,0,0,1,2-.07c6.3.12,12.37,3.79,16,9a14.18,14.18,0,0,1,2.64,6C657.71,671.94,656.5,675.27,655.56,678.53Z" transform="translate(-328.89 -492.18)"/><path class="cls-1" d="M624.48,716.68q-.22-.49-.42-1" transform="translate(-328.89 -492.18)"/><path class="cls-1" d="M623.49,662.22a2.69,2.69,0,0,0-.19.32" transform="translate(-328.89 -492.18)"/><path class="cls-1" d="M401.64,663.55a37.77,37.77,0,0,0-6.87-6.91,12.77,12.77,0,0,0-9.17-2.57c-3.75.59-6.85,3.42-8.71,6.73s-2.69,7.1-3.48,10.81c-1.66,7.72-3.32,15.79-1.34,23.43a40.14,40.14,0,0,0,6.23,12.48c1.88,2.73,4,5.48,4.54,8.75a48.82,48.82,0,0,1,.25,5.42,17.55,17.55,0,0,0,3.87,9.93,10.4,10.4,0,0,0,6.66,4.09c2.66.29,5.6-1.25,6.27-3.84" transform="translate(-328.89 -492.18)"/><path class="cls-1" d="M495.38,671.92c3.91,11.05,1.38,23.17.3,34.84a199.6,199.6,0,0,0-.67,20.61,29.81,29.81,0,0,0,.95,8.37,10.49,10.49,0,0,0,5.06,6.47c4,2,8.77.23,13.16-.72a35.56,35.56,0,0,1,11.41-.58" transform="translate(-328.89 -492.18)"/><path class="cls-1" d="M550.41,637.19c6.56-2.25,13.58-2.85,20.51-2.87a59.65,59.65,0,0,1,10.52.73,39.2,39.2,0,0,1,21.63,11.68c-7.5,7.11-15.48,14.44-25.48,17-5.66,1.45-11.61,1.26-17.42.62a48.68,48.68,0,0,1-15.35-3.76,26.3,26.3,0,0,1-6.13-3.92c-1.72-1.49-3.79-3.5-4.59-5.69s1.62-4.19,2.92-5.54a30.9,30.9,0,0,1,5.79-4.66A37.49,37.49,0,0,1,550.41,637.19Z" transform="translate(-328.89 -492.18)"/><path class="cls-1" d="M433.68,640.74c6.56-2.25,8.73-2.53,15.67-2.55,3.52,0,9.46,1.87,12.93,2.48a39.2,39.2,0,0,1,21.63,11.68c-7.5,7.11-15.48,14.44-25.48,17-5.66,1.45-11.62,1.26-17.42.63a49,49,0,0,1-15.35-3.76,26.46,26.46,0,0,1-6.13-3.93c-1.73-1.49-3.79-3.5-4.59-5.69s1.62-4.19,2.92-5.54a30.58,30.58,0,0,1,5.79-4.66C426,644.92,431,641.66,433.68,640.74Z" transform="translate(-328.89 -492.18)"/><circle class="cls-2" cx="118.13" cy="161.9" r="13.34"/><circle class="cls-2" cx="239.62" cy="157.4" r="13.34"/><path class="cls-3" d="M547,604.53c6.12-4.19,14-5.17,21.35-3.86a23.16,23.16,0,0,1,5.94,1.79,32.39,32.39,0,0,1,4.09,2.43A58.9,58.9,0,0,1,589,613.16" transform="translate(-328.89 -492.18)"/><path class="cls-3" d="M425.69,619.25c7.14-6.49,15.25-12.23,24.53-14.87s19.9-1.83,27.69,3.85" transform="translate(-328.89 -492.18)"/><path class="cls-4" d="M557.35,784.46c-1.75,2.66-5.28,3.36-8.43,3.83L537.41,790c-9,1.34-18.1,2.68-27.23,2.82a28.37,28.37,0,0,1-9.41-1.08,32.7,32.7,0,0,1-7.36-4l-7.58-5s9.84-6.76,15.92-8.72l6.75-2.18c2.49-.8,5-1.61,7.53-2.23a44.73,44.73,0,0,1,23,.11A32.62,32.62,0,0,1,557.53,783" transform="translate(-328.89 -492.18)"/><path class="cls-1" d="M638.77,650.2l0-1.09c-.47-17.49.76-35-.07-52.49-.86-17.85-4-36-12.84-51.53C618,531.19,605.91,520,592.71,511c-11.61-7.91-24.64-14.42-38.64-15.6-5.23-.45-10.5-.14-15.74-.44-5.5-.31-10.94-1.3-16.43-1.65-14.46-.92-28.82,2.61-42.64,6.95-12.6,4-25.1,8.66-36.18,15.84-9.56,6.2-17.87,14.12-25.76,22.33-5.18,5.4-10.26,11-13.86,17.57-4.57,8.35-6.54,17.86-7.75,27.3a195,195,0,0,0,3.82,70.22h0c.54,2.27,1.12,4.52,1.75,6.77" transform="translate(-328.89 -492.18)"/><path class="cls-1" d="M638.49,654.28c0-.24,0-.49,0-.73l.06-.69c.08-1.25.13-2.5.14-3.75,0-1.68,0-3.36-.07-5" transform="translate(-328.89 -492.18)"/><path class="cls-2" d="M638.74,649.11c0,1.25-.06,2.5-.14,3.75-1.93.2-3.87.33-5.48,1.34-.15.1-.3.2-.44.31-1.12.83-2,2-3.2,2.71a5.46,5.46,0,0,1-2.6.78,7.67,7.67,0,0,1-4-1,249.92,249.92,0,0,0-9.61-45.14c-2.46-7.81-10-13.7-16.78-18.3a6.37,6.37,0,0,1-2.64-2.63,7.34,7.34,0,0,1,0-3.55c1.08-9.28-1.05-16.55-7.82-23-2.79-2.66-7.87-4.79-10.88-7.2-1.12-.89-18.89-2.53-21.8-2C543.55,557,537,561.67,528.05,566a60.57,60.57,0,0,1-17.45,5.3c-4.61.67-9.53.75-13.69-1.36-4.7-2.38-7.71-7.19-12.16-10s-9.84-3.36-14.92-2.51A44.4,44.4,0,0,0,455.48,563a16.7,16.7,0,0,0-5.15,4c-2.8,3.56-2.16,7.76-1.8,12.27a18.75,18.75,0,0,1-1.06,1.88c-3,4.57-11.15,6.72-15.66,11.4-6.3,6.53-10.12,12-16.34,22.13S403,658.14,403,658.14c-1.17-1.53-2.33-3-3.49-4.59h0a195,195,0,0,1-3.82-70.22c1.21-9.44,3.18-19,7.75-27.3,3.6-6.56,8.68-12.17,13.86-17.57,7.89-8.21,16.2-16.13,25.76-22.33,11.08-7.18,23.58-11.89,36.18-15.84,13.82-4.34,28.18-7.87,42.64-6.95,5.49.35,10.93,1.34,16.43,1.65,5.24.3,10.51,0,15.74.44,14,1.18,27,7.69,38.64,15.6,13.2,9,25.24,20.17,33.12,34.07,8.81,15.54,12,33.68,12.84,51.53C639.5,614.1,638.27,631.62,638.74,649.11Z" transform="translate(-328.89 -492.18)"/><path class="cls-1" d="M401,657.17l1.66,5.65c-.07-.16-.34-.07-.38.1a.66.66,0,0,0,.15.48" transform="translate(-328.89 -492.18)"/></g><g id="body"><path class="cls-3" d="M491.5,847.68c1.37,3.58,2.74,7.21,3,11s-.62,7.9-3.32,10.61" transform="translate(-328.89 -492.18)"/><path class="cls-3" d="M573.35,827.19c.14,6.08-.66,12.16-.17,18.22s2.52,12.34,7.2,16.22" transform="translate(-328.89 -492.18)"/><path class="cls-3" d="M492.93,869.66c12.55,8.05,28.27,10.13,43.05,8.11s28.76-7.85,42-14.63" transform="translate(-328.89 -492.18)"/><path class="cls-3" d="M795.08,1061.31a79.77,79.77,0,0,1,5.56,20.11,116.23,116.23,0,0,1,.77,20.18" transform="translate(-328.89 -492.18)"/><path class="cls-3" d="M739.34,1071.45a166.17,166.17,0,0,0-.06,30.09" transform="translate(-328.89 -492.18)"/><path class="cls-5" d="M492.76,870.73a59.48,59.48,0,0,0-51.34,6.76c-5.58,3.74-10.47,8.39-15.77,12.52-6.46,5-13.53,9.32-19.79,14.63-12.32,10.44-21,24.46-28.74,38.62a472.55,472.55,0,0,0-45,117.27c-.6,2.51-1.09,5.42.53,7.42,1.14,1.41,3,1.94,4.76,2.4l49.29,12.85c9.19,2.39,20.4,4.27,27-2.58a26.91,26.91,0,0,0,4.38-7l17.21-35.15c2.3,25.74-11.45,52.15-3.81,76.83" transform="translate(-328.89 -492.18)"/><path class="cls-3" d="M329.89,1121a223.4,223.4,0,0,1,15.54-48.44" transform="translate(-328.89 -492.18)"/><path class="cls-3" d="M395.39,1086.79a162.43,162.43,0,0,1-11,29.5" transform="translate(-328.89 -492.18)"/><path class="cls-5" d="M696.62,1104.65a157.61,157.61,0,0,0-3.09-60.33,28.54,28.54,0,0,1,15.27,13.82c2.79,5.6,4.39,12.84,10.23,15.1,3.08,1.19,6.53.56,9.77-.1q41.6-8.48,82.67-19.34l.12.31c-14.63-58.68-42-115.34-85.6-157.24a166.16,166.16,0,0,0-18.46-15.57,139,139,0,0,0-44.76-20.7,160,160,0,0,0-82.64.07" transform="translate(-328.89 -492.18)"/></g></svg>