<svg xmlns="http://www.w3.org/2000/svg" viewBox="0 0 953.01 852.36"><defs><style>.cls-1,.cls-2,.cls-3,.cls-6{fill:none;}.cls-1,.cls-2,.cls-3,.cls-4,.cls-5,.cls-6,.cls-7{stroke:#000;stroke-width:2px;}.cls-1,.cls-2,.cls-7{stroke-miterlimit:10;}.cls-2,.cls-5,.cls-6,.cls-7{stroke-linecap:round;}.cls-3,.cls-4,.cls-5,.cls-6{stroke-linejoin:round;}</style></defs><g id="Layer_2" data-name="Layer 2"><path class="cls-1" d="M882.54,673.29l1-190.31a6.38,6.38,0,0,0-6.37-6.41h-360a6.38,6.38,0,0,0-6.37,6.41l1,190.31" transform="translate(-138.99 -475.57)"/><path class="cls-1" d="M521,671.72l-.92-182.22a4.38,4.38,0,0,1,4.38-4.42H869.78a4.53,4.53,0,0,1,4.52,4.55l-.92,180.72" transform="translate(-138.99 -475.57)"/><path class="cls-2" d="M509.37,683c.45-1.4-.29-2.88-1.1-4.09a25.77,25.77,0,0,0-6.48-6.69c3.73.64,7.62,2.25,9.46,5.55l-1.9-6.94c1.28,1.64,3.08,2.81,4.54,4.3a13.8,13.8,0,0,1,3.66,7.21" transform="translate(-138.99 -475.57)"/><path class="cls-2" d="M517.38,681.54c.53-3.51,2.26-8.29,4.51-11a49.21,49.21,0,0,0,.16,7.58,20.46,20.46,0,0,1,10.1-14.43,22.62,22.62,0,0,0-3.59,15c.25,2.18,1,4.54,2.85,5.71" transform="translate(-138.99 -475.57)"/><path class="cls-2" d="M877,675.74a44.45,44.45,0,0,1,3.49-5.44q-.09,3,.09,5.93a47.33,47.33,0,0,1,9.78-11.15,71.21,71.21,0,0,0-3.92,13.37" transform="translate(-138.99 -475.57)"/><path class="cls-2" d="M871.1,679.47l-5.38-9.64a14,14,0,0,1,7.47,7.34,26.16,26.16,0,0,1-.68-8,78.73,78.73,0,0,1,6.79,10.53" transform="translate(-138.99 -475.57)"/><path class="cls-3" d="M694.2,570.92c4.64.21,8.84,2.7,12.81,5.13l9.92,6.05s6.54-11.67,10.79-17.14a3.43,3.43,0,0,0-.1-2.9c-.41-.92-1-1.72-1.52-2.59a9.87,9.87,0,0,1-1.17-3.45,2,2,0,0,1,.06-1.12.84.84,0,0,1,.9-.54,1.23,1.23,0,0,1,.66.61l1.28,1.93a1.21,1.21,0,0,0,.68.62c.67.15,1-.73,1.16-1.4a23.8,23.8,0,0,1,1-3.72c.26-.69.89-1.5,1.53-1.16.84,1,1,3.89.24,5.71a26.31,26.31,0,0,1,1.65-4.18,4.15,4.15,0,0,1,1.27-1.65,1.52,1.52,0,0,1,1.93.14c.67.79,0,2-.59,2.83a14.92,14.92,0,0,0-1.86,3.88,5.51,5.51,0,0,1,1.93-2.62c1-.56,2.45-.31,2.78.74a2.81,2.81,0,0,1-.92,2.44l-2.71,3.32c.51-1,2.29-2.09,2.61-1.68.91,1.19-.68,3.06-2.06,3.86s-3,1.33-3.93,2.65h0c-5.55,9.1-7.73,20.09-14.16,28.59l-14.7-9.47c2.74,10.2,1.14,21.16,3.71,31.39,0,0-7.31,1.7-11.48,1.55-6.42-.22-13.13-3-19-.54a22,22,0,0,1-4.18,1,85.48,85.48,0,0,1,1.19-22c.54-2.94-.11-9.07-.11-9.07l-5.51,5.48a30.15,30.15,0,0,1-4.35,3.8,10,10,0,0,1-5.4,1.85,72.82,72.82,0,0,1-5.51-5c-3.35-3.53-9.47-8.09-11.59-8.69,0,0-5.15-.5-7.54,1a7.17,7.17,0,0,1-1.74,1,1.63,1.63,0,0,1-1.82-.46c-.38-.74.38-1.56,1.12-1.93s1.64-.76,1.81-1.57a19.13,19.13,0,0,1-3.69-.48,2.67,2.67,0,0,1-1.65-.85c-.37-.51-.24-1.41.37-1.57a1.46,1.46,0,0,1,.77.07l4.51,1.25c.28-.47-.26-1-.73-1.27l-4-2.32c-.87-.51-1.87-1.35-1.55-2.31,2.82-.46,5.08,2.61,7.93,2.82-.09-1.35-1.44-2.2-2.6-2.9s-2.41-1.82-2.13-3.15c.59-.66,3.42,1.43,4.87,2.57,1.24,1,2.75,2.21,4.18,1.55-.32-1.77-1.18-5.17-.8-5.25,1.15-.63,1.65.59,2,1.5a15,15,0,0,1,.51,2.84c.36,2.1,3,4.37,3,4.37l13,7.08c1,.56,2.61,1.68,2.61,1.68,2.57-1.45,4.47-3.82,6.39-6.06s3.67-4.12,5.62-6.08a23.92,23.92,0,0,1,4-3.41,13.35,13.35,0,0,1,5.09-1.92s3.35,2.63,5.45,2.48a5.12,5.12,0,0,0,4.62-3.69S692.89,570.85,694.2,570.92Z" transform="translate(-138.99 -475.57)"/><path class="cls-1" d="M681.31,572a14.32,14.32,0,0,0,1.1-4.88c0-.72.1-1.25-.55-1.58" transform="translate(-138.99 -475.57)"/><path class="cls-1" d="M690.76,571c-1.46-1.52-2.31-2.49-2.31-4.6" transform="translate(-138.99 -475.57)"/><path class="cls-1" d="M671.05,545.43c.44,11,3.55,15.91,10.49,20a10.53,10.53,0,0,0,2.93,1.25,7.35,7.35,0,0,0,7.09-2.36,12.46,12.46,0,0,0,2-3.81,43.41,43.41,0,0,0,2.18-19" transform="translate(-138.99 -475.57)"/><path class="cls-1" d="M696,545.25a1.85,1.85,0,0,1,1.68-.93,1.4,1.4,0,0,1,1.1,1.5c-.24,2-1,1.62-1,3.67,0,.73.28,2.77-.28,3.23a1.29,1.29,0,0,1-2-.46" transform="translate(-138.99 -475.57)"/><path class="cls-1" d="M671.23,548.21c-.31-.63-2.06-.55-2.57-.06a1.92,1.92,0,0,0-.33,2,5.56,5.56,0,0,0,1.19,1.74,6,6,0,0,1,1.22,1.71c.31.79.11,1.08.39,1.88s1,.94,1.81.6" transform="translate(-138.99 -475.57)"/><path class="cls-4" d="M671.19,545.23c.41-1.44.89-3,2.11-3.86a4.92,4.92,0,0,0,1.06-.8A8.21,8.21,0,0,0,675,539a3.11,3.11,0,0,1,3.05-1.38,22.83,22.83,0,0,1,3.45.84,1.61,1.61,0,0,0,.84,0c.77-.24.9-1.36,1.61-1.73,1-.49,1.95.72,3,.82a5.29,5.29,0,0,0,1.56-.28,1.35,1.35,0,0,1,1.43.43c.24.4.1.91.11,1.37,0,.85,1,1.7,1.69,1.22.18-.12.32-.32.53-.38.52-.14.82.53,1.13,1a1.83,1.83,0,0,0,2.73.18,6.39,6.39,0,0,0,1.23-1.62c.36-.81-.26-2-1.13-1.83.7-.65,0-1.82-.86-2.29s-1.88-.92-2-1.86a7,7,0,0,0,0-1.13c-.43-1.45-3.25-.38-3.88-1.75-.18-.4-.09-.89-.32-1.26a1.35,1.35,0,0,0-1.77-.22,11.17,11.17,0,0,1-1.68,1c-.62.2-1.49-.09-1.52-.75-1.56-.4-3.17,2.17-4.39,1.14-.25-.21-.39-.53-.64-.73-.85-.7-2,.37-2.51,1.36s-1.3,2.23-2.35,1.9c.41-.45-.23-1.21-.82-1.11a1.93,1.93,0,0,0-1.25,1.21,3.09,3.09,0,0,1-1.05,1.44A7.32,7.32,0,0,1,670,535a2.17,2.17,0,0,0-1.39,1.6,4.38,4.38,0,0,0,0,1.2l.53,5.55a2.22,2.22,0,0,0-1.19.21,2.13,2.13,0,0,0,2.66,2.44Z" transform="translate(-138.99 -475.57)"/><path class="cls-2" d="M673.41,545.25a2.77,2.77,0,0,1,.42-.68c1.11-1.32,3.08-1.35,4.79-1.28" transform="translate(-138.99 -475.57)"/><path class="cls-2" d="M686,542.87a4.53,4.53,0,0,1,6.16-.08" transform="translate(-138.99 -475.57)"/><path class="cls-3" d="M675.38,547.87a6.26,6.26,0,0,1,6.72.27c-1,1.35-2.15,2.77-3.76,3.32a4.46,4.46,0,0,1-4.05-.68C673,549.82,674.4,548.46,675.38,547.87Z" transform="translate(-138.99 -475.57)"/><path class="cls-3" d="M687,546a6.24,6.24,0,0,1,6.72.27c-1,1.35-2.15,2.77-3.76,3.32a4.49,4.49,0,0,1-4.05-.68C684.61,547.94,686,546.58,687,546Z" transform="translate(-138.99 -475.57)"/><circle cx="538.55" cy="73.78" r="1.53"/><circle cx="550.34" cy="71.89" r="1.53"/><path class="cls-2" d="M683.06,551.89c.89,1.3.3,3.13,1,4.57a.48.48,0,0,0,.18.24.45.45,0,0,0,.23,0,3.26,3.26,0,0,0,1.85-1" transform="translate(-138.99 -475.57)"/><path class="cls-5" d="M689.32,559.48c-.8,1.09-1.17,1-2.36,1.69a9.69,9.69,0,0,1-2.4.59,3.18,3.18,0,0,1-.92,0,7.53,7.53,0,0,1-2.58-1l-.27-.3c0,.05-.1,0-.07,0s.09,0,.14,0a10.9,10.9,0,0,0,9.44-2.67Z" transform="translate(-138.99 -475.57)"/><path class="cls-6" d="M705.62,617.58a66,66,0,0,1,5.29,12,74.59,74.59,0,0,0,3,8.8c.86,1.83,2,3.65,2,5.67l-15.11,4.82a2.09,2.09,0,0,1-1.55.09,2,2,0,0,1-.71-.74c-1.93-2.8-3.89-5.65-4.88-8.9-.64-2.08-.93-4.39-2.41-6,0,0-2.19,7.28-3.74,10.82a34.18,34.18,0,0,0-1.82,5.3c-.09.35-.22.75-.56.87a1.05,1.05,0,0,1-.5,0l-13.3-1.82c-.9-.12-2-.38-2.27-1.25a2.59,2.59,0,0,1,0-1.11A113.75,113.75,0,0,1,673,628c.88-2.89,2.1-6.45,2.68-9.41" transform="translate(-138.99 -475.57)"/><path class="cls-3" d="M685.45,686.23a64.49,64.49,0,0,0-3.13-23.15c-.82-2.58-1.8-5.34-1-7.92a49.35,49.35,0,0,0,1.72-5.06" transform="translate(-138.99 -475.57)"/><path class="cls-3" d="M679.76,686.81c-2.59-9.17-8.2-26.47-8.2-26.47l-.69-1.18a6.44,6.44,0,0,1-.85-6.81l.22-.7.94-2.93" transform="translate(-138.99 -475.57)"/><path class="cls-3" d="M677.49,679.36a26.37,26.37,0,0,0,3.88-.93,4.76,4.76,0,0,1,3.85.45" transform="translate(-138.99 -475.57)"/><path class="cls-6" d="M679.7,686.66a7.15,7.15,0,0,0,5.77-.69" transform="translate(-138.99 -475.57)"/><path class="cls-3" d="M679.45,685.69c-.44-.9-.7-.93-1.27-1a1.38,1.38,0,0,0-1.32.95,2.85,2.85,0,0,0,0,1.71,2.24,2.24,0,0,1,.12,1.3,1.88,1.88,0,0,1-1,.89l-8.15,4.6a3.63,3.63,0,0,0-1.39,1.12,2.41,2.41,0,0,0,1.15,3.23,5,5,0,0,0,3.77,0c1.22-.42,2.36-1.06,3.6-1.39,3.84-1,11.43-1.32,11.43-1.32a6.91,6.91,0,0,0,1.87-8.18,1.58,1.58,0,0,0-.54-.68,2.22,2.22,0,0,1-.49-.3c-.29-.33,0-.84,0-1.28a.87.87,0,0,0-.64-.89.65.65,0,0,0-.75.69" transform="translate(-138.99 -475.57)"/><path class="cls-3" d="M679.7,686.66a3.58,3.58,0,0,1-.52,2.67,5.42,5.42,0,0,1-1.71,1.36,22.17,22.17,0,0,1-4.05,1.79,2,2,0,0,1-1.64-.51" transform="translate(-138.99 -475.57)"/><path class="cls-6" d="M674.09,690.87a3.12,3.12,0,0,1,1.36,2.72" transform="translate(-138.99 -475.57)"/><path class="cls-6" d="M676.21,689.59a3.06,3.06,0,0,1,2.56,2.74" transform="translate(-138.99 -475.57)"/><path class="cls-3" d="M712.82,645.06c1.54.92,2.1,3.66,2.89,5.28.4.8.91,1.55,1.3,2.36a9.09,9.09,0,0,1,.23,7.28" transform="translate(-138.99 -475.57)"/><path class="cls-3" d="M706.71,685.12c.79-10-2-19.36.59-29.06,0,0-4.66-5.32-5.71-7.42" transform="translate(-138.99 -475.57)"/><path class="cls-3" d="M717.27,660a81.72,81.72,0,0,0-3.8,25" transform="translate(-138.99 -475.57)"/><path class="cls-3" d="M706.68,678.89c1.32,1.19,3.79,1.23,5.57,1.16.4,0,1.1-.23,1.4.05" transform="translate(-138.99 -475.57)"/><path class="cls-3" d="M706.85,684.78c-.14-.09-.21.19-.14.34a3,3,0,0,0,1.76,1.46,4.5,4.5,0,0,0,5-1.57" transform="translate(-138.99 -475.57)"/><path class="cls-3" d="M713.47,684c.09-.7.51-1.59,1.21-1.46a1.6,1.6,0,0,1,1,.92A8.63,8.63,0,0,0,717,685.2a7.5,7.5,0,0,0,4.09,2.12,34.77,34.77,0,0,1,4.56,1.08c1.47.55,4.41,1.45,4.88,2.94s.06,2.62-1.46,3a29.76,29.76,0,0,1-4.09.38c-2.65-.4-4.45,0-7.11.32a74.52,74.52,0,0,1-8.66,1.09,14.7,14.7,0,0,1-2.41-.58c-1.72-.92-1.7-1.69-1.46-3.62.16-1.31.84-2.58.56-3.87a7.33,7.33,0,0,0-1-2,3,3,0,0,1-.54-2.18c.5-.2,1.34-.46,1.75-.1s.39.63.75,1.07" transform="translate(-138.99 -475.57)"/><path class="cls-3" d="M713.46,684.76a4.62,4.62,0,0,0,1.84,2.17c.63.35,1.34.55,2,.85.88.39,1.68,1,2.56,1.35a3.89,3.89,0,0,0,2.81.32,3.1,3.1,0,0,0,1.26-1.56" transform="translate(-138.99 -475.57)"/><path class="cls-6" d="M717.8,685.92a5.16,5.16,0,0,0-2.91,3.58" transform="translate(-138.99 -475.57)"/><path class="cls-6" d="M721.28,687.36a3.27,3.27,0,0,0-2,1.48,12.5,12.5,0,0,0-1.19,2.5" transform="translate(-138.99 -475.57)"/><path class="cls-3" d="M642.38,586a3.71,3.71,0,0,1,.26-2.18,11.22,11.22,0,0,1,1.11-1.93,5.65,5.65,0,0,1,.87-1.08" transform="translate(-138.99 -475.57)"/><path class="cls-3" d="M727,566.08q2.44,1.26,4.88,2.55" transform="translate(-138.99 -475.57)"/></g><g id="Layer_3" data-name="Layer 3"><path class="cls-2" d="M1009.73,903.94c1.67,5.77,1.2,10.06.92,16.23-.24,5.4-.12,10.81,0,16.22q.83,32.43,2.7,64.82" transform="translate(-138.99 -475.57)"/><path class="cls-2" d="M1019.26,1076.77c2-3.11,5.56-8.5,6.31-10.34" transform="translate(-138.99 -475.57)"/><path class="cls-2" d="M1010.05,1068.56c1.41-1.49,5.62-7.83,7-9.32" transform="translate(-138.99 -475.57)"/><path class="cls-2" d="M1009.86,1055.4l3.27-3.94c2-2.45,4.12-5,6.87-6.55" transform="translate(-138.99 -475.57)"/><path class="cls-2" d="M906.21,766.74a61.27,61.27,0,0,0,1.29,43.86" transform="translate(-138.99 -475.57)"/><path class="cls-2" d="M920.25,790.92l.21,11.47c.06,3.05,0,6.49-2.25,8.59" transform="translate(-138.99 -475.57)"/><path class="cls-2" d="M1013.57,1076.29c.84,5.28,1.56,11.45,2.4,16.72,1.76,11,2.27,33.75,2.27,33.75-4,2.87-9.26,2.86-14.15,2.82q-20.49-.18-40.92,1.68l-.36,0s-1.93-11.45-2.6-16.65a92.58,92.58,0,0,0-2.08-11.94c-.79-2.94-1.86-5.8-2.5-8.77s-3.92-12.63-4.48-14.39c0,0-3.58-8.34-7-13.11" transform="translate(-138.99 -475.57)"/><path class="cls-2" d="M1005.47,1002.23c1.82,13.46,4.38,28.52,5.77,42" transform="translate(-138.99 -475.57)"/><path class="cls-2" d="M868.28,1298.16a13.07,13.07,0,0,1,6.47,4.2c1.73,2.1,2.44,4.79,1.94,9.06" transform="translate(-138.99 -475.57)"/><path class="cls-2" d="M880.46,1294.69a26.57,26.57,0,0,1,7.21,6,14.16,14.16,0,0,1,3.47,9" transform="translate(-138.99 -475.57)"/><path class="cls-2" d="M888.92,1292.28a16.22,16.22,0,0,1,7.44,5.4c2,2.64,2.75,6.32,1.35,9.29" transform="translate(-138.99 -475.57)"/><path class="cls-2" d="M1012.78,1001.42c-27.3,3.77-55-1.13-82.54-1.08a230.78,230.78,0,0,0-34.43,2.67c-4.22.65-8.57,1.41-12.71.34.59-10.93,1.24-33.86,1.82-44.79.18-3.41.37-6.83.43-10.24.07-4.08,0-8.15,0-12.23.09-14.16,2.86-30.43,4.48-44.5" transform="translate(-138.99 -475.57)"/><path class="cls-2" d="M1002.23,889.48a37,37,0,0,1,5.22,8.6c.83,1.93,1.49,3.92,2.28,5.86,4.46,11,12.6,20.12,20.59,28.95l.63.53a211.55,211.55,0,0,1,32.18-24.82,56.14,56.14,0,0,0,6.64-5.5c-9.56-17-21.76-33.83-33.08-49.67a69.35,69.35,0,0,0-6-7.62,54.45,54.45,0,0,0-6.25-5.39,132.16,132.16,0,0,0-35.86-19.32c-6.65-2.34-13.59-4.16-20.64-4.09l.08-.22c-1.58,4.17-6,6.47-10.17,8-4.91,1.83-10.57,3.14-15.23.75-3.42-1.74-5.63-5.13-7.67-8.38l-.19-.15c-11.69-2.3-24-.2-34.94,4.51s-20.67,11.92-29.5,19.94c-11.82,10.74-22.35,23.27-28.69,37.93,0,0,8,7.39,11.58,11.33,1.66,1.85,3.26,3.76,5,5.53,1.28,1.3,2.64,2.53,4,3.76l5.62,5.08a23.53,23.53,0,0,0,6.08,4.4s3.41-4.39,5.19-6.58c2-2.51,4.61-4.55,6.87-6.87,4.22-4.34,7.37-9.66,11.87-13.7" transform="translate(-138.99 -475.57)"/><path class="cls-2" d="M1037.19,927.89c4.32,6.12,11.86,16.07,17.55,20.93" transform="translate(-138.99 -475.57)"/><path class="cls-6" d="M1066.42,906.7c5,6.14,10.09,12.32,14.21,19.11,2.65,4.37,4.93,9,8.41,12.76a6.26,6.26,0,0,1,.77,1.07,15.8,15.8,0,0,1-3,16.65s-9.9,20.25-14.23,30.16c-3.68,8.42-7.24,16.92-11.74,24.92-5,8.83-11.09,17.1-14.58,26.62,0,0,1.16,9.19,1.28,14.67.09,4.45-1.36,8.77-2.88,13-1.66,4.58-3.64,9.4-7.66,12.15a4.64,4.64,0,0,1-2.51.83c-6.3.17.56-7.34.82-8.21-1.28,2.07-5,10.58-7.2,11.56a6.07,6.07,0,0,1-8.53-5.32,6.6,6.6,0,0,1-8.25-2.48,12.8,12.8,0,0,1-1.31-5.59c-1.85.6-3.87-.91-4.39-2.77a7.37,7.37,0,0,1,1.1-5.54c1-1.67,2.28-3.13,3.25-4.81-2.57-.81-3.3-4.36-2.15-6.79s3.51-4,5.7-5.58c5.78-4.11,16.14-13.51,16.14-13.51,7.23-21.3,10.11-43.83,16.33-65.45a39.48,39.48,0,0,1,3.09-8.17c2.1-3.79,5.28-6.85,8.42-9.84" transform="translate(-138.99 -475.57)"/><path class="cls-2" d="M827.49,908.91c-.1-.54,2.32-4.2,2.65-4.63a119.89,119.89,0,0,1,17-18.79" transform="translate(-138.99 -475.57)"/><path class="cls-2" d="M745.83,881.16c-2.16-2.89-4.89-7.59-4.78-11.19a14.38,14.38,0,0,1,.88-5c1.15-3.06-.52-6.86-1.65-9.93a21.53,21.53,0,0,1-.76-10.3,5.67,5.67,0,0,1,2.41-4c.75-.7,2.79-.21,3.47.56.46.53,2.3,7.36,2.39,8,.25,1.85,2.41,4.41,3.44,6,1.33,2,3.5,3.23,5.28,7.29,1.4,3.2,1.34,9,3.3,11.89s4.83,6.86,6,7.68a52.72,52.72,0,0,0,17.39,9c2.84.85,5.75,1.46,8.64,2.14q5.12,1.2,10.17,2.67a79.61,79.61,0,0,1,11.12,4c5.34,2.49,10.18,5.92,15,9.34" transform="translate(-138.99 -475.57)"/><path class="cls-2" d="M742.11,860.69c-.73-.63-4.8-3.38-5.47-3.85-8.88-6.19-13.88-7.73-21.52-11.53-1.54-.77-6.27-3.85-10.11-4.72-1.67-.39-4.1-1-6.34.29a2.92,2.92,0,0,0-.84,1.56c.54,3.75,3.86,6.29,6.91,8.39,4.26,2.94,8.57,5.9,13.35,7.81,1.09.44,2.31.92,2.79,2a4.52,4.52,0,0,0-4.5,3.82c-.4,2.17,1.11,4.52,2.71,6-2.51.46-4.37,1.4-4.6,3.46s.68,4.08,1.58,6c-1,.55-2.67.33-3.79,2.32-.27.48-1.58,1.79-.38,5,1.94,5.21,2.13,3.63,9.49,7.12,3.34,1.58,14.1,3.68,17.78,3.43,6.2-.41,8-.76,14.11.59,1.54.25,9.83,5,11.06,6,4.72,3.8,12,8.28,14.42,10.55,2.75,2.54,5.9,4.87,8.84,7.16a64.79,64.79,0,0,0,9,5.57c6.72,3.65,13.3,7.49,20.09,11,4.86,2.51,8.81,5.63,14.22,6.1,2.47.21,6.9-1.86,8.83-3.47,0,0,10.22-9.63,15.2-15.37,3.7-4.28,7.22-8.76,11.38-12.56a41.13,41.13,0,0,0,4.86-5.43" transform="translate(-138.99 -475.57)"/><path class="cls-2" d="M721,860.69c1.08.37,1.75.56,2.82.93a17.08,17.08,0,0,1,3.72,2.14,5.94,5.94,0,0,1,2.58,3.4,2,2,0,0,1-.26,1.81,11.08,11.08,0,0,1-1.46,1.2,5.59,5.59,0,0,1-3.43,1,16.45,16.45,0,0,1-3.05-.25,15.46,15.46,0,0,1-2.84-.76" transform="translate(-138.99 -475.57)"/><path class="cls-2" d="M716.21,880c4.47,1.72,6.51,1.86,11.27,2,.46,0,2.85-.31,3.55-1.26.9-1.21.41-3-.22-4.34-.8-1.76-.81-1.41-2.18-2.29a50.18,50.18,0,0,0-6.7-3.2" transform="translate(-138.99 -475.57)"/><path class="cls-2" d="M722,881.61a8.59,8.59,0,0,1,4.8,1.94,2.53,2.53,0,0,1,1,2,2.56,2.56,0,0,1-.65,1.39,6.63,6.63,0,0,1-5.35,2.25,10.67,10.67,0,0,1-5.57-2" transform="translate(-138.99 -475.57)"/><path class="cls-2" d="M936.06,818.81a29.49,29.49,0,0,0,3.8-13.63" transform="translate(-138.99 -475.57)"/><path class="cls-2" d="M967.32,817c-3.23-3.69-4.83-9.48-4.73-14.39" transform="translate(-138.99 -475.57)"/><path class="cls-2" d="M910.14,741.19l.81,17.62c.29,6.15.59,12.38,2.43,18.26,3.26,10.44,11.21,18.94,20.42,24.84a30.27,30.27,0,0,0,11.14,4.78c7.18,1.18,15.14-1.94,20.13-6.52,4.84-4.47,9.48-7.34,13.29-13.54,1.68-2.74,3.48-9.06,4.74-12a65,65,0,0,0,3.54-12.66c2.14-10.57,3.9-21.4,2.5-32.08" transform="translate(-138.99 -475.57)"/><path class="cls-2" d="M989.86,737.78a10.83,10.83,0,0,1,3.28-2.65,3.64,3.64,0,0,1,4,.47,3.31,3.31,0,0,1,.7,1.07,7.37,7.37,0,0,1-.32,5.76c-.77,1.83-1.91,3.47-2.76,5.26a17.58,17.58,0,0,0-1.63,8.14c.06,1.41.22,3-.79,4a3.08,3.08,0,0,1-4.82-2.29" transform="translate(-138.99 -475.57)"/><path class="cls-2" d="M908.3,743.35a5.46,5.46,0,0,0-7.46-.56c-1.2,2.19-.18,4.93,1.09,7.08s2.84,4.38,2.71,6.88c-.06,1.16-.49,2.27-.53,3.43a8.88,8.88,0,0,0,1.45,4.52,5.06,5.06,0,0,0,2.32,2.44c1.08.41,3.4-.42,3.47-1.57" transform="translate(-138.99 -475.57)"/><path class="cls-2" d="M902,765.57a57.1,57.1,0,0,0,1.8,40.9" transform="translate(-138.99 -475.57)"/><path class="cls-2" d="M909.33,767.24c-.3,5.78,1.38,11.45,2.07,17.19a50.55,50.55,0,0,1-1.33,18.93" transform="translate(-138.99 -475.57)"/><path class="cls-2" d="M916.09,783.86c.56,6.17,1.06,12.71-1.74,18.23" transform="translate(-138.99 -475.57)"/><path class="cls-2" d="M925.41,795.54l.31,8.79" transform="translate(-138.99 -475.57)"/><path class="cls-2" d="M929.44,799.28a69.12,69.12,0,0,0,2.93,8.75" transform="translate(-138.99 -475.57)"/><path class="cls-2" d="M934.91,802.92a22.48,22.48,0,0,1,.72,8" transform="translate(-138.99 -475.57)"/><path class="cls-2" d="M966.1,799.28a9.42,9.42,0,0,0,7,10.1" transform="translate(-138.99 -475.57)"/><path class="cls-2" d="M970.42,795.74a35.68,35.68,0,0,1,3.65,12.78" transform="translate(-138.99 -475.57)"/><path class="cls-2" d="M975.21,791.48a25.51,25.51,0,0,1,3.12,12.85" transform="translate(-138.99 -475.57)"/><path class="cls-2" d="M980.36,783.1a30.85,30.85,0,0,1,1.27,23.77" transform="translate(-138.99 -475.57)"/><path class="cls-2" d="M985.8,774.4c1.11,4.5-.47,9.18-2,13.54" transform="translate(-138.99 -475.57)"/><path class="cls-2" d="M988.31,760.25l0,6.93a62,62,0,0,0,.73,11.15,31,31,0,0,0,5,11.9" transform="translate(-138.99 -475.57)"/><path class="cls-2" d="M988.89,760.49a52.46,52.46,0,0,1,2,19.89" transform="translate(-138.99 -475.57)"/><path class="cls-2" d="M992,767.75a46.78,46.78,0,0,1,1.39,28" transform="translate(-138.99 -475.57)"/><path class="cls-2" d="M985,769.79a52.54,52.54,0,0,0,3.3,13.31" transform="translate(-138.99 -475.57)"/><path class="cls-2" d="M960.08,720.7a22.3,22.3,0,0,1,10.47-1.57" transform="translate(-138.99 -475.57)"/><path class="cls-2" d="M980.86,725.84a11.15,11.15,0,0,0-2.6-3.34" transform="translate(-138.99 -475.57)"/><path class="cls-2" d="M937.42,725a8.54,8.54,0,0,0-5-1.86l-.37,0a25.61,25.61,0,0,0-5.78.59c-1.29.22-2.62.48-3.9.82" transform="translate(-138.99 -475.57)"/><path class="cls-2" d="M946.91,700.49l-11.66,11.62c-2.93,2.92-5.91,5.88-9.5,7.93" transform="translate(-138.99 -475.57)"/><path class="cls-2" d="M938.71,694.48A128.09,128.09,0,0,1,915.58,733" transform="translate(-138.99 -475.57)"/><path class="cls-2" d="M946.6,705.23a31.71,31.71,0,0,1-15.33,18.56" transform="translate(-138.99 -475.57)"/><path class="cls-2" d="M931.07,701.59a286.08,286.08,0,0,1-24.6,35.61" transform="translate(-138.99 -475.57)"/><path class="cls-2" d="M917,725.67a74.4,74.4,0,0,1-4.25,10.48A46,46,0,0,1,904,748.73" transform="translate(-138.99 -475.57)"/><path class="cls-2" d="M911,707.9a43.33,43.33,0,0,0-7.4,8.55c-5.28,8.86-3.6,20-5,30.25" transform="translate(-138.99 -475.57)"/><path class="cls-2" d="M908.3,714.12A23.59,23.59,0,0,0,902.68,726a57.92,57.92,0,0,0-.59,13.23" transform="translate(-138.99 -475.57)"/><path class="cls-2" d="M920.36,695.15c-5.31-1.63-11.71.08-14.84,4.67s-2.54,10.67-3.79,16.09" transform="translate(-138.99 -475.57)"/><path class="cls-2" d="M933.37,688.49c-2.47-.87-5.09.7-7.15,2.31-5.16,4-9.87,9-11.9,15.24-2.45,7.5-.82,16.17-4.71,23" transform="translate(-138.99 -475.57)"/><path class="cls-2" d="M936.69,688a16.52,16.52,0,0,0-25.62,13.5" transform="translate(-138.99 -475.57)"/><path class="cls-2" d="M943.33,690.72a12.74,12.74,0,0,0-5-.81c-2,.21-3.83,1.39-5.61,2.41a29.18,29.18,0,0,0-4,2.52c-5,4.07-5.42,11.44-8.77,16.9" transform="translate(-138.99 -475.57)"/><path class="cls-2" d="M938.94,684.8a8.25,8.25,0,0,1,7.36-2.61" transform="translate(-138.99 -475.57)"/><path class="cls-2" d="M946.19,688.89c-.41-2.36,1.54-4.47,3.56-5.78a23.78,23.78,0,0,1,18.07-2.81c6.1,1.41,15.28,8.32,19.67,12.78" transform="translate(-138.99 -475.57)"/><path class="cls-2" d="M949.69,690.69a44.61,44.61,0,0,1,11-1.76A54.13,54.13,0,0,1,979,691.65a31.72,31.72,0,0,1,10.34,6.15c3.92,3.56,6.21,9.34,8.34,14.89" transform="translate(-138.99 -475.57)"/><path class="cls-2" d="M983,724.24c-1.59-.55-3.16-1.13-4.74-1.74-2.62-1-5.21-2.11-7.71-3.37a50.73,50.73,0,0,1-9.09-5.72c-6.31-5-11.24-12.28-11.91-20.33" transform="translate(-138.99 -475.57)"/><path class="cls-2" d="M974.13,712.69a59.87,59.87,0,0,0,19,19.47" transform="translate(-138.99 -475.57)"/><path class="cls-2" d="M982.88,711.71A24.37,24.37,0,0,1,989,725.6" transform="translate(-138.99 -475.57)"/><path class="cls-2" d="M988.3,701a39.37,39.37,0,0,1,7.63,24.34" transform="translate(-138.99 -475.57)"/><path class="cls-2" d="M975.29,696.81a13.76,13.76,0,0,1,6.89,4.51,40.6,40.6,0,0,1,4.6,7" transform="translate(-138.99 -475.57)"/><path class="cls-2" d="M958.52,691.85c2.1,4.91,6.69,8.24,11.19,11.13s9.27,5.72,12.18,10.2" transform="translate(-138.99 -475.57)"/><path class="cls-2" d="M953.67,690.15A96.87,96.87,0,0,0,970.27,712" transform="translate(-138.99 -475.57)"/><path class="cls-2" d="M961.48,692c1.68-.76,3.63,0,5.26.85a45.74,45.74,0,0,1,9.78,6.9" transform="translate(-138.99 -475.57)"/><path class="cls-2" d="M989.37,715.28a60.86,60.86,0,0,1,5.45,14.85" transform="translate(-138.99 -475.57)"/><path class="cls-2" d="M943.09,750.71c.78,2.49.21,5.19-.61,7.66s-1.92,4.89-2.21,7.48a5.14,5.14,0,0,0,.53,3.33,4.93,4.93,0,0,0,2.83,1.91,10.12,10.12,0,0,0,9.24-1.8" transform="translate(-138.99 -475.57)"/><path class="cls-5" d="M957.85,786.19c-3.3,1.25-4.48,2.52-10.23,2.43a14.47,14.47,0,0,1-6.19-1c-4.12-1.34-6.38-3.35-7.66-7.49l.25-.06a76.67,76.67,0,0,0,28.44-1.2,4.13,4.13,0,0,0,2.5-1.27S962.58,784.4,957.85,786.19Z" transform="translate(-138.99 -475.57)"/><path class="cls-2" d="M932.78,733.47a9.84,9.84,0,0,1,2.84,1.19c1.3.84,2.3,2.08,3.63,2.87.39.66-.22,1.44-.78,2q-1.83,1.66-3.72,3.27a15.84,15.84,0,0,1-4.08,2.73,12.84,12.84,0,0,1-7.57.21,28.1,28.1,0,0,1-6.77-2.44c-.82-.42-1.9-.84-1.66-1.94a6.53,6.53,0,0,1,1.54-2.42,17,17,0,0,1,10-5.68A15.34,15.34,0,0,1,932.78,733.47Z" transform="translate(-138.99 -475.57)"/><path class="cls-2" d="M973.77,731a10,10,0,0,1,2.83,1.19c1.3.84,2.31,2.09,3.64,2.88.39.65-.22,1.43-.78,1.95q-1.83,1.66-3.72,3.26a15.48,15.48,0,0,1-4.09,2.73,12.88,12.88,0,0,1-7.56.22,28.56,28.56,0,0,1-6.77-2.45c-.82-.42-1.9-.83-1.66-1.93a6.53,6.53,0,0,1,1.54-2.42,16.93,16.93,0,0,1,10-5.69A15.54,15.54,0,0,1,973.77,731Z" transform="translate(-138.99 -475.57)"/><circle cx="787.84" cy="264.22" r="5.41"/><circle cx="829.01" cy="261.63" r="5.41"/><path class="cls-2" d="M949.89,1076.77c-3.67,11.06-8.83,39.22-11,50.67l-.11.2a132.92,132.92,0,0,1-28.73,1.85c-11.53-.5-34.42-1-34.42-1a412.87,412.87,0,0,1,4.49-69.1c.43-2.92.9-5.85,1.55-8.73.81-3.64,1.89-7.21,2.9-10.81,3.3-11.8,5.73-23.82,8.16-35.83" transform="translate(-138.99 -475.57)"/><path class="cls-2" d="M931.2,1128.74c-.53,4.73-2.45,15.41-3.12,17.75-5.26,18.53-2.88,44.21-2.21,63.46.92,26.19-4.9,52.21-4.72,78.41v.27" transform="translate(-138.99 -475.57)"/><path class="cls-2" d="M903,1290c-4.15-21.16-6.42-40.91-10.57-62.08-1.3-6.6-2.43-14.66-3-21.37-.78-8.67-1.85-22.79-3.62-31.32-1.17-5.63-3.88-10.5-3.92-16.25s1.83-13,2.75-16.42a24.8,24.8,0,0,0,.58-5.94c-.19-2.78-.91-7.85-.83-7.63" transform="translate(-138.99 -475.57)"/><path class="cls-2" d="M899.72,1271.52a18.69,18.69,0,0,0,9.52,1.35c1-.12,1.93-.32,2.89-.51l9.68-2" transform="translate(-138.99 -475.57)"/><path class="cls-2" d="M970.75,1130.48c1.76,3.75.53,13.18,1.93,22.43.85,5.63,3.57,10.7,5.44,16.08,4.39,12.6,5,31.8,6.43,45.06,1.27,11.73,4,23.25,6.74,34.73l8.43,35.4" transform="translate(-138.99 -475.57)"/><path class="cls-2" d="M1015.12,1129.31c-.89,8.94-2.36,8.69-2.48,24.27-.06,6.74,4.35,26,5.68,32.58a111.92,111.92,0,0,1,1.73,14,357.65,357.65,0,0,1-3.63,83.52" transform="translate(-138.99 -475.57)"/><path class="cls-2" d="M995.14,1264.4c.91,2,3.54,2.43,5.74,2.31,6-.32,12.09-2.66,17.86-1" transform="translate(-138.99 -475.57)"/><path class="cls-2" d="M902.88,1290.25c3.13-.79,6.41.06,9.61.5s6.82.32,9.14-1.92" transform="translate(-138.99 -475.57)"/><path class="cls-2" d="M901.53,1282.75c-.37-1.5-3.18-1.69-4.47-.84a5.08,5.08,0,0,0-1.88,4,8.66,8.66,0,0,1-.37,3.1c-.72,1.64-2.65,2.3-4.37,2.79l-21.78,6.2c-4.25,1.21-8.54,2.44-12.38,4.64s-7.21,5.49-8.61,9.68-.44,9.31,3,12.09a11.47,11.47,0,0,0,5.44,2.26,30.28,30.28,0,0,0,6.73,0c22.25-1.51,66.16-5.62,66.16-5.62,2.34-.9,2.69-4,2.63-6.51-.23-9.84-1.13-20.08-6.19-28.53a4.46,4.46,0,0,0-2-2,1.67,1.67,0,0,0-2.28,1" transform="translate(-138.99 -475.57)"/><path class="cls-2" d="M894.42,1290.28l.25.1a8.43,8.43,0,0,0,8.72-.16" transform="translate(-138.99 -475.57)"/><path class="cls-2" d="M999.36,1284.7c3.13-.8,6.41,0,9.61.49s6.14.32,8.46-1.92" transform="translate(-138.99 -475.57)"/><path class="cls-2" d="M998.1,1277.39c-.37-1.5-3.27-1.89-4.56-1a5.1,5.1,0,0,0-1.88,4.06,8.61,8.61,0,0,1-.37,3.09c-.72,1.64-2.65,2.3-4.37,2.79l-21.78,6.2c-4.25,1.21-8.54,2.44-12.38,4.64s-7.21,5.49-8.61,9.68-.44,9.31,3,12.09a11.49,11.49,0,0,0,5.44,2.27,30.9,30.9,0,0,0,6.73,0c22.25-1.5,43.28-3,65.48-5.17,2.34-.9,2.69-4,2.63-6.51-.23-9.84-1.13-20.08-6.19-28.53a4.41,4.41,0,0,0-2-2,1.67,1.67,0,0,0-2.28,1" transform="translate(-138.99 -475.57)"/><path class="cls-2" d="M965.53,1292.26a10.27,10.27,0,0,1,9.33,11.32c-.06.58-.24,1.25-.79,1.47" transform="translate(-138.99 -475.57)"/><path class="cls-2" d="M977,1289.3a29.53,29.53,0,0,1,7.62,6.21,14.16,14.16,0,0,1,3.47,9" transform="translate(-138.99 -475.57)"/><path class="cls-2" d="M985.39,1286.87a18.14,18.14,0,0,1,8,5.61c2,2.64,2.75,6.32,1.35,9.3" transform="translate(-138.99 -475.57)"/><path class="cls-2" d="M990.9,1284.72l.25.1a11.35,11.35,0,0,0,5,1.1,7,7,0,0,0,3.55-1.74" transform="translate(-138.99 -475.57)"/><path class="cls-2" d="M316.91,782.85l-6.28,43.53" transform="translate(-138.99 -475.57)"/><path class="cls-6" d="M306.86,855.16A43.68,43.68,0,0,0,304.3,869a36.23,36.23,0,0,0,8.74-.62c15.69-2.11,38.2,1.65,52.92,7.46" transform="translate(-138.99 -475.57)"/><path class="cls-6" d="M390.33,879.4c3.84,2.14,11.39.79,14.9,3.45l0-.37c2.3-16.68,5-29.33,6-43.43.59-8,1-12,1.5-18.15.45-5.46-.37-21.74-1.27-27.14a233.66,233.66,0,0,1-2.85-50" transform="translate(-138.99 -475.57)"/><path class="cls-2" d="M516.26,731.44c-1.73.43-2.27-.06-4,0s-3.75.54-4.72,2l-.08-.05c-2.76,7.77-2.2,16.31-3.8,24.39a3.46,3.46,0,0,1-1.38,2.13c-5.47,3.94-11.35,6.77-17.35,9.94-13.18,7-24.8,16.14-33.78,28l.08.31c-1.29-5.67-5.3-10.27-9.17-14.6l-4.5-5.05" transform="translate(-138.99 -475.57)"/><path class="cls-2" d="M532.79,729.66c2.51-1.08,4-.4,5.59,1.46s2.11,4.41,2.39,6.85" transform="translate(-138.99 -475.57)"/><path class="cls-2" d="M539.9,738.48a5.16,5.16,0,0,1,4.7,4,6.33,6.33,0,0,1-2,6.6" transform="translate(-138.99 -475.57)"/><path class="cls-2" d="M542.54,749.29c2.53,1.93,2,6.21-.28,8.39s-5.54,2.65-8.22,4.21c-1.26.74-2.38,1.7-3.63,2.46-5.16,3.16-15.72,4-15.72,4-12.3,14.53-24.66,29.11-38.93,41.7a195.94,195.94,0,0,1-25,18.71,8.25,8.25,0,0,1-3.66.63,13.28,13.28,0,0,1-4.9-1.42,14.56,14.56,0,0,1-3.31-3.2c-7.74-9-18.61-16.88-23.71-27.63" transform="translate(-138.99 -475.57)"/><path class="cls-2" d="M532.46,729.8a34.3,34.3,0,0,0-7.59,7.48,11.67,11.67,0,0,1-2.33,2.66,4.92,4.92,0,0,1-5.23.33c-1.6-.93-2.88-2.61-2.5-4.42.33-1.59.6-3.27,1.74-4.43l-.29.44a25.6,25.6,0,0,1,4.94-6,8.64,8.64,0,0,1,7.25-2,6,6,0,0,1,4.84,5.44" transform="translate(-138.99 -475.57)"/><path class="cls-2" d="M521.65,740.45a3.06,3.06,0,0,0-.85,4.07c1,1.41,3.19.85,4.73.06,4.67-2.41,9.14-5.72,14.37-6.1" transform="translate(-138.99 -475.57)"/><path class="cls-2" d="M525.39,744.65c-1.38,2.52-1.11,4.2-.45,5.63a3.34,3.34,0,0,0,3.42,1.51,11.64,11.64,0,0,0,3.08-1.7,13.68,13.68,0,0,1,9-1.94,5.59,5.59,0,0,1,2.14,1.14" transform="translate(-138.99 -475.57)"/><path class="cls-2" d="M530.69,750.58a8.08,8.08,0,0,0-1.84,4.8,3.09,3.09,0,0,0,2.21,3.28,11.37,11.37,0,0,0,5.76.24" transform="translate(-138.99 -475.57)"/><path class="cls-2" d="M515.92,744.82a22.3,22.3,0,0,1,2.11,16" transform="translate(-138.99 -475.57)"/><path class="cls-2" d="M297.58,799.82A50.8,50.8,0,0,1,289,820.3" transform="translate(-138.99 -475.57)"/><path class="cls-2" d="M384.53,878.38c-2.88,2.72-8.7,3.4-12.29,1.74s-6.46-4.51-9.58-6.94c-10.91-8.55-24.87-12-38.48-14.63s-27.6-4.68-39.91-11c-5.63-2.92-11.06-6.78-17.37-7.46a30,30,0,0,1-6-1.7c-3.23-1.58-3.55-2-4.51-4.84-.47-1.42.25-5,1-6.32,7.61-14.15,9.64-32.17,17.43-43" transform="translate(-138.99 -475.57)"/><path class="cls-2" d="M379.88,877.13l6.61,1.78c1.8.49,3.94.91,5.37-.3s1.08-4.09-.25-5.16" transform="translate(-138.99 -475.57)"/><path class="cls-6" d="M383.3,855.16l9.56,1.43a10.11,10.11,0,0,1,3.35.92,5,5,0,0,1,2.29,2.61,4.35,4.35,0,0,1-.19,3.6,3.37,3.37,0,0,1-3.07,1.74l-2.33.29a11.77,11.77,0,0,1,5.25,0c1.69.54,3.17,2.13,3,3.88a3.85,3.85,0,0,1-2.23,2.89,9.72,9.72,0,0,1-3.7.81,42.2,42.2,0,0,1-8.18-.26" transform="translate(-138.99 -475.57)"/><path class="cls-2" d="M392.9,856.38c-.59-3.64-4.12-6.25-7.76-6.89s-7.34.28-10.89,1.31-7.13,2.2-10.82,2.05c-.86,0-19.45-7.33-27.5-13a117,117,0,0,0-47.65-19.59" transform="translate(-138.99 -475.57)"/><path class="cls-2" d="M376.21,919.49a684.55,684.55,0,0,1-33,82.35c-20.35-9.76-39.35-15.14-61.68-18.49l-.4-.54A167.9,167.9,0,0,1,290.28,946c2.1-5.82,4.52-11.56,6-17.57,2.47-9.83,2.47-20.09,3.36-30.19s2.85-20.49,8.65-28.81" transform="translate(-138.99 -475.57)"/><path class="cls-2" d="M401.73,881.31A738.4,738.4,0,0,0,418.24,973c2.15,8.7,4.92,15.61,4.65,24.56-5.64-1.13-11.31,1.27-16.71,3.28a137.38,137.38,0,0,1-39.59,8.38c-1.52.09-3.33,0-4.18-1.24-1.56-7.67-1.22-13.75-2.36-21.49-.78-5.31-2-8.45-4-13.44" transform="translate(-138.99 -475.57)"/><path class="cls-6" d="M373.08,1136.73c.73-17.51,2-30.16.57-47.62-1-11.75-2.45-23.57-1.36-35.31.88-9.4,1.83-19.15,5.74-27.72a2.64,2.64,0,0,0,0-2.2l-1.62-3.58a79.75,79.75,0,0,1-4.52-11.5" transform="translate(-138.99 -475.57)"/><path class="cls-2" d="M373.56,1127.17c2.32,1.46,5.38,2.79,7.14,2.82l13.94.19" transform="translate(-138.99 -475.57)"/><path class="cls-2" d="M392.9,1139.09c.22-.91,2.12-2.27,2.72-3a2.28,2.28,0,0,1,2.5-.8,3,3,0,0,1,1.44,2.17,12.32,12.32,0,0,1,.33,4,6.15,6.15,0,0,0,.13,3.11,4.22,4.22,0,0,0,2.81,2c3,.89,6.24.76,9.33,1.39,2.29.47,4.49,1.36,6.8,1.73,1.92.3,3.88.25,5.82.43a47.83,47.83,0,0,1,5.56,1c2.52.54,5.05,1.08,7.54,1.75,2.93.8,6.07,2,7.53,4.67,1,1.91,1,4.21.9,6.38s-.94,6.2-1.24,8.46" transform="translate(-138.99 -475.57)"/><path class="cls-2" d="M445.07,1172.31c-7.39,2.33-14.27,1.32-22,1.28-17-.08-34.21,3.07-50.92,0-3.31-.6-7.64-2.11-9-5.11a45.73,45.73,0,0,1-.39-5.46,42.3,42.3,0,0,1,3.44-15.58,18.29,18.29,0,0,0,1.77-5.15c.12-1,0-2.09.13-3.13a3.94,3.94,0,0,1,1.31-2.77,3.37,3.37,0,0,1,3.7.35" transform="translate(-138.99 -475.57)"/><path class="cls-2" d="M362.72,1164.64c.17,1.39,4,2.73,5.28,3.33a14,14,0,0,0,4.1,1.61c7,.79,14.08,1.59,21.15,1.7,13.91.23,27.15-1.46,41.05-.94,3.78.15,8,0,11.31-1.93" transform="translate(-138.99 -475.57)"/><path class="cls-2" d="M392.26,1142.5c.54.8,3.31,1.52,3.83,1.79a26.28,26.28,0,0,0,5.49,1.78" transform="translate(-138.99 -475.57)"/><path class="cls-2" d="M396.52,1159.1a20.24,20.24,0,0,1,6.58-10.81,4.44,4.44,0,0,1,2.56-1.16" transform="translate(-138.99 -475.57)"/><path class="cls-2" d="M411.22,1160.78a9.55,9.55,0,0,1,1.69-5.85,23.39,23.39,0,0,1,3.37-4.31c.7-.71.5-1.07,1.5-1.19" transform="translate(-138.99 -475.57)"/><path class="cls-2" d="M424,1160.4a3.09,3.09,0,0,1,.27-1.66,17.85,17.85,0,0,1,5.54-7.65c.37-.3-.47,0,0,0" transform="translate(-138.99 -475.57)"/><path class="cls-2" d="M373.08,1136.73a33.4,33.4,0,0,0,5.2,4.68c.84.54,4,1.69,4.81,2.29,2.91,2.19,6.29.55,9.45-1.25,1.59-16.9,5.71-28.33,10.53-44.61,2.4-8.1,5.2-16.1,6.85-24.38,2.15-10.81,2.73-23.63,6.68-33.93,1.36-3.56,3.65-7.06,4.73-10.72a17.65,17.65,0,0,0-1.16-11.74c-.77-1.67-2.32-4.19-3.06-5.88-1.61-3.65-2.3-7.43-2.14-13" transform="translate(-138.99 -475.57)"/><path class="cls-2" d="M183.19,1013.52c7.18,1.35,19.61-1.44,26.77-2.92,9.28-1.93,15.19-1.72,24.67-1.48a131.19,131.19,0,0,1,13.63,1.56c5.1,1,9.15,2.11,12.35,2.64,6.5,1.09,10.45,2.32,16.75.38,1.08-.33,2.68-7.91,2.68-7.91,1.49-8.58,3.58-12.51,6-21.72" transform="translate(-138.99 -475.57)"/><path class="cls-2" d="M179.52,1036c2.43-2.56,6.27-3.32,9.77-3s6.84,1.68,10.2,2.73c11.56,3.57,14.69,2.85,26.55,5.21,5.8,1.15,15,3,20.89,3.67,3.83.46,17.24,1.32,21.07,1.79,6.89.84,12.47,2.69,19.32,3.83s16.5-1.35,17.54-2a19.4,19.4,0,0,0,6-5.32c3.35-4,2.69-6.31,5.15-11.37.8-1.64,3.48-7.45,4.26-9.11,2.55-5.44,7.66-13.32,11.13-21.21.68-1.53,1-2.48,1.62-4" transform="translate(-138.99 -475.57)"/><path class="cls-2" d="M196.9,1034.92a22.16,22.16,0,0,1,1-20.2c.67-1.24.73-1.57,2-2.13" transform="translate(-138.99 -475.57)"/><path class="cls-2" d="M142.77,1081.65a31.57,31.57,0,0,0,8.34,2.49,12.18,12.18,0,0,0,5.76-.15c3.72-1.24,5.76-5.12,7.43-8.66l2.86-6c1-2.19,2.07-4.39,2.93-6.66s1.58-4.77,2.49-7.11c2.33-6,5.78-10.6,6.94-16.92,0,0-1-5.25-1-6.43a34.44,34.44,0,0,1,0-6.21,73.76,73.76,0,0,1,1.17-8,7.06,7.06,0,0,1,3.86-4.82" transform="translate(-138.99 -475.57)"/><path class="cls-2" d="M142.77,1081.65c-2.36-2.8-2.79-6.72-2.78-10.37,0-14.71,5.51-29.07,4.89-43.76-.09-2.3-.34-4.58-.27-6.88a25.24,25.24,0,0,1,2-9.26,12.7,12.7,0,0,1,4.62-6,15.63,15.63,0,0,1,4.25-1.62c4.61-1.23,9.77-2.09,14,.18,2.42,1.31,6.23,3.5,6.23,3.5a25.44,25.44,0,0,0,4.4,1.23c1.77.52,4.39.5,4.89,2.72.16.7-1.17,1.64-1.51,1.72" transform="translate(-138.99 -475.57)"/><path class="cls-2" d="M157.44,1003.33c-2.94,2.8-5.8,5.13-7.1,9a39.46,39.46,0,0,0-1.79,6.7c-.31,3.07.17,6.12,0,9.2-.21,5.57.15,11.17-.51,16.71-.64,5.31-2.22,10.47-3,15.77-.9,6.38-2.19,10.6-.66,16.85.47,2,1.53,3.52,3.93,6" transform="translate(-138.99 -475.57)"/><path class="cls-2" d="M160.26,1048l.94,1.36a9.75,9.75,0,0,0,1.56,1.88,9.5,9.5,0,0,0,2.87,1.51c2.44.94,5.1,1.9,7.61,1.18" transform="translate(-138.99 -475.57)"/><path class="cls-2" d="M164.56,1042.11a4.89,4.89,0,0,0,3.09,3.12c1.4.6,2.93.86,4.31,1.5a6.67,6.67,0,0,0,1.94.75,4.85,4.85,0,0,0,3-1.09" transform="translate(-138.99 -475.57)"/><path class="cls-2" d="M167.12,1035.56c-.19.35.17.74.49,1a28.46,28.46,0,0,0,8.36,4.12,5.4,5.4,0,0,0,1.82.31,2.12,2.12,0,0,0,1.62-.77" transform="translate(-138.99 -475.57)"/><path class="cls-2" d="M187.31,1033c1,.6,1.15,2.27,1.41,3.42a1.63,1.63,0,0,1,0,.85c-.19.63-.92.92-1.57,1.07a11.18,11.18,0,0,1-3.39.46c-1.13,0-1.31-.31-2.41,0a4.68,4.68,0,0,0-2.6,3.14" transform="translate(-138.99 -475.57)"/><path class="cls-2" d="M333.59,762.06a126.1,126.1,0,0,0-19.86,25.38c-2.46,4.14-4.77,8.53-8.46,11.62-1.24,1-4.47,2.56-5.95,1.9,0,0-8.8-5.74-14.36-9.77-3.25-2.35-8.42-7-12.37-7.67,4-11.34,10.07-21.81,16.37-32,8.58-13.9,18.32-28.16,33-35.32,11-5.36,35.11-6.39,35.11-6.39,2-.3,3.49,1.75,4.87,3.27a13.06,13.06,0,0,0,14.37,3.16,22.73,22.73,0,0,0,6.63-4.83,7.26,7.26,0,0,1,3.19-1.29,44,44,0,0,1,26,16.84c3.36,4.61,5.79,9.82,8.88,14.61,2.94,4.57,6.47,8.72,9.61,13.15a184,184,0,0,1,11.84,20,34.15,34.15,0,0,0-7.6,5.4l-20.06,17.4a5.46,5.46,0,0,0-2,3.6" transform="translate(-138.99 -475.57)"/><path class="cls-2" d="M385.79,710.15a7.6,7.6,0,0,1-5.24-5.43c-.38-2.35,0-4.33-.12-6.71" transform="translate(-138.99 -475.57)"/><path class="cls-2" d="M358.39,709.91c2.59-2.84,3-8.09,3-12.16" transform="translate(-138.99 -475.57)"/><path class="cls-2" d="M333.73,641.26l.91,11.08a57.31,57.31,0,0,1,.28,7.41c-.09,2-.41,4.06-.41,6.1,0,6.69,3.49,12.94,7.81,18,6,7.1,14.06,12.74,23.17,14.65s19.27-.31,25.93-6.8a33.85,33.85,0,0,0,3.82-4.55c6.65-9.35,9.86-20.67,12.32-31.87.8-3.63,1.56-7.35,3.49-10.53" transform="translate(-138.99 -475.57)"/><path class="cls-2" d="M411.74,645.15a1.82,1.82,0,0,1,2.23-.31,3.17,3.17,0,0,1,1.4,1.94,7.81,7.81,0,0,1-1.1,5.86c-1,1.78-2.35,3.35-3.29,5.17a19.11,19.11,0,0,0-1.9,7.29,14.94,14.94,0,0,1-1,5.37c-.8,1.64-2.71,2.93-4.44,2.33" transform="translate(-138.99 -475.57)"/><path class="cls-2" d="M333.73,645.53c-1.23-.72-3.06-1.88-4.48-2s-3.28.29-3.76,1.63c-.38,1.07.3,4.47,1.53,6.47,1.87,3,2.3,4.61,2,7a26.15,26.15,0,0,0-.37,5.51,6,6,0,0,0,1.66,4.22c1.19,1,3.39.85,3.94-.61" transform="translate(-138.99 -475.57)"/><path class="cls-2" d="M376.49,652.13a74.52,74.52,0,0,0-1.42,14.61,5.43,5.43,0,0,1-.95,3.67,3.28,3.28,0,0,1-.93.68,4.1,4.1,0,0,1-5.18-1.6" transform="translate(-138.99 -475.57)"/><path class="cls-2" d="M356.47,675.4a24,24,0,0,0,14.9,8.31c3,.42,6.27.17,8.55-1.79" transform="translate(-138.99 -475.57)"/><path class="cls-2" d="M348.45,635.3c1.1-1.43,3.15-1.68,5-1.65a31.63,31.63,0,0,1,3.37.25,9.88,9.88,0,0,1,3,.75,4.2,4.2,0,0,1,2.15,2.14" transform="translate(-138.99 -475.57)"/><path class="cls-2" d="M384.5,639.35c.28-.61,1-.81,1.68-1a38.72,38.72,0,0,1,6.41-.94,12.57,12.57,0,0,1,6.29,1.27c1,.54,1.93,1.26,3,1.73" transform="translate(-138.99 -475.57)"/><path class="cls-2" d="M351.4,642.81a17.11,17.11,0,0,1,7.61,1.34c3.25,1.21,6.53,3,8.24,6a12.57,12.57,0,0,1-10.67,3.29,17.69,17.69,0,0,1-7.66-3.21c-1-.73-2.42-1.62-2.94-2.79a2.47,2.47,0,0,1,.91-2.9A8.31,8.31,0,0,1,351.4,642.81Z" transform="translate(-138.99 -475.57)"/><path class="cls-2" d="M385.26,647.57a17.09,17.09,0,0,1,7.72.23c3.39.72,6.89,2,9,4.74a12.57,12.57,0,0,1-10.09,4.8,17.61,17.61,0,0,1-8.05-2.07c-1.11-.57-2.62-1.25-3.31-2.34a2.48,2.48,0,0,1,.49-3A8.29,8.29,0,0,1,385.26,647.57Z" transform="translate(-138.99 -475.57)"/><path class="cls-7" d="M414,644.84a33.52,33.52,0,0,1,2.57-11.8,12.63,12.63,0,0,0,1.15-4.22c0-2.59-1.75-4.87-2.07-7.43-.17-1.35.07-2.74-.17-4.07a11.26,11.26,0,0,0-1.61-3.59l-3.28-5.48c-1.47-2.46-3.15-5.1-5.87-6-1.88-.65-4.24-.48-5.52-2-.58-.7-.81-1.64-1.33-2.39-1.11-1.57-3.27-2-5.19-2s-3.95.22-5.69-.6c-2.48-1.17-4-4.27-6.69-4.55-3.14-.31-6.19,3.4-8.95,1.89-.79-.43-1.34-1.22-2.16-1.58-1.8-.78-3.66.84-5.53,1.41-2.27.69-4.68-.19-7.05-.39A12.3,12.3,0,0,0,346,596.67c-1.64,2.12-2.67,4.87-5,6.17-1.06.59-2.29.81-3.38,1.34a22.18,22.18,0,0,0-3.33,2.41c-2.89,2.19-6.81,3.75-7.75,7.25-.27,1-.24,2.13-.61,3.12s-1.29,2-1.55,3.16a6.59,6.59,0,0,0,.26,3,56.27,56.27,0,0,1,1.4,14.92,8.5,8.5,0,0,0,.11,2.31,3.9,3.9,0,0,0,3.6,2.87c1.65,0,3.48,1.9,4,.32l.09-1.15c-.13-3.22-.22-6.64,1.37-9.45a15.54,15.54,0,0,0,1.42-2.59,27.07,27.07,0,0,1,.7-3c.77-1.63,2.72-2.26,4.19-3.3,2.7-1.91,3.91-5.41,6.59-7.35,2.1-1.52,4.85-1.9,7-3.35s3.87-3.82,6.32-3.48c1.87.26,3.12,2.1,4.89,2.75,3.23,1.19,6.88-1.91,10.12-.75,2.47.88,3.86,4,6.46,4.29,1.72.19,3.33-.95,5.05-.94a5.22,5.22,0,0,1,4.38,3.1c.8,1.61,1.4,3.82,3.18,4,1,.12,2.06-.53,3-.19,2,.7.94,4.25,2.67,5.51a7.52,7.52,0,0,0,2.53.69c2.47.66,3.49,3.54,4.14,6l.73,2.81c.75,2.88,1.57,7.08,1.24,10Z" transform="translate(-138.99 -475.57)"/><circle cx="216.2" cy="172.59" r="4.65"/><circle cx="252.14" cy="176.71" r="4.65"/></g></svg>