<svg id="Layer_2" data-name="Layer 2" xmlns="http://www.w3.org/2000/svg" viewBox="0 0 799.28 689.06"><defs><style>.cls-1{fill:#fff;}.cls-1,.cls-2,.cls-3,.cls-4{stroke:#000;stroke-miterlimit:10;stroke-width:2px;}.cls-2{fill:none;}.cls-4{fill:#1a1a1a;}</style></defs><path class="cls-1" d="M572.34,749c-1.38-7.69-5.46-14.68-10.45-20.7-18.53-22.39-49.62-32.05-78.53-29a120.65,120.65,0,0,0-30.21,7.3c-17.38,6.55-33.53,16.71-47.89,28.58-22.4,18.53-40.95,41.19-59.44,63.62-27.74,33.67-53.33,62.24-81.47,95.58-4.6,5.46-17.17,23.5-21,29.5-12.78,19.77-19.88,41.56-15.81,65.31,7,40.9,42.75,73,84.89,68.28,25.66-2.86,53.57-13.39,71-33.13,0,0,99.57-112.72,155.42-181.73,7.92-9.78,15.84-19.7,21.41-31a99.16,99.16,0,0,0,5.94-15.22A177.75,177.75,0,0,0,572,767.34C572.8,761.26,573.41,755.06,572.34,749ZM386.69,986.82a71.93,71.93,0,0,1-64,42.67c-16.21.45-35.46-4.63-47.79-15.7-20.76-18.67-20.39-51.46-9.49-75.44,12.65-27.83,42.81-54.46,74.58-55,2.83,6,5.39,12.81,10.05,17.52a81.13,81.13,0,0,0,8.45,6.89c10,7.67,21.08,17.27,33.61,18.73.49,2.29.86,4.62,1.16,6.92C395.6,951.43,394.16,970.26,386.69,986.82Z" transform="translate(-222.14 -608.51)"/><path class="cls-1" d="M573.05,749.51c-1.38-7.69-5.46-14.68-10.45-20.7-18.53-22.39-49.62-32-78.53-29a120.65,120.65,0,0,0-30.21,7.3c-17.38,6.55-33.53,16.71-47.89,28.58-22.4,18.53-41,41.19-59.44,63.62-27.74,33.67-53.33,62.24-81.47,95.58-4.6,5.46-17.17,23.5-21,29.5-12.78,19.77-19.88,41.56-15.81,65.31,7,40.9,42.75,73,84.89,68.28,25.66-2.86,53.57-13.39,71-33.13,0,0,99.57-112.72,155.42-181.73,7.92-9.78,15.84-19.7,21.41-31a99.16,99.16,0,0,0,5.94-15.22,177.75,177.75,0,0,0,5.83-29.07C573.51,761.75,574.12,755.55,573.05,749.51ZM387.4,987.31a71.93,71.93,0,0,1-64,42.67c-16.21.45-35.46-4.63-47.79-15.7-20.76-18.67-20.39-51.46-9.49-75.44,12.65-27.83,42.81-54.46,74.58-55,2.83,6,5.39,12.81,10.05,17.52a81.13,81.13,0,0,0,8.45,6.89c10,7.67,21.08,17.27,33.61,18.73.49,2.29.86,4.62,1.16,6.92C396.31,951.92,394.87,970.75,387.4,987.31Z" transform="translate(-222.14 -608.51)"/><path class="cls-2" d="M392.48,875.56c-6.28-6-13.84-10.4-20.37-16.1s-12.22-13.19-12.77-21.84a43.35,43.35,0,0,1,1.27-11.26c2-9.88,4.33-20.35,11.43-27.5" transform="translate(-222.14 -608.51)"/><ellipse class="cls-2" cx="377.37" cy="842.14" rx="10.22" ry="7.15" transform="translate(-337.81 -546.45) rotate(-8.16)"/><circle class="cls-2" cx="185.01" cy="196.85" r="7.64"/><ellipse class="cls-2" cx="429.63" cy="780.63" rx="8.51" ry="7.05" transform="translate(-328.55 -539.65) rotate(-8.16)"/><ellipse class="cls-2" cx="452.94" cy="892.18" rx="5.81" ry="8.68" transform="matrix(0.99, -0.14, 0.14, 0.99, -344.14, -535.22)"/><ellipse class="cls-2" cx="468.53" cy="855.9" rx="6.59" ry="8.68" transform="matrix(0.99, -0.14, 0.14, 0.99, -338.84, -533.37)"/><ellipse class="cls-2" cx="497.86" cy="831.66" rx="5.87" ry="8.08" transform="translate(-335.1 -529.46) rotate(-8.16)"/><path class="cls-2" d="M453.86,707.08c.07,23.56,8.63,51.33,9.7,74.86-5.39,7.53-12,16.26-19.2,25.47-7.74,9.91-16.16,20.4-24.47,30.59-7.35,9-14.61,17.8-21.22,25.74l-5.75,6.87c-.87,1-1.72,2.06-2.55,3l-3,3.54c-.26.3-.51.6-.76.91-2.13,2.53-4.11,4.88-5.92,7-6.84,8.09-11.12,13.07-11.12,13.07-7.69-7.86-17.6-14.5-28.89-14.33" transform="translate(-222.14 -608.51)"/><path class="cls-2" d="M392.82,927c-1.43-6.8-3.85-13.37-8.36-18.56l-1.19-.27q7.39-8.6,15-17l2.36-2.63q3.45-3.82,6.94-7.63,2.88-3.18,5.79-6.33,7.61-8.26,15.24-16.5,4.95-5.32,9.89-10.67,6.79-7.3,13.58-14.64c3.88-4.19,7.79-8.4,11.81-12.47,3.41-3.43,6.9-6.77,10.56-9.92,27.57-9.76,65.11-3.1,92.47-13.45" transform="translate(-222.14 -608.51)"/><path class="cls-3" d="M580.46,747.52c-1.43-8-8.86-21.66-14.74-27.3-23.92-22.87-58.55-27.8-77.86-24.94C457.7,699.73,430.49,710.76,407,730s-43,42.82-62.41,66.15c-29.13,35-56,64.71-85.56,99.38-4.83,5.67-18,24.42-22.11,30.66-13.43,20.56-16.13,44.65-11.89,69.29,7.29,42.48,43.36,72.2,87.26,69,27-2,53.06-13.65,71.38-34.17,0,0,104.57-117.2,163.24-189,8.31-10.16,16.63-20.46,22.49-32.18,7.13-14.31,7.49-24.19,9.56-40C579.75,762.88,581.58,753.78,580.46,747.52Zm-7.74,20.31a177.75,177.75,0,0,1-5.83,29.07A99.16,99.16,0,0,1,561,812.12c-5.57,11.27-13.49,21.19-21.41,31-55.85,69-155.42,181.72-155.42,181.73-17.45,19.74-45.36,30.27-71,33.13-42.14,4.69-77.87-27.38-84.89-68.28-4.07-23.75,3-45.54,15.81-65.31,3.87-6,16.44-24,21-29.5,28.14-33.34,53.73-61.91,81.47-95.58,18.49-22.43,37-45.09,59.44-63.62,14.36-11.87,30.51-22,47.89-28.58a120.65,120.65,0,0,1,30.21-7.3c28.91-3,60,6.64,78.53,29,5,6,9.07,13,10.45,20.7C574.12,755.55,573.51,761.75,572.72,767.83Z" transform="translate(-222.14 -608.51)"/><path class="cls-3" d="M387.4,987.31a71.93,71.93,0,0,1-64,42.67c-16.21.45-35.46-4.63-47.79-15.7-20.76-18.67-20.39-51.46-9.49-75.44,12.65-27.83,42.81-54.46,74.58-55,2.83,6,5.39,12.81,10.05,17.52a81.13,81.13,0,0,0,8.45,6.89c10,7.67,21.08,17.27,33.61,18.73.49,2.29.86,4.62,1.16,6.92C396.31,951.92,394.87,970.75,387.4,987.31Z" transform="translate(-222.14 -608.51)"/><line class="cls-2" x1="170.69" y1="318.48" x2="170.68" y2="318.48"/><path class="cls-1" d="M950.67,1044.64a177.57,177.57,0,0,0-29.11-5.65,98.92,98.92,0,0,0-16.33-.29c-12.54.87-24.73,4.43-36.78,8-85.06,25.44-227.14,74.72-227.16,74.72-24.88,8.64-45.23,30.45-57.63,53.1-20.35,37.2-4.26,82.44,30.91,104.47,20.42,12.79,43.27,14.5,66.41,10.2,7-1.31,28.49-6.08,35.29-8.26,41.53-13.36,77.68-26.18,119.36-39,27.78-8.59,55.79-17.14,81.44-30.82,16.44-8.77,32-19.85,44.63-33.43a120.54,120.54,0,0,0,18.23-25.17c13.79-25.6,16.66-58,3-83.68-3.67-6.89-8.59-13.33-15.18-17.52C962.56,1048,956.6,1046.22,950.67,1044.64ZM729.13,1146.87c2,1.15,4,2.38,6,3.7-3.42,12.15,1.25,26,4.55,38.21a81.93,81.93,0,0,0,3.16,10.43c2.59,6.11,7.91,11.06,12.38,16-12.55,29.18-48.65,47-79.2,48.08-26.32,1-56.79-11.14-66.17-37.44-5.56-15.6-2.94-35.35,3.64-50.17a71.9,71.9,0,0,1,63.78-43C695.4,1132.05,713.35,1137.87,729.13,1146.87Z" transform="translate(-222.14 -608.51)"/><ellipse class="cls-1" cx="653.24" cy="146.96" rx="145.02" ry="145.96"/><path class="cls-2" d="M1014.31,797.65a145.45,145.45,0,0,0,6.09-41.77c0-2.68-.07-5.33-.21-8l-.12-2a5.46,5.46,0,0,0,0-.57c0-.65-.1-1.3-.16-2,0-.26,0-.52-.07-.78s0-.38,0-.57c-.08-.87-.17-1.74-.27-2.6" transform="translate(-222.14 -608.51)"/><path class="cls-3" d="M796.92,811.88c.06.74-3.79,22.08-5.58,32a2.84,2.84,0,0,1-.67,1.63l0,0a26.41,26.41,0,0,1-2.59.74h0c-4.74,1-21.66,5.19-22.47,5.47l-.07,0h0a145,145,0,0,1-31.71-60.31h0l0,0,.06-.08c1.09-1.49,11.86-16.29,12.75-16.55.64-.19,20.41,2.32,22.53,3,0,0,0,0,.08,0l.06,0,.06,0c1.23.93,24.23,28.29,25.29,29.59A8.53,8.53,0,0,1,796.92,811.88Z" transform="translate(-222.14 -608.51)"/><path class="cls-2" d="M765.33,851.83l0,0h0" transform="translate(-222.14 -608.51)"/><path class="cls-2" d="M733.69,791.54s0,0,0,0" transform="translate(-222.14 -608.51)"/><path class="cls-3" d="M954,854.91,943.77,884.1A144.57,144.57,0,0,1,885.47,901c-6.46-6-14.1-12.77-20.55-18.81a4.67,4.67,0,0,1-1.67-2.39,4.82,4.82,0,0,1,.52-2.56q5-12.09,9.92-24.17a12.48,12.48,0,0,1,1.91-3.54c1.47-1.7,3.72-2.47,5.86-3.16a363.19,363.19,0,0,1,38-9.89,13.07,13.07,0,0,1,3.57-.38,12.59,12.59,0,0,1,3.24.85,103.77,103.77,0,0,1,26.59,14.5,3.2,3.2,0,0,1,1.39,1.7A3.15,3.15,0,0,1,954,854.91Z" transform="translate(-222.14 -608.51)"/><path class="cls-2" d="M943.77,884.1l-.08.23" transform="translate(-222.14 -608.51)"/><path class="cls-2" d="M852.52,784l-16.86-43.1,18-22.51-1.95-.3-23.58,29.49L845,790.69l40.41,6.15,5.58-7ZM965.44,666.62c-1-8.67-2.43-18.6-3.44-27.31a139.09,139.09,0,0,0-55.44-25.17L879.91,629.8a3,3,0,0,0-1.32,1.13,3.19,3.19,0,0,0,0,2.2,103.59,103.59,0,0,0,10.87,28.26,12.23,12.23,0,0,0,1.92,2.75,13.19,13.19,0,0,0,3,2,363.41,363.41,0,0,0,35.34,17.05c2.07.86,4.29,1.73,6.51,1.39a12.26,12.26,0,0,0,3.74-1.47l23.21-12a4.81,4.81,0,0,0,2.06-1.62A4.61,4.61,0,0,0,965.44,666.62Z" transform="translate(-222.14 -608.51)"/><path class="cls-2" d="M902.8,718.39l-38.47-5.84L857,711.44l-5.33,6.66,1.95.3,38.46,5.84L909,767.35l-18,22.51-5.58,7,5.35.81L901.65,784l18-22.51ZM801.58,649c-.63-.68-18.69-3.7-20.51-4h-.15a145.08,145.08,0,0,0-39.77,55.33l0,0,.06,0c.61.59,11.92,13.86,14.94,17.65l0,0a24.18,24.18,0,0,0,1.82,2l0,0a2.78,2.78,0,0,0,1.75-.13c9.68-2.84,30.49-8.94,31.13-9.32a8.58,8.58,0,0,0,2.91-4.07c.69-1.53,14.87-34.34,15.15-35.85a.2.2,0,0,0,0-.07v-.07s0-.06,0-.09C808.63,668.33,802,649.53,801.58,649Z" transform="translate(-222.14 -608.51)"/><path class="cls-2" d="M972.49,647.94q-5-4.56-10.49-8.63c1,8.71,2.45,18.64,3.44,27.31a4.61,4.61,0,0,1-.27,2.9,4.81,4.81,0,0,1-2.06,1.62l-23.21,12a12.26,12.26,0,0,1-3.74,1.47c-2.22.34-4.44-.53-6.51-1.39a363.41,363.41,0,0,1-35.34-17.05,13.19,13.19,0,0,1-3-2,12.23,12.23,0,0,1-1.92-2.75,103.59,103.59,0,0,1-10.87-28.26,3.19,3.19,0,0,1,0-2.2,3,3,0,0,1,1.32-1.13l26.65-15.66a144.15,144.15,0,0,1,31.72,10.73,143.09,143.09,0,0,0-13.41-5.7,145.59,145.59,0,0,0-171.34,56.34l-1.08,1.65a146,146,0,0,0-18.73,114.31h0l0,0,.06-.08c1.09-1.49,11.86-16.29,12.75-16.55.64-.19,20.41,2.32,22.53,3,0,0,0,0,.08,0l.06,0,.06,0c1.23.93,24.23,28.29,25.29,29.59a8.53,8.53,0,0,1,2.34,4.42c.06.74-3.79,22.08-5.58,32a2.84,2.84,0,0,1-.67,1.63l0,0a26.41,26.41,0,0,1-2.59.74h0c-4.74,1-21.66,5.19-22.47,5.47l-.07,0h0a145.12,145.12,0,0,0,109.44,49.62q5.36,0,10.6-.38c-6.46-6-14.1-12.77-20.55-18.81a4.67,4.67,0,0,1-1.67-2.39,4.82,4.82,0,0,1,.52-2.56q5-12.09,9.92-24.17a12.48,12.48,0,0,1,1.91-3.54c1.47-1.7,3.72-2.47,5.86-3.16a363.19,363.19,0,0,1,38-9.89,13.07,13.07,0,0,1,3.57-.38,12.59,12.59,0,0,1,3.24.85,103.77,103.77,0,0,1,26.59,14.5,3.2,3.2,0,0,1,1.39,1.7,3.15,3.15,0,0,1-.27,1.72L943.77,884.1a145.86,145.86,0,0,0,70.54-86.45l-.08,0c-1.7.72-18.53,7.92-19.42,7.69-.65-.16-16.35-12.44-17.85-14.07l-.05-.07,0-.06,0-.06c-.58-1.43-6.34-36.71-6.58-38.36a8.57,8.57,0,0,1,.25-5c.33-.67,14.56-17,21.18-24.64a2.72,2.72,0,0,1,1.41-1.06h0a23.08,23.08,0,0,1,2.61.69s0,0,0,0c4.59,1.56,21.27,6.63,22.11,6.8h.07s0,0,0,0c.15.82.3,1.64.44,2.47A145.18,145.18,0,0,0,972.49,647.94ZM809,670.67a.2.2,0,0,1,0,.07c-.28,1.51-14.46,34.32-15.15,35.85a8.58,8.58,0,0,1-2.91,4.07c-.64.38-21.45,6.48-31.13,9.32a2.78,2.78,0,0,1-1.75.13l0,0a24.18,24.18,0,0,1-1.82-2l0,0c-3-3.79-14.33-17.06-14.94-17.65l-.06,0,0,0A145.08,145.08,0,0,1,780.92,645h.15c1.82.31,19.88,3.33,20.51,4,.45.49,7,19.29,7.42,21.47,0,0,0,.06,0,.09ZM901.65,784l-10.9,13.64-5.35-.81L845,790.69l-16.86-43.1,23.58-29.49,5.33-6.66,7.29,1.11,38.47,5.84,16.84,43.11Z" transform="translate(-222.14 -608.51)"/><polygon class="cls-3" points="697.5 152.99 679.51 175.5 668.61 189.14 663.26 188.33 622.85 182.18 605.99 139.08 629.57 109.59 634.9 102.93 642.19 104.04 680.66 109.88 697.5 152.99"/><path class="cls-2" d="M754,675.38a1.8,1.8,0,0,0-.43.13,2.13,2.13,0,0,0-1.08,1.65" transform="translate(-222.14 -608.51)"/><path class="cls-2" d="M795.37,634h0" transform="translate(-222.14 -608.51)"/><path class="cls-3" d="M1014.37,797.61h0s0,0,0,0h0l-.08,0c-1.7.72-18.53,7.92-19.42,7.69-.65-.16-16.35-12.44-17.85-14.07l-.05-.07,0-.06,0-.06c-.58-1.43-6.34-36.71-6.58-38.36a8.57,8.57,0,0,1,.25-5c.33-.67,14.56-17,21.18-24.64a2.72,2.72,0,0,1,1.41-1.06h0a23.08,23.08,0,0,1,2.61.69s0,0,0,0c4.59,1.56,21.27,6.63,22.11,6.8h.07s0,0,0,0c.15.82.3,1.64.44,2.47s.27,1.64.39,2.46.24,1.65.35,2.48.21,1.65.31,2.48.19,1.74.27,2.6c0,.19,0,.38,0,.57s.05.52.07.78c.07.65.12,1.3.16,2a5.46,5.46,0,0,1,0,.57l.12,2A144.38,144.38,0,0,1,1014.37,797.61Z" transform="translate(-222.14 -608.51)"/><path class="cls-3" d="M809,670.6v.07a.2.2,0,0,1,0,.07c-.28,1.51-14.46,34.32-15.15,35.85a8.58,8.58,0,0,1-2.91,4.07c-.64.38-21.45,6.48-31.13,9.32a2.78,2.78,0,0,1-1.75.13l0,0a24.18,24.18,0,0,1-1.82-2l0,0c-3-3.79-14.33-17.06-14.94-17.65l-.06,0,0,0A145.08,145.08,0,0,1,780.92,645h.15c1.82.31,19.88,3.33,20.51,4,.45.49,7,19.29,7.42,21.47C809,670.54,809,670.57,809,670.6Z" transform="translate(-222.14 -608.51)"/><path class="cls-3" d="M965.17,669.52a4.81,4.81,0,0,1-2.06,1.62l-23.21,12a12.26,12.26,0,0,1-3.74,1.47c-2.22.34-4.44-.53-6.51-1.39a363.41,363.41,0,0,1-35.34-17.05,13.19,13.19,0,0,1-3-2,12.23,12.23,0,0,1-1.92-2.75,103.59,103.59,0,0,1-10.87-28.26,3.19,3.19,0,0,1,0-2.2,3,3,0,0,1,1.32-1.13l26.65-15.66A144.82,144.82,0,0,1,962,639c0,.11,0,.22,0,.33,1,8.71,2.45,18.64,3.44,27.31A4.61,4.61,0,0,1,965.17,669.52Z" transform="translate(-222.14 -608.51)"/><path class="cls-2" d="M884.65,1172a35.19,35.19,0,0,1-14.92-13.47c-3.13-5.16-4.86-11-6.23-16.89-3.9-16.73-4.92-34.77,1.49-50.71" transform="translate(-222.14 -608.51)"/><path class="cls-2" d="M854.11,1182.6c-5.49-2.68-11-5.38-15.86-9.13s-9-8.67-10.69-14.53a44.12,44.12,0,0,1-1.33-11.42c-.39-13.21-.63-27.08,5.41-38.85" transform="translate(-222.14 -608.51)"/><path class="cls-2" d="M809,1195c-7.56-6-10.5-15.94-13-25.24-5.55-20.45-11.09-42.22-4.9-62.48" transform="translate(-222.14 -608.51)"/><path class="cls-2" d="M790.25,1157.23a95.76,95.76,0,0,1-4.33,19,9.52,9.52,0,0,1-3.38-18.73,5.63,5.63,0,0,1,3.23.13c3.13,1.25,3.2,6.09.9,8.56s-5.87,3.18-9.2,3.76a34.11,34.11,0,0,1,7.58-8.36,2.72,2.72,0,1,0,4.49,2.14c-11.2,1.07-21.82-5.15-30.37-12.46-5.58-4.77-10.84-10.39-13-17.39s-.52-15.67,5.55-19.8c2.84-1.92,6.68-2.68,9.74-1.13,2.41,1.21,4,3.61,5.27,6a63,63,0,0,1,6.83,39.78c-1.09,6.77-3.28,13.31-4.51,20.06-1.58,8.66-1.55,17.52-1.51,26.32s.17,17.75,4.18,25.45a9.06,9.06,0,0,0,3.44,4,7.94,7.94,0,0,0,5,.58c8.54-1.38,14.43-10.18,14.9-18.81s-3.32-16.95-8-24.23c-3.49-5.43-7.58-10.71-9.07-17s.63-14,6.58-16.55a4.69,4.69,0,0,1,1.86,5.29c-2.7-1.65-3.1-5.34-3.12-8.5-.09-16.53,2.39-33.56,10.89-47.74s23.9-25,40.43-24.56" transform="translate(-222.14 -608.51)"/><path class="cls-2" d="M782.53,1170.43c3.13,8.07,4.37,16.76,7.15,25s7.57,16.31,15.36,20.1a42.55,42.55,0,0,0,10.9,3.11c9.9,1.9,20.47,3.74,29.78-.12" transform="translate(-222.14 -608.51)"/><ellipse class="cls-3" cx="807.71" cy="1197.11" rx="10.22" ry="7.15" transform="translate(-855.82 677.27) rotate(-59.51)"/><circle class="cls-3" cx="630.91" cy="575.03" r="7.64"/><ellipse class="cls-3" cx="884.47" cy="1172.14" rx="8.51" ry="7.05" transform="translate(-796.49 731.11) rotate(-59.51)"/><ellipse class="cls-3" cx="790.14" cy="1108.18" rx="5.81" ry="8.68" transform="translate(-787.85 618.32) rotate(-59.51)"/><ellipse class="cls-3" cx="829.62" cy="1107.55" rx="6.59" ry="8.68" transform="translate(-767.85 652.04) rotate(-59.51)"/><ellipse class="cls-3" cx="863.18" cy="1089.63" rx="5.87" ry="8.08" transform="translate(-735.88 672.12) rotate(-59.51)"/><path class="cls-2" d="M755.19,1215.17c4.45-10.38,2.08-22.07-2.27-32.17,0,0,6.23-2.07,16.31-5.32l8.74-2.82c.38-.11.75-.23,1.13-.36,1.42-.44,2.89-.92,4.4-1.4l3.78-1.2,8.54-2.7c9.86-3.1,20.74-6.48,31.87-9.86,12.58-3.81,25.49-7.61,37.59-11,11.26-3.15,21.85-6,30.86-8.08,21.36,9.93,43.8,28.4,65.56,37.42" transform="translate(-222.14 -608.51)"/><path class="cls-2" d="M921.56,1039c-20,21.37-28.06,58.62-47.57,80.42-4.3,2.19-8.72,4.15-13.19,6-5.29,2.17-10.66,4.19-16,6.19q-9.36,3.48-18.71,7l-13.62,5.09q-10.51,3.94-21.06,7.83c-2.67,1-5.36,2-8,3-3.23,1.18-6.46,2.36-9.69,3.51l-3.33,1.19q-10.7,3.8-21.44,7.39l.21-1.2c-3.09-6.14-8.25-10.89-14-14.79" transform="translate(-222.14 -608.51)"/><path class="cls-2" d="M950.67,1044.64a177.57,177.57,0,0,0-29.11-5.65,98.92,98.92,0,0,0-16.33-.29c-12.54.87-24.73,4.43-36.78,8-85.06,25.44-227.14,74.72-227.16,74.72-24.88,8.64-45.23,30.45-57.63,53.1-20.35,37.2-4.26,82.44,30.91,104.47,20.42,12.79,43.27,14.5,66.41,10.2,7-1.31,28.49-6.08,35.29-8.26,41.53-13.36,77.68-26.18,119.36-39,27.78-8.59,55.79-17.14,81.44-30.82,16.44-8.77,32-19.85,44.63-33.43a120.54,120.54,0,0,0,18.23-25.17c13.79-25.6,16.66-58,3-83.68-3.67-6.89-8.59-13.33-15.18-17.52C962.56,1048,956.6,1046.22,950.67,1044.64ZM729.13,1146.87c2,1.15,4,2.38,6,3.7-3.42,12.15,1.25,26,4.55,38.21a81.93,81.93,0,0,0,3.16,10.43c2.59,6.11,7.91,11.06,12.38,16-12.55,29.18-48.65,47-79.2,48.08-26.32,1-56.79-11.14-66.17-37.44-5.56-15.6-2.94-35.35,3.64-50.17a71.9,71.9,0,0,1,63.78-43C695.4,1132.05,713.35,1137.87,729.13,1146.87Z" transform="translate(-222.14 -608.51)"/><path class="cls-4" d="M951.75,1038.38c-15.41-4.09-24.69-7.51-40.63-6.35-13.07,1-25.76,4.74-38.32,8.57-88.67,27-236.79,79.2-236.81,79.21-25.94,9.14-46.65,28.8-58.72,53-19.65,39.39-5.86,84.05,30.66,106.94,21.18,13.28,44.5,19.94,68.61,15.33,7.32-1.4,29.69-6.49,36.77-8.81,43.29-14.15,81-27.73,124.43-41.38,29-9.09,58.15-18.17,84.91-32.6s47.31-35.41,62.89-61.62c10-16.77,18.58-50.68,6.51-81.49-3-7.58-12.8-19.66-19.65-24C967,1041.78,957.92,1040,951.75,1038.38Zm16,12.92c6.59,4.19,11.51,10.63,15.18,17.52,13.67,25.66,10.8,58.08-3,83.68a120.54,120.54,0,0,1-18.23,25.17c-12.66,13.58-28.19,24.66-44.63,33.43-25.65,13.68-53.66,22.23-81.44,30.82-41.68,12.86-77.83,25.68-119.36,39-6.8,2.18-28.26,7-35.29,8.26-23.14,4.3-46,2.59-66.41-10.2-35.17-22-51.26-67.27-30.91-104.47,12.4-22.65,32.75-44.46,57.63-53.1,0,0,142.1-49.28,227.16-74.72,12-3.6,24.24-7.16,36.78-8a98.92,98.92,0,0,1,16.33.29,177.57,177.57,0,0,1,29.11,5.65C956.6,1046.22,962.56,1048,967.74,1051.3Z" transform="translate(-222.14 -608.51)"/><path class="cls-3" d="M729.13,1146.87c-15.78-9-33.73-14.82-51.89-14.2a71.9,71.9,0,0,0-63.78,43c-6.58,14.82-9.2,34.57-3.64,50.17,9.38,26.3,39.85,38.42,66.17,37.44,30.55-1.12,66.65-18.9,79.2-48.08-4.47-4.9-9.79-9.85-12.38-16a81.93,81.93,0,0,1-3.16-10.43c-3.3-12.17-8-26.06-4.55-38.21C733.16,1149.25,731.14,1148,729.13,1146.87Z" transform="translate(-222.14 -608.51)"/><line class="cls-2" x1="512.95" y1="542.07" x2="512.96" y2="542.06"/><path class="cls-2" d="M429.8,780.5a35.18,35.18,0,0,0,6.79,18.92c3.58,4.85,8.35,8.68,13.25,12.17,14,10,30.3,17.77,47.48,17.9" transform="translate(-222.14 -608.51)"/><path class="cls-2" d="M408.42,804.73c.39,6.1.79,12.25,2.42,18.14s4.62,11.57,9.37,15.41a44.85,44.85,0,0,0,10.06,5.57c12.08,5.37,24.81,10.87,38,9.76" transform="translate(-222.14 -608.51)"/><path class="cls-2" d="M379.81,841.76c2.67,9.26,10.76,15.76,18.4,21.63,16.81,12.9,34.84,26.3,55.93,28.27" transform="translate(-222.14 -608.51)"/><path class="cls-2" d="M407.62,873.44a96,96,0,0,0-19.26-3.24,9.52,9.52,0,0,0,16,10.25,5.71,5.71,0,0,0,1.1-3c0-3.37-4.41-5.27-7.57-4.08s-5.18,4.22-7,7.08a34.08,34.08,0,0,0,10.62-3.84,2.72,2.72,0,1,1-.28-5c-5.24,9.95-3.53,22.14,0,32.82,2.29,7,5.48,14,11.13,18.67s14.3,6.43,20.42,2.38c2.86-1.89,5-5.16,4.75-8.57-.21-2.7-1.83-5-3.53-7.15a62.93,62.93,0,0,0-34.2-21.44c-6.67-1.56-13.56-2-20.27-3.44-8.61-1.83-16.79-5.23-24.92-8.61s-16.36-6.9-22-13.54a9,9,0,0,1-2.38-4.7,8,8,0,0,1,1.38-4.89c4.52-7.37,14.89-9.47,23.06-6.63s14.41,9.51,19.37,16.6c3.71,5.28,7,11.08,12.28,14.84s13.23,4.75,17.8.2a4.65,4.65,0,0,0-4.18-3.72c.49,3.12,3.76,4.89,6.67,6.11,15.26,6.37,32,10.54,48.3,8.06s32.2-12.61,38.08-28.06" transform="translate(-222.14 -608.51)"/></svg>