<svg id="Layer_2" data-name="Layer 2" xmlns="http://www.w3.org/2000/svg" viewBox="0 0 1136.64 1112.57"><defs><style>.cls-1,.cls-2,.cls-4{fill:none;}.cls-1,.cls-2,.cls-3,.cls-5{stroke:#000;stroke-width:2px;}.cls-1,.cls-3{stroke-linecap:round;stroke-linejoin:round;}.cls-2,.cls-5{stroke-miterlimit:10;}</style></defs><path class="cls-1" d="M1173.76,1140.6l-.16-580.79a32.17,32.17,0,0,0-32.17-32.17H128.32a32.17,32.17,0,0,0-32.17,32.17v585.05" transform="translate(-61.54 -526.64)"/><path class="cls-1" d="M1144,1148.42V584.32a24,24,0,0,0-24-24H150.79a24,24,0,0,0-24,24v559.45" transform="translate(-61.54 -526.64)"/><path class="cls-2" d="M109.39,1174.88c2.5-7.07,5.25-14.89,9.14-21.3a40.25,40.25,0,0,1,16.33-15.2c-9.2,15.93-9.52,17.58-11.61,22.88a28.55,28.55,0,0,0-2,10.69c0,3.67.57,9.4,2.07,13.39" transform="translate(-61.54 -526.64)"/><path class="cls-2" d="M141.83,1199.31c-2.7-4.37-3.7-9.61-3.83-14.74-.47-18,8.82-34.59,18.52-49.71l-8.3,7.06c-12.56,8.63-22.23,22.58-26.42,37.23" transform="translate(-61.54 -526.64)"/><path class="cls-2" d="M112.74,1185.34c-3.84-13.82-11.31-33.45-17.53-41.83-1.5-2-1.61-2.85-7.4-6.77,2.18,10.25,6.44,30,7,40.46" transform="translate(-61.54 -526.64)"/><path class="cls-2" d="M97.53,1181.35a117.67,117.67,0,0,0-30.84-32.83c11,14,21.12,32.74,23.08,48.91" transform="translate(-61.54 -526.64)"/><path class="cls-2" d="M1154.79,1164.4a261.83,261.83,0,0,1,11.21-30.61s-16.86,9.92-26,32.66" transform="translate(-61.54 -526.64)"/><path class="cls-2" d="M1155.31,1162.67c9.29-13.58,23.2-28.94,37.69-36.73a149.22,149.22,0,0,0-25.46,56.24" transform="translate(-61.54 -526.64)"/><path class="cls-2" d="M1147.09,1153.13c-3.42-4.42-5.57-9.68-8.5-14.44s-7-9.25-12.42-10.63c1.64,7.24,4.62,16.8,3.75,25.07" transform="translate(-61.54 -526.64)"/><path class="cls-2" d="M1172.68,1164.26c6.17-5.94,15.19-12.28,23.21-15.28a123.76,123.76,0,0,0-10.48,22.91c-2.26,6.64-3.93,14-1.52,20.57" transform="translate(-61.54 -526.64)"/><path class="cls-2" d="M1141.35,1164.94c-4.72-6.83-13.2-13.22-13.2-13.22-6.65-5.67-15-9.07-22.72-13.22,6.52,8,13.07,16,18.21,24.86s8.86,18.85,9.22,29.12" transform="translate(-61.54 -526.64)"/><path class="cls-1" d="M609.57,759.83a111.81,111.81,0,0,0-.69,43.59,34.15,34.15,0,0,0,2.06,7.45,32.18,32.18,0,0,0,4.86,7.47c3.54,4.31,7.59,8.32,12.52,10.92s10.86,3.67,16.17,2" transform="translate(-61.54 -526.64)"/><path class="cls-1" d="M644.24,831.48c12.32-5.34,21.21-16.71,26.52-29s7.47-25.75,9.79-39" transform="translate(-61.54 -526.64)"/><path class="cls-1" d="M679.85,771.6a5.92,5.92,0,0,1,4.56-4.3,3.9,3.9,0,0,1,1.89.08,3.76,3.76,0,0,1,2.35,3.45,7.81,7.81,0,0,1-1.29,4.18c-.76,1.27-1.68,2.44-2.36,3.76a16.71,16.71,0,0,0-1.7,6.26,22.45,22.45,0,0,1-.7,4.91,4.94,4.94,0,0,1-3.3,3.41c-1.62.37-3.56-.85-3.5-2.51" transform="translate(-61.54 -526.64)"/><path class="cls-1" d="M607.51,765.69a13.27,13.27,0,0,0-3.91-4.51,3.63,3.63,0,0,0-1.77-.81c-1.34-.14-2.48,1-3.14,2.15a8.74,8.74,0,0,0-.79,6.34,16.39,16.39,0,0,0,2.45,4.8,2.43,2.43,0,0,1,.49,1,2.56,2.56,0,0,1-.21,1.15l-.82,2.3c-.77,2.18-1.49,4.82-.07,6.66a3.59,3.59,0,0,0,3.62,1.24,3.56,3.56,0,0,0,2.57-2.83" transform="translate(-61.54 -526.64)"/><path class="cls-3" d="M611.57,754.58a5.32,5.32,0,0,0,1.39-4,12.41,12.41,0,0,1-.24-2.77c.31-1.88,2.39-3.08,2.7-5a11.88,11.88,0,0,0,6,.89,5.09,5.09,0,0,0,4.31-3.76,2.51,2.51,0,0,0,2.69,2.32,5.37,5.37,0,0,0,3.43-1.87,13.13,13.13,0,0,0,2.65-4.06,6,6,0,0,0,9.63-.7c1.65.91,2.86,2.47,4.47,3.46s4.06,1.15,5.08-.44a10,10,0,0,0,11,2,10.07,10.07,0,0,0,12.14,5.56c-1.39,3.2,2.13,9.37,2.13,9.37.06,2.92.15,6,1.54,8.55a5.79,5.79,0,0,0,1.51,1.86,3.21,3.21,0,0,0,2.26.67l0,.19a7.88,7.88,0,0,0,1.86-3c.86-2,1.71-4.29.6-6.11a13.27,13.27,0,0,0,1.15-10.66,3.21,3.21,0,0,1-.23-1,3.59,3.59,0,0,1,.18-1c.44-1.79-.26-3.9-1-5.58a6.49,6.49,0,0,0-1.57-6.66,2.46,2.46,0,0,1-.82-1.08c-.17-.64.28-1.27.42-1.93a4.14,4.14,0,0,0-.62-2.56c-1.18-2.39-2.73-5.07-5.36-5.5a4,4,0,0,0-5.05-3.86c-.38-2.29-2.92-3.71-5.24-3.65s-4.47,1.2-6.51,2.32a6.2,6.2,0,0,0-8.3-3.27,2.23,2.23,0,0,1-1.12.37,2.74,2.74,0,0,1-1.06-.51,2.81,2.81,0,0,0-3.65.94,8.29,8.29,0,0,0-13.34,1,5.64,5.64,0,0,0-8.37,1,7.23,7.23,0,0,0-8-2,10.72,10.72,0,0,0-6,6.16,7.27,7.27,0,0,1-.82,1.68c-.32.43-.75.75-1.06,1.18a2.85,2.85,0,0,0-.36,2.65,4.91,4.91,0,0,0-8,5.38c.55,1.24,1.6,2.25,1.9,3.57.63,2.71-2.12,5.58-.94,8.1-2.06-.44-4.08,1.61-4.11,3.72a6.05,6.05,0,0,0,3.31,5.05c-1.29,3-.78,7.06,2.09,8.57a4.84,4.84,0,0,0,5.52-.85C611.1,758,611.57,754.58,611.57,754.58Z" transform="translate(-61.54 -526.64)"/><path class="cls-1" d="M615.26,755.6c1-2.45,3.57-3.79,6.06-4.62a10.74,10.74,0,0,1,7.71-.11,13.22,13.22,0,0,1,4.14,1.9" transform="translate(-61.54 -526.64)"/><path class="cls-1" d="M655.58,754.42a9.71,9.71,0,0,1,5.11-3.43,18.48,18.48,0,0,1,6.2-.62,13.08,13.08,0,0,1,4.26.75,6,6,0,0,1,3.22,2.76" transform="translate(-61.54 -526.64)"/><path class="cls-1" d="M674.34,771a27.62,27.62,0,0,1-7.53,3.44,17.07,17.07,0,0,1-4.48.74,26.73,26.73,0,0,1-3.09-.21,22.48,22.48,0,0,1-4.83-.89,15.84,15.84,0,0,1-7.36-5.9l.13.16a16.1,16.1,0,0,1,7.48-5.1,18.06,18.06,0,0,1,11.57-.37,13.14,13.14,0,0,1,8.32,7.77Z" transform="translate(-61.54 -526.64)"/><path class="cls-1" d="M638.86,769.58a27.62,27.62,0,0,1-7.53,3.45,17.57,17.57,0,0,1-4.49.74,26.41,26.41,0,0,1-3.08-.21,22.69,22.69,0,0,1-4.84-.89,15.76,15.76,0,0,1-7.35-5.9l.12.16a16.08,16.08,0,0,1,7.48-5.1,18.09,18.09,0,0,1,11.58-.37,13.12,13.12,0,0,1,8.32,7.77Z" transform="translate(-61.54 -526.64)"/><circle cx="564.33" cy="240.31" r="5.52"/><circle cx="600.07" cy="241.5" r="5.52"/><path class="cls-4" d="M635.48,778.3c-1.62,4.88-3.24,9.82-3.63,14.94a3.85,3.85,0,0,0,.47,2.6,4.07,4.07,0,0,0,1.57,1.1c2.15,1,4.42,2.1,6.81,2,1.37-.05,2.7-.48,4.08-.51" transform="translate(-61.54 -526.64)"/><path class="cls-1" d="M635.66,779.31a69.47,69.47,0,0,0-3.54,15.26,3.69,3.69,0,0,0,0,1.48,3.55,3.55,0,0,0,2.34,2,16.7,16.7,0,0,0,9.64.71" transform="translate(-61.54 -526.64)"/><path d="M650,813.9a19.65,19.65,0,0,0-4.48-4.25,14.22,14.22,0,0,0-10.08-1.89,18.72,18.72,0,0,0-9.23,4.71l.09.52c2.89,1.91,5.91,3.87,9.35,4.29,2.85.35,5.71-.41,8.48-1.16l5.28-1.43Z" transform="translate(-61.54 -526.64)"/><path class="cls-1" d="M622.85,825.56c.79,2.2,2.22,6,1.66,8.21a11.88,11.88,0,0,1-1.28,2.87,16.22,16.22,0,0,1-2.68,3.89" transform="translate(-61.54 -526.64)"/><path class="cls-1" d="M649,829.05c-.62,2-1.78,5.66-1.67,7.73s1.86,5.36,3.27,6.89" transform="translate(-61.54 -526.64)"/><path class="cls-1" d="M671.57,894.16c3.3,4.49,8.76,6.81,12.85,10.6,1.71,1.58,3.18,3.41,4.8,5.08,1.93,2,4.08,3.74,6.11,5.62,10.4,9.57,17.95,22.38,30,29.79,0,0,7.44,1,11.11-.62a42.65,42.65,0,0,0,9.88-6.86A341.38,341.38,0,0,0,779.11,906c6.52-7.29,19.32-21.34,19.32-21.34-.34-1.29-2.08-1.43-3.24-2.09a7,7,0,0,1-1.49-1.29A103.46,103.46,0,0,0,782.31,871a2.21,2.21,0,0,0-1.43-.64,2.1,2.1,0,0,0-1.06.51l-11.61,8.33-12.37,8.89-5.07,3.65c-6.75,4.85-14,10.11-19.54,16.3" transform="translate(-61.54 -526.64)"/><path class="cls-1" d="M799.81,846.49c1-4.65,1.79-10.59.62-15.2a3.14,3.14,0,0,0-1.59-2.33c-1.07-.4-2.24.35-3,1.24a13.75,13.75,0,0,0-2,4.29l-1.77,5.31c-.57,1.71-1.15,3.42-1.56,5.18-1.47,6.24-.33,18.63-.33,18.63a18,18,0,0,0-3.14,3.5,28.67,28.67,0,0,1-3.59,4.48" transform="translate(-61.54 -526.64)"/><path class="cls-1" d="M799.38,847.29a88.13,88.13,0,0,1,13.62-19c1.18-1.2,2.81-2.44,4.4-1.86a3.07,3.07,0,0,1,1.77,3,7.68,7.68,0,0,1-1.09,3.47A38.69,38.69,0,0,1,809,844.33" transform="translate(-61.54 -526.64)"/><path class="cls-1" d="M817.75,833.43a36.34,36.34,0,0,1,7.5-5.37,7.22,7.22,0,0,1,5.35-1c1.79.49,3.27,2.37,2.81,4.17a5.48,5.48,0,0,1-1,1.92,135,135,0,0,1-13.25,15.42" transform="translate(-61.54 -526.64)"/><path class="cls-1" d="M828.64,838a12.31,12.31,0,0,1,3.3-1.37,3.1,3.1,0,0,1,2.95.45,3.47,3.47,0,0,1,.72,3.44c-.68,2.76-3,4.78-5,6.72-3.38,3.15-6.51,6.55-9.64,9.95" transform="translate(-61.54 -526.64)"/><path class="cls-1" d="M827.27,850.45a11,11,0,0,1,4.34-.89,3.13,3.13,0,0,1,3.17,2,4,4,0,0,1-1,3.29c-3.7,5-10,7.23-15,10.85-2.67,1.91-5.07,4.26-8,5.65-2.81,1.32-6.06,1.75-8.56,3.59a17.38,17.38,0,0,0-2.35,2.19l-4.37,4.6" transform="translate(-61.54 -526.64)"/><path class="cls-1" d="M540.05,918.83a10.51,10.51,0,0,1,1.61-5.64,46.21,46.21,0,0,1,3.51-4.66l28.52-43.93a88,88,0,0,1,5.76-8.19,45.63,45.63,0,0,1,41.1-15.88s4.86,5.51,8.21,6.68A23.64,23.64,0,0,0,640,848.3a13.25,13.25,0,0,0,3.5-.95c2.42-1.1,6.26-3.47,6.26-3.47a53.49,53.49,0,0,1,16.82-2.44,30,30,0,0,1,16.07,5c1.38,1,2.65,2.07,4,3.11,1.9,1.5,3.91,2.87,5.75,4.46,3.84,3.33,6.8,7.54,9.72,11.69,0,0,6.67,10.3,10.94,15.83.74,1,1.53,1.88,2.29,2.82s1.34,1.7,2,2.56l5.59,7.34c1.36,1.78,2.71,3.55,4,5.36,2.16,2.92,4.3,6.14,4.44,9.77" transform="translate(-61.54 -526.64)"/><path class="cls-1" d="M588.27,909.4l-4.38,6.89a21.51,21.51,0,0,1-2.39,3.28c-.9,1-2,1.74-2.93,2.63-2.88,2.64-4.84,6.12-7.51,9-1.69,1.81-3.65,3.35-5.4,5.11-3.95,4-6.78,9-11.06,12.61a10,10,0,0,1-4.28,2.33,12.34,12.34,0,0,1-3.93,0A105.27,105.27,0,0,1,513.53,942a31.28,31.28,0,0,0-5.08-2.86c-1.15-.43-2.35-.71-3.49-1.17s-2.33-1.18-3.49-1.78c-.92-.48-1.87-.9-2.81-1.32l-4.46-2a89.66,89.66,0,0,0-10.56-4.21s.31-3.24.58-5a17.69,17.69,0,0,1,.92-4c.32-.82.76-1.59,1.09-2.42a18.6,18.6,0,0,0,.74-2.75l2.09-9.76a41.11,41.11,0,0,1,4.71.45c7.77,1.47,15.22,4.25,22.75,6.68s15.93,4.34,23.84,4.36" transform="translate(-61.54 -526.64)"/><path class="cls-1" d="M487.89,906.22c-3.17-.83-6.47-1.74-8.9-3.94a20.23,20.23,0,0,1-3.48-4.62l-4.45-7.23c-1.24-2-2.58-4.14-4.67-5.26a2.35,2.35,0,0,0-1.79-.33,1.92,1.92,0,0,0-1.18,1.49,5.31,5.31,0,0,0,.13,2,32.66,32.66,0,0,0,4.3,10.56" transform="translate(-61.54 -526.64)"/><path class="cls-1" d="M467.12,897.65a103.73,103.73,0,0,1-16.72-10.14,9.69,9.69,0,0,0-2.91-1.8,3.13,3.13,0,0,0-3.2.63,2.91,2.91,0,0,0-.49,2.78,6,6,0,0,0,1.6,2.43,28.66,28.66,0,0,0,3.55,2.86l7.24,5.21" transform="translate(-61.54 -526.64)"/><path class="cls-1" d="M452.57,897c-4.11-1.52-13.5-5.68-17.79-6.57-1.39-.29-3.13-.42-3.94.75a2.5,2.5,0,0,0,0,2.55,6.35,6.35,0,0,0,1.83,1.93,63.41,63.41,0,0,0,17.65,9.6" transform="translate(-61.54 -526.64)"/><path class="cls-1" d="M450.61,905.31c-2.4-.34-5-.3-7.38-.64a25.32,25.32,0,0,0-6.2-.36c-1.36.15-3,.78-3.17,2.14a2.47,2.47,0,0,0,1,2.2,7.29,7.29,0,0,0,2.27,1.07c6.33,2.14,13.42,4.33,20.1,4" transform="translate(-61.54 -526.64)"/><path class="cls-1" d="M457.24,913.76c-3.83,1.73-8.95,2-12.94,3.33a2.79,2.79,0,0,0-1.55,1,1.94,1.94,0,0,0,.14,2,4.46,4.46,0,0,0,1.66,1.35c4.66,2.46,10.28,1.67,15.48.81a56.41,56.41,0,0,0,5.92-1.2c1.89-.53,3.73-1.25,5.66-1.6a19.22,19.22,0,0,1,12.79,3" transform="translate(-61.54 -526.64)"/><path class="cls-1" d="M674.62,897.8q-2.65,43.07-5.22,86.13c-.26,4.51-.49,12.89-1.2,12.77L652.32,994c-1.74-.3-3.49-.6-5.24-.8-8.67-1-17.43.17-26.08,1.37l-12.24,1.7c-2.11.29-4.21.58-6.33.74-4.8.36-9.63,0-14.43.32-3.56.2-10,3-12.79,3.77-.77.22-1.49,0-1.49-1.16l.46-8.89c.12-2.56,1.07-13.26,1.46-15.78.87-5.56,2.05-14.41,2.67-20a145,145,0,0,0,1-14.73c0-1.6,0-3.2,0-4.8s.26-3.07.44-4.61c.38-3.28,1.28-8.2,1.66-11.49" transform="translate(-61.54 -526.64)"/><path class="cls-1" d="M667.41,996.56a75.31,75.31,0,0,0,4.38,16.11c1.51,3.64,3.34,7.13,5,10.7,9,19.55,12.52,41.12,15.92,62.38l-1.39.51a55.31,55.31,0,0,0-12.38,2,22.6,22.6,0,0,1-6.14,1.26c-1.81,0-3.57-.52-5.37-.68a26.92,26.92,0,0,0-7.47.71l-19.14,3.62s-4.78-10.44-7.17-15.26a39.23,39.23,0,0,1-2.35-5.36c-.73-2.26-1.06-4.64-1.62-6.95a67.53,67.53,0,0,0-2.4-7.29,61.33,61.33,0,0,0-3.94-8.59s-2-4.77-4.62-4.12c-1.74.43-3,2.3-4,3.86a172,172,0,0,0-10.15,17.43c-1.37,2.71-2.67,5.45-4.27,8-1.13,1.83-2.42,3.58-3.4,5.5-1.4,2.76-2.13,5.81-3.42,8.63-1.2,2.61-3.06,5.14-5.7,6.22a1.49,1.49,0,0,1-1.17,0,118.77,118.77,0,0,0-13.18-5c-1.64-.44-3.31-.83-4.92-1.38-2.59-.89-5-2.17-7.55-3.23a55.23,55.23,0,0,0-18.82-4.09,1.6,1.6,0,0,1-1.52-1.72,17,17,0,0,1,.52-3.2l4.51-14.35a44,44,0,0,1,2.52-6.71c1-2,2.29-3.81,3.24-5.81,1.09-2.27,1.72-4.72,2.6-7.08a72.6,72.6,0,0,1,3.44-7.44c5.7-11.2,11.42-23.15,18.19-33.74" transform="translate(-61.54 -526.64)"/><path class="cls-1" d="M559.74,1189.93a33.47,33.47,0,0,1,7.64-1c1.89,0,3.78.08,5.66.21s4.16.19,5.92.31" transform="translate(-61.54 -526.64)"/><path class="cls-1" d="M581.76,1093.46c-2.49,4.78-8.79,13.36-8.79,13.36a65.59,65.59,0,0,0,1.23,12.44c.76,3.27,2,6.41,2.85,9.67,1.58,6.21,1.53,12.7,1.46,19.1-.15,16,.56,46.52.56,46.52l.77,12.7v0c-2.43,1.7-5.64,1.65-8.6,1.52a6.1,6.1,0,0,1-2-.29,6.51,6.51,0,0,1-1.08-.56l-3.92-2.36s-2.79-10.17-4.34-15.29c0,0-5.33-19-7.91-29l-2.73-10.57-2.45-9.47c-2.23-8.63-5.62-25.59-5.62-25.59a33.4,33.4,0,0,1-3.65-13.49c-.09-4.69,4.54-12.89,4.54-12.89a16.8,16.8,0,0,1,3.84-7.44" transform="translate(-61.54 -526.64)"/><path class="cls-1" d="M579.35,1199.17a10,10,0,0,1,3.86,4c.95,2.38,2.76,4.46,4,6.75,2.12,3.94,2.56,8.53,2.93,13,.33,4.1.57,8.48-1.52,12a35.43,35.43,0,0,1-5.21,2c-9.41,2.31-19.24,1.93-28.92,1.54l-4.69-.19-3.56-.14-13.42-.54,1.27,0c-2.91-.12-5.81-.36-8.69-.7a27.23,27.23,0,0,1-7.48-1.72,10.89,10.89,0,0,1-5.66-5,8.49,8.49,0,0,1,.84-8.72,13.43,13.43,0,0,1,2.94-2.69,44.33,44.33,0,0,1,11.43-5.61,128.61,128.61,0,0,1,15.12-3.93q7.15-1.51,14.33-2.89c.89-.17,2-.49,2.16-1.37a2.51,2.51,0,0,0-.16-1.29,22.22,22.22,0,0,1-.73-3.33,3.39,3.39,0,0,1,0-1.23c.27-1.09,2.54-2,3.59-2.43" transform="translate(-61.54 -526.64)"/><path class="cls-1" d="M529.63,1212.51c2.15.16,4.45,1.92,6,3.39a17.26,17.26,0,0,1,4.54,7.15" transform="translate(-61.54 -526.64)"/><path class="cls-1" d="M541.26,1209.57a12.66,12.66,0,0,1,4,1.46,8.27,8.27,0,0,1,2,1.71,15.5,15.5,0,0,1,3.68,7.46" transform="translate(-61.54 -526.64)"/><path class="cls-1" d="M551.5,1207.45c2.33.36,4.85,2.46,6.27,4.34a9.25,9.25,0,0,1,1.75,6.65" transform="translate(-61.54 -526.64)"/><path class="cls-1" d="M559,1205.52c1.1.59,1.94,1.68,3.15,2a2.75,2.75,0,0,0,2.76-.94" transform="translate(-61.54 -526.64)"/><path class="cls-1" d="M638.87,1193.79a27.12,27.12,0,0,0,7.49,3.19,33.78,33.78,0,0,0,8.09.82c1.43,0,2.32.19,3.6-.44" transform="translate(-61.54 -526.64)"/><path class="cls-1" d="M647,1091.75c1.94,2.31,2.9,5.26,3.93,8.09a79.49,79.49,0,0,0,3.93,8,18.92,18.92,0,0,1-.66,10.68,99.13,99.13,0,0,1-4.25,10c-6.4,14.43-8.65,30.37-9.23,46.14-.24,6.43-.22,12.94-1.89,19.15-1.06,3.92-2.6,6.82-3.34,10.81.5,1.5,1.89,3.94,4.08,4.41a17.22,17.22,0,0,0,3.62.63l3.51-.37c2.42-.25,3.75.08,5.82-1.2,7.79-13.46,11.1-28.43,17.67-42.52,1-2.07,2-4.11,2.9-6.22,1.1-2.57,2-5.23,2.94-7.87a192.08,192.08,0,0,1,10.15-23.21l-.57,1a41.74,41.74,0,0,0,6.33-16,26.61,26.61,0,0,0-2.75-16.83s-1.24-6.57-2.65-9.55" transform="translate(-61.54 -526.64)"/><path class="cls-1" d="M657.36,1199c1.06.39,1.36,1.38,1.64,2.47a7.41,7.41,0,0,1-.85,2.61c-1,1.38-2.6,4-2.5,4.46.21.88,1.27,1.2,2.16,1.37q7.19,1.36,14.34,2.89a129.08,129.08,0,0,1,15.12,3.92,44.79,44.79,0,0,1,11.42,5.62,13.22,13.22,0,0,1,2.95,2.68,8.53,8.53,0,0,1,.84,8.73,11,11,0,0,1-5.66,5,27.58,27.58,0,0,1-7.48,1.71c-2.89.35-5.79.58-8.69.71" transform="translate(-61.54 -526.64)"/><path class="cls-1" d="M681.92,1241.15l-13.42.54-3.57.15-4.69.19c-9.67.39-19.5.76-28.91-1.54a36.26,36.26,0,0,1-5.21-2c-2.09-3.53-1.85-7.92-1.52-12,.36-4.45.8-9,2.92-13,1.58-2.92,5.24-9.91,5.73-13.19,0-1.94,1.53-3.86,3.67-.46" transform="translate(-61.54 -526.64)"/><path class="cls-1" d="M684.73,1215.65c-2.14.16-4.08,2.26-5.65,3.74a17.18,17.18,0,0,0-4.53,7.15" transform="translate(-61.54 -526.64)"/><path class="cls-1" d="M673.8,1213.13a14.59,14.59,0,0,0-4.34,1.39,8.18,8.18,0,0,0-2,1.7,15.41,15.41,0,0,0-3.68,7.46" transform="translate(-61.54 -526.64)"/><path class="cls-1" d="M663.14,1210.92c-2.32.36-4.77,2.47-6.18,4.35a9.2,9.2,0,0,0-1.75,6.65" transform="translate(-61.54 -526.64)"/><path class="cls-1" d="M655.77,1209c-1.1.59-1.94,1.68-3.15,2-1,.25-2.13-1.18-2.76-2" transform="translate(-61.54 -526.64)"/><path class="cls-2" d="M600.58,1602.59A68.13,68.13,0,0,0,607.4,1584c.25-1.23.48-2.45.67-3.67l.13-.92a2.51,2.51,0,0,0,0-.27c0-.3.08-.6.11-.9,0-.13,0-.25,0-.37l0-.27c.05-.4.09-.81.13-1.21" transform="translate(-61.54 -526.64)"/><path class="cls-5" d="M499.6,1588.16c-.05.34-3.87,9.75-5.64,14.13a1.33,1.33,0,0,1-.47.68h0c-.1,0-.56,0-1.26.09h0c-2.26,0-10.42.29-10.82.34h-.05a67.87,67.87,0,0,1-8.71-30.7h0v0l0,0c.64-.57,7-6.32,7.44-6.35s9.12,3,10,3.53l0,0,0,0,0,0c.47.55,8.37,15.3,8.73,16A4,4,0,0,1,499.6,1588.16Z" transform="translate(-61.54 -526.64)"/><path class="cls-5" d="M567.4,1623l-7.47,12.39a67.63,67.63,0,0,1-28.35,2.15c-2.38-3.39-5.23-7.21-7.6-10.6a2.22,2.22,0,0,1-.54-1.26,2.3,2.3,0,0,1,.49-1.12l6.87-10.12A6.26,6.26,0,0,1,532,1613a5.88,5.88,0,0,1,3-.88,170.27,170.27,0,0,1,18.35-.87,5.86,5.86,0,0,1,1.67.17,5.56,5.56,0,0,1,1.4.7,48.5,48.5,0,0,1,10.79,9.21,1.47,1.47,0,0,1,.47.91A1.41,1.41,0,0,1,567.4,1623Z" transform="translate(-61.54 -526.64)"/><path class="cls-2" d="M559.93,1635.41a.47.47,0,0,0-.06.09" transform="translate(-61.54 -526.64)"/><path class="cls-2" d="M527.76,1580.75l-3.57-21.38,10.42-8.57-.87-.33-13.64,11.24,3.57,21.37,17.92,6.72,3.23-2.66Zm63.06-42.91c.38-4.06.68-8.75,1-12.84a65.16,65.16,0,0,0-23-16.88l-13.73,4.61a1.42,1.42,0,0,0-.71.39,1.49,1.49,0,0,0-.23,1,48.57,48.57,0,0,0,2.26,14,5.57,5.57,0,0,0,.61,1.44,6.44,6.44,0,0,0,1.17,1.22A172.13,172.13,0,0,0,572.82,1542a4.36,4.36,0,0,0,4.7,1l11.79-3.26a2.28,2.28,0,0,0,1.1-.54A2.22,2.22,0,0,0,590.82,1537.84Z" transform="translate(-61.54 -526.64)"/><path class="cls-2" d="M557.12,1555.53l-17.06-6.39-3.23-1.21-3.09,2.54.87.33,17.06,6.38,3.56,21.38-10.41,8.58-3.23,2.66,2.37.88,6.31-5.2,10.42-8.58ZM517.43,1514c-.22-.37-8.21-3.49-9-3.81h-.07a67.8,67.8,0,0,0-23.55,21.52h0l0,0c.23.33,4.13,7.5,5.15,9.53v0a10.64,10.64,0,0,0,.64,1.08h0a1.24,1.24,0,0,0,.81.11c4.71-.36,14.83-1.15,15.16-1.27a4,4,0,0,0,1.73-1.58c.46-.64,10.12-14.3,10.4-15,0,0,0,0,0,0v0s0,0,0,0C518.8,1523.51,517.59,1514.26,517.43,1514Z" transform="translate(-61.54 -526.64)"/><path class="cls-2" d="M595.85,1530c-1.25-1.71-2.58-3.37-4-5-.37,4.09-.67,8.78-1,12.84a2.22,2.22,0,0,1-.41,1.31,2.28,2.28,0,0,1-1.1.54L577.52,1543a4.36,4.36,0,0,1-4.7-1,172.13,172.13,0,0,1-14.55-11.22,6.44,6.44,0,0,1-1.17-1.22,5.57,5.57,0,0,1-.61-1.44,48.57,48.57,0,0,1-2.26-14,1.49,1.49,0,0,1,.23-1,1.42,1.42,0,0,1,.71-.39l13.73-4.61a67.41,67.41,0,0,1,13.5,8,64.39,64.39,0,0,0-5.6-3.91,68.18,68.18,0,0,0-83.94,9.3l-.65.65a68.33,68.33,0,0,0-19.6,50.58h0v0l0,0c.64-.57,7-6.32,7.44-6.35s9.12,3,10,3.53l0,0,0,0,0,0c.47.55,8.37,15.3,8.73,16a4,4,0,0,1,.65,2.25c-.05.34-3.87,9.75-5.64,14.13a1.33,1.33,0,0,1-.47.68h0c-.1,0-.56,0-1.26.09h0c-2.26,0-10.42.29-10.82.34h-.05a68,68,0,0,0,45.37,33.28c1.63.34,3.26.62,4.89.85-2.38-3.39-5.23-7.21-7.6-10.6a2.22,2.22,0,0,1-.54-1.26,2.3,2.3,0,0,1,.49-1.12l6.87-10.12A6.26,6.26,0,0,1,532,1613a5.88,5.88,0,0,1,3-.88,170.27,170.27,0,0,1,18.35-.87,5.86,5.86,0,0,1,1.67.17,5.56,5.56,0,0,1,1.4.7,48.5,48.5,0,0,1,10.79,9.21,1.47,1.47,0,0,1,.47.91,1.41,1.41,0,0,1-.29.76l-7.47,12.39a68.28,68.28,0,0,0,40.65-32.81h0c-.85.16-9.25,1.84-9.64,1.65s-6.29-7.28-6.82-8.17l0,0a.08.08,0,0,0,0,0,0,0,0,0,1,0,0c-.13-.71.63-17.43.68-18.21a4.08,4.08,0,0,1,.6-2.26c.22-.28,8.31-6.4,12.08-9.25a1.25,1.25,0,0,1,.75-.35h0a10.94,10.94,0,0,1,1.13.57s0,0,0,0c2,1.15,9.11,5.08,9.47,5.24h.05c0,.39,0,.78,0,1.18A68,68,0,0,0,595.85,1530Zm-77.1-5.34s0,0,0,0c-.28.67-9.94,14.33-10.4,15a4,4,0,0,1-1.73,1.58c-.33.12-10.45.91-15.16,1.27a1.24,1.24,0,0,1-.81-.11h0a10.64,10.64,0,0,1-.64-1.08v0c-1-2-4.92-9.2-5.15-9.53l0,0h0a67.8,67.8,0,0,1,23.55-21.52h.07c.8.32,8.79,3.44,9,3.81s1.37,9.52,1.33,10.56c0,0,0,0,0,0Zm31.52,60.86-6.31,5.2-2.37-.88-17.92-6.72-3.57-21.37,13.64-11.24,3.09-2.54,3.23,1.21,17.06,6.39,3.57,21.37Z" transform="translate(-61.54 -526.64)"/><polygon class="cls-5" points="499.14 1050.27 488.73 1058.85 482.42 1064.05 480.05 1063.16 462.13 1056.44 458.56 1035.07 472.2 1023.83 475.29 1021.29 478.52 1022.5 495.58 1028.89 499.14 1050.27"/><path class="cls-2" d="M516,1506.49h0" transform="translate(-61.54 -526.64)"/><path class="cls-5" d="M600.61,1602.58h-.07c-.85.16-9.25,1.84-9.64,1.65s-6.29-7.28-6.82-8.17l0,0a.08.08,0,0,0,0,0,0,0,0,0,1,0,0c-.13-.71.63-17.43.68-18.21a4.08,4.08,0,0,1,.6-2.26c.22-.28,8.31-6.4,12.08-9.25a1.25,1.25,0,0,1,.75-.35h0a10.94,10.94,0,0,1,1.13.57s0,0,0,0c2,1.15,9.11,5.08,9.47,5.24h.05c0,.39,0,.78,0,1.18s0,.77-.06,1.16-.05.78-.08,1.17l-.09,1.17c0,.41-.08.81-.13,1.21l0,.27c0,.12,0,.24,0,.36,0,.31-.07.61-.11.91a2.51,2.51,0,0,1,0,.27l-.13.92A67.57,67.57,0,0,1,600.61,1602.58Z" transform="translate(-61.54 -526.64)"/><path class="cls-5" d="M518.76,1524.59v0s0,0,0,0c-.28.67-9.94,14.33-10.4,15a4,4,0,0,1-1.73,1.58c-.33.12-10.45.91-15.16,1.27a1.24,1.24,0,0,1-.81-.11h0a10.64,10.64,0,0,1-.64-1.08v0c-1-2-4.92-9.2-5.15-9.53l0,0h0a67.8,67.8,0,0,1,23.55-21.52h.07c.8.32,8.79,3.44,9,3.81s1.37,9.52,1.33,10.56C518.77,1524.56,518.76,1524.58,518.76,1524.59Z" transform="translate(-61.54 -526.64)"/><path class="cls-5" d="M590.41,1539.15a2.28,2.28,0,0,1-1.1.54L577.52,1543a4.36,4.36,0,0,1-4.7-1,172.13,172.13,0,0,1-14.55-11.22,6.44,6.44,0,0,1-1.17-1.22,5.57,5.57,0,0,1-.61-1.44,48.57,48.57,0,0,1-2.26-14,1.49,1.49,0,0,1,.23-1,1.42,1.42,0,0,1,.71-.39l13.73-4.61a68,68,0,0,1,23,16.72.88.88,0,0,0,0,.16c-.37,4.09-.67,8.78-1,12.84A2.22,2.22,0,0,1,590.41,1539.15Z" transform="translate(-61.54 -526.64)"/><ellipse class="cls-2" cx="540.99" cy="1569.87" rx="68.34" ry="67.9" transform="translate(-1168.17 1249.48) rotate(-78.12)"/></svg>