<svg id="Layer_2" data-name="Layer 2" xmlns="http://www.w3.org/2000/svg" viewBox="0 0 1154.52 746.51"><defs><style>.cls-1{fill:none;}.cls-1,.cls-2,.cls-3{stroke:#000;stroke-linecap:round;stroke-linejoin:round;stroke-width:2px;}.cls-2{fill:#666;}</style></defs><path class="cls-1" d="M222.17,703.3l2.38,54.41c1.61,36.83,11.72,71.53,34.21,101.1a168.32,168.32,0,0,0,25.3,26.64c9.65,8.14,19.75,16.14,31.36,21.37,22.29,10,49.19,5.3,70.15-7.3s42.08-35.79,55.77-56c12.9-19.09,19.16-35.9,24.12-58.39,6.72-30.46,1-62.37,5.33-93.25" transform="translate(-94.56 -546.55)"/><path class="cls-2" d="M470.79,691.83c1.4-23.45,7.58-41.35,1.12-64.06-2.91-10.2-6.65-20.35-12.94-29.15-7.8-10.91-19.13-19.24-31-26.4-23.25-14.05-50-24.42-77.74-24.66-19.34-.17-38.43,4.57-56.3,11.42-9,3.44-17.72,7.44-25.55,12.73-21.4,14.45-34.36,37.64-40.49,61.48s-6.09,48.62-6,73.13l.41,0c2.84-14.76,5.8-29.84,13.73-42.91s19.5-23.8,35.68-24.61c-2-7,3.91-17.72,8.26-23.69,5.09-7,9.33-9,17.51-12.74s20.61-2.58,28.58,1.5c8.23,4.22,12,14,17.91,20.77s16.33,8.33,25.07,5.11c4-1.47,6.92-4.56,10-7.34,6.49-5.94,12.54-11.84,20.79-15.47,4.68-2.06,11.22-2.75,16.4-2.84,9.27-.16,18.13,5,23.08,12.25s6.24,16.3,4.8,24.77c8.82-1.76,15.36,7.3,18.69,15.06C468.07,668.54,470.79,691.83,470.79,691.83Z" transform="translate(-94.56 -546.55)"/><path class="cls-1" d="M469.61,711.29c2.36-3.21,4.88-6.55,8.51-8.17s8.69-.77,10.38,2.84a9,9,0,0,1,.71,3.71c.19,9.35-5.59,17.71-7.59,26.85a68.23,68.23,0,0,0-1.17,10.78l-.75,13.77c-.17,3.17-.39,6.49-2.05,9.2a9.77,9.77,0,0,1-6.77,4.49c-.8.12-2-.69-1.31-1.16" transform="translate(-94.56 -546.55)"/><path class="cls-1" d="M222.38,708.08c-3-4.09-7.58-10.18-12.3-10.42-5.26-.28-9.54,4.86-11.92,10.19a22.43,22.43,0,0,0-1.61,4.76c-1.12,5.64.89,11.48,3.49,16.45s5.86,9.57,7.61,15c1.92,5.93,1.9,12.43,1.6,18.74-.13,2.8-.27,5.79,1,8.19a11.58,11.58,0,0,0,2.66,3.11c1.69,1.51,3.55,2.92,5.68,3.27s5.83-1.88,6.72-4.1" transform="translate(-94.56 -546.55)"/><path class="cls-1" d="M357.79,718.4a104.37,104.37,0,0,0,4.76,19.25c2.3,6.58,5.25,12.91,7.55,19.48a104,104,0,0,1,5.67,28.73c.12,2.36.08,5-1.52,6.71-1.28,1.39-3.24,1.86-5.09,2.27-7.86,1.73-16.25,3.43-23.78.58" transform="translate(-94.56 -546.55)"/><path class="cls-1" d="M390.53,823.85c-14.7,10.46-27.82,10.2-46,9.39-13.06-.58-19.62-3.41-30.63-7.75-8.24-3.25-25-10-25-10,5.39,6.54,7.31,10.13,12.7,16.67a102.87,102.87,0,0,0,12,11.82c3.37,2.58,8.88,7.06,12.77,8.76,10.73,4.7,20.85,6.49,32.29,4,7.71-1.7,14.47-6.49,19.81-12.3S390.53,823.85,390.53,823.85Z" transform="translate(-94.56 -546.55)"/><path class="cls-1" d="M274.27,671.23c7.62-5.62,16.38-10.08,25.8-11.11s19.55,1.74,26,8.71" transform="translate(-94.56 -546.55)"/><path class="cls-1" d="M380.89,679.63c7.18-4.68,14.76-9.5,23.31-10.22,6.93-.58,13.88,1.65,19.87,5.18s11.15,8.31,16.09,13.21" transform="translate(-94.56 -546.55)"/><path class="cls-1" d="M292.29,691a57.07,57.07,0,0,1,8.66.46c4.69.5,9.43,1,13.89,2.55a31.87,31.87,0,0,1,16.58,13.26c1.53,2.49,2.69,5.82,1,8.22a8.64,8.64,0,0,1-3.79,2.6c-11.42,5.08-24,9.78-36.15,6.81-4.54-1.11-8.74-3.24-12.91-5.36A76.86,76.86,0,0,1,269.9,714a31.25,31.25,0,0,1-4.22-3.57,16.26,16.26,0,0,1-1.84-2.13c-.54-.79-.35-1.28.26-2a53.1,53.1,0,0,1,7.86-7.2,43.92,43.92,0,0,1,9-5.39,32.47,32.47,0,0,1,10-2.63Z" transform="translate(-94.56 -546.55)"/><path class="cls-1" d="M404.43,692.17a58.34,58.34,0,0,1,8.65.47c4.69.49,9.43,1,13.89,2.55a31.83,31.83,0,0,1,16.58,13.26c1.54,2.49,2.69,5.81,1,8.22a8.66,8.66,0,0,1-3.79,2.6c-11.42,5.08-24,9.78-36.15,6.81-4.53-1.11-8.74-3.25-12.9-5.36a77,77,0,0,1-9.7-5.57,30.47,30.47,0,0,1-4.22-3.56,17.59,17.59,0,0,1-1.83-2.13c-.55-.79-.36-1.29.25-2a54.21,54.21,0,0,1,7.86-7.2,44.14,44.14,0,0,1,9-5.38,32.53,32.53,0,0,1,10-2.63C403.54,692.22,404,692.19,404.43,692.17Z" transform="translate(-94.56 -546.55)"/><circle class="cls-2" cx="207.47" cy="161.86" r="14.09"/><circle class="cls-2" cx="323.57" cy="163.02" r="14.09"/><path class="cls-1" d="M314,906.17c.43,12.19-3.55,28.42-8.23,39.68" transform="translate(-94.56 -546.55)"/><path class="cls-1" d="M377,904.08c2.09,12,2.08,23.83,10.47,33.63" transform="translate(-94.56 -546.55)"/><path class="cls-1" d="M450.26,1051.62a780.26,780.26,0,0,1,23.42,193.46" transform="translate(-94.56 -546.55)"/><path class="cls-1" d="M553.78,1167.44c5.23,20,6.16,47.07,5.33,67.69" transform="translate(-94.56 -546.55)"/><path class="cls-1" d="M482.57,1176.14c4.13,18.68,3.6,45.8,10.86,63.5" transform="translate(-94.56 -546.55)"/><path class="cls-1" d="M209,1205.25a407.72,407.72,0,0,0-5.2,71" transform="translate(-94.56 -546.55)"/><path class="cls-1" d="M235.24,1108.92c-9,31.9-16.46,64.19-24,96.47,0,0-17.53-1.65-25.47-1.3-30.84,1.36-90.26-11.85-90.26-11.85.27.06,19.19-83.49,21.11-91a340.69,340.69,0,0,1,37.75-90.81c20.11-33.65,75.25-62.57,125.56-66.07,3.49-.24,22.16-.77,25.82,1.53s5.66,7.38,9.74,10.15a54.33,54.33,0,0,0,34.55,9.1c16.39-1.37,33.69-12.61,37.34-27.38A121.09,121.09,0,0,1,454,948.85c24.43,11.92,45.28,30.77,60.68,53.08,31.51,45.66,41.86,107.45,42.72,161.89,0,0-13.94,7-22.16,7.69l-63.3,5.56" transform="translate(-94.56 -546.55)"/><path class="cls-1" d="M116,1196.34c-3.88,19.42-6.35,41.57-5.53,61.35" transform="translate(-94.56 -546.55)"/><path class="cls-1" d="M189.43,1204.26a223.68,223.68,0,0,1,2.14,25.17c.14,13.47-2.15,26.83-4.43,40.1" transform="translate(-94.56 -546.55)"/><path class="cls-1" d="M843,719.1c10.65-4.48,23.09-4.82,33.61,0,7.87,3.58,14.31,9.73,20.52,15.82a68.66,68.66,0,0,1-46.21,22.68c-9.73.64-19.58-1.31-26.23-9.16-2.44-2.89-4.11-6.51-3.16-10.37,1.1-4.41,4.81-7.76,8.08-10.57A50.93,50.93,0,0,1,843,719.1Z" transform="translate(-94.56 -546.55)"/><ellipse class="cls-3" cx="755.57" cy="190.09" rx="16.42" ry="16.79"/><path class="cls-1" d="M968.79,715.32c10.65-4.47,23.09-4.82,33.62,0,7.86,3.58,14.3,9.72,20.51,15.82a68.74,68.74,0,0,1-46.21,22.68c-9.73.63-19.58-1.31-26.23-9.17-2.44-2.88-4.11-6.51-3.16-10.36,1.1-4.42,4.81-7.76,8.09-10.58A51.13,51.13,0,0,1,968.79,715.32Z" transform="translate(-94.56 -546.55)"/><ellipse class="cls-3" cx="881.4" cy="186.31" rx="16.42" ry="16.79"/><path class="cls-1" d="M950.34,693a113,113,0,0,1,58.68-.28" transform="translate(-94.56 -546.55)"/><path class="cls-1" d="M822.64,692.1a95.26,95.26,0,0,1,54.77-1.87" transform="translate(-94.56 -546.55)"/><path class="cls-1" d="M906.86,767.34a271.57,271.57,0,0,0-5.51,50.45c0,2.53,0,5.23,1.42,7.33s3.65,3.06,5.91,3.84a42.48,42.48,0,0,0,24.81.86" transform="translate(-94.56 -546.55)"/><path class="cls-1" d="M982.2,877.13c-7.88,7.86-17.45,14.35-28.28,16.92a66.73,66.73,0,0,1-13.52,1.56c-6.91.2-13.92-.18-20.55-2.13-15.36-4.53-31-32.39-31-32.39a157.42,157.42,0,0,0,115.42-12.18S990.08,869.28,982.2,877.13Z" transform="translate(-94.56 -546.55)"/><path class="cls-1" d="M1046.55,747.29c5.62-7.53,7.65-11.73,16.62-14.51,3.7-1.14,9.23.44,11.59,6.13,2.61,6.3-2.75,17.51-3.93,21.46-.33,1.1-4.14,6.92-4.21,14.67-.08,8.12,2.68,10.24.76,18.13a13.86,13.86,0,0,1-6.42,8.33c-3.54,1.78-14-1.4-15.87-4.88" transform="translate(-94.56 -546.55)"/><path class="cls-1" d="M1038.14,742.25a240.56,240.56,0,0,1,4.06,94.51c-2.75,17.51-7.55,34.93-16.54,50.21-6.25,10.6-14.38,19.93-23.16,28.5-7.17,7-14.59,14-22.4,20.33-7.36,5.92-15.68,11-25,12.92-12,2.5-24.35-.26-36.06-3.69a193.07,193.07,0,0,1-32.8-12.55c-10.81-5.45-20.36-12.61-29.82-20.11-5.53-4.38-11.09-8.8-15.71-14.13-5.88-6.81-10-14.92-13.72-23.12-18.86-42-26-105.53-21.65-151.33" transform="translate(-94.56 -546.55)"/><path class="cls-1" d="M802.92,744.32c-1.26-2.55-14.79-9.34-14.79,10,0,9,7.75,23.19,7.85,27,.11,4.21-1.2,8.31-2,12.44s-1.14,8.63.82,12.37,6.86,6.16,10.56,4.14" transform="translate(-94.56 -546.55)"/><path class="cls-1" d="M801.39,811.58a111.65,111.65,0,0,1-3.11,35.12" transform="translate(-94.56 -546.55)"/><path class="cls-1" d="M803,830.49c-.7,8.62,2,17.55-.61,25.79" transform="translate(-94.56 -546.55)"/><path class="cls-1" d="M807.25,822.53c3.3,14.28.81,29.17.79,43.82" transform="translate(-94.56 -546.55)"/><path class="cls-1" d="M817,851.49a38.71,38.71,0,0,0-5.11,35.91" transform="translate(-94.56 -546.55)"/><path class="cls-1" d="M821.75,864a136.15,136.15,0,0,1,1.13,26.69" transform="translate(-94.56 -546.55)"/><path class="cls-1" d="M833.17,887.19v10" transform="translate(-94.56 -546.55)"/><path class="cls-1" d="M845.1,903.48a48,48,0,0,1,2.71,10.22" transform="translate(-94.56 -546.55)"/><path class="cls-1" d="M856.79,912.37A55.18,55.18,0,0,1,859.61,923" transform="translate(-94.56 -546.55)"/><path class="cls-1" d="M1017.26,899.68a112.66,112.66,0,0,1,1.1,14.9" transform="translate(-94.56 -546.55)"/><path class="cls-1" d="M1030.32,879c1.49,8.48,1.66,15.39.53,21.11" transform="translate(-94.56 -546.55)"/><path class="cls-1" d="M1042.55,835.53c0,8.31-1.36,16.55-2,24.83s-.71,16.78,1.88,24.68" transform="translate(-94.56 -546.55)"/><path class="cls-1" d="M1052.84,802.92a358.8,358.8,0,0,1-1.31,77.59" transform="translate(-94.56 -546.55)"/><path class="cls-1" d="M1062.24,806.26a411.09,411.09,0,0,1-4.87,44" transform="translate(-94.56 -546.55)"/><path class="cls-1" d="M1070.71,818.26q.16,25.74-2.17,51.41" transform="translate(-94.56 -546.55)"/><path class="cls-1" d="M1074.34,770.87a220.58,220.58,0,0,1-.42,32.92" transform="translate(-94.56 -546.55)"/><path class="cls-1" d="M1079.51,759.32c1.64,14.2,3.28,28.59,1.24,42.74-.69,4.83-1.81,9.62-1.9,14.49-.18,9.71,3.71,19,7.54,27.89" transform="translate(-94.56 -546.55)"/><path class="cls-1" d="M1084.74,793.78a385.55,385.55,0,0,1,9.08,56.29" transform="translate(-94.56 -546.55)"/><path class="cls-1" d="M1088,752c6.67,17,3.38,36.09,5,54.28" transform="translate(-94.56 -546.55)"/><path class="cls-1" d="M1070.83,661.32c6.61,4.93,10.66,12.51,14,20.06a133.68,133.68,0,0,1,7.15,20,180.59,180.59,0,0,1,4.2,23.68q3.48,27.81,4.53,55.87" transform="translate(-94.56 -546.55)"/><path class="cls-1" d="M1087.66,653.75c9.67,9.77,13.55,23.88,15,37.55s.91,27.56,3.45,41.06" transform="translate(-94.56 -546.55)"/><path class="cls-1" d="M938.29,627.06c29.89,22.2,44.8,59.61,72.56,84.42" transform="translate(-94.56 -546.55)"/><path class="cls-1" d="M922.44,618.93A701.72,701.72,0,0,1,971.6,703.3" transform="translate(-94.56 -546.55)"/><path class="cls-1" d="M930.18,591.42c-8.2,17.14-8.91,37.13-5.43,55.82s10.91,36.38,18.48,53.81" transform="translate(-94.56 -546.55)"/><path class="cls-1" d="M931.63,590.69a58.3,58.3,0,0,0,4,16.71c12,29.62,45.7,44.9,61.33,72.76" transform="translate(-94.56 -546.55)"/><path class="cls-1" d="M946.59,602.54c12.29,18.2,24.66,36.51,40,52.26,5.54,5.71,11.45,11.05,17.06,16.69a230.39,230.39,0,0,1,41.47,56.9" transform="translate(-94.56 -546.55)"/><path class="cls-1" d="M959.91,603.55a151.93,151.93,0,0,1,49.6,43.07c16.73,22.31,27.48,48.43,38.06,74.24" transform="translate(-94.56 -546.55)"/><path class="cls-1" d="M981.5,607.58c15.47,17.28,34.28,31.37,49.43,48.94a160,160,0,0,1,30.75,54.4" transform="translate(-94.56 -546.55)"/><path class="cls-1" d="M1046.75,687.73c3,9.77,6,19.77,5.58,30a81.81,81.81,0,0,1-2.57,15.51c-3.51,14.76-7.73,30.4-2.88,44.78" transform="translate(-94.56 -546.55)"/><path class="cls-1" d="M1030.43,615.62a179.33,179.33,0,0,1,34,58c6.48,18.29,10.28,38.19,22.37,53.36" transform="translate(-94.56 -546.55)"/><path class="cls-1" d="M987.2,579.46c20.73-.18,41,7.6,58.17,19.2s31.55,26.89,44.69,42.92" transform="translate(-94.56 -546.55)"/><path class="cls-1" d="M939.7,581.53a54.48,54.48,0,0,1,26.46.63c11.56,3.21,21.73,10.13,31,17.73" transform="translate(-94.56 -546.55)"/><path class="cls-1" d="M1006.71,592.14c12.89.58,25,7,34.64,15.52s17.31,19.09,24.84,29.57" transform="translate(-94.56 -546.55)"/><path class="cls-1" d="M921.05,584.42c-10.79-9.51-26.94-9.74-41-6.78A115.66,115.66,0,0,0,848.6,589.2c-7.61,4.13-15.09,9.52-18.58,17.44" transform="translate(-94.56 -546.55)"/><path class="cls-1" d="M844.49,610.8c-11,4.11-21.82,9.77-29.6,18.61-11.5,13.07-14.95,31.21-17.2,48.48" transform="translate(-94.56 -546.55)"/><path class="cls-1" d="M820.21,655.87c-14.58,14.78-19.44,36.31-23.67,56.64q-3.3,15.9-6.62,31.81" transform="translate(-94.56 -546.55)"/><path class="cls-1" d="M859.66,635.24c-6.69,8.42-10.24,18.83-15.36,28.28-12.65,23.37-34.47,40.2-56.17,55.56" transform="translate(-94.56 -546.55)"/><path class="cls-1" d="M857.93,651.89c-8.12,14.55-16.35,29.24-27.6,41.54-4.09,4.47-8.56,8.6-12.73,13a135.63,135.63,0,0,0-27.74,43.77" transform="translate(-94.56 -546.55)"/><path class="cls-1" d="M907.81,624.8a131.38,131.38,0,0,1-21.71,29c-15.67,15.81-35.25,27.53-49.86,44.33" transform="translate(-94.56 -546.55)"/><path class="cls-1" d="M905.63,610.37c-1.83,6.21-3.68,12.5-3.94,19-.44,10.69,3.46,21.1,8.41,30.59s11,18.41,15.37,28.18" transform="translate(-94.56 -546.55)"/><path class="cls-1" d="M924,596.45a31.14,31.14,0,0,0-33.3-10.73c-4.74,1.49-9,4.1-13.21,6.78a359.47,359.47,0,0,0-38.4,28.37" transform="translate(-94.56 -546.55)"/><path class="cls-1" d="M919.62,594.87C905.38,593.54,891,597.07,878,603s-24.82,14.2-36.27,22.78c-10.47,7.85-20.89,16.19-28.06,27.13" transform="translate(-94.56 -546.55)"/><path class="cls-1" d="M870.9,627.21a178.28,178.28,0,0,0-67.81,74.27" transform="translate(-94.56 -546.55)"/><path class="cls-1" d="M901.87,608.07c-5.41,3.12-11.11,5.79-16,9.64-9.46,7.39-15.19,18.45-20.63,29.16" transform="translate(-94.56 -546.55)"/><path class="cls-1" d="M914.08,943.81a96.9,96.9,0,0,1,.33,20.85c-.13,1.43-.65,3.24-2.08,3.35" transform="translate(-94.56 -546.55)"/><path class="cls-1" d="M981.29,934.83c-3.7,5.88-3.57,12.58-3.69,19.53-.07,3.45.76,5.45,1.91,14.47" transform="translate(-94.56 -546.55)"/><path class="cls-1" d="M1156.81,1235.38c.11,9.78,1.87,19.45,3.63,29.07l4.56,25" transform="translate(-94.56 -546.55)"/><path class="cls-1" d="M1234.23,1228.94c1.15,6,2,14.84,3.5,22.18s5.06,32,4.55,36.84" transform="translate(-94.56 -546.55)"/><path class="cls-1" d="M1139.92,1236.89c-.4,17.71-.06,37.5.93,55.18" transform="translate(-94.56 -546.55)"/><path class="cls-1" d="M814.76,1166.7c-2.35,35.75,2.92,89.41,1.91,108.53" transform="translate(-94.56 -546.55)"/><path class="cls-1" d="M813.62,1204.89c-13.36-3.17-13.36-3.17-29.19-5.05-22.7-2.7-45.66-5.39-68.36-2.71,1.88-48.74,20.31-102.92,47-143.77,15.88-24.3,37-45.55,62.11-60.3a148.74,148.74,0,0,1,40.4-16.58c14.3-3.46,31.42-10.81,46.18-7.65,4.53,6.63,11,10.53,18.87,12.37a28.85,28.85,0,0,0,9.9.16,130.13,130.13,0,0,0,39-10.7c23-14.43,55-10.16,82-6.58a210.49,210.49,0,0,1,23.53,4.11c17.72,4.43,34,13.1,49,23.45,15.23,10.55,29.73,22.5,41.58,36.81,11.58,14,20.58,29.84,28.7,46,2.77,5.53,5.44,11.1,8.09,16.68,6.15,13,10.58,26.74,14.89,40.42,9.49,30.1,18.77,59.67,20.82,91.39a2.87,2.87,0,0,1-.16,1.43c-.71,1.48-5.2,1.54-6.74,1.88-3.6.77-7.27,1.36-10.92,1.91-9.76,1.47-19.6,2.43-29.44,3.2-19.56,1.53-39.19,2.36-58.63,5.19-4.72.69-9.42,1.48-14.1,2.41-7.66-27.5-14.71-53.49-22.38-81-2.16-7.76-4.35-15.59-8.23-22.65" transform="translate(-94.56 -546.55)"/><path class="cls-1" d="M732.64,1196.11c-3.77,20.16-4.39,56.58-3.3,77.06" transform="translate(-94.56 -546.55)"/><path class="cls-1" d="M802.25,1202.31a439.75,439.75,0,0,1-2.78,77.46" transform="translate(-94.56 -546.55)"/></svg>