<svg id="Layer_2" data-name="Layer 2" xmlns="http://www.w3.org/2000/svg" viewBox="0 0 731.06 633.52"><defs><style>.cls-1{fill:none;}.cls-1,.cls-2,.cls-3{stroke:#000;stroke-linecap:round;stroke-linejoin:round;stroke-width:2px;}.cls-2{fill:#666;}</style></defs><path class="cls-1" d="M916.78,633.32c4.34,39.39-.66,81.8-15.19,118.66-2.21,5.61-4.66,11.2-8.29,16-4.19,5.56-9.79,9.88-14.48,15-5,5.47-8.93,11.89-14.6,16.65-7,5.88-25.72,10.85-25.72,10.85a92.73,92.73,0,0,1-25.48-3.8,48.72,48.72,0,0,1-12.36-5.3,65.19,65.19,0,0,1-9.3-7.71c-13.49-12.71-27.05-25.85-35.93-42.12a143.22,143.22,0,0,1-8.67-20,316.61,316.61,0,0,1-18.53-95" transform="translate(-265.32 -500.06)"/><path class="cls-1" d="M917.42,636c1.46-2,2.24-4.41,3.37-6.62s2.81-4.35,5.19-5c2.59-.74,5.43.46,7.3,2.38a19.67,19.67,0,0,1,3.92,7,22.61,22.61,0,0,1,1.79,7.81c0,5.35-3.27,10.11-4.51,15.3-1,4.17-.65,8.52-.31,12.78l.82,10.22c.3,3.65.53,7.57-1.34,10.71a9.07,9.07,0,0,1-7.87,4.33c-3.13-.09-7.33-1.8-8.79-4.58" transform="translate(-265.32 -500.06)"/><path class="cls-1" d="M728.15,642.4c-.95-1.5-1.13-3.35-1.57-5.07s-1.29-3.54-2.94-4.2a4.92,4.92,0,0,0-3.32.06c-3.5,1.16-5.91,4.6-6.67,8.21s-.14,7.37.85,10.93c2,7.21,5.5,14.25,5.09,21.72-.23,4.18-1.68,8.31-1.14,12.46.5,3.78,3,7.51,6.76,8.39s9.69-2.19,9.46-6" transform="translate(-265.32 -500.06)"/><path class="cls-2" d="M728.66,639.88c-.91-6.39.68-12.88,3-18.93,3.82-10.15,9.77-19.73,18.34-26.4s19.94-10.12,30.53-7.76c-1.14-4.3.78-8.83,3.29-12.49A38.73,38.73,0,0,1,798,561.81c4-2,8.6-3.39,12.93-2.28,7.64,2,12.42,10.89,20.28,11.57,9.16.79,15.26-9.9,24.17-12.15,4.38-1.11,9-.05,13.26,1.42s8.47,3.38,11.62,6.58c6,6.07,7,15.32,7.67,23.83l-.1.28,12.91,12.15a59,59,0,0,1,8.29,8.95c4.33,6.21,6.1,13.79,7.78,21.16l2.16-2.58,2.39-21a107.08,107.08,0,0,0,1-16c-.31-8.69-2.72-17.17-5.63-25.36-2.56-7.19-5.51-14.24-8.68-21.18a44,44,0,0,0-5-8.92,46.57,46.57,0,0,0-5.81-5.94,131,131,0,0,0-12.48-10.45c-10.31-7.3-22.44-11.5-34.39-15.6l.83.24c-8.59-2.8-17.39-5.6-26.43-5.46-5.76.09-11.44,1.38-17.06,2.66-8.9,2-17.86,4.08-26.25,7.68-10.31,4.44-19.51,11.13-28,18.53-7.79,6.83-15.08,14.4-20.39,23.29A82.83,82.83,0,0,0,723,581.92a107.08,107.08,0,0,0,3.89,51.46Z" transform="translate(-265.32 -500.06)"/><path class="cls-1" d="M744,627.32c2.28-6.84,6.47-13.22,12.57-17.07s14.2-4.8,20.58-1.45" transform="translate(-265.32 -500.06)"/><path class="cls-1" d="M860.25,607.46c6.11-1.1,11.84-5.16,18-4.16,3.95.65,7.23,3.33,10.3,5.9,3.58,3,7.26,6.13,9.33,10.31" transform="translate(-265.32 -500.06)"/><path class="cls-1" d="M806.29,634.88a29.87,29.87,0,0,1-49.88,20.34c-4.2-3.81-12.58-13.64-12.58-13.64,3.8-4.5,9.85-6.28,15.53-7.85l11.49-3.16a90.67,90.67,0,0,1,16.69-3.24C803.05,626.08,806.29,634.88,806.29,634.88Z" transform="translate(-265.32 -500.06)"/><path class="cls-1" d="M813.77,653.58c-3.67,14.09-3.58,28.85-3.3,43.41.11,5.64.49,11.9,4.52,15.85a7.49,7.49,0,0,0,4.43,2.25,11.07,11.07,0,0,0,5.07-1.19l4.94-2" transform="translate(-265.32 -500.06)"/><path class="cls-3" d="M820.33,750.65a69,69,0,0,1,14.4-1,66.14,66.14,0,0,1,17,3.77c3.34,1.11,8.5,2.88,11.69,4a1,1,0,0,0,1.2-1.55c-6-9.06-13.23-17.88-23.53-20.86-9.39-2.72-19.7.13-27.89,5.46-7.44,4.85-13.41,11.57-19,18.5a.62.62,0,0,0,.74,1C800.21,757.41,812.8,751.8,820.33,750.65Z" transform="translate(-265.32 -500.06)"/><ellipse class="cls-2" cx="510.67" cy="147.24" rx="12.63" ry="12.5"/><ellipse class="cls-2" cx="604.88" cy="146.18" rx="12.63" ry="12.5"/><path class="cls-1" d="M841.89,633.4a29.87,29.87,0,0,0,49.88,20.34c4.21-3.81,12.58-13.64,12.58-13.64-3.8-4.5-9.84-6.29-15.53-7.85l-11.49-3.16a89.68,89.68,0,0,0-16.69-3.24C845.14,624.6,841.89,633.4,841.89,633.4Z" transform="translate(-265.32 -500.06)"/><path class="cls-1" d="M816.44,807.67a116.29,116.29,0,0,1-.05,22.31" transform="translate(-265.32 -500.06)"/><path class="cls-1" d="M860.1,802.41c-1.73,8.54-3,22.09-.34,30.39" transform="translate(-265.32 -500.06)"/><path class="cls-1" d="M995.38,1130.22c-2.88-30.08-2.89-60.34-3.89-90.54-.57-17.55-2.25-46.75-2.88-57.35a47.89,47.89,0,0,0-1.13-7.9q-5.64-24.37-12.16-48.53c-3.09-11.42-6.36-22.89-11.89-33.34a140.24,140.24,0,0,0-11.17-17.17c-7-9.5-14.46-18.79-23.69-26.13l-.44,0a33.38,33.38,0,0,0-31.17-15" transform="translate(-265.32 -500.06)"/><path class="cls-1" d="M929.44,989l5.45,28.72c.81,4.27,1.62,8.54,2.1,12.86.62,5.73.65,11.5.72,17.26q.52,42.43,4.2,84.76" transform="translate(-265.32 -500.06)"/><path class="cls-1" d="M929.84,991.16c-3.46-10.63-3.65-22-3.8-33.19q-.33-25.47-.68-50.94c-.25-18.86-.24-40.23,1.94-59" transform="translate(-265.32 -500.06)"/><path class="cls-1" d="M898,835.07c-1.19,21.32-2.39,42.69-1.4,64,.22,4.89.57,9.77,1.25,14.61a191,191,0,0,0,4.73,21.77c6,22.79,16.25,52.59,30.3,71.51" transform="translate(-265.32 -500.06)"/><path class="cls-1" d="M692.52,1110.21c-1.23-38.87,1.94-77.73,5.11-116.49,1-12.68,2.09-25.46,5.66-37.67,0,0,19.18-53.34,32.08-79.64,2.93-6,6-12,10.19-17.12s9.68-9.49,16.1-11.23c0,0,17.93-9.71,28-10.86l.19-.7a29.06,29.06,0,0,1,22.93-7.77,17.43,17.43,0,0,0,2.82-.06c2.58,4.35,5.39,8.92,9.9,11.2,3.11,1.58,6.71,1.88,10.2,1.91a36.65,36.65,0,0,0,13.65-2c4.32-1.68,10.46-6.93,10.46-6.93,8.28-.68,16.57-1.35,24.87-1.36,4.48,0,9.11.23,13.14,2.19" transform="translate(-265.32 -500.06)"/><path class="cls-1" d="M748.66,1117.55c-2.69-16.4,1.05-33.18.25-49.78a47.62,47.62,0,0,1,0-9.55c.51-3.26.77-11.12.05-14.34" transform="translate(-265.32 -500.06)"/><path class="cls-1" d="M763.7,847c.23,5.8-.2,12.84-.55,18.64-1.53,25.41-3.06,50.84-6.21,76.1a134.85,134.85,0,0,0-1.49,17.13c0,7.08,1.27,14.1,2,21.14a147.81,147.81,0,0,1,.76,19.85S752,1031.2,748,1048c-1.94,8.18-3.32,16.48-4.7,24.77l-8.14,49.06" transform="translate(-265.32 -500.06)"/><path class="cls-1" d="M789.61,837.2a272.18,272.18,0,0,1-1.37,33.54c-.72,7-1.68,13.9-2.71,20.82a567,567,0,0,1-27.7,110.26" transform="translate(-265.32 -500.06)"/><path class="cls-1" d="M687.64,947.94a123.9,123.9,0,0,1,10.23,37" transform="translate(-265.32 -500.06)"/><path class="cls-1" d="M624.11,803.34a46.61,46.61,0,0,0,12,28.86" transform="translate(-265.32 -500.06)"/><path class="cls-1" d="M591,833.53c5-10.5,4.45-23.54,1.6-34.8" transform="translate(-265.32 -500.06)"/><path class="cls-1" d="M480.11,1108.14c-.73-15.7,2.26-31.31,5.23-46.74,0,0,4.64-37.66,8.33-57.86,5.76-31.61,11.53-63.25,19.44-94.39,0,0,10.09-33.18,20.75-47.86a72.65,72.65,0,0,1,4.92-6.14c12.44-13.75,52.2-21.62,52.2-21.62.65,3.25,1.35,6.61,3.25,9.33,2.72,3.88,7.5,5.82,12.18,6.56a27,27,0,0,0,13.75-1.2,19.52,19.52,0,0,0,10.37-8.88c1.29-2.45,2-5.2,3.49-7.51,0,0,28.54.48,40.78,5.25,12,4.67,22,13.33,30.14,23.26s15.46,23.23,21.77,34.4" transform="translate(-265.32 -500.06)"/><path class="cls-1" d="M550.09,965.28c-1.91,22.69-5.33,45.22-8.76,67.74l-8.28,54.43c-1.19,7.85-2.39,15.74-2.22,23.68l.09-1.55" transform="translate(-265.32 -500.06)"/><path class="cls-1" d="M533.37,1085.33a127.94,127.94,0,0,0,3.52,26.56" transform="translate(-265.32 -500.06)"/><path class="cls-1" d="M696.57,624c-1.2,20.77.4,41.61-.4,62.39s-4.2,42-14.53,60.07a168.48,168.48,0,0,1-11.23,16.48c-5.84,7.88-11.72,15.77-18.49,22.85A72.07,72.07,0,0,1,638.67,797a52,52,0,0,1-24.75,8s-12.92-2.19-19.55-5.38a148.31,148.31,0,0,1-65.27-61.92,89.62,89.62,0,0,1-9.35-23.61c-1.89-8.56-2-17.4-2.11-26.16l-.78-63.21" transform="translate(-265.32 -500.06)"/><path class="cls-1" d="M696.66,624.29c2.77.29,5.73.65,7.81,2.49,2.44,2.14,3,5.77,2.54,9s-1.82,6.22-2.61,9.37c-2.95,11.72,1.83,24.58-2.17,36a5.59,5.59,0,0,1-1.62,2.65,2.24,2.24,0,0,1-2.88,0" transform="translate(-265.32 -500.06)"/><path class="cls-1" d="M515.53,640c-2.87-.85-6.1-1.65-8.74-.24a7.57,7.57,0,0,0-3.32,4c-1.14,3-.88,6.29-.18,9.39s1.83,6.09,2.42,9.22c1.06,5.61.33,11.42,1.19,17.07s5.3,11.6,10.81,13.11" transform="translate(-265.32 -500.06)"/><path class="cls-1" d="M531.83,613c3.17-6.85,10.11-11.06,16.89-14.38a22.51,22.51,0,0,1,4.7-1.85c4.65-1.09,9.45.65,13.92,2.37" transform="translate(-265.32 -500.06)"/><path class="cls-1" d="M651.57,602.26c2.93-1.3,6.14-2.63,9.24-1.83a14.13,14.13,0,0,1,3.32,1.49c5.72,3.17,11.67,6.57,15.15,12.11" transform="translate(-265.32 -500.06)"/><path class="cls-1" d="M625,647.27c3.05,1.58,5.75.62,9.16.18a7.55,7.55,0,0,1,3-.08c.65.18,1.22.58,1.86.78,2.83.91,5.47-1.94,8.41-2.37,2.53-.36,5,1.11,7.55,1a14.11,14.11,0,0,0,3.07-.65,41.54,41.54,0,0,1,12.45-1.44c2.18.08,4.52.29,6.35-.88" transform="translate(-265.32 -500.06)"/><path class="cls-1" d="M667.13,652.35c-7.64,4.09-16.19,6.95-24.84,6.42a11.85,11.85,0,0,1-4.26-.9,14.23,14.23,0,0,1-3.29-2.33l-11.25-9.68s-1.42-5.21-1.06-8c.59-4.66,4-8.45,7.5-11.57a41.32,41.32,0,0,1,11.28-7.47,22,22,0,0,1,13.3-1.45,24.74,24.74,0,0,1,4.86,1.75,28,28,0,0,1,6.63,4.13c5.93,5.13,8.47,13.06,10.74,20.56C676.74,643.84,670.93,650.32,667.13,652.35Z" transform="translate(-265.32 -500.06)"/><path class="cls-1" d="M577.5,649.86c-.88-1.4-.33-.67-1.6-1.73a5.32,5.32,0,0,0-4.55-1.36,8.57,8.57,0,0,1-1.93.44,9.49,9.49,0,0,1-1.55-.32c-2.07-.44-4.07.75-6,1.74-.4.2-.83.41-1.26.59-1.58.65-3.32,1-4.75.13-1.19-.69-2.06-2.17-3.46-2.15s-2.23,1.49-3.53,1.92-2.64-.24-4-.29a3.83,3.83,0,0,0-.83.08c-1.46.31-2.36,1.69-3.35,2.79-2.06,2.34-3.54,3.61-6.63,3.89" transform="translate(-265.32 -500.06)"/><path class="cls-1" d="M571.33,656.38a43.72,43.72,0,0,1-10.86,1.85,106.41,106.41,0,0,1-16.64.52c-3.77-.27-7.66-1-10.76-3.19,0,0-4.58-3.8-5.63-6.79a13.21,13.21,0,0,1,1-10.17,27.65,27.65,0,0,1,6.68-8,61.56,61.56,0,0,1,13.71-9.1,26.66,26.66,0,0,1,5.58-2.1,34.07,34.07,0,0,1,7.69-.56,15,15,0,0,1,5.22.64,12.45,12.45,0,0,1,3.69,2.41,21.88,21.88,0,0,1,5.78,7.49,31.53,31.53,0,0,1,1.93,8.66c.47,3.72.93,7.54,0,11.17C578.78,649.19,574.81,655.16,571.33,656.38Z" transform="translate(-265.32 -500.06)"/><path d="M566.5,638.14a13.4,13.4,0,0,1-5.84,11.08c-1.58.65-3.32,1-4.75.13-1.19-.69-2.06-2.17-3.46-2.15s-2.23,1.49-3.53,1.92-2.64-.24-4-.29a13.43,13.43,0,1,1,21.55-10.69Z" transform="translate(-265.32 -500.06)"/><path d="M643.57,647.27h0a13.42,13.42,0,1,1,11.53-.52s0,0,0,0H655Z" transform="translate(-265.32 -500.06)"/><path class="cls-1" d="M599.18,669.27a83.83,83.83,0,0,0-6.08,34.11c.08,2.62.53,5.65,2.8,7,1.63.95,3.67.67,5.5.26a14.76,14.76,0,0,0,6.35-2.66" transform="translate(-265.32 -500.06)"/><path d="M580.05,739.43a43.81,43.81,0,0,1,10.3-6.27,49.21,49.21,0,0,1,7.1-2.81c1.76-.51,3.57-.86,5.38-1.21,5.82-1.12,11.77-2.26,17.65-1.51a38.72,38.72,0,0,1,12.19,4,16.38,16.38,0,0,1,3.5,2.17,19,19,0,0,1,4.07,5.93,8,8,0,0,1,1.27,4.48,5.94,5.94,0,0,1-.69,2,15,15,0,0,1-12.6,8.1,36.4,36.4,0,0,1-6.73-.68c-10.84-1.56-21.86-.38-32.79.27-4.1.25-8.46.41-12.27-1.37-1.34-.63-2.72-1.58-2.69-3.22s1-3.15,1.78-4.48A21.3,21.3,0,0,1,580.05,739.43Z" transform="translate(-265.32 -500.06)"/><path class="cls-1" d="M514.8,581.23c-5.41,8.17-6.9,18.25-8.06,28q-1.41,11.71-2.46,23.47" transform="translate(-265.32 -500.06)"/><path class="cls-1" d="M512.71,595.25c-2,8.15-.85,16.76,1.17,24.9s4.9,16.1,6.34,24.36" transform="translate(-265.32 -500.06)"/><path class="cls-1" d="M512.92,690.13c-2.57,7.94.22,16.5.56,24.84.13,3.24-.12,6.5.25,9.73.26,2.31.84,4.57,1.32,6.85a179.43,179.43,0,0,1,2.7,19.49" transform="translate(-265.32 -500.06)"/><path class="cls-1" d="M524.85,734.15a61.59,61.59,0,0,1,7.08,29" transform="translate(-265.32 -500.06)"/><path class="cls-1" d="M540.18,754.9c1.27,4.26,2.14,11.55,2.57,16" transform="translate(-265.32 -500.06)"/><path class="cls-1" d="M547.54,764A80.22,80.22,0,0,1,551,785.5" transform="translate(-265.32 -500.06)"/><path class="cls-1" d="M562.55,778.79c2.25,4,3.72,12,4.31,16.58" transform="translate(-265.32 -500.06)"/><path class="cls-1" d="M576.63,789.47,578,801.64" transform="translate(-265.32 -500.06)"/><path class="cls-1" d="M698.24,684.3c1,7.72.1,15.6,1.07,23.32.4,3.11,1.1,6.19,1.28,9.31.31,5.11-.72,10.49,1.3,15.2" transform="translate(-265.32 -500.06)"/><path class="cls-1" d="M690.06,728.37a92.33,92.33,0,0,0,1.48,24.89" transform="translate(-265.32 -500.06)"/><path class="cls-1" d="M677.3,753.33c.39,2.08.77,5.57,1.16,7.65a5.22,5.22,0,0,1,.13,1.52,13.34,13.34,0,0,1-.38,1.51,7.1,7.1,0,0,0,0,2.68,19.45,19.45,0,0,0,2.33,6.86" transform="translate(-265.32 -500.06)"/><path class="cls-1" d="M661.39,774.79c-.79,2.09-.61,7.57-.25,9.77" transform="translate(-265.32 -500.06)"/><path class="cls-1" d="M497.13,672.81l-.5,47.51a107.25,107.25,0,0,1-.93,15.73c-1.54,9.74-5.71,18.84-9.83,27.79l-6.55,14.23c-2.6,5.64-5.24,11.36-9.25,16.1a69,69,0,0,1-9.43,8.72l-15.52,12.65a66.32,66.32,0,0,1-9.44,6.81c-8.21,4.58-22.18,5.67-22.18,5.67a145.15,145.15,0,0,1-54.14-9.69,60.5,60.5,0,0,1-10.18-4.85,74.88,74.88,0,0,1-10.95-8.94c-7.64-7.08-15.36-14.25-21.12-22.92a102.15,102.15,0,0,1-7.76-14.52,177.92,177.92,0,0,1-8-20.8,151.15,151.15,0,0,1-6.2-57.57" transform="translate(-265.32 -500.06)"/><path class="cls-1" d="M497.13,683.77c2.81,3.2,7.18,2.85,8.26,7,.83,3.19-1.39,6.34-1.81,9.61-.59,4.53,2.27,8.76,3,13.27.82,5.22-5.25,16.9-10.3,15.88" transform="translate(-265.32 -500.06)"/><path class="cls-1" d="M294.63,690c-3.45,1.19-9.84,2.36-12.71,4.61s-5,5.73-4.72,9.37c.65,7.61,10.88,11.15,12.64,18.59.56,2.37.16,4.86.28,7.3.29,5.91,4.53,12,10.43,12.49" transform="translate(-265.32 -500.06)"/><path class="cls-1" d="M326.18,660.16a24.38,24.38,0,0,1,10.47-10.82,41.76,41.76,0,0,1,14.53-4.54,34.79,34.79,0,0,1,12.75.19,18,18,0,0,1,10.62,6.67" transform="translate(-265.32 -500.06)"/><path class="cls-1" d="M436.8,650.08A24.58,24.58,0,0,1,454.85,645a52.21,52.21,0,0,1,9.18.7,26.32,26.32,0,0,1,17.54,12.62" transform="translate(-265.32 -500.06)"/><path class="cls-1" d="M388.55,702.43c.66,5.52,1.3,11.25-.45,16.52-.5,1.49-1.18,2.92-1.7,4.4a21.88,21.88,0,0,0,.28,15.11" transform="translate(-265.32 -500.06)"/><path class="cls-1" d="M371,726c-1.17,3.32-2.36,6.78-2,10.28a23.5,23.5,0,0,0,2.61,7.41" transform="translate(-265.32 -500.06)"/><path class="cls-1" d="M413.74,720.87l5.14,5.88a9.59,9.59,0,0,1,1.56,2.15A7.75,7.75,0,0,1,421,731a15.75,15.75,0,0,1-4,12.91" transform="translate(-265.32 -500.06)"/><path d="M375.34,791.65c-6.14-.53-10.61-7.1-10.11-13.26s4.95-11.45,10.35-14.44a26.92,26.92,0,0,1,11.92-3.32c4.73-.18,9.5.9,14.18.21,4.91-.72,9.88-3.36,14.59-1.8,2.66.88,4.72,3,6.67,5l8.06,8.37c1.82,1.89,3.77,4.09,3.7,6.71a7,7,0,0,1-2.07,4.45c-3.24,3.48-8.34,4.62-13.1,4.44-7-.25-13.67-2.79-20.71-2.23-2.22.18-4.48.17-6.68.54a24.23,24.23,0,0,0-6.31,2.29C382.55,790.18,379.09,792,375.34,791.65Z" transform="translate(-265.32 -500.06)"/><path class="cls-1" d="M383.42,825.28c3.12,10.28-.82,23.44-6.75,32.4" transform="translate(-265.32 -500.06)"/><path class="cls-1" d="M415.08,828c-.68,5.44,1.12,12.37,1.92,17.8.85,5.78,1.78,10.84,5.44,14.93" transform="translate(-265.32 -500.06)"/><path class="cls-1" d="M459.56,867.81c.06,29.57,4.57,61.78,3,91.31-.26,4.84-.65,9.85,1,14.41a33.54,33.54,0,0,0,5.22,8.62l9.82,13.09" transform="translate(-265.32 -500.06)"/><path class="cls-1" d="M486.51,1052.2c-.91-2.81-2.4-17-2.69-19.94-1.17-11.89-4.8-35.41-4.8-35.41-.32-21.55,6-42.71,6.64-64.25.11-3.75-.09-7.51,0-11.27.17-6.82.59-12.08,1.3-18.54,1.08-9.89,2.14-17.14.51-26.22" transform="translate(-265.32 -500.06)"/><path class="cls-1" d="M361.79,860.35c.28,8.14.92,17.1.74,25.25-.62,28-.55,56.55-7.55,83.69-1.2,4.67-2.61,9.36-5.11,13.49s-6.19,7.7-10.78,9.17l-.72-.2c-.35-3.35-3.75-5.42-5.52-8.28-1.37-2.21-1.73-4.88-2-7.46a154.5,154.5,0,0,1-.76-20.63c.12-4.1.41-8.2.69-12.29l1.7-24.27L333.3,907c.84-12.08.05-25.39.9-37.47" transform="translate(-265.32 -500.06)"/><path class="cls-1" d="M338.37,991.75c-4.6,30.94-8.07,62.64-9,93.9" transform="translate(-265.32 -500.06)"/><path class="cls-1" d="M266.32,1098.82c.09-8,.43-15.92.76-23.88l.4-9.52c.33-7.89.66-15.77,1.08-23.66q1.51-29,4.55-57.88s.67-15.89,2.75-24.83a134.69,134.69,0,0,1,5.05-15.78l4.9-13.38c1.36-3.71,2.72-7.42,4.38-11,5.43-11.78,13.89-21.87,22.5-31.57,5.88-6.63,12.13-13.33,20.24-16.91,0,0,6.17-4.33,9.69-6.4,4.6-2.71,8.21-3.3,14.74-3.93a14.41,14.41,0,0,1,4.43.28c2.83-.34,5.61-1.08,8.45-1.36a45.83,45.83,0,0,0,6.43-1.31c4.45,4.37,9.13,8.65,14.71,11.44s12.22,4,18.12,1.93c5.29-1.83,9.41-6,12.94-10.35a83.17,83.17,0,0,1,9.43-1.5,20.67,20.67,0,0,1,5,.44,71,71,0,0,1,21.66,7.73l1,.44c4.26-.71,8.61-1.42,12.86-.67,4.76.85,9,3.49,12.76,6.56l2.34,2.09a36.67,36.67,0,0,1,15.67,8.84c4.47,4.1,9.4,11.09,12.64,16.21" transform="translate(-265.32 -500.06)"/><path class="cls-1" d="M379.56,609.28a83.66,83.66,0,0,0-9.69,5.74,33.92,33.92,0,0,0-.49,6.12c0,2.31.33,4.75,1.76,6.56s4.27,2.66,6.1,1.25" transform="translate(-265.32 -500.06)"/><path class="cls-1" d="M369.69,601a53.42,53.42,0,0,1,11-2.31c1.54,2.82,2.93,5.82,3.11,9s-1.11,6.67-3.89,8.27c-1.56.91-3.76,1.05-5-.26" transform="translate(-265.32 -500.06)"/><path class="cls-1" d="M385.36,598.15a63.67,63.67,0,0,1,9.91,3.57c-.1,3.57.18,7.18-.55,10.67s-2.7,7-6,8.37a1.36,1.36,0,0,1-.94.14c-.31-.1-.53-.49-.35-.75" transform="translate(-265.32 -500.06)"/><path class="cls-1" d="M408.41,602.88l-9.85-.06a9.05,9.05,0,0,0-4.71.83A5.73,5.73,0,0,0,391.4,607c-.92,3.13.25,6.54,2.09,9.25a7,7,0,0,0,9.15,3.28,14.28,14.28,0,0,0,6.05-3.59,8.77,8.77,0,0,0,2.53-6.43,6.35,6.35,0,0,0-3.85-5.52,5,5,0,0,0-6.11,2.19" transform="translate(-265.32 -500.06)"/><path class="cls-1" d="M410.2,614.27l9.55,4.77c-1.07,4.26-6.88,6-8,10.2a7.17,7.17,0,0,0,1.15,5.52,21.39,21.39,0,0,0,4,4.22" transform="translate(-265.32 -500.06)"/><path class="cls-1" d="M427.87,591.52c-1.9,5.08-6.23,9.41-6.24,14.83a19.69,19.69,0,0,0,1.68,6.82c.6,1.59,1.47,3.42,3.14,3.72a4.22,4.22,0,0,0,2.62-.6,13.17,13.17,0,0,0,6.49-8,5.1,5.1,0,0,0-2.42-6.32,8.68,8.68,0,0,0-7-1.53,2.45,2.45,0,0,0-1.76,4.06c1.73,2.75,5.23,4,8.48,3.85s6.34-1.36,9.36-2.58" transform="translate(-265.32 -500.06)"/><path class="cls-1" d="M439.55,604.72A72.61,72.61,0,0,0,430.4,611c1.18,1.37,1.29,3.35,2.12,5a6.24,6.24,0,0,0,6.41,3.25,24.81,24.81,0,0,1,3.36-.71c1.15,0,2.46.67,2.51,1.82a3,3,0,0,1-.29,1.24l-1.89,4.85a9.2,9.2,0,0,1-2.34,3.89,6.71,6.71,0,0,1-5,1.16c-2.13-.22-4.45-1.28-5-3.34a4.29,4.29,0,0,1,1.52-4.27,7.55,7.55,0,0,1,4.44-1.56" transform="translate(-265.32 -500.06)"/><path class="cls-1" d="M448.67,606.22c-1.39,2.34-2.71,4.73-3.95,7.15a7.08,7.08,0,0,0-.74,1.88c-.34,1.71.53,3.4,1.38,4.93a6,6,0,0,0,2.55,2.88,4.79,4.79,0,0,0,2.38.22,13.18,13.18,0,0,0,8.24-4.11,26.61,26.61,0,0,0,3.6-5.5,9.9,9.9,0,0,0,1.5-4.16,9.65,9.65,0,0,0-1-4c-.5-1.25-1-2.5-1.53-3.74a1.71,1.71,0,0,0-.6-.87,1.47,1.47,0,0,0-1.2,0c-2.79.85-4.48,3.8-4.88,6.69a4.38,4.38,0,0,0,.45,3.07c1.08,1.62,3.43,1.57,5.36,1.35" transform="translate(-265.32 -500.06)"/><path class="cls-1" d="M473,640.4l-8.76-2.78a7.81,7.81,0,0,1-2.75-1.29c-1.75-1.48-1.84-4.14-1.44-6.39a22.63,22.63,0,0,1,4.53-10.05c.77-1,1.66-2,1.69-3.21a4.7,4.7,0,0,0-.63-2.11,29.11,29.11,0,0,0-5.08-7.26c-.81-.85-2.35-1.59-3-.6.51,2.16,3.31,2.65,5.53,2.7l7.41.14a5.67,5.67,0,0,1,3.19.71c1.6,1.14,1.56,3.52,1,5.39-1.06,3.46-3.56,6.61-7,7.72s-7.71-.29-9.25-3.55" transform="translate(-265.32 -500.06)"/><path class="cls-1" d="M470.84,635.82a26.84,26.84,0,0,1,2.61-15.22,7.44,7.44,0,0,1,2-2.73,6.12,6.12,0,0,1,2.87-1,12.52,12.52,0,0,1,8.2,2.2,9,9,0,0,1,3.23,3.3,4.61,4.61,0,0,1,0,4.47,6.16,6.16,0,0,1-2,1.83,9.86,9.86,0,0,1-4.17,1.65,6.39,6.39,0,0,1-5.72-2.44,5.81,5.81,0,0,1-.44-6.14,5.31,5.31,0,0,1,5.51-2.58,3.15,3.15,0,0,1,1.44.65,3.4,3.4,0,0,1,1,2.61,19.71,19.71,0,0,1-1.11,5,6.37,6.37,0,0,0,.3,4.95" transform="translate(-265.32 -500.06)"/><path class="cls-1" d="M478.79,621.92q-3.21,4.85-6.15,9.85a3.87,3.87,0,0,0-.52,1.2,3.8,3.8,0,0,0,.34,1.86,9.09,9.09,0,0,0,2.4,4.06,8,8,0,0,0,5.1,1.3,11.8,11.8,0,0,0,4.49-.73,5.32,5.32,0,0,0,3.12-3.14" transform="translate(-265.32 -500.06)"/><path class="cls-1" d="M486.16,631.81a35.63,35.63,0,0,0-3.92,9.07" transform="translate(-265.32 -500.06)"/><path class="cls-1" d="M484.36,635.58c-1.65,3.16-4.05,6-4.8,9.49a10.9,10.9,0,0,0,3.08,10,21.24,21.24,0,0,0,6.74,3.84" transform="translate(-265.32 -500.06)"/><path class="cls-1" d="M489.17,657.09A109.25,109.25,0,0,0,492,668.18a13.72,13.72,0,0,0,4.73,1,9.68,9.68,0,0,1,3.36.35,2.26,2.26,0,0,1,1.51,2.67" transform="translate(-265.32 -500.06)"/><path class="cls-1" d="M487.15,648.21a36.81,36.81,0,0,0,5.66,3.26,9.67,9.67,0,0,1,4.58,4.5,11.44,11.44,0,0,1,.63,3.45l.84,10.1" transform="translate(-265.32 -500.06)"/><path class="cls-1" d="M488.13,658.36,491,649.7a8.78,8.78,0,0,1,1.14-2.51c1.46-2,4.23-2.36,6.31-3.68a3,3,0,0,0,1.6-2.19,3.5,3.5,0,0,0-1.24-2.42c-.67-.7-1.37-1.36-2.1-2a4.23,4.23,0,0,0-1.62-1,4.59,4.59,0,0,0-2.57.35c-2.47.85-5.22,2-6.13,4.42a5.54,5.54,0,0,0,.55,4.6,10.38,10.38,0,0,0,3.35,3.34" transform="translate(-265.32 -500.06)"/><path class="cls-1" d="M488.14,611q3.09,3.79,6.1,7.67a3.88,3.88,0,0,1,.74,1.23,3.65,3.65,0,0,1,.06,1.32,16.12,16.12,0,0,1-.68,3.44c-.61,2-1.6,4-1.05,6s2.43,3.2,4.17,4.25" transform="translate(-265.32 -500.06)"/><path class="cls-1" d="M482.58,607.24c2.69-.83,5.42-1.59,8.16-2.26a5.4,5.4,0,0,1,2-.22,5.23,5.23,0,0,1,1.67.67,15.25,15.25,0,0,1,4.16,2.88c2,2.19,2.57,5.3,3,8.23a6.26,6.26,0,0,1,0,3.16,4.76,4.76,0,0,1-3,2.59,14.93,14.93,0,0,1-7.34.29,12.76,12.76,0,0,1-6-2.29,5.65,5.65,0,0,1-2.13-5.71c.74-2.54,3.63-3.82,6.27-4.06" transform="translate(-265.32 -500.06)"/><path class="cls-1" d="M468.66,601.93q3.38-2.35,6.9-4.49a6.31,6.31,0,0,1,2.19-1,6.1,6.1,0,0,1,3.62.84,8.2,8.2,0,0,1,3,2.16c1.51,1.95,1.14,4.8.06,7a13.27,13.27,0,0,1-5.48,5.79,5.91,5.91,0,0,1-6.72,0c-2.91-1.74-5.14-5.13-4.37-8.42a8.29,8.29,0,0,1,4.71-5.24,33.31,33.31,0,0,1,7-2,16.26,16.26,0,0,0,6.64-2.82" transform="translate(-265.32 -500.06)"/><path class="cls-1" d="M467.65,588a84.14,84.14,0,0,1,21.14-1.4,1.72,1.72,0,0,1,1.26.41c.4.46.21,1.16,0,1.72a18.56,18.56,0,0,1-5.39,7.13,4.22,4.22,0,0,0-1.64,1.87,2.57,2.57,0,0,0,1.16,2.72,6.69,6.69,0,0,0,3,.9,35.49,35.49,0,0,0,10.34-.3" transform="translate(-265.32 -500.06)"/><path class="cls-1" d="M474.68,606a36.7,36.7,0,0,1-6.83-8.11c-1.72-3.1-2.51-6.91-1.27-10.23,1.14-3.06,3.78-5.27,6.31-7.33a4.28,4.28,0,0,1,1.94-1.09c1.51-.26,2.79,1,3.76,2.19.57.67,1.16,1.57.77,2.35a2.29,2.29,0,0,1-.95.84l-2.12,1.26c-1.42.83-3,1.7-4.59,1.6a5.13,5.13,0,0,1-3-1.27c-3.06-2.57-3.07-7.8-.33-10.72s7.53-3.41,11.07-1.53" transform="translate(-265.32 -500.06)"/><path class="cls-1" d="M454.47,581.41l-9.25,6a16.75,16.75,0,0,0,5.27-.55c2.56-.68,5.2-2,7.73-1.18a9.8,9.8,0,0,1,3.94,3,10,10,0,0,1,2.08,2.85c1.58,3.83-2,8-1.67,12.09a2.58,2.58,0,0,0,.62,1.66,1.2,1.2,0,0,0,1.62.16" transform="translate(-265.32 -500.06)"/><path class="cls-1" d="M455.57,572.34a39.9,39.9,0,0,1-.33,22.86,18.78,18.78,0,0,1-3.91,7.33,9.36,9.36,0,0,1-7.43,3.2,7.6,7.6,0,0,1-6.7-7,2.39,2.39,0,0,1,.29-1.44,2.88,2.88,0,0,1,1.7-1c2.86-.82,6.23-1.55,8.57.28,1.66,1.3,2.26,3.51,2.76,5.57" transform="translate(-265.32 -500.06)"/><path class="cls-1" d="M449.39,570.27a65.91,65.91,0,0,1,.82,9.91,51.41,51.41,0,0,0-9.8,10.29,5.63,5.63,0,0,0-1.41,3.69,3.77,3.77,0,0,0,3,3,7.75,7.75,0,0,0,4.42-.54,16.7,16.7,0,0,0,7.57-5.86" transform="translate(-265.32 -500.06)"/><path class="cls-1" d="M453.24,572.25l-8-3.65a10.68,10.68,0,0,0-2.5-.9,9.39,9.39,0,0,0-5.56,1.19,20.83,20.83,0,0,0-8.56,6.9,11.69,11.69,0,0,0-1.53,10.58,4.82,4.82,0,0,0,2.81,3,5.49,5.49,0,0,0,4.11-.87,18.91,18.91,0,0,0,4.5-3.55,3.93,3.93,0,0,0,1.22-2.16c.17-1.61-1.38-2.83-2.75-3.69-1.55-1-3.21-2-5-2" transform="translate(-265.32 -500.06)"/><path class="cls-1" d="M432.13,588.5a34.05,34.05,0,0,1-1,9.85c-3.74.9-7.57,1.81-11.39,1.4-2-.21-4.25-1-4.89-3a5.35,5.35,0,0,1,.14-3.14,17.93,17.93,0,0,1,5.51-8.7,2,2,0,0,1,1.71-.66,2,2,0,0,1,1,.76c1.77,2.14,3.51,4.77,2.95,7.49" transform="translate(-265.32 -500.06)"/><path class="cls-1" d="M434,587l-9.92-8.37c-1.57-1.32-3.25-2.87-3.38-4.92s1.2-3.62,2.5-5.05a67.86,67.86,0,0,1,5.57-5.42c1-.87,2.47-1.76,3.58-1a2.58,2.58,0,0,1,.94,1.58,7,7,0,0,1-4.34,8" transform="translate(-265.32 -500.06)"/><path class="cls-1" d="M426.13,573.06q-.31-4.24-.4-8.51a2.36,2.36,0,0,1,.94-2.28c4.79-4.58,10.45-8.52,16.92-10" transform="translate(-265.32 -500.06)"/><path class="cls-1" d="M435,569.76l10.37-7.6" transform="translate(-265.32 -500.06)"/><path class="cls-1" d="M425.11,575.6c-4.47,1.36-8.61,3.69-13.13,4.85s-9.83.93-13.22-2.29c-1.84-1.74-2.91-4.63-1.7-6.85a6.88,6.88,0,0,1,3.79-2.85,17.82,17.82,0,0,1,4.49-1.07c1.75-.19,3.83.06,4.71,1.57a4.61,4.61,0,0,1,.36,2.82,16.58,16.58,0,0,1-3.27,8.11" transform="translate(-265.32 -500.06)"/><path class="cls-1" d="M419.55,571a93.64,93.64,0,0,1-10.67-5.52c.46-1.07-.52-2.2-.62-3.35-.16-1.83,1.8-3.06,3.54-3.65a26.89,26.89,0,0,1,7.8-1.4,3.8,3.8,0,0,1,2.49.56,3.6,3.6,0,0,1,1,1.61,14.12,14.12,0,0,1,.48,7.78" transform="translate(-265.32 -500.06)"/><path class="cls-1" d="M403.12,565a18.81,18.81,0,0,0-4.45,3.77,10.33,10.33,0,0,1-4.87,3.1c-1.91.41-4.21-.44-4.84-2.29a4.59,4.59,0,0,1,0-2.52,9.66,9.66,0,0,1,6.4-6.7,12.13,12.13,0,0,1,9.37,1c.66.35,1.39,1,1.23,1.69a1.8,1.8,0,0,1-.61.86,20.22,20.22,0,0,1-5.38,3.63,6.1,6.1,0,0,1-2.66.71A2.59,2.59,0,0,1,395,567" transform="translate(-265.32 -500.06)"/><path class="cls-1" d="M401.75,560.91a24.83,24.83,0,0,0-2.42-8.25,33,33,0,0,0-11.77,3.73c-2.11,1.15-4.24,2.72-4.82,5.05s.64,4.89,1.87,7.06" transform="translate(-265.32 -500.06)"/><path class="cls-1" d="M386.37,572q-4.44,2.22-9,4.27a12.59,12.59,0,0,1-4.82,1.42,4.46,4.46,0,0,1-4.21-2.26c-.8-1.74,0-3.77,1-5.4a28.19,28.19,0,0,1,7.66-8.29c1.56-1.12,3.64-2.09,5.31-1.16" transform="translate(-265.32 -500.06)"/><path class="cls-1" d="M375.77,570a101,101,0,0,0,.1,11.93A14.69,14.69,0,0,0,392,577.21" transform="translate(-265.32 -500.06)"/><path class="cls-1" d="M388.17,574.84a65.37,65.37,0,0,0-4.9,9.34c.39,1.74,2.27,2.83,4.06,2.91a12.46,12.46,0,0,0,5.16-1.3l5.83-2.41c1.71-.71,3.93-1.33,5.23,0a4.8,4.8,0,0,1,1,3.09c.2,2.88.39,5.91-.82,8.53a8.56,8.56,0,0,1-15.2.65" transform="translate(-265.32 -500.06)"/><path class="cls-1" d="M410,582.55c-4.07,2.66-8.35,5.56-10.29,10-.33.77-.5,1.83.19,2.3a1.89,1.89,0,0,0,1.18.19c2.49-.14,5-.67,7.46-.39a9.56,9.56,0,0,1,7.5,5,7.12,7.12,0,0,1-1.66,8.5" transform="translate(-265.32 -500.06)"/><path class="cls-1" d="M394.1,589c-1.77,3.66-3.68,7.49-7.05,9.77a17.18,17.18,0,0,1-5.26,2.25,6.86,6.86,0,0,1-4.6.06c-1.46-.66-2.33-2.16-3.11-3.57-1.31-2.38-2.63-5.31-1.3-7.68a5.85,5.85,0,0,1,3.46-2.51,10.49,10.49,0,0,1,6.69.16,3.23,3.23,0,0,1,2,1.59,3.32,3.32,0,0,1,.05,2,13.74,13.74,0,0,1-1.67,4.3" transform="translate(-265.32 -500.06)"/><path class="cls-1" d="M383.59,597.35c-1,2.7-2.1,5.37-3.22,8a4.34,4.34,0,0,1-3,3c-3.78,1.67-7.74,3.37-11.86,3.16a5.56,5.56,0,0,1-3-.88,4.52,4.52,0,0,1-1.68-3.67,9.63,9.63,0,0,1,1-4c1.27-2.79,3.51-5.57,6.57-5.77" transform="translate(-265.32 -500.06)"/><path class="cls-1" d="M371.23,578.92c.31,4.56.51,9.52-2.11,13.27a14.69,14.69,0,0,1-5.94,4.64,10.9,10.9,0,0,1-4.91,1.27,7.57,7.57,0,0,1-6.78-5.51,9,9,0,0,1,2.45-8.58,5,5,0,0,1,2-1.29,3.86,3.86,0,0,1,4.38,2.26,5.36,5.36,0,0,1-.71,5.09" transform="translate(-265.32 -500.06)"/><path class="cls-1" d="M369.93,578.64l-8.06,2.81a6.22,6.22,0,0,1-3.19.51c-1.87-.37-2.94-2.3-3.68-4.05a25.51,25.51,0,0,1-2.38-9.06,11.56,11.56,0,0,1,3.08-8.62,4.36,4.36,0,0,1,2.19-1.27,2.15,2.15,0,0,1,2.23.9" transform="translate(-265.32 -500.06)"/><path class="cls-1" d="M349.9,578.53c4.53-1.76,9.12-3.55,13.06-6.4a11.79,11.79,0,0,0,3.24-3.21,5.6,5.6,0,0,0,.79-4.4,3.66,3.66,0,0,0-3.33-2.69c-1.49,0-2.75,1.08-3.78,2.16a33.68,33.68,0,0,0-5.24,7.24,5,5,0,0,0-.67,1.86,1.81,1.81,0,0,0,.78,1.71" transform="translate(-265.32 -500.06)"/><path class="cls-1" d="M355.1,578.74,347,586.47a29,29,0,0,0-3.21,3.44,12.53,12.53,0,0,0-2.39,5.58c-.31,2,.15,4.41,1.93,5.4,1.53.85,3.42.35,5.15.08,2.68-.42,5.87,0,7.27,2.35.54-2.12,1-4.63-.42-6.3a4.69,4.69,0,0,0-3.85-1.42,14,14,0,0,0-4.08,1.11c-.9.34-2,.94-1.86,1.9" transform="translate(-265.32 -500.06)"/><path class="cls-1" d="M360.56,601.4q-3.57,3.12-7.23,6.12a5.65,5.65,0,0,1-1.94,1.19,10.06,10.06,0,0,1-1.82.22A6.85,6.85,0,0,0,347.45,622a10.07,10.07,0,0,0,5.73.49A8.55,8.55,0,0,0,358.3,620c2.6-3,1.37-7.7,3-11.29" transform="translate(-265.32 -500.06)"/><path class="cls-1" d="M355.25,619.88,352,610.59a3.11,3.11,0,0,0-2.55-2.43,28.26,28.26,0,0,0-7.58-1.28,14.06,14.06,0,0,0-6.4,1,7.08,7.08,0,0,0-4.08,4.83c-.27,1.43.22,3.17,1.57,3.72" transform="translate(-265.32 -500.06)"/><path class="cls-1" d="M355,623.16q-1.51,3.54-3.36,6.92c-.79,1.46-1.81,3-3.43,3.37a4.08,4.08,0,0,1-3.9-1.74,12,12,0,0,1-1.75-4.11l-1.27-4.5a3.05,3.05,0,0,1,0-2.53c.75-1.11,2.51-.73,3.59.07" transform="translate(-265.32 -500.06)"/><path class="cls-1" d="M338,620.64c-.39,3.58-.08,7.2-.24,10.81s-.86,7.32-3,10.24-5.95,4.82-9.41,3.8a7.22,7.22,0,0,1-4.81-8.33" transform="translate(-265.32 -500.06)"/><path class="cls-1" d="M329.94,626.72q-2.93,3.94-5.52,8.11c1.52,1,3.49.1,5.06-.76a30.25,30.25,0,0,0,6.82-4.6,14.9,14.9,0,0,0,3.09-4.36c.26-.53.42-1.29-.08-1.6a1.11,1.11,0,0,0-.72-.12,9.45,9.45,0,0,0-5.69,2.68,25.43,25.43,0,0,0-3.94,5c-.67,1-1.36,2.33-.83,3.46" transform="translate(-265.32 -500.06)"/><path class="cls-1" d="M330.94,621.64a88.78,88.78,0,0,1-11.24,1.65,9.49,9.49,0,0,1-2.69-6.23,17.09,17.09,0,0,1,1.12-6.81,15.65,15.65,0,0,1,2.57-4.84,1.15,1.15,0,0,1,.82-.53,1.13,1.13,0,0,1,.6.24,7.42,7.42,0,0,1,2.91,7,11.9,11.9,0,0,1-3.76,6.9" transform="translate(-265.32 -500.06)"/><path class="cls-1" d="M337.74,601.11a16.16,16.16,0,0,1-4.65,3.32,6.44,6.44,0,0,1-5.54-.06,7.2,7.2,0,0,1-3.14-4.77,13.08,13.08,0,0,1,.95-8.6c.72-1.5,1.9-3,3.53-3.21a6.4,6.4,0,0,1,2.63.32,13.38,13.38,0,0,1,4,1.55,4.57,4.57,0,0,1,2.21,3.54,5.54,5.54,0,0,1-1.46,3.46,15.8,15.8,0,0,1-6.26,4.77,1.89,1.89,0,0,1-1.33.19,2,2,0,0,1-.92-.93q-1.41-2.27-2.65-4.62" transform="translate(-265.32 -500.06)"/><path class="cls-1" d="M345.89,587c-3.73,1.72-6.82,5.07-10.9,5.54a4.62,4.62,0,0,1-4.08-1.26c-1.05-1.22-1-3-.84-4.62a18.75,18.75,0,0,1,2.47-8.29c1.57-2.45,4.32-4.31,7.23-4.12a3.76,3.76,0,0,1,3.53,2.37,4.09,4.09,0,0,1-1.22,3.66,8.78,8.78,0,0,1-8.68,2.58,8.11,8.11,0,0,1-5.78-6.85c-.29-3.1,1.32-6,2.87-8.72" transform="translate(-265.32 -500.06)"/><path class="cls-1" d="M345.15,586a84.17,84.17,0,0,1-5.27-10.48,3,3,0,0,1-.32-1.31,3.27,3.27,0,0,1,.37-1.17l2.77-5.82" transform="translate(-265.32 -500.06)"/><path class="cls-1" d="M348.79,563l-2.58,9.66a5.69,5.69,0,0,0-.22,3.28c.55,1.63,2.45,2.49,3,4.11.63,1.79-.59,3.66-1.84,5.09a40.53,40.53,0,0,1-5.94,5.55c-1.52,1.16-3.66,2.23-5.22,1.11" transform="translate(-265.32 -500.06)"/><path class="cls-1" d="M330.2,597.93c-2.5.65-4.58,2.34-6.9,3.48s-5.31,1.65-7.33,0c-1.33-1.07-1.91-2.8-2.41-4.43-.58-1.91-1.15-4-.5-5.85a7.84,7.84,0,0,1,2.52-3.25,19.94,19.94,0,0,1,8.15-4.09,3.61,3.61,0,0,1,2.67.12,2.64,2.64,0,0,1,1.14,1.87c.32,2.1-1.18,4.1-3,5.17a28.16,28.16,0,0,1-6,2.06,14.28,14.28,0,0,0-5.8,3.18,7.79,7.79,0,0,0-2.53,5.95c.1,1.47.7,2.93.35,4.35-.56,2.29-3.37,3.32-5.69,3a8.64,8.64,0,0,1-7.1-7.33" transform="translate(-265.32 -500.06)"/><path class="cls-1" d="M314.37,601.82c-3.91,3.95-8,8.24-9.08,13.69-.54,2.7,0,6,2.48,7.25s5.56-.35,7.56-2.33a8.19,8.19,0,0,0,2.37-3.67,3.77,3.77,0,0,0-1.24-4,4.23,4.23,0,0,0-4.6.34c-2.49,1.65-3.67,4.61-5.19,7.17a25.68,25.68,0,0,1-4.82,5.92,5.3,5.3,0,0,1-2.79,1.57,2.13,2.13,0,0,1-2.44-1.59" transform="translate(-265.32 -500.06)"/><path class="cls-1" d="M300.83,611.78q-.37,4.31-.51,8.63a5.89,5.89,0,0,0,.33,2.64c.79,1.74,3,2.33,4.93,2.05s3.64-1.19,5.51-1.6,4.11-.16,5.23,1.39a5.86,5.86,0,0,1,.85,2.24,17.86,17.86,0,0,1-.18,9,13.5,13.5,0,0,1-7.91,8.38c-1.49.57-3.46.73-4.4-.56-.74-1-.45-2.43-.1-3.64.54-1.89,1.21-3.88,2.72-5.14s4.13-1.38,5.23.25c1.37,2-.45,5.12.92,7.17" transform="translate(-265.32 -500.06)"/><path class="cls-1" d="M298.28,632.28l-4.47,5.89a5.43,5.43,0,0,0-1.26,2.42c-.2,1.47.84,2.85,2,3.74a39,39,0,0,1,3.67,2.52,6.48,6.48,0,0,1,1,7.83,4.18,4.18,0,0,1-1.69,1.62,4.35,4.35,0,0,1-4-.47c-3.18-1.91-4.39-5.92-4.62-9.61-.27-4.31.43-8.61.49-12.92" transform="translate(-265.32 -500.06)"/><path class="cls-1" d="M297.83,649.79l-10,12.23a6.38,6.38,0,0,0-1.37,2.23,2.18,2.18,0,0,0,.69,2.37,2.71,2.71,0,0,0,1.54.36c1.42,0,2.84-.3,4.26-.19a3.89,3.89,0,0,1,3.47,2.1,4.77,4.77,0,0,1-.11,3.05,28.24,28.24,0,0,1-5.42,10.4,4,4,0,0,1-1.81,1.43,2.93,2.93,0,0,1-3.24-1.87,8.26,8.26,0,0,1-.28-4" transform="translate(-265.32 -500.06)"/><path class="cls-1" d="M292.49,658.37a72.47,72.47,0,0,0-.71,10.3l4.09-.83c2.55-.52,5.58-.91,7.42.93a5.24,5.24,0,0,1,1.34,4.08,13.44,13.44,0,0,1-1.19,4.23c-1.28,3.06-3,6.27-6.11,7.51" transform="translate(-265.32 -500.06)"/><path class="cls-1" d="M299.78,648.77a59.88,59.88,0,0,1,6.47,8.24,11.19,11.19,0,0,1-3.86,7.72,3.33,3.33,0,0,1-2,1,3.38,3.38,0,0,1-2.61-1.93,12,12,0,0,1-1.42-9,79.23,79.23,0,0,1,11.38,8.21,6,6,0,0,0,2.85,1.69c2.05.31,3.72-1.55,4.95-3.22" transform="translate(-265.32 -500.06)"/><path class="cls-1" d="M315,642.17a34.65,34.65,0,0,0,.3,8.69,2.38,2.38,0,0,1,2.55.83,4.19,4.19,0,0,1,.82,2.67c0,2.67-2.12,5.46-4.78,5.32a6.53,6.53,0,0,1-3.09-1.19,19.93,19.93,0,0,1-8.48-20.42c.66-3.07,2.06-6.28.95-9.22" transform="translate(-265.32 -500.06)"/><path class="cls-1" d="M310.14,625.76a40.09,40.09,0,0,1,6.94,8.63c-2.34,2.68-6.67,2.29-9.9.81s-6.12-3.82-9.61-4.5a10.8,10.8,0,0,0-7.87,1.54,1.48,1.48,0,0,1-.8.33,1.3,1.3,0,0,1-.62-.23,12.25,12.25,0,0,1-4.48-4,6.26,6.26,0,0,1-.55-5.82" transform="translate(-265.32 -500.06)"/><path class="cls-1" d="M434.7,698.32c2.36-3.59,4.59-6.19,8.86-5.82,1.22.1,2.43.58,3.64.39,1.61-.26,3-1.67,4.6-1.47,1.18.14,2.11,1.13,3.28,1.33,2.08.35,4.16-1.84,6.1-1a15.17,15.17,0,0,1,1.53,1c1.58.94,3.58.34,5.36-.1a25.84,25.84,0,0,1,11.24-.23" transform="translate(-265.32 -500.06)"/><path class="cls-1" d="M440.05,701.79a6.43,6.43,0,0,0,1.47.71c2.35.69,5.06-1.35,7.21-.17.83.45,1.52,1.35,2.45,1.28s1.34-.82,2.06-1.17c1.22-.6,2.65,0,4,.2a10.78,10.78,0,0,0,3.29-.3l7.93-1.56a23.51,23.51,0,0,0,6.86-2.08c2.11-1.15,4.72-5.82,4.72-5.82,1.11-3.79-.5-7.88-2.74-11.14a30.28,30.28,0,0,0-26.24-12.8c-5.61.34-11,2.26-16.22,4.31a18.87,18.87,0,0,0-6,3.25,16.1,16.1,0,0,0-3.69,5.73c-1.11,2.58-2,5.44-1.26,8.15,1.1,4.17,5.45,6.46,9.36,8.26A62.85,62.85,0,0,1,440.05,701.79Z" transform="translate(-265.32 -500.06)"/><path class="cls-1" d="M373.06,685.55l-7.64-.95a15,15,0,0,0-5.34,0,9,9,0,0,0-1,.32c-3.3,1.28-6,4.43-9.58,4.26a20.49,20.49,0,0,0-3-.32,21.62,21.62,0,0,0-3.06.88,12.49,12.49,0,0,1-2.45.24,11,11,0,0,0-1.92.16c-3.81.7-6.17,4.43-8.08,7.81" transform="translate(-265.32 -500.06)"/><path class="cls-1" d="M369.42,692.93c-.35.79-.47,1.67-.75,2.5-1.46,4.31-6.82,6.11-11.33,5.48-1.74-.24-3.48-.75-5.21-.5-2,.3-3.74,1.57-5.67,2.24a13,13,0,0,1-8.72-.48,38.18,38.18,0,0,1-7.72-4.42s-9.69-7.13-10-12.45a11.7,11.7,0,0,1,3.34-8.33,30.56,30.56,0,0,1,7.34-5.51c4.76-2.82,10.7-2.12,16.06-3.48a24,24,0,0,1,15.82,1.54c7.59,3.37,9.61,7.93,10.78,16.31C373.36,685.83,370.29,691,369.42,692.93Z" transform="translate(-265.32 -500.06)"/><path class="cls-1" d="M329.49,722a5.22,5.22,0,0,1,.58-1.72,9.61,9.61,0,0,1,1.89-1.82,6.24,6.24,0,0,0,2-3.73l1.71,5.4a7.86,7.86,0,0,1,.55,3.66c-.31,1.9-2,3.48-1.86,5.4a18.14,18.14,0,0,0,.51,2.18,9.24,9.24,0,0,1-.57,4.36L332,743.23a3,3,0,0,1-1.05,1.78c-1.11.7-2.61-.42-2.91-1.7s.1-2.6.2-3.91c.2-2.62-.73-5.18-.76-7.8a22.06,22.06,0,0,1,1-5.07C328.84,725,329.16,723.5,329.49,722Z" transform="translate(-265.32 -500.06)"/><path d="M361.46,680.24a11.87,11.87,0,0,1-.93,4.67c-3.3,1.28-6,4.43-9.58,4.26a20.64,20.64,0,0,0-3-.32,21.62,21.62,0,0,0-3.06.88,12.59,12.59,0,0,1-2.46.24,12,12,0,1,1,19-9.73Z" transform="translate(-265.32 -500.06)"/><path d="M458,692.11h0a12,12,0,1,0-12.08.78Z" transform="translate(-265.32 -500.06)"/><path class="cls-1" d="M287.92,671.53c0,2.17-.08,4.34.08,6.5a14.75,14.75,0,0,0,.92,4.56,9.74,9.74,0,0,0,7.2,5.82,6.83,6.83,0,0,1,1.91.45,3.24,3.24,0,0,0,.81.36c.72.14,1.32-.52,1.76-1.11l6-8" transform="translate(-265.32 -500.06)"/><path class="cls-1" d="M501.28,658.11c.2,3.77-.29,8-3.15,10.47a18.89,18.89,0,0,0-2.65,2.22,4.25,4.25,0,0,0,.87,5.87" transform="translate(-265.32 -500.06)"/><path class="cls-1" d="M291.17,657.74a27.77,27.77,0,0,1-6.24-3,10.22,10.22,0,0,1-3.43-3.2,4.61,4.61,0,0,1-.31-4.51" transform="translate(-265.32 -500.06)"/><path class="cls-1" d="M416.31,587.45A89.85,89.85,0,0,1,409.44,571a31.94,31.94,0,0,1,6.37-1c-1.51-3.35-1.79-7.09-2.47-10.7s-1.91-7.35-4.75-9.67" transform="translate(-265.32 -500.06)"/><path class="cls-1" d="M384.87,601.67l-15.78,4.55c-2.53.73-5.18,1.46-7.76.93a9.54,9.54,0,0,1-6.91-6.84,13.39,13.39,0,0,1,1.42-9.87,16.92,16.92,0,0,1,8.72-7.61,5.21,5.21,0,0,1,2.95-.42,3.9,3.9,0,0,1,2.8,3.21,7.2,7.2,0,0,1-.84,4.37,13.13,13.13,0,0,1-14,6.83" transform="translate(-265.32 -500.06)"/><path class="cls-1" d="M342.36,595.11a180.12,180.12,0,0,0-15.7,14.94c.42,2.53,3.56,3.58,6.12,3.36s5.13-1.18,7.61-.56a1.86,1.86,0,0,1,1.09.61c.51.7,0,1.68-.47,2.39-5.41,7.47-14.56,11.58-23.73,12.56-2.56.27-5.29.29-7.55-1S306,623.31,307,621" transform="translate(-265.32 -500.06)"/><path class="cls-1" d="M301,650.66a65,65,0,0,1-10.7-18.44c3.73-1.43,4.84-6.84,8.67-8,1.13-.33,2.47-.28,3.29-1.11a4,4,0,0,0,.85-1.75l5.73-19.25" transform="translate(-265.32 -500.06)"/><path class="cls-1" d="M372.34,573.37A61.55,61.55,0,0,1,383,557.18l2.9,2.46" transform="translate(-265.32 -500.06)"/><path class="cls-1" d="M391.84,582.9a69.8,69.8,0,0,0,1.2-18.75,81.7,81.7,0,0,0-14-6c-2.17-.71-5.14-1-6.18,1" transform="translate(-265.32 -500.06)"/><path class="cls-1" d="M358.13,584.35a61.84,61.84,0,0,1-10.49-15.83,43,43,0,0,0,7.32-7.39" transform="translate(-265.32 -500.06)"/><path class="cls-1" d="M330.74,606.61A73,73,0,0,1,314,596.82a18.92,18.92,0,0,1,13.15-13.5" transform="translate(-265.32 -500.06)"/><path class="cls-1" d="M447.69,568.28l-9.32,12.44a19.16,19.16,0,0,1-3.95,4.28,14.38,14.38,0,0,1-8.3,2.26,11.86,11.86,0,0,1-6.59-1.49c-3.59-2.3-4.52-7.52-2.76-11.4,2.32-5.14,9.46-7.8,14.13-4.64,3.08,2.09,4.47,5.93,5.09,9.6s.7,7.48,2,11a8,8,0,0,0,2.78,3.91c2.58,1.74,6.12.85,8.8-.73a20.13,20.13,0,0,0,8.64-10.56" transform="translate(-265.32 -500.06)"/><path class="cls-1" d="M468.86,599.54a116,116,0,0,1-22.3,8.32,7.72,7.72,0,0,1-3.17-7.87,12,12,0,0,1,4.94-7.29,13.61,13.61,0,0,1,9.59-2.69c6.53.87,11.06,7.32,12.34,13.78.81,4.11.69,8.48,2.45,12.28a14.81,14.81,0,0,0,5.79-7.33" transform="translate(-265.32 -500.06)"/><path class="cls-1" d="M470.88,591.05q5.07,8.38,9.31,17.25a11.45,11.45,0,0,1,1.15,3.2c.53,3.4-1.72,7.45.58,10,1.43,1.57,3.86,1.57,6,1.58s4.64.39,5.62,2.28c.89,1.7.05,3.79-1.06,5.36a16.33,16.33,0,0,1-5.37,4.82" transform="translate(-265.32 -500.06)"/><path class="cls-1" d="M592.8,526.11c-8.61-1.52-17.55-2.44-26-.23C551,530,540,544,530.33,557.2" transform="translate(-265.32 -500.06)"/><path class="cls-1" d="M566.05,538.33c-22.25,11.06-32.66,37.83-53.78,50.91" transform="translate(-265.32 -500.06)"/><path class="cls-1" d="M557.08,555.18a477.93,477.93,0,0,1-37.49,44.13" transform="translate(-265.32 -500.06)"/><path class="cls-1" d="M589.09,539.78c-12,28.16-35.62,49.43-58.53,69.74" transform="translate(-265.32 -500.06)"/><path class="cls-1" d="M540.2,559.13c-10.82,7.82-15.8,21.51-17.58,34.74s-1,26.73-3.23,39.89" transform="translate(-265.32 -500.06)"/><path class="cls-1" d="M600,533.12c.7,12.11-3.6,24.14-10.29,34.26S574,585.89,564.57,593.55" transform="translate(-265.32 -500.06)"/><path class="cls-1" d="M610.62,528.62q-3,11.14-6.62,22.12a40.68,40.68,0,0,1-2.51,6.33c-2.14,4.06-5.5,7.32-8.81,10.5" transform="translate(-265.32 -500.06)"/><path class="cls-1" d="M615.22,530.9c0,8.05-1.58,16.32.83,24a35.76,35.76,0,0,0,5.64,10.38,69.7,69.7,0,0,0,13.65,13.85" transform="translate(-265.32 -500.06)"/><path class="cls-1" d="M620.49,540.05A194.8,194.8,0,0,1,633,556.82c1,1.44,1.94,3.27,1.17,4.82" transform="translate(-265.32 -500.06)"/><path class="cls-1" d="M617.46,528.75a85.31,85.31,0,0,1,52.86,54.43" transform="translate(-265.32 -500.06)"/><path class="cls-1" d="M642,542c6,11.86,9.84,24.81,16.76,36.17s18.09,21.35,31.37,22" transform="translate(-265.32 -500.06)"/><path class="cls-1" d="M663.72,546.23a72.53,72.53,0,0,1,24.4,37.08" transform="translate(-265.32 -500.06)"/><path class="cls-1" d="M671.43,541.88c7.08.52,14.73,1.27,20,6a24.36,24.36,0,0,1,5,6.83A51.22,51.22,0,0,1,701.93,584" transform="translate(-265.32 -500.06)"/><path class="cls-1" d="M687.77,568.11c2.89,6.83,8.06,12.55,10.51,19.55a31.33,31.33,0,0,1,1.33,5.38c1.22,7.85-1.47,21.07-3,28.88" transform="translate(-265.32 -500.06)"/><path class="cls-1" d="M690.78,596.22a105.17,105.17,0,0,0,16,26.54" transform="translate(-265.32 -500.06)"/><path class="cls-1" d="M626.6,545.71c3.67-3.23,6.26-7.62,10.25-10.44,4.31-3,9.77-3.92,15-4a63.36,63.36,0,0,1,30.18,6.85" transform="translate(-265.32 -500.06)"/><path class="cls-1" d="M607,526.13c7.17-7.13,14.48-14.35,23.39-19.15s19.78-6.9,29.21-3.25" transform="translate(-265.32 -500.06)"/><path class="cls-1" d="M616.44,527c10.3-4.61,20.94-9.3,32.22-9.49" transform="translate(-265.32 -500.06)"/><path class="cls-1" d="M617.4,524c-8.38-1-17.33-1.91-24.88,1.87a40.71,40.71,0,0,0-8.31,6,297.34,297.34,0,0,0-33.35,34.17" transform="translate(-265.32 -500.06)"/><path class="cls-1" d="M608.51,518.05c-11.22-2.59-22.61-4.8-34.12-4.81s-23.23,2.3-33.1,8.22" transform="translate(-265.32 -500.06)"/><path class="cls-1" d="M567.75,530.14c-6.89.86-14.15-.14-20.58,2.49a28.4,28.4,0,0,0-7.14,4.48c-13,10.61-20.27,26.5-26.56,42" transform="translate(-265.32 -500.06)"/><path class="cls-1" d="M630,528.54a67.2,67.2,0,0,1,58.25,2.16" transform="translate(-265.32 -500.06)"/><path class="cls-1" d="M632.2,536.86c5.17,13,10.69,26.46,21.18,35.69" transform="translate(-265.32 -500.06)"/><path class="cls-1" d="M560.74,564.06a184.82,184.82,0,0,1-44.34,49.5" transform="translate(-265.32 -500.06)"/><path class="cls-1" d="M551.09,527.72a57.88,57.88,0,0,0-36.42,22.61" transform="translate(-265.32 -500.06)"/><path class="cls-1" d="M611,511.71a61.41,61.41,0,0,0-27.25-7.15" transform="translate(-265.32 -500.06)"/><path class="cls-1" d="M651.77,538.38a94.78,94.78,0,0,1,58.77,48.91" transform="translate(-265.32 -500.06)"/></svg>