<svg xmlns="http://www.w3.org/2000/svg" viewBox="0 0 1095.74 496.92"><defs><style>.cls-1,.cls-2,.cls-3,.cls-4,.cls-5,.cls-6{stroke:#000;}.cls-1,.cls-2,.cls-6{stroke-miterlimit:10;}.cls-1,.cls-2,.cls-3,.cls-4,.cls-5{stroke-width:2px;}.cls-2,.cls-3{fill:none;}.cls-3,.cls-4,.cls-5{stroke-linecap:round;stroke-linejoin:round;}.cls-5,.cls-6{fill:#666;}</style></defs><g id="Layer_2" data-name="Layer 2"><path class="cls-1" d="M951.27,767.54a8,8,0,0,1-.57,2.66,8.21,8.21,0,0,1-3.36,3,2.22,2.22,0,0,0-1,1,76.59,76.59,0,0,0-5.66,15.31,9.14,9.14,0,0,1,.84,2,2.3,2.3,0,0,1-.12,1.14,1.56,1.56,0,0,1-.3.51,2.82,2.82,0,0,1-2.78.51,7.54,7.54,0,0,1-1.45-.5,4.7,4.7,0,0,1-2.52-4.36,5.21,5.21,0,0,1,.92-2c1.31-4.78,3.88-14.66,3.88-14.66a3.73,3.73,0,0,0-.83-2.4,10.36,10.36,0,0,1-1.34-2.2,5.33,5.33,0,0,1,.36-3.75,8.45,8.45,0,0,1,3.48-4.09,6.12,6.12,0,0,1,5.27-.49,8.92,8.92,0,0,1,2.48,1.64,6.55,6.55,0,0,1,2.69,6.7Z" transform="translate(-89.16 -646.38)"/><polygon class="cls-1" points="850.98 145.41 850.98 145.07 855.28 182.12 855.22 181.66 852.42 181.71 849.57 146.73 850.98 145.41"/><line class="cls-2" x1="852.11" y1="181.91" x2="852.09" y2="181.66"/><path class="cls-3" d="M517.46,882a39.87,39.87,0,0,1,15.71,32.11c0,1.45-.22,3.07-1.33,4a2.72,2.72,0,0,1-4.43-2.5" transform="translate(-89.16 -646.38)"/><path class="cls-3" d="M512.57,951.65c-.6-1.76-1.93-4.52-2.15-6.36a11.81,11.81,0,0,1,1-6.25c5.57-2.93,10.08-5.39,13.6-10.6a27.45,27.45,0,0,0,4.12-9.87" transform="translate(-89.16 -646.38)"/><path class="cls-3" d="M499.45,952.71a24.5,24.5,0,0,0,1.65-12.65" transform="translate(-89.16 -646.38)"/><path class="cls-3" d="M504.78,919.17a1.53,1.53,0,0,1-1.64,1.11,2.21,2.21,0,0,1-1.63-1.32,3.93,3.93,0,0,1-.2-2.15,16.44,16.44,0,0,0,.51-3.1,7.1,7.1,0,0,0-1.07-3,9.6,9.6,0,0,1-1.26-2.93,2.91,2.91,0,0,1,1-2.86,2.82,2.82,0,0,1,2.27-.27,5.81,5.81,0,0,1,1.41.6l.7.4" transform="translate(-89.16 -646.38)"/><path class="cls-3" d="M515.42,895.3a8.42,8.42,0,0,1,4.16-2.65,6,6,0,0,1,3-.1,3.82,3.82,0,0,1,2.42,1.74" transform="translate(-89.16 -646.38)"/><path class="cls-3" d="M514.65,928.57A9.09,9.09,0,0,1,520,924.5a6.42,6.42,0,0,1,6.31,1.88" transform="translate(-89.16 -646.38)"/><path class="cls-3" d="M515.83,899.51a15.13,15.13,0,0,1,6.78-2.06,5.81,5.81,0,0,1,2.12.08,6.69,6.69,0,0,1,2.19,1.26l1.48,1.14" transform="translate(-89.16 -646.38)"/><path class="cls-3" d="M515.8,899.46a7.83,7.83,0,0,0,2.07,3.6,15.19,15.19,0,0,0,1.82,1.47,5.78,5.78,0,0,0,2.87,1.35,4.78,4.78,0,0,0,3.62-1.91,13,13,0,0,0,2.36-3.79" transform="translate(-89.16 -646.38)"/><path class="cls-4" d="M517.45,883.4a33.25,33.25,0,0,1-1.49,3.49c-.49.93-1.05,1.81-1.61,2.71l-5.21,8.26a10,10,0,0,1-1.31,1.78c-.37.39-.78.7-1.14,1.08-1.08,1.16-1.5,2.79-2.5,4l0,.54a5.81,5.81,0,0,0-1.41-.6,2.82,2.82,0,0,0-2.27.27,2.91,2.91,0,0,0-1,2.86,9.6,9.6,0,0,0,1.26,2.93,7.1,7.1,0,0,1,1.07,3,16.44,16.44,0,0,1-.51,3.1,3.93,3.93,0,0,0,.2,2.15,2.21,2.21,0,0,0,1.63,1.32,1.44,1.44,0,0,0,.46,0l0,.52c-.27,2.13-.55,4.27-.82,6.4-.17,1.28.26,5.43.09,6.7-.36,2.78-1.31,2.71-1.67,5.49a1.07,1.07,0,0,1-.19.6,1.19,1.19,0,0,1-.78.36c-2.55.48-5.24.93-7.64,0-1.59-.63-2.89-1.83-4.41-2.6a52.33,52.33,0,0,0-5.29-1.82,9.6,9.6,0,0,1-2.69-1.45,15.33,15.33,0,0,1-2.44-2.58,22.58,22.58,0,0,1-3.37-5c-.66-1.55-1-3.24-1.58-4.82a25.36,25.36,0,0,0-1.57-3.18,25.32,25.32,0,0,1-3.14-7.62,26.23,26.23,0,0,1,.34-8.33c.45-3,.89-5.93,1.6-8.84s1.85-6.08,4.29-7.93c1.19-.91,2.62-1.46,3.88-2.26a56.14,56.14,0,0,0,4.55-3.77,21.76,21.76,0,0,1,8.71-4.15,28.19,28.19,0,0,1,11-.25c1.46.25,2.91.6,4.35,1a49.12,49.12,0,0,1,7.36,2.21,6.9,6.9,0,0,1,2.62,1.66,3.25,3.25,0,0,1,.77,1.59A2.36,2.36,0,0,1,517.45,883.4Z" transform="translate(-89.16 -646.38)"/><path class="cls-3" d="M504.59,1022c.57,3.92,1.87,7.71,2.73,11.58.29,1.34.54,2.69.78,4,.93,5.1,2.51,15,2.51,15-2.06.35-3.88,1.49-5.8,2.33a41.06,41.06,0,0,1-10.17,2.52,4.91,4.91,0,0,1-1.83.07,4.27,4.27,0,0,1-2.11-1.44,14.64,14.64,0,0,1-3-5.29c-4.43-13.59-7.09-28.08-5.3-42.29,0,0,1.45-18.9,3.75-28.59,1.46-6.13,3.7-12.71,10.76-14.61a13.36,13.36,0,0,1,7.44.24,10.65,10.65,0,0,1,5,3,9.84,9.84,0,0,1,2,6.89,34.72,34.72,0,0,1-1.49,7.18c-2.49,9.26-4.4,18.43-4.6,28a7.43,7.43,0,0,1-.09,1.15C504.84,1013.48,504.11,1018.69,504.59,1022Z" transform="translate(-89.16 -646.38)"/><path class="cls-3" d="M510.77,1051.32c3.15.55,6.37-.07,9.55-.39a52,52,0,0,1,11.23.07,42.35,42.35,0,0,0,1.8-5.39,57.63,57.63,0,0,0,.85-6.67l.64-7.27c.41-4.75.83-9.5.9-14.27,0-2.94.58-6.45.58-8.89,0,0-.39-14.62-1.16-23a43.49,43.49,0,0,0-3.11-14.18l-2-5.61a26.74,26.74,0,0,0-2.26-5.17c-2.23-3.63-6.07-6-10.08-7.48-2.93-1.07-14.22-1.21-17.31-.78" transform="translate(-89.16 -646.38)"/><path class="cls-3" d="M482.2,1010c-2.58,2.43-7,6.94-7,6.94-1.26,6.19-4.8,18.56-4.8,18.56-.89,2.33.07,4.9.51,7.36a21.19,21.19,0,0,0,.74,3.71,10.29,10.29,0,0,0,1.5,2.61,16.78,16.78,0,0,0,7.06,5.91,9.45,9.45,0,0,0,8.91-.77" transform="translate(-89.16 -646.38)"/><path class="cls-3" d="M510.69,971c0-2.11-2-4.89-3.68-6.21a22.4,22.4,0,0,0-4.88-3.27,14.42,14.42,0,0,0-2.8-.87,19.79,19.79,0,0,0-18.16,5.49,10.3,10.3,0,0,0-2.68,5.06c-1,4.61-3.16,14.51-4.28,20.34-.86,4.47-1.64,9-1.26,13.54l.21,1a52,52,0,0,1,6.09-5.4,28.73,28.73,0,0,0,4.21-3.48" transform="translate(-89.16 -646.38)"/><path class="cls-3" d="M468.13,958.94a24.37,24.37,0,0,1,.95,9.6c-.12,1.17-.33,2.33-.55,3.49-1.67,8.63-4.35,17.06-5.75,25.74a16.22,16.22,0,0,0-.26,3.93" transform="translate(-89.16 -646.38)"/><path class="cls-3" d="M462.61,1001.47a7.53,7.53,0,0,0-2,5.11,3.54,3.54,0,0,0,.85,2.5,1.14,1.14,0,0,0,.79.39,1.31,1.31,0,0,0,1-.65,5.85,5.85,0,0,0,.76-4.54c-.31-1.54-.66-1.41-1.39-2.81" transform="translate(-89.16 -646.38)"/><path class="cls-3" d="M470.05,1036.13a67.45,67.45,0,0,1-11,2.72c-2.95.46-6.17.68-8.69-.91a10.84,10.84,0,0,1-3.61-4.39c-2.17-4.28-3.06-9.07-3.93-13.79s-1.78-9.74-1.51-14.66a63.85,63.85,0,0,1,.8-6.47l1.47-9.17s1.22-5.28,2.48-8.83a26.39,26.39,0,0,1,1.26-3.07c.83-1.66,1.95-3.15,2.77-4.81a37.75,37.75,0,0,1,1.81-3.73c1.15-1.76,2.91-3,4.45-4.41a38.45,38.45,0,0,1,3.78-3.44,13.13,13.13,0,0,1,3-1.53c4.88-1.78,13.68.7,13.68.7a78.32,78.32,0,0,1,15.34-6.47,24,24,0,0,1,6-1.18c5.14-.19,10.11,2.48,13.57,6.3,4.6,5.09,6.77,12.56,4.69,19.1a35.69,35.69,0,0,1-2.16,4.91,39.42,39.42,0,0,1-6.82,9.47" transform="translate(-89.16 -646.38)"/><path class="cls-3" d="M442.93,993a7.6,7.6,0,0,1,3,.89,7,7,0,0,1,1.41,1.25,47.51,47.51,0,0,1,5,5.92c4.94,7.29,6,16.49,6.18,25.29a67.55,67.55,0,0,1-.6,12.64" transform="translate(-89.16 -646.38)"/><path class="cls-2" d="M443.89,1025.24a6.33,6.33,0,0,0,3.61-2.23,9.3,9.3,0,0,0,1-2.77,73.14,73.14,0,0,0,1.89-21.62" transform="translate(-89.16 -646.38)"/><path class="cls-3" d="M504.59,1055c-.11.78.33,1.08.85,1.59a13.78,13.78,0,0,0,2.13,1.75c1.94,1.3,3.88,3,4.45,5.28a5.74,5.74,0,0,1-2.91,6.31s.51,2.33-.14,3.55a2.14,2.14,0,0,1-.66.8,2.93,2.93,0,0,1-.87.37,2.24,2.24,0,0,1-1.15-.06,3.51,3.51,0,0,1-1.71-.77,4.32,4.32,0,0,1-1.23-1.92,7.86,7.86,0,0,1-.08,1.68,2.7,2.7,0,0,1-2,2.2,2.25,2.25,0,0,1-1.61-.19,5.06,5.06,0,0,1-2.18-2.7,2.07,2.07,0,0,1-2.23,2,4.69,4.69,0,0,1-2.91-1.71,9.38,9.38,0,0,1-2.87-6.85,10.94,10.94,0,0,1,2.07-5.07c.76-1.18,1.68-2.39,1.32-3.74" transform="translate(-89.16 -646.38)"/><path class="cls-3" d="M481.14,1055.75c-.56,4.79.51,9.62,2,14.21s3.32,9.07,4.42,13.77c1.6,6.88,1.52,14,2.15,21.06.45,5,1.53,13.32,1.53,13.32a11.87,11.87,0,0,1,.73,3.82c0,.85,0,1.83.66,2.38a2.68,2.68,0,0,0,2.16.31,81.42,81.42,0,0,0,8.76-1.79,21.16,21.16,0,0,1,2.6-.57c1.19-.14,2.39,0,3.58-.2a11.18,11.18,0,0,0,3.84-1.4c1.11-.61,2.28-1.56,2.28-2.83,0,0,.65-10.47,1.13-15.78,1.23-13.69,4-27.23,4.88-41,.23-3.58.25-6.91,1.18-10.38" transform="translate(-89.16 -646.38)"/><path class="cls-3" d="M493,1124.56a19.11,19.11,0,0,0-1.59,7.76c0,2.12.33,4.45,1.91,5.89a8.76,8.76,0,0,0,4.54,1.7l5.07.87,2.42.41c4.13.71,8.36,1.42,12.5.77a44.19,44.19,0,0,1,6.43-1c1.39,0,2.85.25,4.16-.24,0,0,3.6-.17,5-2.05a7,7,0,0,0,1-2.11,14.77,14.77,0,0,0-1.33-11.71,4.48,4.48,0,0,0-.91-1.2,5.46,5.46,0,0,0-1.62-.85,38.09,38.09,0,0,0-8.81-2.1,49.39,49.39,0,0,1-6-.77" transform="translate(-89.16 -646.38)"/><path class="cls-3" d="M515.81,1119.88a40.9,40.9,0,0,0-4.29,7.95,3.87,3.87,0,0,0-.4,1.54,3.55,3.55,0,0,0,.44,1.44,5.91,5.91,0,0,0,2.63,3.25c1.75.77,3.79-.26,5.15-1.61,3.13-3.13,4.23-7.18,3.95-11.59" transform="translate(-89.16 -646.38)"/><circle class="cls-4" cx="426.78" cy="483.9" r="1.84"/><circle cx="433.55" cy="256.13" r="3.06"/><path class="cls-3" d="M720.08,878.6c3.37,3,6.4,6.43,7.67,10.7,1.18,4,.74,8.26,1.93,12.22.71,2.33,2,4.83,1,7.07a4.15,4.15,0,0,1-6.76.9" transform="translate(-89.16 -646.38)"/><path class="cls-3" d="M697.73,927.8c3.74,1.53,7.74,3.08,11.71,2.37a12.88,12.88,0,0,0,4.68-1.92c6-3.85,8.6-11.07,10.87-17.79" transform="translate(-89.16 -646.38)"/><path class="cls-3" d="M710.14,923.84l2.24-3.09a3.88,3.88,0,0,1,2.38-1.55c.41-.08.83-.14,1.25-.19,1.54-.17,3.28,0,4.33,1.1" transform="translate(-89.16 -646.38)"/><path class="cls-3" d="M709.31,889.9a19.05,19.05,0,0,1,3.61-4.93,6.44,6.44,0,0,1,5.64-1.72" transform="translate(-89.16 -646.38)"/><path class="cls-3" d="M709.44,895.49a20.74,20.74,0,0,1,4.36-4,11.71,11.71,0,0,1,10.38-.92" transform="translate(-89.16 -646.38)"/><path class="cls-3" d="M710,895.3a15.38,15.38,0,0,0,5,4.32,5.86,5.86,0,0,0,8.57-3,9.35,9.35,0,0,0,.53-5.9" transform="translate(-89.16 -646.38)"/><path class="cls-3" d="M699.88,938.66a34.23,34.23,0,0,0,1.51-8.92" transform="translate(-89.16 -646.38)"/><path class="cls-3" d="M710.26,938.41c-.39-1.24-1-2.38-1.48-3.6a4.94,4.94,0,0,1-.06-3.79" transform="translate(-89.16 -646.38)"/><path class="cls-3" d="M700,896.51a4.78,4.78,0,0,0-.34-1.35,3.53,3.53,0,0,0-.92-1.36,2.85,2.85,0,0,0-2.83-.65,3.64,3.64,0,0,0-2.07,2.76,7.39,7.39,0,0,0,.31,4.36c.59,1.44,1.65,2.89,1.23,4.39-.13.48-.4.91-.55,1.38a2.73,2.73,0,0,0,1.64,3.28l1.1-.66h0l1.92-1.17" transform="translate(-89.16 -646.38)"/><path class="cls-4" d="M722.75,878.78a2.29,2.29,0,0,1-2-.43l-.72.25L719,879a10.74,10.74,0,0,0-2.46-2c-.57-.34-1.36-.6-1.86-.15s-.09,1.67-.34,2.5a1.35,1.35,0,0,1-2.26.4,5.6,5.6,0,0,1-.5-1.08,1,1,0,0,0-.94-.61,1.88,1.88,0,0,1-1.41,1.47c-.34.08-.69.07-1,.17-.9.3-1.23,1.4-1.33,2.34a3.94,3.94,0,0,1-.87,2.65,7.21,7.21,0,0,1-1,.61,3,3,0,0,0-1.23,3.16c.21.86.82,1.66.68,2.53a1.67,1.67,0,0,1-1.9,1.24,1.72,1.72,0,0,0-1.56.67l-1.33,1.65-.1.65a3.53,3.53,0,0,0-.92-1.36,2.85,2.85,0,0,0-2.83-.65,3.64,3.64,0,0,0-2.07,2.76,7.39,7.39,0,0,0,.31,4.36c.59,1.44,1.65,2.89,1.23,4.39-.13.48-.4.91-.55,1.38a2.61,2.61,0,0,0,.21,2,1.79,1.79,0,0,0,2.52.63h0a36.66,36.66,0,0,0,1.66,9.13,4.3,4.3,0,0,1,.36,1.44c0,.62-.27,1.23-.24,1.85.05,1,.86,1.79,1,2.77.33,1.79-1.51,3.17-3.11,4-1.23.69-2.8,1.35-4,.55a8.76,8.76,0,0,0-1-.8,5.36,5.36,0,0,0-2.12-.1c-2.17-.09-3.39-2.65-5.41-3.48-.5-.21-1.08-.35-1.31-.83s.06-1.33-.4-1.74-.84-.15-1.28-.09a3.53,3.53,0,0,1-3.88-3c-.09-.73.07-1.49,0-2.22a2,2,0,0,0-1.07-1.82c-.36-.12-.77-.09-1.14-.21a2.25,2.25,0,0,1-1.16-2.61c.18-1,.72-2,.89-3,.47-3-2.22-5.55-2.65-8.54-.13-.87-.05-1.76-.15-2.64a9.19,9.19,0,0,1-.21-2.9c.49-2.36,3.74-3.19,4.57-5.47.58-1.59-.21-3.48.55-5a6.93,6.93,0,0,1,2.64-2.29,4.39,4.39,0,0,0,1.7-2,1.79,1.79,0,0,1,1.2-1.13,7.39,7.39,0,0,0,4.38-3.65,15,15,0,0,1,1.24-2.43,2.13,2.13,0,0,1,2.41-.85c.55.25.93.85,1.53,1,.76.14,1.39-.55,1.93-1.11s1.48-1,2-.49c.29.28.34.73.58,1.06.57.84,1.88.57,2.78.1s1.94-1.11,2.87-.67c.77.35,1.09,1.31,1.85,1.72,1.74.92,4-1.79,5.6-.59.52.4.78,1.15,1.43,1.3a1.54,1.54,0,0,0,.76-.08c.87-.31,1.56-1,2.39-1.34a1.93,1.93,0,0,1,2.46.45,2.66,2.66,0,0,0,.32.6c.29.31.79.28,1.22.32C721,874.19,722.1,876.68,722.75,878.78Z" transform="translate(-89.16 -646.38)"/><circle cx="629.95" cy="250.72" r="3.26"/><path class="cls-3" d="M692.18,946.71a14,14,0,0,1,20-6.91,28.78,28.78,0,0,1,7,6.23,20.74,20.74,0,0,1,2.64,5c2.55,6.6,3,13.81,3,20.88s-.72,14.14-.3,21.2" transform="translate(-89.16 -646.38)"/><path class="cls-3" d="M724.72,992.72a306.75,306.75,0,0,1-3.45,43.86" transform="translate(-89.16 -646.38)"/><path class="cls-3" d="M715.56,1038l5.75-.27a1.29,1.29,0,0,1,.13-.7" transform="translate(-89.16 -646.38)"/><path class="cls-3" d="M677,1031.44a16.54,16.54,0,0,0,11.34,6.18,32.62,32.62,0,0,0,4.31,0l6.36-.25" transform="translate(-89.16 -646.38)"/><path class="cls-3" d="M677.13,1031.3c-1.3-6,1.82-12.12.92-18.14" transform="translate(-89.16 -646.38)"/><path class="cls-3" d="M697.24,984.09c-.5-8.33.75-16.66,2-24.9.45-2.82,1-5.86,3.12-7.77a11.61,11.61,0,0,1,5.17-2.3,9.51,9.51,0,0,1,3.43-.38c2.68.33,4.74,2.7,5.54,5.27s.61,5.34.43,8c-.16,2.4-.3,4.8-.27,7.21,0,3.57.42,7.12.67,10.69.34,4.81.42,9.64.49,14.46l.11,7.44" transform="translate(-89.16 -646.38)"/><path class="cls-3" d="M697,983.7l.08,13c0,1.69,0,3.38.15,5.06.3,3.88,1.21,7.68,1.65,11.54.34,3,.39,6,.44,9l.18,9.73a1.69,1.69,0,0,0,.33,1.21,1.64,1.64,0,0,0,.79.36q5,1.32,10.13,2.27a1.7,1.7,0,0,0,2.4-1.55c.42-1.57.78-3.16,1.09-4.75s.5-2.9.73-4.36l.53-3.32c1.09-6.85,2.17-13.76,1.91-20.69" transform="translate(-89.16 -646.38)"/><path class="cls-3" d="M713.14,1035.84a16,16,0,0,1,3,10.68,2.71,2.71,0,0,1-.73,1.9,2,2,0,0,1-2.8-.68,5.81,5.81,0,0,1-.67-3.14" transform="translate(-89.16 -646.38)"/><path class="cls-3" d="M712.18,1046.67a15.53,15.53,0,0,1-.42,2.53,3.66,3.66,0,0,1-1.4,2.09,1.4,1.4,0,0,1-1.4.2,1.89,1.89,0,0,1-.77-1.63,19,19,0,0,1,0-3.77" transform="translate(-89.16 -646.38)"/><path class="cls-3" d="M707.88,1051a13.42,13.42,0,0,0-.75,1.74,3.19,3.19,0,0,1-1.09,1.5,1.48,1.48,0,0,1-1.76,0,2.24,2.24,0,0,1-.45-1.85,50.32,50.32,0,0,1,1.76-10.13" transform="translate(-89.16 -646.38)"/><path class="cls-3" d="M702.6,1042.15c-.45,1.35-1.24,2.56-1.76,3.88a4.83,4.83,0,0,0,0,4.12,1.8,1.8,0,0,0,.45.54,1.28,1.28,0,0,0,2.05-1" transform="translate(-89.16 -646.38)"/><path class="cls-3" d="M701.56,1034.19c-1.36,3.32-4.17,6.14-4.42,9.71a2.67,2.67,0,0,0,.43,1.86,2.93,2.93,0,0,0,1.73.84c.6.11,1.4.07,1.58-.51" transform="translate(-89.16 -646.38)"/><path class="cls-3" d="M682.06,1036.42a35.73,35.73,0,0,0-.86,10.92c.08,1.8.21,3.6.34,5.4.44,6.07.85,12.14,1.07,18.22.2,5.39.24,10.78.29,16.17l.18,21.07" transform="translate(-89.16 -646.38)"/><path class="cls-3" d="M714.2,1048.88c-1.22,8.23-1.83,16.54-2.44,24.83l-.38,5.18c-.76,10.39-1.53,20.8-1.39,31.22" transform="translate(-89.16 -646.38)"/><path class="cls-3" d="M683.2,1107.62l-.46,7.5c-.18,3-.23,6.25,1.77,8.42a7.79,7.79,0,0,0,5.15,2.18,38.87,38.87,0,0,0,5.7-.28c2.38-.17,4.78-.13,7.13-.49a7.5,7.5,0,0,0,3.65-1.38,7.23,7.23,0,0,0,2.11-3.52,33.41,33.41,0,0,0,1.16-7.18l.31-3.53" transform="translate(-89.16 -646.38)"/><path class="cls-3" d="M707.47,1123.23a37.4,37.4,0,0,0,9.87,4.47,12.85,12.85,0,0,1,4.32,1.73,8.17,8.17,0,0,1,2.23,2.84,9.21,9.21,0,0,1,1.24,5,4.89,4.89,0,0,1-2.83,4.14,7.76,7.76,0,0,1-2.72.38l-4.86.08a41.44,41.44,0,0,1-4.73-.09c-1.33-.12-2.66-.38-4-.5-3.24-.29-6.5.2-9.76.25a35.79,35.79,0,0,1-8.69-1,5.33,5.33,0,0,1-1.45-.51,4.11,4.11,0,0,1-1.77-3.35c-.18-2.63,1.1-5.11,2.34-7.43l2-3.76" transform="translate(-89.16 -646.38)"/><path class="cls-3" d="M686.47,1130.52a12,12,0,0,1,6.33,2.7,9.21,9.21,0,0,1,3.2,6,2.39,2.39,0,0,1-.6,2.1" transform="translate(-89.16 -646.38)"/><path class="cls-3" d="M698.53,1131.82a14.31,14.31,0,0,0,1.1-3,4.8,4.8,0,0,0-.32-3.13" transform="translate(-89.16 -646.38)"/><path class="cls-3" d="M705.74,1132.37a13.82,13.82,0,0,0,1.8-3.73,7.79,7.79,0,0,0,.13-4.12,12.47,12.47,0,0,0-.61-1.64" transform="translate(-89.16 -646.38)"/><path class="cls-3" d="M711.91,1134.21l1.16-2.9a.34.34,0,0,0,0-.14c0-.05,0-.11.08-.11s0,.11,0,.07a5.71,5.71,0,0,0-.51-4.9" transform="translate(-89.16 -646.38)"/><path class="cls-3" d="M675,945a14.67,14.67,0,0,1,7.3-.42,43.93,43.93,0,0,1,7.1,2c2.79,1,5.76,2.08,7.5,4.47" transform="translate(-89.16 -646.38)"/><path class="cls-3" d="M684,1011.31c5.1-10,7.61-21.11,9.67-32.16a45.6,45.6,0,0,0,.83-6c.09-1.83,0-3.67,0-5.51.19-6,2.3-12.21.46-18" transform="translate(-89.16 -646.38)"/><path class="cls-3" d="M659.54,1006.69c3.06,2.48,7,3.46,10.9,4.26,4.6.94,9.46,1.71,13.89.18" transform="translate(-89.16 -646.38)"/><path class="cls-3" d="M659.59,1006.68c-2.52-10.75-2.38-22-.76-32.93a60.91,60.91,0,0,1,3.93-15.18,30.63,30.63,0,0,1,9.29-12.48c1.09-.82,2.46-1.59,3.75-1.14" transform="translate(-89.16 -646.38)"/><path class="cls-3" d="M675.68,944.55a15.9,15.9,0,0,1,7.5,13.41,31.27,31.27,0,0,1-.55,4.91l-2.47,15" transform="translate(-89.16 -646.38)"/><path class="cls-3" d="M658.51,977a5.57,5.57,0,0,1,10-2.75,9.62,9.62,0,0,1,1.43,3.12c2.51,8.19,2.22,16.93,3.15,25.45" transform="translate(-89.16 -646.38)"/><path class="cls-3" d="M583.35,916.59a28.2,28.2,0,0,1-.67,3.51,4.93,4.93,0,0,1-.81,1.88,1.89,1.89,0,0,1-1.81.75,1.19,1.19,0,0,1-.85-1.58" transform="translate(-89.16 -646.38)"/><path class="cls-3" d="M596.35,885.26a12,12,0,0,1-3.17-2.81l1.71-3.79a4.37,4.37,0,0,0,.41-1.2,2.14,2.14,0,0,0-.48-1.61" transform="translate(-89.16 -646.38)"/><path class="cls-3" d="M606,884.16a11.83,11.83,0,0,1,1.46,2.56,1.78,1.78,0,0,1-.07,1.75,1.33,1.33,0,0,1-1.95-.21,2.69,2.69,0,0,1-.32-2.15c0-.19.12-.42.31-.44a.4.4,0,0,1,.32.13,5.29,5.29,0,0,1,1.88,4.32,10.33,10.33,0,0,1-1.41,4.63c-.43.8-1.07,1.65-2,1.66a1.83,1.83,0,0,1-1.63-1.73,4.6,4.6,0,0,1,.68-2.48,3.65,3.65,0,0,1,.83-1.18,1.39,1.39,0,0,1,1.34-.31" transform="translate(-89.16 -646.38)"/><path class="cls-3" d="M602.48,901.18a20,20,0,0,0,.13,14.14,1.22,1.22,0,0,1,.13.72,1.14,1.14,0,0,1-.24.41,18.66,18.66,0,0,1-2.35,2.52.62.62,0,0,1,.31-.91" transform="translate(-89.16 -646.38)"/><path class="cls-3" d="M601.32,920.52a39.2,39.2,0,0,1-2.49,3.87,2.17,2.17,0,0,1-1.6-1.39,3.53,3.53,0,0,1,0-2.18,1.2,1.2,0,0,1,.54-.81c.54-.25,1.1.3,1.38.83a8.13,8.13,0,0,1,.27,6.26c-.14.42-.41.9-.85.87a.85.85,0,0,1-.48-.24,2.55,2.55,0,0,1-.63-1.37,1.54,1.54,0,0,1,.43-1.59,1.12,1.12,0,0,1,1.33.23,2.33,2.33,0,0,1,.55,1.32,5,5,0,0,1-1,3.74.66.66,0,0,1-.46.31c-.22,0-.38-.2-.48-.38a3.11,3.11,0,0,1,0-3" transform="translate(-89.16 -646.38)"/><path class="cls-3" d="M601.29,928.21a11.83,11.83,0,0,1,.08,5.42,1.85,1.85,0,0,1,1-1.31.47.47,0,0,1,.28-.05c.25,0,.33.36.33.61a5.24,5.24,0,0,1-.66,2.6c-.08.15-.22.32-.39.28s-.11-.49.14-.51.44.21.58.42a3.67,3.67,0,0,1,.55,2.17l.1-.23" transform="translate(-89.16 -646.38)"/><path class="cls-3" d="M602.66,932.74c-1.38-.64-3.17-.33-4.28-1.37-.88-.82-1-2.16-1-3.36a5.06,5.06,0,0,1,.7-3.29,7.34,7.34,0,0,1-.33,3.37,5.6,5.6,0,0,0-.1,3.36,2.09,2.09,0,0,0,2.72,1.3,2.32,2.32,0,0,1-2.24.23,5.6,5.6,0,0,1-1.9-1.37c-2.34-2.34-4.17-5.46-4-8.76l.17,4.78a93.61,93.61,0,0,1-.27-11.72,30.6,30.6,0,0,1,2.7-11.35" transform="translate(-89.16 -646.38)"/><path class="cls-3" d="M595.33,907.76a67.24,67.24,0,0,1-1.46,13.64c0-7.93,1.74-15.75,3.43-23.5" transform="translate(-89.16 -646.38)"/><path class="cls-3" d="M597.1,895.43A86.64,86.64,0,0,0,591.65,917a5.5,5.5,0,0,1-1.15,3.33,18.64,18.64,0,0,1-2.07-5.92,24.83,24.83,0,0,1,.66-10.21,73.09,73.09,0,0,1,3.44-9.7" transform="translate(-89.16 -646.38)"/><path class="cls-3" d="M592.39,893.84c-1.55,3.63-4,7-4.5,10.91a22.34,22.34,0,0,0,.33,6.42c.33,2.14.7,4.28,1.11,6.4" transform="translate(-89.16 -646.38)"/><path class="cls-3" d="M588.69,920.37a9.57,9.57,0,0,1-2.94-3.49,8.65,8.65,0,0,1-.46-2.63,42,42,0,0,1,3.82-20" transform="translate(-89.16 -646.38)"/><path class="cls-3" d="M585.44,913a10.06,10.06,0,0,0,6.11,10.13" transform="translate(-89.16 -646.38)"/><path class="cls-3" d="M588.81,921.89a11.1,11.1,0,0,1-3.75-6.77,28.41,28.41,0,0,1,0-7.87c-1.28,2.32-1,5.18-.44,7.79a31.24,31.24,0,0,0,3.3,9.51,15.29,15.29,0,0,0,7.33,6.68" transform="translate(-89.16 -646.38)"/><path class="cls-3" d="M595.13,930.16c-2.45-1.74-3.68-4.72-4.39-7.64a33.47,33.47,0,0,1,4.45-25.93" transform="translate(-89.16 -646.38)"/><path class="cls-3" d="M589.61,905.56c-.94-1-2.49-1.47-3.09-2.72a4.3,4.3,0,0,1-.07-2.77,29.45,29.45,0,0,1,10.12-16.44c2.45-2,5.66-3.65,8.68-2.71" transform="translate(-89.16 -646.38)"/><path class="cls-3" d="M595,894.7a6,6,0,0,1,.46-5.51,15.1,15.1,0,0,1,3.94-4.15,14.78,14.78,0,0,1,4.83-2.81,5.85,5.85,0,0,1,5.34.82" transform="translate(-89.16 -646.38)"/><path class="cls-3" d="M601.86,902.39A39.55,39.55,0,0,1,604,892.1a20.16,20.16,0,0,1,5.85-8.63" transform="translate(-89.16 -646.38)"/><path class="cls-3" d="M604.76,904a15.62,15.62,0,0,1,7-13.8c-1.31,3.89-4.82,6.66-6.47,10.41a12.11,12.11,0,0,0-1,5.34,2.35,2.35,0,0,0,.71,1.86" transform="translate(-89.16 -646.38)"/><path class="cls-3" d="M605.45,903.44c.17,1.18.3,2.37.39,3.56a2.25,2.25,0,0,1-.23,1.48s-.09.1-.14.09-.05-.13,0-.11" transform="translate(-89.16 -646.38)"/><path class="cls-3" d="M606,907.38c-.87,2.58-1.65,5.2-2.31,7.84a1,1,0,0,0,0,.5.33.33,0,0,0,.38.26" transform="translate(-89.16 -646.38)"/><path class="cls-3" d="M604.4,913.52l.25,3.19c0,.42.12.92.51,1.08a7.82,7.82,0,0,1,1.06-2.71c0,2.22-1.1,4.3-1.32,6.5" transform="translate(-89.16 -646.38)"/><path class="cls-3" d="M606.17,918.41c-.22,2.84-.48,5.81-2,8.18-.14.2-.33.42-.56.38s-.36-.29-.44-.51c-1.91-5.41-1.5-11.34-1.07-17.06" transform="translate(-89.16 -646.38)"/><path class="cls-3" d="M600.28,912l-1.54,3a1.13,1.13,0,0,1-.49.58.76.76,0,0,1-.85-.25,1.87,1.87,0,0,1-.35-.86,11.61,11.61,0,0,1,.07-3.81c.21-1.37.47-2.74.79-4.09a5.65,5.65,0,0,1,.9-2.21.56.56,0,0,1,.27-.21c.11,0,.26.07.24.18" transform="translate(-89.16 -646.38)"/><path class="cls-3" d="M598.72,909.77l-1.48,6.45c1.18-7.89,5.08-15.07,8.92-22.07" transform="translate(-89.16 -646.38)"/><path class="cls-3" d="M606,894.25c1.18-2.11,2.48-4.35,4.66-5.39.31-.15.75-.24,1,0a.74.74,0,0,1,.07.51c-.24,2.61-1.34,5.06-1.64,7.66a.65.65,0,0,0,.11.58c.25.25.67,0,.91-.27,1.21-1.38,1.78-3.28,3.18-4.47.43,1.86-1.1,3.67-1,5.57,0,.22.11.49.33.47a.32.32,0,0,0,.22-.13,4.8,4.8,0,0,0,1-2.43,24.1,24.1,0,0,1,1.93-5.33,4.91,4.91,0,0,1,2.53-2.72" transform="translate(-89.16 -646.38)"/><path class="cls-3" d="M615.51,895.34l7-8a.78.78,0,0,1,.35-.28c.3-.08.59.23.61.54a1.52,1.52,0,0,1-.3.86,3.81,3.81,0,0,1-2,1.91,2.67,2.67,0,0,1-2.46-.79,6.71,6.71,0,0,1-1.38-2.31,3.73,3.73,0,0,1-.38-1.48,3,3,0,0,1,.71-1.76,8.1,8.1,0,0,1,4.9-2.67c1.53-.31,3.44-.21,4.23,1.13a2.94,2.94,0,0,1,0,2.59,8.81,8.81,0,0,1-1.5,2.21c-.23.28-.58.58-.91.42.26-.24.71,0,.78.36a1.37,1.37,0,0,1-.3,1,13.32,13.32,0,0,1-2.92,3.3" transform="translate(-89.16 -646.38)"/><path class="cls-3" d="M619.22,893a7.79,7.79,0,0,1-3.57-4.84,10.86,10.86,0,0,1,.31-6.08.47.47,0,0,0,0-.42c-.11-.12-.31-.08-.46,0l-3.66,1.3a4.53,4.53,0,0,1,3.29-1.2.88.88,0,0,1,.61.2,1,1,0,0,1,.16.89,6.83,6.83,0,0,1-2.79,3.71c-1.18.9-2.82,1.68-4.08.91a2.67,2.67,0,0,1-1-2.8A5.66,5.66,0,0,1,609.6,882a14.08,14.08,0,0,1,6-3.73c.56-.18,1.29-.26,1.62.22a1.37,1.37,0,0,1,.18.71c0,2-1.07,3.91-2.31,5.52-.79,1-2,2.12-3.2,1.73a2.24,2.24,0,0,1-1.27-2.63,5.32,5.32,0,0,1,1.76-2.61,15.72,15.72,0,0,1,3.34-2.4.55.55,0,0,1,.39-.08c.23.06.26.38.25.62-.07.85-.17,1.69-.3,2.53" transform="translate(-89.16 -646.38)"/><path class="cls-3" d="M616,882.42l2.22-2.24a1.8,1.8,0,0,1,1.06-.66,1.43,1.43,0,0,1,1.23.83,5.42,5.42,0,0,1,.56,2.64" transform="translate(-89.16 -646.38)"/><path class="cls-3" d="M615.68,886.75a9.38,9.38,0,0,1-3.71.74,3.21,3.21,0,0,1-2.92-2.06,6.8,6.8,0,0,1,.07-2.5.53.53,0,0,0-.08-.39.5.5,0,0,0-.48,0,16.09,16.09,0,0,0-9.76,6.86l2-5.81a5.46,5.46,0,0,1,1-2,4.5,4.5,0,0,1,2.86-1.23,2.42,2.42,0,0,1,1.28.1c1,.46,1,1.88.69,2.93a11.75,11.75,0,0,1-2.77,4.81,4.22,4.22,0,0,1-1.88,1.28,3.28,3.28,0,0,1-3.7-2.06,5.36,5.36,0,0,1,.49-4.46,15.67,15.67,0,0,1,2.95-3.56,3,3,0,0,0-2.78.35,9.75,9.75,0,0,0-4.83,7.15c-.07.59.13,1.42.72,1.37a1.11,1.11,0,0,0,.68-.49l3-3.75c.44.52.16,1.31-.14,1.92-1.12,2.3-2.45,4.65-4.66,6a3.14,3.14,0,0,1-1.77.53,2.82,2.82,0,0,1-2.08-1.42,5.29,5.29,0,0,1-.09-5.13,7.84,7.84,0,0,1,3.94-3.5c-1,2.22-2.95,3.83-4.65,5.59s-3.24,4-3.09,6.38a6.06,6.06,0,0,1-.36-4,17.89,17.89,0,0,1,1.48-3.86,5.92,5.92,0,0,1,2.27-2.93c1.09-.57,2.61-.5,3.27-1.54" transform="translate(-89.16 -646.38)"/><path class="cls-3" d="M592.18,882.5a17.15,17.15,0,0,0-5.66,7.67,6.76,6.76,0,0,0-.51,2.76,3,3,0,0,0,1.33,2.37,3.24,3.24,0,0,0,3.4-.32,12,12,0,0,0,2.48-2.59,6.75,6.75,0,0,1,2.75-2.26,2.72,2.72,0,0,1,3.21.86,3.47,3.47,0,0,1,0,2.94,11,11,0,0,1-3.08,4.56c-.27.23-.67.46-1,.24s-.2-.53-.13-.82a9,9,0,0,1,1.13-2.67,4,4,0,0,1,1.43-1.45,1.92,1.92,0,0,1,1.95,0,2.82,2.82,0,0,1,.9,2.21c.19,2.77-.54,6-3,7.32" transform="translate(-89.16 -646.38)"/><path class="cls-3" d="M590,896.33l-3.19.26a2.74,2.74,0,0,0-1.07.23,2,2,0,0,0-.87,1,3.36,3.36,0,0,0-.13,2.21,6.53,6.53,0,0,0,1.63,2.5" transform="translate(-89.16 -646.38)"/><path class="cls-3" d="M586.93,903.24c-1.06-.26-2.11-.58-3.14-.94a1.15,1.15,0,0,1-.47-.23,1.29,1.29,0,0,1-.29-.57l-.68-2.07" transform="translate(-89.16 -646.38)"/><path class="cls-3" d="M582,899.11a26.79,26.79,0,0,1-3.54,1.39,1.77,1.77,0,0,0-1-.51" transform="translate(-89.16 -646.38)"/><path class="cls-3" d="M603.45,1016a30.25,30.25,0,0,1,.27,3.92c0,1.58-.32,3.15-.46,4.73a57.23,57.23,0,0,0,.61,12.39,5.32,5.32,0,0,0,.53,2c.76,1.31,2.42,1.74,3.91,2a17.1,17.1,0,0,0,5.92.23,6.72,6.72,0,0,0,4.78-3.21,9.27,9.27,0,0,0,.74-2.19,73.35,73.35,0,0,0,1.83-12c.5-7.35.59-21.49.59-21.49A121.86,121.86,0,0,1,621,975.59c.35-5.48,1.08-11,.11-16.43a8.33,8.33,0,0,0-1.44-3.69,7.17,7.17,0,0,0-3.76-2.15,10.84,10.84,0,0,0-4.43,0,7.24,7.24,0,0,0-3.49,1.93,16.11,16.11,0,0,0-4.46,9.26,79.06,79.06,0,0,0-.6,10.44c-.32,8.66-2,17.28-1.53,25.93C601.36,1000.88,602.85,1010.56,603.45,1016Z" transform="translate(-89.16 -646.38)"/><path class="cls-3" d="M619.72,1051.2a45,45,0,0,0,7.52,0,4.32,4.32,0,0,0,1.81-.53c1.26-.82,1.43-2.56,1.46-4.06l.2-8.13a34.92,34.92,0,0,0-.09-4.46c-.15-1.42-.47-2.81-.69-4.22-.24-1.59-.34-3.2-.43-4.81-.41-7.16.36-19.76.57-23.06a11.09,11.09,0,0,0,0-1.63c-.25-3,.31-6.07.28-9.12a37.5,37.5,0,0,0-.52-5.48,104.35,104.35,0,0,0-8.72-28.73c-1.19-2.54-2.69-5.23-5.29-6.28a10,10,0,0,0-3.73-.58c-5.78,0-12.26,2.39-15.92,6.87" transform="translate(-89.16 -646.38)"/><path class="cls-3" d="M615.73,1040.87a17.27,17.27,0,0,1,2.79,3.94,13.89,13.89,0,0,1,1.17,7,41.61,41.61,0,0,1-1.27,7.07,2.16,2.16,0,0,1-.77,1.42,1.49,1.49,0,0,1-2-.74,4.44,4.44,0,0,1-.27-2.32,4.19,4.19,0,0,0-.28-2.31" transform="translate(-89.16 -646.38)"/><path class="cls-3" d="M615.69,1059.57a4.67,4.67,0,0,0-.35.9,2.47,2.47,0,0,1-.45.92,5.66,5.66,0,0,1-.68.77,1,1,0,0,1-.37.12,2.78,2.78,0,0,1-2.11-.16c-.76-.54-.77-1.65-.7-2.59l.42-5.29" transform="translate(-89.16 -646.38)"/><path class="cls-3" d="M606.88,1040.75c-.35,1.85-2.13,3.72-3.25,5.23a20.49,20.49,0,0,0-1.78,3,7.62,7.62,0,0,0-1,3,2.72,2.72,0,0,0,1.47,2.65c1.3.53,2.7-.36,4.08-.55,0,0-.51,2.49-.85,3.94a9.83,9.83,0,0,0-.36,2.47,3.36,3.36,0,0,0,.86,2.29,2.8,2.8,0,0,0,3.94-.15,7,7,0,0,0,1-3.55" transform="translate(-89.16 -646.38)"/><path class="cls-3" d="M581.18,1033.54c.19,3.32.53,7.85,1,11.14.38,2.54,1,5.35,3.13,6.81a7.43,7.43,0,0,0,3.24,1.12,16.3,16.3,0,0,0,4.73,0c2-.32,4-1,6-.94a2.45,2.45,0,0,0,1.7-.29" transform="translate(-89.16 -646.38)"/><path class="cls-3" d="M595.25,969.67a32.24,32.24,0,0,1-2.6,9.73c-.57,1.29-1.23,2.55-1.89,3.8l-2.13,4.06c-2,3.82-4.67,7-6.67,10.83" transform="translate(-89.16 -646.38)"/><path class="cls-3" d="M580.62,1001a1.56,1.56,0,0,1-.45.47,1.59,1.59,0,0,1-.41.16l-1,.28a3.59,3.59,0,0,1-1.83.17,2.22,2.22,0,0,1-1.44-1.42,4.25,4.25,0,0,1-.14-2.07,3.73,3.73,0,0,1,.67-1.83,4.09,4.09,0,0,1,.87-.79,3.06,3.06,0,0,1,1.2-.62,3.49,3.49,0,0,1,1.82.27,3.62,3.62,0,0,1,1.11.51,3,3,0,0,1,1,1.94,1.79,1.79,0,0,1-.35,1.62C581.29,1000.15,581,1000.59,580.62,1001Z" transform="translate(-89.16 -646.38)"/><path class="cls-3" d="M575.31,999.92a81.21,81.21,0,0,0-.83,20.65c.38,3.77,1.15,7.75,3.73,10.51a17.11,17.11,0,0,0,2.52,2.13c1.53,1.1,3.25,2.17,5.13,2.11a6.26,6.26,0,0,0,4.74-3,18.8,18.8,0,0,0,2.14-5.38l3.48-12.43a45.91,45.91,0,0,0,1.39-6c.18-1.32.24-2.66.36-4,.53-5.82,2.25-11.56,1.93-17.39,0,0,.29-3.56.42-5.85.27-4.72.52-9.58-1-14.07-1.16-3.52-3.41-10.15-3.41-10.15-2.11-.56-4.27.63-6,2-6.82,5.31-11,13.35-14.05,21.42a33.4,33.4,0,0,0-2.36,8.67,13.49,13.49,0,0,0,1.84,8.65" transform="translate(-89.16 -646.38)"/><path class="cls-3" d="M596.19,1052l-1.06,25.14c-.13,3-.26,6-.31,9a174.16,174.16,0,0,0,1.15,23,29.67,29.67,0,0,0,2,8.6,11.15,11.15,0,0,0,6.06,6.13,13.11,13.11,0,0,0,5.29.54,13.48,13.48,0,0,0,7.77-2.56,17,17,0,0,0,3.47-4.65c2.15-8.55,1.19-17.53,1.56-26.33.26-6.1,1.17-12.15,1.42-18.25a168.35,168.35,0,0,0-.92-21.29" transform="translate(-89.16 -646.38)"/><path class="cls-3" d="M619.84,1118.3c2,2.27,6.1,2.48,9,3.44,2.63.87,5.45,1.12,8,2.25,3.25,1.46,5.94,4.93,5.16,8.41-.65,2.9-3.37,4.8-6,6.2a27.64,27.64,0,0,1-11.69,3.69c-2.58.11-5.16-.33-7.75-.39-3.66-.09-7.35.56-11,0s-7.4-2.61-8.36-6.14a12.53,12.53,0,0,1-.28-3.46c.06-2.45.27-5.09,1.85-7a6.58,6.58,0,0,1,3.65-2.4" transform="translate(-89.16 -646.38)"/><path class="cls-3" d="M597,1130.3c1.23,2.74,4,4.42,6.86,5.37a22,22,0,0,0,6.93.75h12c1.42,0,3.14.19,3.71,1.48.46,1,1.42,2.44.36,4.09" transform="translate(-89.16 -646.38)"/><path class="cls-3" d="M627.12,1139a54.49,54.49,0,0,1,3.75-7.63,60.35,60.35,0,0,1,5.94-7.42" transform="translate(-89.16 -646.38)"/><path class="cls-3" d="M620,1132l1.36-5.37a11.1,11.1,0,0,1,1.42-2.5,21.29,21.29,0,0,1,3.33-3.11" transform="translate(-89.16 -646.38)"/><path class="cls-3" d="M611.4,1135.85c.1-2.56-.44-4.95.29-7.51a11.17,11.17,0,0,1,1.57-3.33,21.1,21.1,0,0,1,1.3-1.82" transform="translate(-89.16 -646.38)"/><circle cx="542.59" cy="258.61" r="3.26"/><path class="cls-3" d="M605.42,950.86c1-.87,1.09-1.86,1.75-3.23a5.07,5.07,0,0,0,.43-1.24,24.1,24.1,0,0,0,.39-5.56" transform="translate(-89.16 -646.38)"/><path class="cls-3" d="M601,935.77c2.42,2.24,4,3.71,7,5.06" transform="translate(-89.16 -646.38)"/><path class="cls-3" d="M638.67,919.51a25.39,25.39,0,0,1-8.13,13.92c-4.1,3.62-14.6,7-14.6,7l-.71,3.25a8.31,8.31,0,0,0-.27,1.92c0,1.88,1.27,3.51,1.67,5.34" transform="translate(-89.16 -646.38)"/><path class="cls-3" d="M630.44,886.44a41.93,41.93,0,0,1,6.62,5.92,14.31,14.31,0,0,1,3.62,8,41.73,41.73,0,0,1-.29,5.58,21.48,21.48,0,0,0,1.71,9.56c.49,1.13,1.06,2.47.41,3.51a2.42,2.42,0,0,1-3.09.57,7.13,7.13,0,0,1-2.38-2.44" transform="translate(-89.16 -646.38)"/><path class="cls-3" d="M622.29,894.82a17.27,17.27,0,0,1,6.3-1.66,8.8,8.8,0,0,1,4.87,1.48" transform="translate(-89.16 -646.38)"/><path class="cls-3" d="M624.11,903.33a9.63,9.63,0,0,0,2.74,3.89,3.85,3.85,0,0,0,1.67.93,4.67,4.67,0,0,0,1.49,0,12.89,12.89,0,0,0,3.75-.87,6.77,6.77,0,0,0,3.91-5.44s-2.56-1.88-4.15-2a11.09,11.09,0,0,0-4.67.88c-.36.14-.72.3-1.07.47C626.43,901.82,624.11,903.33,624.11,903.33Z" transform="translate(-89.16 -646.38)"/><path class="cls-3" d="M622.12,929.6l2.9-2.2c1.46-1.11,3-2.27,4.86-2.4a6.27,6.27,0,0,1,2.1.25c1.51.41,3,1.14,3.26,2.69" transform="translate(-89.16 -646.38)"/><path class="cls-3" d="M612.38,901.39l-3.15-1.83a4.33,4.33,0,0,0-2.52,2.17,3,3,0,0,0-.14.89c0,1.59.79,3.21.28,4.72a10.55,10.55,0,0,1-.59,1.22,3.45,3.45,0,0,0-.08,3.14,2,2,0,0,0,2.78.72" transform="translate(-89.16 -646.38)"/><path class="cls-3" d="M606.76,913.94l-2.15,4.2a2.68,2.68,0,0,0-.35,1,1.46,1.46,0,0,0,1.11,1.52,7.21,7.21,0,0,0,1.14,0,2.6,2.6,0,0,1,2.25,2.64,3.62,3.62,0,0,1-2.06,3c-.32.16-.75.27-1,0a.83.83,0,0,1-.23-.48,4.23,4.23,0,0,1,0-2,.8.8,0,0,1,.2-.4.61.61,0,0,1,.78,0,1.76,1.76,0,0,1,.48.69" transform="translate(-89.16 -646.38)"/><path class="cls-3" d="M604.88,926.28c-.11,1.59.68,3.3-.06,4.71a2.4,2.4,0,0,1-4.21.07,3.33,3.33,0,0,1,0-2.89,1.72,1.72,0,0,0,.21-.7,1.16,1.16,0,0,0-.83-1,2.29,2.29,0,0,0-2.43.87,5.08,5.08,0,0,0-.88,2.57,13.35,13.35,0,0,0,.13,3.84.46.46,0,0,0,.11.28.41.41,0,0,0,.31.07c1.15-.11,1.84-1.77,3-1.55a1.49,1.49,0,0,1,1,1.45,3,3,0,0,1-1,2.43,1.9,1.9,0,0,1-1.67.54,1.83,1.83,0,0,1-1.2-1.26,5.48,5.48,0,0,1-.13-1.81" transform="translate(-89.16 -646.38)"/><path class="cls-3" d="M602.1,925a9,9,0,0,1-3.58-1,4,4,0,0,1,4.12-3c-1.52-1.15-1.64-3.39-2.71-5a1.08,1.08,0,0,0-.88-.59,1.17,1.17,0,0,0-.68.38,2.54,2.54,0,0,0-.7,1,1.07,1.07,0,0,0,.17,1.12,1.64,1.64,0,0,0,1.25.32" transform="translate(-89.16 -646.38)"/><path class="cls-3" d="M598.54,922.33a16.05,16.05,0,0,1-3.67.92,2.66,2.66,0,0,1,2.39-2.74,1.16,1.16,0,0,1,1,.35,1.27,1.27,0,0,1,.12,1A3.94,3.94,0,0,1,597,924.3a2.73,2.73,0,0,1-2.74.41,1.5,1.5,0,0,1-.81-.81.87.87,0,0,1,.31-1" transform="translate(-89.16 -646.38)"/><path class="cls-3" d="M597,926.57l-.69,3.08a2.69,2.69,0,0,1-.59,1.37,1.66,1.66,0,0,1-2.33-.22,2.62,2.62,0,0,1-.33-2.5,1.75,1.75,0,0,1,.89-1.11,1.4,1.4,0,0,1,1.53.41,2.42,2.42,0,0,1,.58,1.55,3.06,3.06,0,0,1-1,2.46,1.37,1.37,0,0,1-.62.32c-.69.1-1.21-.6-1.54-1.22" transform="translate(-89.16 -646.38)"/><path class="cls-3" d="M597.86,932.52a15.55,15.55,0,0,1-1.72,3.12,2.08,2.08,0,0,1-2.67-1.44,1.67,1.67,0,0,1,.34-1.42,1.23,1.23,0,0,1,1.38-.33,1.28,1.28,0,0,1,.61,1.49,2,2,0,0,1-1.14,1.26,3.64,3.64,0,0,1-4.27-1.25,5.89,5.89,0,0,1-.88-4.6" transform="translate(-89.16 -646.38)"/><path class="cls-3" d="M593.53,926.65a12.16,12.16,0,0,1-3.79,2,5.71,5.71,0,0,1-2.92-4.57c-1.24,1.09-1.41,2.94-1.49,4.59a3.36,3.36,0,0,0,.08,1.14,1.16,1.16,0,0,0,.75.81" transform="translate(-89.16 -646.38)"/><path class="cls-3" d="M594.62,920.63c-.27,1.59.4,3.41-.49,4.76a2.47,2.47,0,0,1-3.15.77,3.17,3.17,0,0,1-1.2-3.63,7.37,7.37,0,0,1,2.41-3.28,1.19,1.19,0,0,0,.47-.67,1,1,0,0,0-.09-.47,10.38,10.38,0,0,0-.73-1.59,3.27,3.27,0,0,0-1.19-1.31,2.47,2.47,0,0,0-3,.94,5,5,0,0,0-.66,3.32" transform="translate(-89.16 -646.38)"/><path class="cls-3" d="M596.72,916.4c-.33,1.05-.67,2.1-1,3.14a1.85,1.85,0,0,1-.39.73,1.68,1.68,0,0,1-.56.3,2.38,2.38,0,0,1-1.29.15,2.05,2.05,0,0,1-1.53-1.87,3.37,3.37,0,0,1,.89-2.38,10,10,0,0,1,2-1.67l1.91-1.32a2.66,2.66,0,0,0,.79-.74,1.63,1.63,0,0,0-.32-1.86,3.17,3.17,0,0,0-1.78-.85" transform="translate(-89.16 -646.38)"/><path class="cls-3" d="M601.81,910.64l.23,3.61a2.25,2.25,0,0,1-.17,1.29,1.9,1.9,0,0,1-.68.64,3.17,3.17,0,0,1-1.34.53,1.47,1.47,0,0,1-1.29-.5,1.85,1.85,0,0,1,.32-2.2,4.29,4.29,0,0,1,1.9-1.35.92.92,0,0,1,.54-.08c.32.07.52.4.65.7a7.71,7.71,0,0,1,.6,2.26" transform="translate(-89.16 -646.38)"/><path class="cls-3" d="M603.44,916c.07,1.28.31,2.54.28,3.82a4.85,4.85,0,0,1-1.33,3.47.51.51,0,0,1-.42.19.48.48,0,0,1-.3-.24,2,2,0,0,1-.08-2.07,1.18,1.18,0,0,1,.68-.6,1.12,1.12,0,0,1,1.18.59,3.15,3.15,0,0,1,.35,1.36c.22,2.06.39,4.32-.78,6-.08.11-.18.22-.31.21a.33.33,0,0,1-.25-.18,3.69,3.69,0,0,1-.65-1.44" transform="translate(-89.16 -646.38)"/><path class="cls-3" d="M601.7,907.57c.47,1,.9,1.94,1.28,2.93a3.17,3.17,0,0,1,.27,1,1.85,1.85,0,0,1-1.57,1.91,2.82,2.82,0,0,1-2.15-1,6.33,6.33,0,0,1-1.78-3.6,3,3,0,0,1,.33-2.06,3.45,3.45,0,0,1,1.7-1.16" transform="translate(-89.16 -646.38)"/><path class="cls-3" d="M605.45,911.41a32.83,32.83,0,0,1,1,4,1.17,1.17,0,0,1-1.43.06,2.76,2.76,0,0,1-1-1.2,4.43,4.43,0,0,1-.32-4.08,6.83,6.83,0,0,0,.59-1,2.81,2.81,0,0,0,0-1.52,21,21,0,0,0-.55-2c-.17-.54-.44-1.15-1-1.27a1.72,1.72,0,0,0-1.36.56c-.82.68-1.72,1.58-1.52,2.62a2.5,2.5,0,0,0,1.67,1.63" transform="translate(-89.16 -646.38)"/><path class="cls-3" d="M605.25,904.88a22.14,22.14,0,0,1-.15,3.45,3.11,3.11,0,0,1,.14-5.57c0,.6-.59,1-1.12,1.28s-1.38.63-2,.27a1.84,1.84,0,0,1-.59-.65,10.92,10.92,0,0,1-1.11-2.31,2.83,2.83,0,0,1-.16-1.72,1.81,1.81,0,0,1,1.79-1.23,2.11,2.11,0,0,1,1.78,1.32" transform="translate(-89.16 -646.38)"/><path class="cls-3" d="M606.13,899.41c-.2.81-.16,1.66-.31,2.49a2.58,2.58,0,0,1-1.34,2,.81.81,0,0,1-1.07-.23,2.88,2.88,0,0,1-.52-1.44,5.61,5.61,0,0,1,0-2,2.25,2.25,0,0,1,1.15-1.61,5.1,5.1,0,0,1,1.46-.27,1.73,1.73,0,0,0,1.27-.67,1.8,1.8,0,0,0,.19-.82,5.34,5.34,0,0,0-.59-2.6" transform="translate(-89.16 -646.38)"/><path class="cls-3" d="M606.88,900a21.49,21.49,0,0,0,1.84-3.4,4.05,4.05,0,0,0-1.38-1.52,2.18,2.18,0,0,0-3,1.07.68.68,0,0,0,0,.42c.09.37.6.43,1,.31a3.61,3.61,0,0,0,1.38-1.08q1.76-1.92,3.38-4" transform="translate(-89.16 -646.38)"/><path class="cls-3" d="M608.44,897.69a21.36,21.36,0,0,1,3.07-2.1,3.44,3.44,0,0,1-1.17,3.86.47.47,0,0,1-.33.12.5.5,0,0,1-.29-.23,2.42,2.42,0,0,1-.26-2,3,3,0,0,1,1.24-1.6,1.21,1.21,0,0,1,1.09-.21,1.3,1.3,0,0,1,.62.72,13.89,13.89,0,0,1,1,4.88,8.4,8.4,0,0,0,1.44-1.75" transform="translate(-89.16 -646.38)"/><path class="cls-3" d="M611.61,896.72c.23-.82.26-1.68.45-2.51a3.28,3.28,0,0,1,1.29-2.12,1.64,1.64,0,0,1,2.25.39,2.17,2.17,0,0,1,.12,1.51,7.87,7.87,0,0,1-.81,2.2.88.88,0,0,1-.29.34.8.8,0,0,1-.75,0,3.93,3.93,0,0,1-1.54-1.73c-.24-.44-.46-.89-.66-1.36a1.47,1.47,0,0,1-.16-1,1,1,0,0,1,.91-.65,2.31,2.31,0,0,1,1.15.26,3.64,3.64,0,0,1-1.72,1.56,4.35,4.35,0,0,1-2,.68,1.54,1.54,0,0,1-1.5-2.43,5,5,0,0,1,1-1.14" transform="translate(-89.16 -646.38)"/><path class="cls-3" d="M612,889.62a41.25,41.25,0,0,1,4.11-2,3.15,3.15,0,0,1-1.06,3.84.51.51,0,0,1-.48.11.58.58,0,0,1-.24-.27,2.27,2.27,0,0,1-.32-2,2,2,0,0,1,.89-.79,2.29,2.29,0,0,1,2.42-.14,2.73,2.73,0,0,1,.64,2.39l-.13,2.07a4.24,4.24,0,0,0,2.19-1.65,10,10,0,0,0,1.2-2.51,1.5,1.5,0,0,0,.12-.88c-.08-.29-.41-.53-.68-.4" transform="translate(-89.16 -646.38)"/><path class="cls-3" d="M618.33,889.42a18.76,18.76,0,0,1-1-3.74,13.3,13.3,0,0,0,1.75-.7,2.25,2.25,0,0,1,1.83-.05,2.46,2.46,0,0,1,1,1.67,10.43,10.43,0,0,1,.31,3.2,1.72,1.72,0,0,0,.24,1.29c1.43-.67,1.86-2.63,3.25-3.38" transform="translate(-89.16 -646.38)"/><path class="cls-3" d="M627.91,886.92c-.28.93-.6,1.83-1,2.73a1.8,1.8,0,0,1-.94,1.15,1.21,1.21,0,0,1-1.22-.41,3.15,3.15,0,0,1-.59-1.22,9.93,9.93,0,0,1-.5-3.24,1.28,1.28,0,0,1,.42-1.07,1.42,1.42,0,0,1,1.19,0l1.53.52a1.51,1.51,0,0,1,.58.29,1.53,1.53,0,0,1,.29,1.19l-.07,1.6c0,.36.09.85.45.86s.43-.25.55-.47a8.07,8.07,0,0,0,1-2.39,2.64,2.64,0,0,0-.7-2.37" transform="translate(-89.16 -646.38)"/><path class="cls-3" d="M628.88,884.72l2.88-1.54" transform="translate(-89.16 -646.38)"/><path class="cls-3" d="M631.75,882.9l-.33,3.48a1.74,1.74,0,0,1-.49,1.26,1.15,1.15,0,0,1-1.16,0,2.9,2.9,0,0,1-.89-.82,12.49,12.49,0,0,1-2.28-4.6,2,2,0,0,1,.15-1.77,1.88,1.88,0,0,1,1.49-.5.77.77,0,0,1,.6.18c.2.23.08.58-.06.85a5.19,5.19,0,0,1-3.47,3,1.74,1.74,0,0,1-.88,0,1.67,1.67,0,0,1-1-1.25,2.49,2.49,0,0,1,2.82-3" transform="translate(-89.16 -646.38)"/><path class="cls-3" d="M623,886.54a38.9,38.9,0,0,0,5.33-4.85.29.29,0,0,0,.1-.24.27.27,0,0,0-.11-.15,7.47,7.47,0,0,1-.85-.63,1.06,1.06,0,0,1-.34-.94" transform="translate(-89.16 -646.38)"/><path class="cls-3" d="M623.23,883.08a16.74,16.74,0,0,1-1.16-3.12,1.9,1.9,0,0,1-.09-.58,1.77,1.77,0,0,1,.19-.63,5.31,5.31,0,0,1,2.91-2.64,1.26,1.26,0,0,1,1,0,1.36,1.36,0,0,1,.52,1.17,7.11,7.11,0,0,1-.64,3.56,4.8,4.8,0,0,1-2.59,2.46,1.67,1.67,0,0,1-1.51,0,2.07,2.07,0,0,1-.7-1.34l-.51-2.17c-.3-1.31-.59-2.79.16-3.91" transform="translate(-89.16 -646.38)"/><path class="cls-3" d="M620.81,874.06a22.19,22.19,0,0,0-2.3,2.81l3.29-.6a1,1,0,0,1,.76.07.87.87,0,0,1,.21.87c-.43,2.69-2.72,4.69-5.14,5.93-1.07.55-2.48,1-3.39.18a2.22,2.22,0,0,1-.67-1.2,5.76,5.76,0,0,1,.49-3.2,32.28,32.28,0,0,1,4.19-7.72" transform="translate(-89.16 -646.38)"/><path class="cls-3" d="M617.37,874.75a16.54,16.54,0,0,0-1.89,3.42,2,2,0,0,0,2.09.93,20.18,20.18,0,0,1,2.41-.4,1.16,1.16,0,0,1,.64.17,1.31,1.31,0,0,1,.38,1.07,13.08,13.08,0,0,1-.78,4.64,1.31,1.31,0,0,1,.75-.08.46.46,0,0,1,.34.58.55.55,0,0,1-.19.21,3,3,0,0,1-3.74-4.59,1.58,1.58,0,0,1,.75-.38.69.69,0,0,1,.71.35" transform="translate(-89.16 -646.38)"/><path class="cls-3" d="M617.69,881.73a13.73,13.73,0,0,1-1.57,3.33,4.71,4.71,0,0,1-3,2,1.27,1.27,0,0,1-1.18-.28,1.31,1.31,0,0,1-.27-.69,5.16,5.16,0,0,1,1.77-4.66c.19-.16.46-.31.68-.18s.22.39.21.62a27.42,27.42,0,0,1-.73,5.56,3.21,3.21,0,0,1-1.13,2.07,2.18,2.18,0,0,1-2.94-.95,4.1,4.1,0,0,1,0-3.36c.39-1.09,1-2.08,1.48-3.14a.65.65,0,0,0-.65-1.05,5.65,5.65,0,0,0-2.9.53,3.15,3.15,0,0,0-1.73,2.28" transform="translate(-89.16 -646.38)"/><path class="cls-3" d="M613.24,877.71c-.47,1.41-.34,3.09-1.33,4.2a2.65,2.65,0,0,1-2.47.81,1.12,1.12,0,0,1-.71-.41c-.32-.47,0-1.09.37-1.53a18.61,18.61,0,0,1,3.86-3.66,2.92,2.92,0,0,0,.81-.71.91.91,0,0,0,.07-1c-.27-.41-.87-.39-1.34-.27a4.13,4.13,0,0,0-2.26,1.44,2.71,2.71,0,0,0-.41,2.57" transform="translate(-89.16 -646.38)"/><path class="cls-3" d="M611.12,882.32c.16,1.2.31,2.4.44,3.61a2.31,2.31,0,0,1,0,.83,2,2,0,0,1-.58.92,2.32,2.32,0,0,1-1.44.74,1.18,1.18,0,0,1-1.25-.86.28.28,0,0,1,0-.18.29.29,0,0,1,.16-.1,1.72,1.72,0,0,1,1.91.92,2.49,2.49,0,0,1-.09,2.21,4.65,4.65,0,0,1-1.59,1.62,2.11,2.11,0,0,1-2.32.28,2.22,2.22,0,0,1-.68-1,5.66,5.66,0,0,1-.57-2.95c.3-1.79,2.18-2.93,4-3.12.57-.07,1.35.12,1.35.7a1.1,1.1,0,0,1-.54.78,11.39,11.39,0,0,1-6.3,2.19c-.36,0-.86.15-.8.51" transform="translate(-89.16 -646.38)"/><path class="cls-3" d="M609.29,889.34a22,22,0,0,1,3.41,2.5,3.48,3.48,0,0,1-3.08,1.54,1.72,1.72,0,0,1-1.53-.88,1.39,1.39,0,0,1,.4-1.48,2.39,2.39,0,0,1,1.5-.56c.23.6-.35,1.17-.87,1.54l-5.19,3.73c-.65.47-1.49,1-2.2.6a1.57,1.57,0,0,1-.69-.79,3.65,3.65,0,0,1,.14-3A10.84,10.84,0,0,1,603,890a3.87,3.87,0,0,0,1.91,4.11,14.51,14.51,0,0,0,1.09-2.45.74.74,0,0,0,0-.41c-.08-.32-.49-.39-.81-.35a3.63,3.63,0,0,0-3.12,3.54c0,.62.19,1.23.19,1.86a3.42,3.42,0,0,1-2.6,3.25" transform="translate(-89.16 -646.38)"/><path class="cls-3" d="M601.2,896.15a11,11,0,0,1,.43,4c-1.14.54-2.48,1.09-3.63.54a2.6,2.6,0,0,1-1.37-2,3.94,3.94,0,0,1,.54-2.41,2,2,0,0,1,.79-.84.86.86,0,0,1,1.07.18,1.37,1.37,0,0,1,.09,1.11l-.72,3.38a3.52,3.52,0,0,0-.09,1.51,1.22,1.22,0,0,0,1,1,1.67,1.67,0,0,0,1-.4A9,9,0,0,0,602.5,900a17.79,17.79,0,0,1-2.14,4.13,4.43,4.43,0,0,1-1.12,1.2,1.75,1.75,0,0,1-1.56.24c-.73-.28-1.06-1.12-1.31-1.86" transform="translate(-89.16 -646.38)"/><path class="cls-3" d="M597.18,900.42a6.55,6.55,0,0,1,3,2,8.22,8.22,0,0,1-2.12,2.75,3,3,0,0,1-3.28.34l.22-.21" transform="translate(-89.16 -646.38)"/><path class="cls-3" d="M598.32,905.06a13.49,13.49,0,0,1-2.39,4.53,2.09,2.09,0,0,1-1.89.86,2,2,0,0,1-1.26-1.54,5.34,5.34,0,0,1,1.67-5.35l-.63,2.62a25.49,25.49,0,0,0-1,7.18c0,.54.26,1.24.8,1.19a1,1,0,0,0,.65-.5c1.46-2,2.38-4.67,4.62-5.79a.68.68,0,0,1,.39-.11c.47.06.42.76.22,1.19a32.71,32.71,0,0,1-3.3,5.59,2.54,2.54,0,0,1-.81.79c-.86.44-1.9-.22-2.41-1s-.7-1.8-1.24-2.6" transform="translate(-89.16 -646.38)"/><path class="cls-3" d="M594.9,913.52a15.6,15.6,0,0,0,1,2.33,3.49,3.49,0,0,1,.26,2.45,2.22,2.22,0,0,1-2.33,1.41,2.92,2.92,0,0,1-2.17-2.12,8.29,8.29,0,0,1-.15-3.18c0-.17,0-.38-.15-.44a.4.4,0,0,0-.24,0,8.88,8.88,0,0,0-4.62,2.7,3.33,3.33,0,0,0-.86,1.87,1.63,1.63,0,0,0,1,1.65,2,2,0,0,0,1.55-.32,13.82,13.82,0,0,0,3.09-3c.14-.16.35-.33.53-.23s.16.37.1.57a5.47,5.47,0,0,1-2.29,3,2,2,0,0,1-1.64.34,1.62,1.62,0,0,1-.81-.72,2.63,2.63,0,0,1,.92-3.5" transform="translate(-89.16 -646.38)"/><path class="cls-3" d="M588.73,917.36a23.54,23.54,0,0,1-.69,3.91,3.36,3.36,0,0,1-.56,1.3,1.32,1.32,0,0,1-1.24.54,1.93,1.93,0,0,1-1-.75,9.88,9.88,0,0,1-1.58-2.24,3.39,3.39,0,0,1-.19-2.66" transform="translate(-89.16 -646.38)"/><path class="cls-3" d="M591.69,920.73a12,12,0,0,1,.52,4.94c-.11,1-.47,2.05-1.39,2.3s-1.87-.57-2.3-1.46a3.78,3.78,0,0,1-.39-2.28,2.41,2.41,0,0,1,1.37-1.79,1.76,1.76,0,0,1,2.09.6,3.05,3.05,0,0,1,.32,1.59c0,2.67,0,5.57-1.68,7.65" transform="translate(-89.16 -646.38)"/><path class="cls-3" d="M590.38,926.28a31.78,31.78,0,0,1-2.83,2.48c-.26-.44-.81-.59-1.24-.84a3,3,0,0,1-1.35-2.08,4.87,4.87,0,0,1,.31-2.5,1.57,1.57,0,0,1,.71-1,1.08,1.08,0,0,1,1.42,1A1.56,1.56,0,0,1,586,924.8a2.79,2.79,0,0,1-2-.6,4.82,4.82,0,0,1-1.58-5.56" transform="translate(-89.16 -646.38)"/><path class="cls-3" d="M591.1,913.58c-1.32,1.91-2.76,3.91-4.89,4.81a4.58,4.58,0,0,1-2.65.33,2.93,2.93,0,0,1-2.08-1.59c-.61-1.37.16-3,1.18-4.08.33-.34.8-.69,1.24-.5a1,1,0,0,1,.41.41,2.85,2.85,0,0,1-.61,3.46,4.2,4.2,0,0,1-3.56.9,3,3,0,0,1-2.2-1.34,4.17,4.17,0,0,1-.2-2.55" transform="translate(-89.16 -646.38)"/><path class="cls-3" d="M582.21,907.66a24,24,0,0,1-.89,2.93,3.5,3.5,0,0,0,.26,2.94.93.93,0,0,0,.44.37,1,1,0,0,0,.74-.17,8.88,8.88,0,0,0,2.36-2.72,12.8,12.8,0,0,1,2.27-2.38,1.92,1.92,0,0,1,1.06-.51c.74,0,1.25.74,1.48,1.45a6.48,6.48,0,0,1-.4,4.94,2.23,2.23,0,0,1-1.89,1.43,2,2,0,0,1-1.06-.45A4.86,4.86,0,0,1,585,911a8.83,8.83,0,0,1,2.17-4.41" transform="translate(-89.16 -646.38)"/><path class="cls-3" d="M592.08,905c0,.92.17,1.84.15,2.76a3.44,3.44,0,0,1-1,2.51,1.78,1.78,0,0,1-2.47,0,2.34,2.34,0,0,1,.05-2.49,6.5,6.5,0,0,1,1.58-2c.31-.27.75-.51,1.1-.32s.4.7.34,1.11a7.31,7.31,0,0,1-1.7,3.81,2.53,2.53,0,0,1-2.55,1,2.26,2.26,0,0,1-1.15-1.15c-.82-1.64-.48-3.6.06-5.35a7.74,7.74,0,0,1,1.43-2.85,3.33,3.33,0,0,1,2.81-1.23.86.86,0,0,1,.39.13.82.82,0,0,1,.23.35c.53,1.37-.12,3.13.82,4.26a26.07,26.07,0,0,1,2.28-3.42,2.84,2.84,0,0,1,1.42-1.15.39.39,0,0,1,.35,0,.42.42,0,0,1,.09.25q.17,1.25.21,2.49a2.4,2.4,0,0,1-.4,1.69,2,2,0,0,1-2.13.34,3.36,3.36,0,0,1-2-1.49,2.15,2.15,0,0,1,.17-2.37" transform="translate(-89.16 -646.38)"/><path class="cls-3" d="M595.58,898a11.22,11.22,0,0,1-4.27,5.56,2.3,2.3,0,0,1-1.18.48,1.7,1.7,0,0,1-1.46-2,3.89,3.89,0,0,1,1.63-2.25c.34-.27.84-.53,1.2-.26s.27.67.19,1a6.45,6.45,0,0,1-3.92,4.52,1.4,1.4,0,0,1-.75.12c-.69-.12-.91-1-1-1.67" transform="translate(-89.16 -646.38)"/><path class="cls-3" d="M594.31,917.65c.68,1.43.72,3.27,2,4.26a1,1,0,0,0,1.75-.39,5.36,5.36,0,0,0,.33-1.86" transform="translate(-89.16 -646.38)"/><path class="cls-3" d="M596.52,891.74a19.29,19.29,0,0,1,3.81,1.45,4.27,4.27,0,0,1-.38,2.46c-.34.72-1.07,1.41-1.85,1.21s-1.1-1.17-1.07-2a4.86,4.86,0,0,1,2.2-3.8.64.64,0,0,1,.27-.11.47.47,0,0,1,.45.37,1.24,1.24,0,0,1-.09.63,3.85,3.85,0,0,1-1.92,2,.82.82,0,0,1-.66.08.73.73,0,0,1-.32-.37,3.74,3.74,0,0,1-.27-2,11,11,0,0,1,2-5.56" transform="translate(-89.16 -646.38)"/><path class="cls-3" d="M602.07,884.53a15.54,15.54,0,0,1-.21,3.54,5.35,5.35,0,0,1-1.68,3.06c-.15.13-.36.25-.53.16a.5.5,0,0,1-.17-.21,2.56,2.56,0,0,1,.12-2,11.21,11.21,0,0,1,1.54-2.77c.19-.25.47-.52.78-.46a1,1,0,0,1,.5.45,3.86,3.86,0,0,0,1,1.11,1.51,1.51,0,0,0,1.4.22,2.2,2.2,0,0,0,.94-1c.67-1.13,1.3-2.45.9-3.7" transform="translate(-89.16 -646.38)"/><path class="cls-3" d="M604.6,883.67l-1.87,2.16a1.86,1.86,0,0,0-.42.66.61.61,0,0,0,.2.7" transform="translate(-89.16 -646.38)"/><path class="cls-3" d="M606.89,878.86a40,40,0,0,1-2.32,4.08,1.53,1.53,0,0,1-1.44-.1,2.08,2.08,0,0,1-.79-1.15,3.37,3.37,0,0,1,1-3.51,1.13,1.13,0,0,1,1-.33,1.23,1.23,0,0,1,.67.93,9.81,9.81,0,0,0,1,3c.1.16.29.32.45.22a.34.34,0,0,0,.13-.16,10.64,10.64,0,0,0,1.29-4.16c0-.35,0-.81-.35-.92a.7.7,0,0,0-.43,0,6.27,6.27,0,0,0-2.51,1.23" transform="translate(-89.16 -646.38)"/><path class="cls-3" d="M608.8,880.59a13,13,0,0,0-.44-3.45,13.36,13.36,0,0,0-3.46.06,5,5,0,0,0-3,1.64c-.16.19-.29.48-.14.67a1.57,1.57,0,0,0,.25.2.66.66,0,0,1,.13.79,2,2,0,0,1-.57.65c-.77.63-1.77,1.26-2.71.93a1.93,1.93,0,0,1-1.18-1.67,3.5,3.5,0,0,1,.57-2,5.77,5.77,0,0,1,2.28-2.13,1,1,0,0,1,1-.08.88.88,0,0,1,.28.75,2.76,2.76,0,0,1-.5,1.57c-.19.27-.59.5-.81.26a.59.59,0,0,1-.07-.49,5.79,5.79,0,0,1,1.44-2.89,1.7,1.7,0,0,1,.46,1.23,3.29,3.29,0,0,0,0,1.21c.13.38.78.56.9.17" transform="translate(-89.16 -646.38)"/><path class="cls-3" d="M607.09,876.08l-2.3,1.4a1.42,1.42,0,0,1-.82.28,1,1,0,0,1-.71-1.16,2.56,2.56,0,0,1,.84-1.25,1.39,1.39,0,0,1,1.16-.52,1.26,1.26,0,0,1,.53.32c.39.37.7.82,1.09,1.19a2.2,2.2,0,0,0,1.41.72,3,3,0,0,0,2-1.2" transform="translate(-89.16 -646.38)"/><path class="cls-3" d="M600.48,886.32a9.38,9.38,0,0,1-2.92-2.35c.46-.71,1-1.42,1.46-2.11a.78.78,0,0,1,.37-.33c.33-.09.6.25.76.55a5.24,5.24,0,0,1,.67,1.83,4.39,4.39,0,0,1-.82,3,10.13,10.13,0,0,1-2.25,2.23,2,2,0,0,1-1.68.59,1.87,1.87,0,0,1-.87-.73,5,5,0,0,1-1.26-2.79,4.87,4.87,0,0,1,.78-2.51,5.06,5.06,0,0,1,1.68-1.93c.19-.11.45-.19.61,0l-.6,1.35" transform="translate(-89.16 -646.38)"/><path class="cls-3" d="M598.64,877.92a29.86,29.86,0,0,0-4.41,2,.91.91,0,0,0,.61,1.18,2.68,2.68,0,0,0,1.48-.11l1.42-.38a.87.87,0,0,1,.42,0c.33.09.4.52.37.85a4.89,4.89,0,0,1-3.86,4.28,1.18,1.18,0,0,1-.72,0,1.12,1.12,0,0,1-.44-.37,4.5,4.5,0,0,1,.19-5.77" transform="translate(-89.16 -646.38)"/><path class="cls-3" d="M594,879.64a16.45,16.45,0,0,0-1,2.67,5.29,5.29,0,0,1-1.46,2.41,2.35,2.35,0,0,1-2.65.34c-1-.6-1.11-1.91-1-3a5,5,0,0,1,.47-1.86,2.38,2.38,0,0,1,1.42-1.24" transform="translate(-89.16 -646.38)"/><path class="cls-3" d="M592.51,884a20.74,20.74,0,0,0-2.58,3c.15.67.36,1.43,1,1.71s1.52-.17,2.12-.68,1.28-1.11,2.06-1a2.27,2.27,0,0,1,1.47,1.28,2.06,2.06,0,0,1,.15,2.14" transform="translate(-89.16 -646.38)"/><path class="cls-3" d="M594.24,892.39a30.89,30.89,0,0,1-2-5,3.39,3.39,0,0,0,.8-1.35c.22-.49.63-1,1.16-.93" transform="translate(-89.16 -646.38)"/><path class="cls-3" d="M595.63,889.52a15.06,15.06,0,0,1-.37,5.05A6.17,6.17,0,0,0,595,896a1.65,1.65,0,0,0,.52,1.29.36.36,0,0,0,.29.11.43.43,0,0,0,.24-.16,13.07,13.07,0,0,0,1.37-1.7,13.83,13.83,0,0,1-.81,2.66,2.72,2.72,0,0,1-1.47,1.7,1.86,1.86,0,0,1-1.77-.44,3.53,3.53,0,0,1-1-1.62,6.37,6.37,0,0,1,1-5.66,2.13,2.13,0,0,1,1.71-1,.65.65,0,0,1,.46.2c.22.26.08.65-.07.95-.38.78-.79,1.54-1.22,2.29" transform="translate(-89.16 -646.38)"/><path class="cls-3" d="M594.54,893.85l-2.83,5.61a6.75,6.75,0,0,0-.68,1.78.46.46,0,0,0,.06.38c.13.16.39.09.59,0a1.37,1.37,0,0,1,1,.17.35.35,0,0,1,.16.18c0,.17-.16.28-.32.33a3.5,3.5,0,0,1-3.8-1.89,6.39,6.39,0,0,1-.33-4.48,11.09,11.09,0,0,1,2.9-5.18,15.52,15.52,0,0,0-2.73,6.24,2,2,0,0,0,0,1.6,1.27,1.27,0,0,0,1.4.47,2.29,2.29,0,0,0,1.22-1,3.69,3.69,0,0,0,.64-2.35.73.73,0,0,0-.12-.41.75.75,0,0,0-.65-.16,10.9,10.9,0,0,0-3.28.82" transform="translate(-89.16 -646.38)"/><path class="cls-3" d="M593,887.41a27.6,27.6,0,0,1,.65,2.72,1.57,1.57,0,0,1,0,.68,1.67,1.67,0,0,1-.29.58,5.93,5.93,0,0,1-1.45,1.42,1.14,1.14,0,0,1-.49.22.86.86,0,0,1-.47-.14,2.52,2.52,0,0,1-1.05-1.61,5.28,5.28,0,0,1,.09-3,.9.9,0,0,1,.34-.52.63.63,0,0,1,.82.41,1.61,1.61,0,0,1-.08,1,8.36,8.36,0,0,1-3.85,4.62,1.2,1.2,0,0,1-1.1.17,1.15,1.15,0,0,1-.45-1.12,5.21,5.21,0,0,1,1-2.85" transform="translate(-89.16 -646.38)"/><path class="cls-3" d="M588.75,886.92c-1,.83-2.25,1.4-3.34,2.14a5.67,5.67,0,0,0-2.49,3,1,1,0,0,0,0,.42.9.9,0,0,0,.68.62,3.06,3.06,0,0,0,2.19-.32c.68-.32,1.3-.77,2-1.07.17-.08.41-.13.52,0a.41.41,0,0,1,0,.39,6,6,0,0,1-1.45,2.61" transform="translate(-89.16 -646.38)"/><path class="cls-3" d="M584,891.17a32,32,0,0,0-4.48,2,7.48,7.48,0,0,0-.32,2.44,2.76,2.76,0,0,0,.29,1.24,1.22,1.22,0,0,0,1,.66,1.76,1.76,0,0,0,1.22-.85,3.66,3.66,0,0,0,.83-2.14.32.32,0,0,0-.07-.23.37.37,0,0,0-.25-.06,2,2,0,0,0-1.42.78" transform="translate(-89.16 -646.38)"/><path class="cls-3" d="M585.38,892.6a21.5,21.5,0,0,1,2.2,3.61c-.45.2-.7.72-1.14.95a1.37,1.37,0,0,1-1.81-.88,2.59,2.59,0,0,1,.45-2.17c.21-.32.56-.65.93-.53a1,1,0,0,1,.49.63c.75,2,.8,4.26,1.81,6.15.07.12.15.25.29.27s.32-.14.42-.3l1-1.6a4.1,4.1,0,0,1-1.66,2.6,6.13,6.13,0,0,1-1.36,1,2,2,0,0,1-1.66.12,2.17,2.17,0,0,1-.9-.8,4.27,4.27,0,0,1-.71-3.1,4.22,4.22,0,0,1,1.65-2.7" transform="translate(-89.16 -646.38)"/><path class="cls-3" d="M586.34,899a16.15,16.15,0,0,1-3.57,1.61,7.12,7.12,0,0,1,.11-5.31c.08-.19.31-.4.45-.25a.28.28,0,0,1,.06.16,3.35,3.35,0,0,1-.62,1.88,14.33,14.33,0,0,0-1.18,4.48c-.06.41-.07.91.28,1.12a1.09,1.09,0,0,0,.83,0" transform="translate(-89.16 -646.38)"/><path class="cls-3" d="M585.87,899.6c.29,1,.56,2,.79,3.09a3.23,3.23,0,0,1,.1.87,2.7,2.7,0,0,1-1,1.62c-.59.54-1.41,1-2.13.7a1.83,1.83,0,0,1-.88-1.33,5,5,0,0,1,.22-2.91c.17-.43.62-.9,1-.65a.74.74,0,0,1,.23.72,2.84,2.84,0,0,1-1.5,2.24.33.33,0,0,1,.35-.31.71.71,0,0,1,.46.22,2.84,2.84,0,0,1,.68,1.67,7.16,7.16,0,0,1-.31,3.79,1,1,0,0,1-.31.43c-.39.24-.88-.15-1.1-.55a5.26,5.26,0,0,1-.27-3.31,3.05,3.05,0,0,1,.42-1.23,1.09,1.09,0,0,1,1.13-.49" transform="translate(-89.16 -646.38)"/><path class="cls-3" d="M585.49,907.57l-1.48,3.3a2.38,2.38,0,0,1-1.16,1.42,1.53,1.53,0,0,1-1.54-.43,3.12,3.12,0,0,1-.73-1.49,7,7,0,0,1,.56-4.81c.25-.48.65-1,1.19-1a1.14,1.14,0,0,1,.95.77,1.8,1.8,0,0,1-.6,2.06,1.85,1.85,0,0,1-2.15,0,1.9,1.9,0,0,1-.61-2.07" transform="translate(-89.16 -646.38)"/><path class="cls-3" d="M582.71,901.72c-1.23.41-2.45.85-3.66,1.31a3.64,3.64,0,0,0-2.25,2.09,1.22,1.22,0,0,1-1.48-.82" transform="translate(-89.16 -646.38)"/><path class="cls-3" d="M581.65,903.25c-.46,1.39-.33,3-1.14,4.23-.34.52-.83.93-1.22,1.42a8.32,8.32,0,0,0-1.3,4.61c0,.4,0,.93.42,1a.94.94,0,0,0,.47,0l1.71-.36" transform="translate(-89.16 -646.38)"/><polyline class="cls-3" points="1094.73 494.88 1094.74 305.1 698.18 305.1 698.18 492.66"/><polyline class="cls-3" points="800.99 305.1 800.99 183.28 924.54 183.28 924.54 305.1"/><path class="cls-3" d="M958.65,676.67c5.14-1.41,5.54-2.09,11.13.45" transform="translate(-89.16 -646.38)"/><path class="cls-3" d="M936.23,686.67l2.27,3.52a3.66,3.66,0,0,0,.59.77,3.52,3.52,0,0,0,1,.57,7.76,7.76,0,0,0,3.35.81,5,5,0,0,0,3.07-1.4,6.33,6.33,0,0,0,2-4.41s-3.53-2-5.72-2.16C940.19,684.19,936.23,686.67,936.23,686.67Z" transform="translate(-89.16 -646.38)"/><circle cx="853.22" cy="43.05" r="3.16"/><path class="cls-3" d="M970.34,686.77l-2.26,3.52a3.79,3.79,0,0,1-.6.77,3.47,3.47,0,0,1-1,.57,7.8,7.8,0,0,1-3.36.81A5,5,0,0,1,960,691a6.36,6.36,0,0,1-2-4.4s3.54-2,5.72-2.16C966.38,684.29,970.34,686.77,970.34,686.77Z" transform="translate(-89.16 -646.38)"/><circle cx="875.03" cy="43.16" r="3.16"/><path class="cls-2" d="M960.86,720.79a11.24,11.24,0,0,1-3.32,2.28,5.88,5.88,0,0,1-4,.29,6.13,6.13,0,0,1-2.85-2.05,9.79,9.79,0,0,1-1.29-1.9,1.06,1.06,0,0,1-.1-.72c.09-.29.34-.25.58-.22a7.64,7.64,0,0,0,1.44.07c1.78-.1,3.36-1.21,5.13-1.52a8.78,8.78,0,0,1,5.16.89.59.59,0,0,1,.23.14.53.53,0,0,1,.14.29A2.78,2.78,0,0,1,960.86,720.79Z" transform="translate(-89.16 -646.38)"/><path class="cls-3" d="M944.31,734.71a15.83,15.83,0,0,1,7.36.55" transform="translate(-89.16 -646.38)"/><path class="cls-3" d="M951.79,735.21a57.16,57.16,0,0,1,8.06-.45" transform="translate(-89.16 -646.38)"/><circle cx="866.52" cy="91.89" r="1.62"/><circle cx="866.52" cy="98.48" r="1.62"/><circle cx="866.52" cy="118.73" r="1.62"/><circle cx="866.52" cy="137.84" r="1.62"/><circle cx="866.52" cy="153.74" r="1.62"/><circle cx="866.52" cy="171.89" r="1.62"/><path class="cls-2" d="M944.9,731.56c.26,2.24-.78,4.1-2.31,5.75-8.31,1.42-16.82,3.31-23.73,8.15-10.08,7.07-15.13,19.18-19.48,30.7-2.06,5.48-4.11,11.07-4.41,16.92-.65,12.7,7.8,25.53,15,36" transform="translate(-89.16 -646.38)"/><path class="cls-2" d="M931.6,829.09a247.2,247.2,0,0,0-12.72-27.32l-.18-1.64,3.21-9.23c2.34-6.73,4.72-13.81,3.51-20.83" transform="translate(-89.16 -646.38)"/><path class="cls-2" d="M965.64,829.66c4.88-10.3,12.08-21.61,19.91-29.88l.15-.71c-3.71-8.92-7.47-18-8.4-27.62" transform="translate(-89.16 -646.38)"/><path class="cls-2" d="M959.86,732.51c.14.83.29,1.66.51,2.47a2.38,2.38,0,0,0,.84,1.43s8.48,4.25,13.2,4.36a38.6,38.6,0,0,1,6.72.24,14.45,14.45,0,0,1,8.6,6,39,39,0,0,1,4.59,9.69,274.43,274.43,0,0,1,11.83,44.31s-10.61,23.35-19.34,28.61" transform="translate(-89.16 -646.38)"/><path class="cls-2" d="M951.4,735.18,951,756.9s-.29,7.54-.37,11.41q-.12,6.66-.25,13.33-.15,8-.27,16L950,801.9c-.14,8.59-.28,19.32-.42,27.9" transform="translate(-89.16 -646.38)"/><path class="cls-3" d="M957.65,702.84a12.46,12.46,0,0,1-1.81,4.07" transform="translate(-89.16 -646.38)"/><path class="cls-3" d="M952.27,694.49a20.87,20.87,0,0,0-3,8.58,8.27,8.27,0,0,0,.11,3,3.84,3.84,0,0,0,1.17,2" transform="translate(-89.16 -646.38)"/><path class="cls-1" d="M977.88,696.32a3.57,3.57,0,0,0-1.33-.53,2.5,2.5,0,0,0-1.3.51c-3.07,2-5.74,4.54-8.71,6.71a21.29,21.29,0,0,1-10.7,3.9c-.09.11-.18.23-.28.34a3.9,3.9,0,0,1-4.44,1.15,2.39,2.39,0,0,1-.56-.4,9.68,9.68,0,0,1-6-.74,18.91,18.91,0,0,1-4.56-3.61,18.88,18.88,0,0,0-2.61-2.37,4.91,4.91,0,0,0-3.32-.92,3.58,3.58,0,0,0-2.94,3s-.66,10.66,1.56,15.56c1.63,3.65,4.47,6.59,7.43,9.27a16.8,16.8,0,0,0,3.59,2.68,20.23,20.23,0,0,0,3.94,1.38c1,.29,2.1.57,3.17.76A19.52,19.52,0,0,0,967,728.59a30.87,30.87,0,0,0,4.3-4.82,42.47,42.47,0,0,0,4.06-6.43A33.9,33.9,0,0,0,977.88,696.32Zm-17,24.47a11.24,11.24,0,0,1-3.32,2.28,5.88,5.88,0,0,1-4,.29,6.13,6.13,0,0,1-2.85-2.05,9.79,9.79,0,0,1-1.29-1.9,1.06,1.06,0,0,1-.1-.72c.09-.29.34-.25.58-.22a7.64,7.64,0,0,0,1.44.07c1.78-.1,3.36-1.21,5.13-1.52a8.78,8.78,0,0,1,5.16.89.59.59,0,0,1,.23.14.53.53,0,0,1,.14.29A2.78,2.78,0,0,1,960.86,720.79Z" transform="translate(-89.16 -646.38)"/><path class="cls-3" d="M977.84,695.78c.06-3.08,0-6.12,0-9l-.16-7.44" transform="translate(-89.16 -646.38)"/><path class="cls-3" d="M977.74,684c1-.68,1.1-1.41,2-2.19A3.72,3.72,0,0,1,983,680.7a1.22,1.22,0,0,1,.72.47,1.5,1.5,0,0,1,.16.62c.27,3-1.58,6.18-.5,9,.28.75.76,1.42,1.07,2.16a5.35,5.35,0,0,1-.36,4.71,3.8,3.8,0,0,1-2.54,1.87c-1.07.17-3.67-3.12-4-4.13" transform="translate(-89.16 -646.38)"/><path class="cls-3" d="M931.33,685.83a35.75,35.75,0,0,0-3.67-1.56,4.69,4.69,0,0,0-2.17-.38c-1.53.23-2.47,1.85-2.7,3.37a7.56,7.56,0,0,0,1.05,5.11,11.92,11.92,0,0,1,1.56,2.57,8.8,8.8,0,0,1,.12,3.16,6.94,6.94,0,0,0,.46,3.1,3.25,3.25,0,0,0,2.33,1.95c1,.18,3.22-.3,3.47-1.32" transform="translate(-89.16 -646.38)"/><path class="cls-3" d="M933.5,700.51a30.28,30.28,0,0,1-2.26-15.1,27.73,27.73,0,0,0,.4-6.09" transform="translate(-89.16 -646.38)"/><path class="cls-1" d="M981.54,680.62a6.48,6.48,0,0,0-3.4,2.5L974,677.18c-1.34-.87-2.84-2.08-2.66-3.66a2,2,0,0,1-2.29-2.26,2.55,2.55,0,0,1,.11-.33,2.3,2.3,0,0,0-2.26-3.23c-1.27.09-2.66.5-3.75-.18a9.46,9.46,0,0,0-1-.69c-1.22-.59-2.61.59-4,.44-1-.1-1.84-.88-2.78-.68a13.09,13.09,0,0,0-1.43.65c-1.4.45-2.78-.93-4.26-.92a5.21,5.21,0,0,0-2.74,1.25,24.59,24.59,0,0,1-5.12,2.71,5.1,5.1,0,0,1-1.88.43,5.66,5.66,0,0,0-1.92-.06c-1,.32-1.27,1.49-1.51,2.47s-.78,2.14-1.79,2.17a5.48,5.48,0,0,0-.7,0c-1.14.21-1.43,2.6-1.43,2.6-.86,1.54-.19,3.19-1,4.72-.24.44.08,2.53-.34,2.81-1.24.85-5-2-6-3a6.11,6.11,0,0,1-2.17-3.3,9.81,9.81,0,0,0-.12-1.33c-.18-.72-.76-1.32-.77-2.06,0-1.27,1.52-2,2-3.17a9.21,9.21,0,0,0,.17-2.47c.16-1.81,1.63-3.22,2.3-4.91.39-1,.51-2.06.82-3.07a8.28,8.28,0,0,1,6.24-5.57,2.73,2.73,0,0,0,1.59-.61,4.74,4.74,0,0,0,.56-1c1-1.81,3.79-1.21,5.65-2.13a13.43,13.43,0,0,0,2.34-1.87,14.6,14.6,0,0,1,4.12-2.06l2.67-1a5.63,5.63,0,0,1,1.56-.42c1.46-.11,2.75.88,4.18,1.2,2.54.55,5.24-1.08,7.71-.27,1.83.6,3.11,2.43,5,2.81a8.77,8.77,0,0,1,1.85.35,4.77,4.77,0,0,1,1.17.89c1.65,1.52,3.71,2.55,5.3,4.14a21.16,21.16,0,0,1,3.46,5.22,6,6,0,0,1,.86,2.39,9.37,9.37,0,0,0,0,1.5c.18.79.86,1.42.89,2.23,0,.52-.24,1-.24,1.54,0,.92.82,1.6,1.26,2.4a5.46,5.46,0,0,1,.56,2.19,18.74,18.74,0,0,1-.06,4.1C983.93,679.52,981.54,680.62,981.54,680.62Z" transform="translate(-89.16 -646.38)"/><path class="cls-3" d="M936.4,678.55c3-.72,6.15-1.45,9.23-1l1,.18" transform="translate(-89.16 -646.38)"/></g><g id="Layer_3" data-name="Layer 3"><path class="cls-3" d="M381.54,917.67c2-1.59,4.2-3.23,6.76-3.64a9.92,9.92,0,0,1,5.9,1" transform="translate(-89.16 -646.38)"/><path class="cls-3" d="M381.37,886l1.25-2.89,2.19-2.44a12.12,12.12,0,0,1,2.94-1.43,3.33,3.33,0,0,1,2.64.31" transform="translate(-89.16 -646.38)"/><path class="cls-3" d="M370.45,909.63a2.51,2.51,0,0,1-2.51-.36,2.26,2.26,0,0,1-.82-1.13c-.48-1.59.72-3.23.63-4.89s-1.41-2.93-1.7-4.52a9.18,9.18,0,0,1,1.37-5.28,2.5,2.5,0,0,1,1.76-1,2,2,0,0,1,1,.22,2.63,2.63,0,0,1,.78.55,6.38,6.38,0,0,1,1.13,1.61" transform="translate(-89.16 -646.38)"/><path class="cls-3" d="M392.42,887.83a3.31,3.31,0,0,0-.36-.14,6.37,6.37,0,0,0-2.5-.18,9.48,9.48,0,0,0-7.58,5.62l-.05.49a7.64,7.64,0,0,0,7.4,2.5h0l.13,0a7.35,7.35,0,0,0,3.19-1.74" transform="translate(-89.16 -646.38)"/><path class="cls-5" d="M391.88,873.2h0c-.34,1.08-2.34,2.59-3.45,2.46a10.83,10.83,0,0,1-3.16-1.15,5.31,5.31,0,0,0-4.36-.34,4.66,4.66,0,0,0-1.43,1.18,8.89,8.89,0,0,0-1.78,8.2,8.29,8.29,0,0,0-5.77,2.56,6.87,6.87,0,0,0-1.68,6l-.07.49a2,2,0,0,0-1-.22,2.5,2.5,0,0,0-1.76,1,9.18,9.18,0,0,0-1.37,5.28c.29,1.59,1.6,2.91,1.7,4.52s-1.11,3.3-.63,4.89a2.26,2.26,0,0,0,.82,1.13l-.1.74a4.29,4.29,0,0,0-1.77,2.49,8,8,0,0,0-.16,3.08,14.88,14.88,0,0,0,4.22,8.87c.21.21.46.48.39.78a.8.8,0,0,1-.4.45c-1.45,1-3.83.12-3.83.12-3.76.4-7.35-1.4-10.8-2.94a23.33,23.33,0,0,1-4.58-2.43,20,20,0,0,1-3.55-3.74,29.4,29.4,0,0,1-2.8-4,22.75,22.75,0,0,1-2.12-5.76,42.42,42.42,0,0,1-.91-16.52A32.32,32.32,0,0,1,348,875.28s8.47-8.89,14.86-10.06c1.33-.24,2.67-.37,4-.49a47.1,47.1,0,0,1,6.39-.26,25.45,25.45,0,0,1,12.67,4.11A29.58,29.58,0,0,1,391.88,873.2Z" transform="translate(-89.16 -646.38)"/><path class="cls-3" d="M392.66,894.35a7.51,7.51,0,0,0,2.33-4,8.79,8.79,0,0,0-2.57-2.55" transform="translate(-89.16 -646.38)"/><path class="cls-3" d="M391.88,873.21a7.56,7.56,0,0,1,.54.63c1.15,1.5,3.08,4.24,4.37,6.22,2.21,3.39,2.89,7.55,3.06,11.59s-.13,8.11.31,12.13a8.51,8.51,0,0,1,0,3.18A2.59,2.59,0,0,1,398,909a3.47,3.47,0,0,1-1.44-.35,19.57,19.57,0,0,1-3.46-1.87" transform="translate(-89.16 -646.38)"/><path class="cls-3" d="M367.69,926.36a9.71,9.71,0,0,1,1.46,5.5,13.18,13.18,0,0,1-.42,2.15l-1,4" transform="translate(-89.16 -646.38)"/><path class="cls-3" d="M380.63,939.66a14.53,14.53,0,0,1-1.81-3.4,11.62,11.62,0,0,1,1.35-9.23s4.53-.46,7.13-1.87c4.15-2.26,6.18-7,7.7-11.52.59-1.73,1.13-3.69.29-5.31" transform="translate(-89.16 -646.38)"/><path class="cls-3" d="M357.75,957.34c1.37-2.69,4.92-6.26,7.37-8a12.67,12.67,0,0,1,2.74-1.62,12.09,12.09,0,0,1,3.33-.61,26.47,26.47,0,0,1,8.29.32,5.59,5.59,0,0,1,1.64.61,6.72,6.72,0,0,1,1.22,1,15.24,15.24,0,0,1,3.41,4.43c1,2.27,1.69,6.68,2,9.74" transform="translate(-89.16 -646.38)"/><path class="cls-3" d="M359.41,1007.48a55.81,55.81,0,0,0,2.38,16.16c.51,1.72,1.14,3.42,1.76,5.11l3.52,9.6,3.06,8.36a10.12,10.12,0,0,0,3.63,4.94,2.62,2.62,0,0,0,.75.37,4.57,4.57,0,0,0,2.26-.1q4.31-.95,8.57-2.1s-1.29-4.85-1.8-7.16c-1.93-8.71-2.31-17.69-2.68-26.6a60.3,60.3,0,0,1-.1-9.35s.88-9.11,2.06-15.41c.4-2.08.79-4.17,1.3-6.23.77-3.11,1.8-6.15,2.55-9.27a51.37,51.37,0,0,0,1.36-9.72,26.73,26.73,0,0,0-1-5.86c-.85-2.57-2.15-5.14-4.42-6.63a14.73,14.73,0,0,0-3.07-1.41,16.86,16.86,0,0,0-4.19-1.16,10,10,0,0,0-9.45,5.43,13.64,13.64,0,0,0-.94,2.79c-.91,7-1.76,14-2.61,21l-.58,4.84q-1,8.24-2,16.47A53.44,53.44,0,0,0,359.41,1007.48Z" transform="translate(-89.16 -646.38)"/><path class="cls-3" d="M384.49,1045.09a21.66,21.66,0,0,1,6.42-.52,6.23,6.23,0,0,0,2.79-.18,4,4,0,0,0,1.82-1.7,13.71,13.71,0,0,0,1.61-5.22,57.88,57.88,0,0,0,.63-7.44s.79-7.07.85-11.1c0-2.19,0-4.38,0-6.56-.11-9.92.07-19.84.25-29.75.05-2.74.39-8,.39-8A44.14,44.14,0,0,0,396,954.5a25,25,0,0,0-6.94-10.08,28.1,28.1,0,0,0-4.89-3.07c-4.38-2.29-9.29-4.2-14.17-3.4a18.09,18.09,0,0,0-9.48,5.24,63.83,63.83,0,0,0-7.3,9.45" transform="translate(-89.16 -646.38)"/><path class="cls-3" d="M389.23,1061.32a5.35,5.35,0,0,0,.6,1.13,2.17,2.17,0,0,1,0,1.64,6.14,6.14,0,0,1-.87,1.45,1.45,1.45,0,0,1-.38.4,1.31,1.31,0,0,1-.47.16l-2,.43-.29-.87a1.64,1.64,0,0,1-.24,1.66v0a3,3,0,0,1-2.8,1.26c-.46,0-.93-.11-1.39-.18l-.15-.55a2.29,2.29,0,0,1-1.11,1.75,2.92,2.92,0,0,1-2,.06,10.63,10.63,0,0,1-1.75-.6c-.74-1.47-.28-1.74-.49-3h0a3.06,3.06,0,0,1-4.81-.67,4.71,4.71,0,0,1-.44-2.8c.35-3.65,2.58-6.84,3.55-10.37" transform="translate(-89.16 -646.38)"/><path class="cls-3" d="M390,1061.94c1-.3,1.3-1,1.5-2a5.28,5.28,0,0,0-1.27-3.83,23.12,23.12,0,0,0-5.68-5.74" transform="translate(-89.16 -646.38)"/><path class="cls-3" d="M349.65,1037.61a6.2,6.2,0,0,0,.15,3.26,4.39,4.39,0,0,0,.88,1.3,9,9,0,0,0,3.32,2.29c3.61,1.41,7.67.33,11.54.44a19.37,19.37,0,0,1,3.56.45" transform="translate(-89.16 -646.38)"/><path class="cls-3" d="M356.42,1045.06c.1,3.45.2,7.41.3,10.85.15,5.06.3,10.11.77,15.15.82,9,3.53,22.94,3.53,22.94,3.77,8.59,3,18.54,5.94,27.44a5,5,0,0,0,1.14,2.09,4.65,4.65,0,0,0,3.13,1,16.39,16.39,0,0,0,6.87-1.41,19.08,19.08,0,0,1,2.38-1c.67-.19,1.37-.27,2-.44,1.12-.27,2.17-.78,3.29-1.08a7.88,7.88,0,0,1,3.08.25,159.81,159.81,0,0,0,2-18.12c0-1.07.05-2.15.16-3.21.17-1.77.6-3.51.93-5.26.42-2.2.69-4.43.93-6.65q.44-4.18.69-8.39s-1-11.78-.14-20.06c.16-1.57.38-3.14.46-4.72a50.53,50.53,0,0,0-.2-10" transform="translate(-89.16 -646.38)"/><path class="cls-3" d="M389,1120.94a37.67,37.67,0,0,1,19,.68,9.79,9.79,0,0,1,2,.76,7.2,7.2,0,0,1,3.41,7.15,10.29,10.29,0,0,1-4.42,6.88,18.45,18.45,0,0,1-7.82,2.9c-2.78.43-5.59.48-8.39.66-3.34.22-6.66.62-10,.58a22.22,22.22,0,0,1-9.73-2,11.82,11.82,0,0,1-3.42-2.47,9.72,9.72,0,0,1-.79-11.88" transform="translate(-89.16 -646.38)"/><path class="cls-3" d="M388.19,1120.63a15.18,15.18,0,0,1,1.45,2.11,3.68,3.68,0,0,1,.37,1.39,8,8,0,0,1,0,1.83,9.46,9.46,0,0,1-.8,2.57,3.91,3.91,0,0,1-.78,1.32,17.34,17.34,0,0,0-1.26,1.22" transform="translate(-89.16 -646.38)"/><path class="cls-3" d="M397.05,1120.31a6.53,6.53,0,0,1,1.75,5,7.94,7.94,0,0,1-2.18,5.43" transform="translate(-89.16 -646.38)"/><path class="cls-3" d="M402.78,1120.45a7,7,0,0,1,2,2.53,3.94,3.94,0,0,1,.34,1.44,8,8,0,0,1-2.36,6.24" transform="translate(-89.16 -646.38)"/><path class="cls-3" d="M330.47,1001.16c-.54,2.34-.13,4.15-.18,6.55-.07,4.34-.88,8.65-.87,13s1,8.91,3.94,12.1a20.69,20.69,0,0,0,5.39,3.85,14.1,14.1,0,0,0,6.07,2,7.8,7.8,0,0,0,5.8-2.33,12.19,12.19,0,0,0,2.48-4.25,26.76,26.76,0,0,0,1.16-4c.31-1.5.49-3,.67-4.56l.6-5a39.07,39.07,0,0,0,.32-9.95l.06.14c-.45-5-.85-10.1,0-15,.25-1.37.59-2.72.91-4.08a119.34,119.34,0,0,0,2.49-16.84,24.63,24.63,0,0,1,.66-4.61,17.14,17.14,0,0,1,1.25-3.08,28.94,28.94,0,0,1,3.55-5.4" transform="translate(-89.16 -646.38)"/><path class="cls-3" d="M336,975.76c-1.14,2.79-2.23,5.59-3.29,8.41a54.19,54.19,0,0,0-2.38,7.62,19.86,19.86,0,0,0-.19,7.94,2.08,2.08,0,0,0,1,1.63,2.11,2.11,0,0,0,1.6-.21c3.57-1.56,6.55-4.16,9.48-6.73,2.08-1.82,5.52-5.14,5.52-5.14,2.15-4.15,4.31-8.35,5.39-12.9.34-1.46.57-2.94.88-4.41,1.05-4.92,3-9.65,3.73-14.63a4.94,4.94,0,0,0-.31-3.23,3.49,3.49,0,0,0-3.62-1.4,7.89,7.89,0,0,0-3.58,1.95c-3.08,2.62-5.41,6-7.69,9.34-2.85,4.17-5.74,8.44-7.08,13.3Z" transform="translate(-89.16 -646.38)"/><path class="cls-3" d="M330.47,992.58l.68-.43a3.19,3.19,0,0,1,4.28.73v0a6.76,6.76,0,0,1,1,3.23c.15,1.68.41,1.34-.06,3" transform="translate(-89.16 -646.38)"/><circle class="cls-6" cx="300.27" cy="246.75" r="2.99"/><path class="cls-3" d="M230.35,891.66c-.95,3.25-2.46,6.35-2.95,9.71s.12,6.85.73,10.24" transform="translate(-89.16 -646.38)"/><path class="cls-3" d="M253.46,923c2.61.84,7,2.52,9.68,2.9A23.08,23.08,0,0,0,281,920.85c4.86-4.1,8.22-10,7.37-18.65,1.94.42,3.84-1.19,4.46-3.07a12.15,12.15,0,0,0,0-5.87L291,882.8a33.64,33.64,0,0,0-1.76-7.18c-.94-2.29-2.35-5.76-6.67-7" transform="translate(-89.16 -646.38)"/><path class="cls-3" d="M260.6,925.35A53.28,53.28,0,0,1,262.22,939" transform="translate(-89.16 -646.38)"/><path class="cls-3" d="M269.53,925.89A38.44,38.44,0,0,0,271,938.66" transform="translate(-89.16 -646.38)"/><path class="cls-3" d="M277.68,914.24c1.9-1.7,3.07-4.38,5.47-5.22a8.42,8.42,0,0,1,2.11-.37,5.21,5.21,0,0,1,2.8.52" transform="translate(-89.16 -646.38)"/><path class="cls-3" d="M272.6,883a20.11,20.11,0,0,1,4.57-4.59,8.1,8.1,0,0,1,6.18-1.36" transform="translate(-89.16 -646.38)"/><path class="cls-3" d="M287.75,882.82a1.16,1.16,0,0,1,.56,1.33,23.5,23.5,0,0,1-1.2,3.77,8,8,0,0,1-4.42,3.67c-2.39.78-7-.91-7-.91a26.7,26.7,0,0,1,2.9-4.89,8.79,8.79,0,0,1,4.62-3.15,11.85,11.85,0,0,1,4.2,0Z" transform="translate(-89.16 -646.38)"/><path class="cls-3" d="M270.89,866.89a42.61,42.61,0,0,1,1.89,9.05,14.42,14.42,0,0,1-2,8.87" transform="translate(-89.16 -646.38)"/><path class="cls-3" d="M266.55,867.4c.93,4.9,1.85,10.08.16,14.78" transform="translate(-89.16 -646.38)"/><path class="cls-3" d="M260.82,886.82a4.25,4.25,0,0,0-5.36,2.85,2.4,2.4,0,0,0,0,1.43,3.9,3.9,0,0,0,.91,1.23,6.84,6.84,0,0,1,1.78,2.85,9.39,9.39,0,0,1-.07,3.62,7.22,7.22,0,0,0,.14,3.61,2.65,2.65,0,0,0,2.84,1.77,1.27,1.27,0,0,0,.6-.33c.34-.38.44-1.13.95-1.1" transform="translate(-89.16 -646.38)"/><path class="cls-3" d="M252.33,862.25c-3.45.54-7.07,1.15-9.79,3.33a18,18,0,0,0-3.86,4.8c-3.63,5.94-6.55,13.08-4.53,19.75" transform="translate(-89.16 -646.38)"/><path class="cls-3" d="M237.38,873.59a33.55,33.55,0,0,0-4.59,5.69,8.68,8.68,0,0,0-1,1.83,9.51,9.51,0,0,0-.45,3,41.38,41.38,0,0,0,1,10.58" transform="translate(-89.16 -646.38)"/><path class="cls-3" d="M236.58,886.17c-1.76,2.53-3.56,5.16-4.14,8.19-.55,2.81,0,5.7.56,8.5,1,5.11,2.11,10.4,5.22,14.58" transform="translate(-89.16 -646.38)"/><path class="cls-3" d="M237.1,896.1a52.88,52.88,0,0,0,8,23.89" transform="translate(-89.16 -646.38)"/><path class="cls-3" d="M236,902.78c2.75,7.21,5.58,14.54,10.43,20.54" transform="translate(-89.16 -646.38)"/><path class="cls-3" d="M243.35,905.62a43.16,43.16,0,0,0,8.51,18.76" transform="translate(-89.16 -646.38)"/><path class="cls-3" d="M252.66,904.74c1.64,7.84,2.19,16.22-.71,23.69" transform="translate(-89.16 -646.38)"/><path class="cls-3" d="M252.76,889.4a154,154,0,0,0,4.58,19.77" transform="translate(-89.16 -646.38)"/><path class="cls-3" d="M255.49,912.14l3,8.45" transform="translate(-89.16 -646.38)"/><path class="cls-3" d="M262.74,867.58a34.71,34.71,0,0,0-.77,6.73c0,4.38,1.37,8.63,2.71,12.8" transform="translate(-89.16 -646.38)"/><path class="cls-3" d="M257.74,870.1a20.84,20.84,0,0,1,8.81,17.55" transform="translate(-89.16 -646.38)"/><path class="cls-3" d="M254.58,870.42a42.18,42.18,0,0,1,4.9,5.61,9.9,9.9,0,0,1,.9,1.41,10.88,10.88,0,0,1,.7,4.92" transform="translate(-89.16 -646.38)"/><path class="cls-3" d="M255.41,875.7a18.74,18.74,0,0,1-.08,11.07" transform="translate(-89.16 -646.38)"/><path class="cls-3" d="M253.23,877.1a34.55,34.55,0,0,0-4.41,9.26c-2,7.75,1.56,15.71,2.43,23.66" transform="translate(-89.16 -646.38)"/><path class="cls-3" d="M246.54,877.91a43.05,43.05,0,0,0-.58,30" transform="translate(-89.16 -646.38)"/><path class="cls-3" d="M240.56,888.18A115.2,115.2,0,0,0,241,907" transform="translate(-89.16 -646.38)"/><path class="cls-3" d="M250.56,869.86c-3.15,2.1-6.85,3.51-9.39,6.31-3.46,3.82-4,9.35-4.48,14.47" transform="translate(-89.16 -646.38)"/><path class="cls-3" d="M253.39,862.09a29.79,29.79,0,0,1-4.46-1.94,8.5,8.5,0,0,0-4.69-1,6.93,6.93,0,0,0-4.11,2.47,20.45,20.45,0,0,0-2.57,4.16" transform="translate(-89.16 -646.38)"/><path class="cls-3" d="M253.28,862.31c1.15-3.08,2.39-6.3,4.92-8.4a16.32,16.32,0,0,1,3.25-2,6.56,6.56,0,0,1,2.38-.79,2.44,2.44,0,0,1,2.22.94" transform="translate(-89.16 -646.38)"/><path class="cls-3" d="M258.68,860.36c-1.34,2.22-1.45,5.29-3.57,6.77a11.8,11.8,0,0,1-3.2,1.23,11.22,11.22,0,0,0-7.23,8" transform="translate(-89.16 -646.38)"/><path class="cls-3" d="M263.3,859c2.66-1.56,5.48-3.18,8.57-3.23a14.45,14.45,0,0,1,6.11,1.56c3.37,1.54,6.59,3.72,8.48,6.9" transform="translate(-89.16 -646.38)"/><path class="cls-3" d="M271.7,858.6q2.91,1,5.76,2.18a4.57,4.57,0,0,1,1.32.72,5.11,5.11,0,0,1,.79.94l2.73,3.88" transform="translate(-89.16 -646.38)"/><path class="cls-3" d="M274.38,861.38a68.43,68.43,0,0,0,8.19,9.24" transform="translate(-89.16 -646.38)"/><path class="cls-3" d="M270.39,862.06a22.2,22.2,0,0,0,11.86,10.15" transform="translate(-89.16 -646.38)"/><path class="cls-3" d="M259.72,862.47q2.8.18,5.59.57a7.1,7.1,0,0,1,1.77.4,7.35,7.35,0,0,1,3.1,2.86,46.14,46.14,0,0,1,4.17,7.08" transform="translate(-89.16 -646.38)"/><path class="cls-3" d="M258.16,1022.77a45.12,45.12,0,0,1-5.33-.06,20.61,20.61,0,0,1-5.74-1.15,46.71,46.71,0,0,1-5.17-2.67c-4.34-11.43-3.23-24.1-2-36.25.76-7.49,1.56-15,3.9-22.21s6.35-14,12.45-18.41c5.05-3.67,12.21-5.4,17.51-2.11a15.75,15.75,0,0,1,4,3.78c6.1,7.76,7.54,18.09,8.54,27.9a240.11,240.11,0,0,1,1.58,32.93c-.16,4.35-.56,8.89-2.83,12.61s-6.94,6.32-11.05,4.9" transform="translate(-89.16 -646.38)"/><path class="cls-3" d="M254.71,1007.89c0-3.59.68-7.16.65-10.75,0-1.93-.22-3.85-.42-5.77-1.2-11.43-2.27-23-.26-34.37a19.31,19.31,0,0,1,2.09-6.45,8.14,8.14,0,0,1,5.23-4c2.78-.53,5.66.94,7.46,3.13a17.63,17.63,0,0,1,3.24,7.75A89.81,89.81,0,0,1,274,973.2l.37,16.43c.24,10.49.48,21-.64,31.44a3,3,0,0,1-2.86,3.31c-2.16.53-4.34,1-6.55,1.32a22.54,22.54,0,0,1-3.05.4,1.9,1.9,0,0,1-1.5-.58,9.46,9.46,0,0,1-1.28-2.08c-.48-.9-.91-1.83-1.3-2.77a32.62,32.62,0,0,1-2.49-12.78Z" transform="translate(-89.16 -646.38)"/><path class="cls-3" d="M260.73,1026.57a19.74,19.74,0,0,0-4.83,14.17,7.47,7.47,0,0,0,1,3.68,3.31,3.31,0,0,0,3.3,1.52c1.26-.28,2.06-1.28,2.06-3.27" transform="translate(-89.16 -646.38)"/><path class="cls-3" d="M270.88,1024.38c1.49,1.73,2.14,3.14,3.52,5a16.38,16.38,0,0,1,2.31,3.7c.55,1.35.63,4.16-.83,5.22" transform="translate(-89.16 -646.38)"/><path class="cls-3" d="M275.88,1036.48c-.34,1.42-.51,2.88-.71,4.32-.16,1.12-.07,3-1.08,3.76a3.09,3.09,0,0,1-1.25.57c-1.27.2-2-1.08-2.5-2" transform="translate(-89.16 -646.38)"/><path class="cls-3" d="M281.38,1021a79.3,79.3,0,0,1,0,25.54" transform="translate(-89.16 -646.38)"/><path class="cls-3" d="M251.49,1022.77c-2.29,7.62-2.14,17-.48,24.74" transform="translate(-89.16 -646.38)"/><path class="cls-3" d="M247.26,1061.69a28.47,28.47,0,0,1,1.86-10.5,20,20,0,0,1,6.31-8.52" transform="translate(-89.16 -646.38)"/><path class="cls-3" d="M275.06,1041.92c2.36,1.35,4.38,2.53,5.93,4.76a14.63,14.63,0,0,1,1.47,2.9,43.6,43.6,0,0,1,2.05,9.2" transform="translate(-89.16 -646.38)"/><path class="cls-3" d="M246.78,1090.56c-3.57-8.28-4.47-18-.95-26.29a5.61,5.61,0,0,1,.93-1.63c1.16-1.33,3.1-1.53,4.85-1.74,9.94-1.22,19.72-5.74,29.59-4.06a5.11,5.11,0,0,1,2.68,1.09,5,5,0,0,1,1.18,2.36c1.35,5,.79,10.36.16,15.54-1.37,11.05-3.35,22.75-10.74,31.09a19.2,19.2,0,0,1-6.49,5c-1.54.67-3.92,1.11-5.35-.06a19.42,19.42,0,0,1-1.51-1.63c-.79-.8-1.6-1.58-2.38-2.4a67,67,0,0,1-8.45-10.61A50,50,0,0,1,246.78,1090.56Z" transform="translate(-89.16 -646.38)"/><path class="cls-3" d="M263.86,1105.53a6.89,6.89,0,0,1-2.61-4.58,3.92,3.92,0,0,1,2.8-4.1,4.07,4.07,0,0,1,4,2,7.23,7.23,0,0,1,1.16,3.77,3.94,3.94,0,0,1-2.09,3A5.93,5.93,0,0,1,263.86,1105.53Z" transform="translate(-89.16 -646.38)"/><path class="cls-3" d="M284.28,1057.21c4.05,9.83,7.21,22.58,7.19,33.22s-1.43,21.22-2.84,31.77a15.55,15.55,0,0,1-.91,4c-1.55,3.7-5.57,5.6-9.26,7.18a18.58,18.58,0,0,1-9.74,2h-11a12.09,12.09,0,0,1-4.45-.56c-2.15-.85-3.62-2.86-4.64-4.93a41.82,41.82,0,0,1-1.89-4.84,105.09,105.09,0,0,1-4.86-18.57c-.53-3.65-.73-7.35-.94-11a101,101,0,0,1,0-16.68,33.55,33.55,0,0,1,5.42-15.61" transform="translate(-89.16 -646.38)"/><path class="cls-3" d="M263.24,1135.45c1.16,1.69.44,3.38,4,5a56.53,56.53,0,0,0,29.29-3.32,15.46,15.46,0,0,0,6.09-3.79c1.6-1.81,2.4-4.51,1.39-6.71-1.29-2.81-4.78-3.71-7.82-4.27-2.63-.48-4.95-.83-7.52-.11" transform="translate(-89.16 -646.38)"/><path class="cls-3" d="M298.12,1122.73c-.86,1.47-1.85,1.84-2.74,3.94a8.64,8.64,0,0,0-.25,3.52,11.27,11.27,0,0,0,4.78,5.26" transform="translate(-89.16 -646.38)"/><path class="cls-3" d="M262.3,1043.53a3.2,3.2,0,0,0,1.2,1.93,3.34,3.34,0,0,0,.71.26,1.36,1.36,0,0,0,.8,0,1.24,1.24,0,0,0,.6-1,2.09,2.09,0,0,0,0-1.19" transform="translate(-89.16 -646.38)"/><path class="cls-3" d="M265.71,1044.78l1,.83a1.54,1.54,0,0,0,.29.21,1.79,1.79,0,0,0,.69.16,3.18,3.18,0,0,0,.69,0,2.72,2.72,0,0,0,1-.47,1.48,1.48,0,0,0,.6-.56,6.4,6.4,0,0,0,.55-1.43" transform="translate(-89.16 -646.38)"/><circle cx="195.27" cy="239.21" r="2.92"/><path class="cls-3" d="M159.08,869a22.11,22.11,0,0,1,8.32,10.15A65.72,65.72,0,0,1,171.09,892l1.71,7.89a10,10,0,0,1,.33,3.63,3.42,3.42,0,0,1-2.06,2.8,5.09,5.09,0,0,1-3.53-.57" transform="translate(-89.16 -646.38)"/><path class="cls-3" d="M148.83,926.77a19.56,19.56,0,0,0,6.77-1.47c3.33-1.4,5.88-4.18,8-7.11,2.61-3.63,4.78-7.92,4.4-12.38" transform="translate(-89.16 -646.38)"/><path class="cls-4" d="M166.28,912l-1.88,3.77a9.06,9.06,0,0,0-5.4-1.26c-.55.05-1.09.16-1.64.25l-.63.11-5.44,2.65-.74.21a22.09,22.09,0,0,1,7.61-6,10.3,10.3,0,0,1,3.43-1.07A6.7,6.7,0,0,1,166.28,912Z" transform="translate(-89.16 -646.38)"/><path class="cls-3" d="M148.81,927.34c-1.3,4.11-.36,9,1.28,12.94" transform="translate(-89.16 -646.38)"/><path class="cls-3" d="M135.31,928.82c1.32,2.41,2.69,5,2.24,7.76a12.23,12.23,0,0,1-.76,2.43" transform="translate(-89.16 -646.38)"/><path class="cls-3" d="M152.13,882.65a22.82,22.82,0,0,1,5.27-3.4,7.71,7.71,0,0,1,6.12-.1" transform="translate(-89.16 -646.38)"/><path class="cls-3" d="M164.4,890.32a5.87,5.87,0,0,1-5,2.08c-2.13-.2-5.49-2.41-5.49-2.41a22.87,22.87,0,0,1,5.07-4.71,7.63,7.63,0,0,1,6.64-.87S165.6,888.87,164.4,890.32Z" transform="translate(-89.16 -646.38)"/><path class="cls-3" d="M156.89,902.73c-1.48,0-1.34-2.36-.91-3.2.15-.29.63-1,1.06-.86s.51,1.66.59,2.07C157.75,901.38,157.88,902.69,156.89,902.73Z" transform="translate(-89.16 -646.38)"/><path class="cls-3" d="M134.62,922.81l2.21,5.79c-.22-.15-.35.27-.53.47s-.67.06-1-.15a5.59,5.59,0,0,1-1.77-1.72,1.89,1.89,0,0,1,.25-2.29,2.66,2.66,0,0,1,1-.45.44.44,0,0,1,.37,0,.38.38,0,0,1,.13.4,1.63,1.63,0,0,1-1.64,1.31,2.36,2.36,0,0,1-1.87-1.17,4.55,4.55,0,0,1-.59-2.2,14.46,14.46,0,0,1,.23-2.86,1.69,1.69,0,0,1,.95,1.48,4.33,4.33,0,0,1-.4,1.8,3.85,3.85,0,0,1-.74,1.29,1.47,1.47,0,0,1-1.34.49,1.84,1.84,0,0,1-.77-.43,6.88,6.88,0,0,1-1.79-2.22,3,3,0,0,1-.35-2.28,1.45,1.45,0,0,1,1.86-1,2.16,2.16,0,0,1,.91,1.62" transform="translate(-89.16 -646.38)"/><path class="cls-3" d="M131.72,912.87l.53,4.69c.1.84.29,1.82,1.05,2.19a2.11,2.11,0,0,0,1.93-.29,2.6,2.6,0,0,0,.88-.8,2.27,2.27,0,0,0,.06-2,6.87,6.87,0,0,0-1.18-1.71.77.77,0,0,0-.37-.28c-.36-.06-.55.41-.58.77a7.31,7.31,0,0,0,1.5,5c.34.44.92.86,1.38.56a1.19,1.19,0,0,0,.37-.53l.85-1.81" transform="translate(-89.16 -646.38)"/><path class="cls-3" d="M136.67,917.69a54.87,54.87,0,0,1,.2,6.15,3.12,3.12,0,0,1-2.57-.8c-.7-.91-.2-2.22.33-3.24" transform="translate(-89.16 -646.38)"/><path class="cls-3" d="M140.06,893.6l-5.84-1.25a6.56,6.56,0,0,0-.7,1.69,3.8,3.8,0,0,0,.42,3.18c.79,1.08,2.43,1.63,2.58,3s-1.12,2.22-1,3.42,1.4,1.84,2.51,2.26a1.6,1.6,0,0,0,.95.16,1.53,1.53,0,0,0,.62-.38,9.07,9.07,0,0,0,1.3-1.4" transform="translate(-89.16 -646.38)"/><path class="cls-3" d="M139.07,887.2a36,36,0,0,1-.57,5.58,18.22,18.22,0,0,1-3.25-1.08,1.64,1.64,0,0,1-.81-.6c-.36-.61.12-1.35.58-1.89s1-.83,1.36-.39a.87.87,0,0,1,.13.5l.09,1.74" transform="translate(-89.16 -646.38)"/><path class="cls-3" d="M140,882.55l-.59,6.18,2.84-1a12,12,0,0,1-1.44,3.45" transform="translate(-89.16 -646.38)"/><path class="cls-3" d="M140.69,883.68a53.73,53.73,0,0,1,5,3.2,8.21,8.21,0,0,1-1.12,4.13c-.15.25-.55.47-.64.2" transform="translate(-89.16 -646.38)"/><path class="cls-3" d="M142.89,878.87a18.66,18.66,0,0,1,.38,6.1,2.17,2.17,0,0,1-2.15.09,3.54,3.54,0,0,1-1.55-1.58,5.29,5.29,0,0,1-.16-4.53,3,3,0,0,1,1.68-1.73,5.24,5.24,0,0,1,.37,2.28,1.87,1.87,0,0,1-.89,1.67c-.89.38-1.84-.54-2.09-1.48a3.8,3.8,0,0,1,1.47-4" transform="translate(-89.16 -646.38)"/><path class="cls-3" d="M140.14,876.12a6,6,0,0,1,3-4.91c.94-.54,2.2-.6,2.72.5a5.68,5.68,0,0,1,0,3.62,11,11,0,0,1-2,4.07c-.23.29-.32.5-.69.48a2.36,2.36,0,0,1-.69-.19,3.58,3.58,0,0,1-1.22-.85A4.1,4.1,0,0,1,140.14,876.12Z" transform="translate(-89.16 -646.38)"/><path class="cls-3" d="M145.18,871.8l-.41,4.87a1.3,1.3,0,0,0,.23,1.06.86.86,0,0,0,1,.06,2.22,2.22,0,0,0,.7-.76,46.39,46.39,0,0,0,2.4-5.33,2.33,2.33,0,0,1,1.11-1.29,2.07,2.07,0,0,1,.86-.08,5.33,5.33,0,0,1,2.14.65,1.46,1.46,0,0,1,.67.63,1.51,1.51,0,0,1,.07.82,6.4,6.4,0,0,1-2.53,4.28" transform="translate(-89.16 -646.38)"/><path class="cls-3" d="M157.2,868.42a39.71,39.71,0,0,1-4.74,4.7,2.7,2.7,0,0,1,1.42-4.83,1.32,1.32,0,0,1,1,.22,1.76,1.76,0,0,1,.44,1.38l.09,3.71c.3.18.64-.17.82-.47l3-5.21c.42-.71.82-1.67.27-2.29s-1.8-.21-2.73-.42" transform="translate(-89.16 -646.38)"/><path class="cls-3" d="M150.65,866.67a70.75,70.75,0,0,1,6.06-4.1,6.65,6.65,0,0,1,3.47,7.6" transform="translate(-89.16 -646.38)"/><path class="cls-3" d="M152.91,869.38a27.46,27.46,0,0,1-1.3-5.14,4.76,4.76,0,0,1,2.15,1,1.69,1.69,0,0,1,.35,2.16,2.4,2.4,0,0,1-.86.62c-1.14.59-2.5,1.18-3.64.59a3.77,3.77,0,0,1-1.1-1c-.44-.52-.86-1.07-1.26-1.62a2.25,2.25,0,0,1-.48-1,2.12,2.12,0,0,1,.3-1.06,15.14,15.14,0,0,1,1.93-2.95,3.73,3.73,0,0,1,2.08-1.45,3.61,3.61,0,0,1,2,.43,11.51,11.51,0,0,1,4.36,3.62" transform="translate(-89.16 -646.38)"/><path class="cls-3" d="M143.76,872.84a3.56,3.56,0,0,1-1.8-.55,3.8,3.8,0,0,1-1.32-1.71,6.91,6.91,0,0,1,1.24-6.65,12.82,12.82,0,0,1,2.53-2.46,3,3,0,0,1,1.9-.78c1.3.07,1.92,1.54,2.2,2.61a11.45,11.45,0,0,1,.06,5.11c-.46,2.16-1.72,4.1-4.07,4.4A3.08,3.08,0,0,1,143.76,872.84Z" transform="translate(-89.16 -646.38)"/><path class="cls-3" d="M148.58,866.39l-6,3.34a3,3,0,0,0-1,.78c-.45.61-.58,1.67-1.34,1.71-.48,0-.83-.44-1.09-.84a5.84,5.84,0,0,1-1.22-3.29,5.77,5.77,0,0,1,1.38-2.88l1.54-2.08a3.8,3.8,0,0,0-2.78-.89c-1.61-.08-3.49,0-4.46,1.26a3.29,3.29,0,0,0-.37,2.93,8.47,8.47,0,0,0,1.54,2.64" transform="translate(-89.16 -646.38)"/><path class="cls-3" d="M136,865.86l2.06-4.68c.35-.77.85-1.66,1.7-1.7a.46.46,0,0,1,.37.13.49.49,0,0,1,.07.19c.09.59-.33,1.2-.13,1.76a1.92,1.92,0,0,0,.42.6,7.86,7.86,0,0,1,1.95,5.47" transform="translate(-89.16 -646.38)"/><path class="cls-3" d="M138.62,868.92a47.77,47.77,0,0,0-4,3.39,1.57,1.57,0,0,0-.62,1.6l.09,1.47a1.45,1.45,0,0,0,.14.66,1.2,1.2,0,0,0,1.27.4,5.51,5.51,0,0,1,1.38-.26,2,2,0,0,1,1.52,2.49,5.26,5.26,0,0,1-1.95,2.63,3.85,3.85,0,0,1-2.19,1.13,2.75,2.75,0,0,1-2.45-1.82,7.49,7.49,0,0,1-.32-3.2" transform="translate(-89.16 -646.38)"/><path class="cls-3" d="M136.19,880.3a38.64,38.64,0,0,1-.94,5.66c-.39-.53-1.23-.27-1.87-.42a1.7,1.7,0,0,1-1.1-2,2.68,2.68,0,0,1,1.73-1.74,2.59,2.59,0,0,1,2.86.6,3.2,3.2,0,0,1,.21,2.94,6.2,6.2,0,0,1-4.09,4.28" transform="translate(-89.16 -646.38)"/><path class="cls-3" d="M134.76,884.48a68.74,68.74,0,0,0-4.79,5.44c.45.44,0,1.19,0,1.82a1.18,1.18,0,0,0,1,1.06,1.32,1.32,0,0,0,1.29-.79c.16.4-.12.84-.41,1.16a6,6,0,0,1-3.31,1.78,1.53,1.53,0,0,1-1.31-.25c-.33-.32-.19-1.05.27-1.05l.42,4.63" transform="translate(-89.16 -646.38)"/><path class="cls-3" d="M130.74,898.76a44.8,44.8,0,0,1,3.45,5.07,4.16,4.16,0,0,1-1.9,2.39,2.77,2.77,0,0,1-2.13-.11,3.66,3.66,0,0,1-2-2.14,3.27,3.27,0,0,1,.39-2.85,2.07,2.07,0,0,1,.91-.77,2,2,0,0,1,2.33,1,3.12,3.12,0,0,1-.15,2.71,8.91,8.91,0,0,1-1.71,2.21" transform="translate(-89.16 -646.38)"/><path class="cls-3" d="M135.23,904.53l-.87,6.34a1.21,1.21,0,0,0,1.54-.17,5.69,5.69,0,0,0,.94-1.41,6.58,6.58,0,0,1,1.26-1.52.74.74,0,0,1,.41-.21c.24,0,.42.19.56.39a4.81,4.81,0,0,1-1.8,7,1.7,1.7,0,0,1-1.07.24c-.85-.15-1.15-1.19-1.77-1.79" transform="translate(-89.16 -646.38)"/><path class="cls-3" d="M138.43,909.5a46.46,46.46,0,0,1-2.18,6.37,2.89,2.89,0,0,1-1.89-1.72,8.44,8.44,0,0,1-.55-2.59l-.41-3.77a72.18,72.18,0,0,1-4,7.25,2.69,2.69,0,0,1-.76.88,1,1,0,0,1-1.09,0,1.33,1.33,0,0,1-.4-.81,9.44,9.44,0,0,1,1.84-7.72.88.88,0,0,1,.32-.29c.44-.2.87.29,1.09.72a13.94,13.94,0,0,1,1.17,3.26" transform="translate(-89.16 -646.38)"/><path class="cls-3" d="M129.4,918c.78,2.29,1.57,4.7,1.16,7.08a.63.63,0,0,1-.25.48.64.64,0,0,1-.58-.08l-3-1.44a1.66,1.66,0,0,1-.83-.64,1.69,1.69,0,0,1-.1-.92,22.36,22.36,0,0,1,.59-3.54" transform="translate(-89.16 -646.38)"/><path class="cls-3" d="M125.28,913.52a45.73,45.73,0,0,1-.58,6,3,3,0,0,1-2.84-5,.29.29,0,0,1,.24-.11c.07,0,.12.09.15.16a6,6,0,0,1,.48,2.76,8.59,8.59,0,0,1-1.19,4.61,4.54,4.54,0,0,1-4.05,2.18,3.69,3.69,0,0,1-3.21-3.17" transform="translate(-89.16 -646.38)"/><path class="cls-3" d="M115.18,916.09l5.88,2.26a1.74,1.74,0,0,1-1,2.07,2.83,2.83,0,0,1-2.46-.29,4.89,4.89,0,0,1-2.26-3.16,6.64,6.64,0,0,1,.4-3.91c.27-.65.71-1.33,1.4-1.44s1.43.51,2.18.68c1.28.28,2.45-.8,3.19-1.88s1.45-2.35,2.69-2.76" transform="translate(-89.16 -646.38)"/><path class="cls-3" d="M124.15,906.62a47,47,0,0,1,.83,5.91,3.4,3.4,0,0,1-.18,1.71,1.2,1.2,0,0,1-1.42.7,1.3,1.3,0,0,1-.52-.41,4.13,4.13,0,0,1-.65-3.72,9.33,9.33,0,0,1,2-3.37c.39-.48.92-1,1.52-.88a1.16,1.16,0,0,1,.81.65,2,2,0,0,1-.85,2.46,2.91,2.91,0,0,1-2.76-.06,5.92,5.92,0,0,1-2-2c-.54-.78-1-1.82-.51-2.62" transform="translate(-89.16 -646.38)"/><path class="cls-3" d="M125.44,893.78a50,50,0,0,1,.87,6.2,4.09,4.09,0,0,1-2.49.07c-.79-.33-1.29-1.41-.74-2a1.42,1.42,0,0,1,2.11.36,4.14,4.14,0,0,1,.43,2.39l-.13,5.39.44,0" transform="translate(-89.16 -646.38)"/><path class="cls-3" d="M126.56,901.79a38.69,38.69,0,0,1-5.17,3.93,1.56,1.56,0,0,1-.76-2.24,4.53,4.53,0,0,1,2.09-1.71,5,5,0,0,1-.6,3.75,14.68,14.68,0,0,1-2.46,3" transform="translate(-89.16 -646.38)"/><path class="cls-3" d="M119.82,908.05a35,35,0,0,1-2.95,5.06c-.36-.62-1.24-.71-1.74-1.22a2.56,2.56,0,0,1-.18-2.54,3.15,3.15,0,0,1,.92-1.59,1.22,1.22,0,0,1,1.68.06c.49.62,0,1.53.06,2.32" transform="translate(-89.16 -646.38)"/><path class="cls-3" d="M115.68,911.12l-2,5.48c-.32-.42-1-.4-1.47-.49a3.34,3.34,0,0,1-2.39-1.8,4.64,4.64,0,0,1-.34-3,3.38,3.38,0,0,1,1.66-2.41" transform="translate(-89.16 -646.38)"/><path class="cls-3" d="M114.55,910.79a42.07,42.07,0,0,1,.06-5.5.47.47,0,0,0,.47,0c0-1.25-1.22-2.12-2.28-2.81-.61-.39-1.46-.77-2-.27a1.25,1.25,0,0,0-.33.9,3.31,3.31,0,0,0,1,2.28,9.62,9.62,0,0,0,2.08,1.49" transform="translate(-89.16 -646.38)"/><path class="cls-3" d="M120,903.07a30.05,30.05,0,0,1-4.28,4.16,4.59,4.59,0,0,1,3.91-7.25,4.27,4.27,0,0,1,.12-2.69.79.79,0,0,0,.08-.42c-.07-.33-.51-.39-.84-.36A7,7,0,0,0,115,898.3" transform="translate(-89.16 -646.38)"/><path class="cls-3" d="M124.15,895.54a48.17,48.17,0,0,1-1,6.66,2,2,0,0,1-2.65-.34,3.89,3.89,0,0,1-.84-2.76,3.64,3.64,0,0,1,.26-1.35,2.27,2.27,0,0,1,4.33,1" transform="translate(-89.16 -646.38)"/><path class="cls-3" d="M124.62,891a26.07,26.07,0,0,1-4.87,3.68,2.11,2.11,0,0,1-.59-2,4.61,4.61,0,0,1,1-1.9,11.77,11.77,0,0,1,2.4-2.38,1.91,1.91,0,0,1,1-.44,1.36,1.36,0,0,1,1.25.82,3.23,3.23,0,0,1,.24,1.54,10.59,10.59,0,0,1-1.32,4.8" transform="translate(-89.16 -646.38)"/><path class="cls-3" d="M127.85,887a57.68,57.68,0,0,1-.5,6.16,2.14,2.14,0,0,1-2.34-.47,3.34,3.34,0,0,1-.92-2.3,2.78,2.78,0,0,1,.34-1.53,1.49,1.49,0,0,1,1.31-.75,2.2,2.2,0,0,1,1.55,1.22,12.08,12.08,0,0,1,1.64,8.38.53.53,0,0,0,0,.33c.11.24.45.19.71.21a1.14,1.14,0,0,1,.84,1.68" transform="translate(-89.16 -646.38)"/><path class="cls-3" d="M135.25,899.22a41.83,41.83,0,0,1-4-5.3c.68-.47.41-1.58-.18-2.15a19.49,19.49,0,0,1-1.94-1.53" transform="translate(-89.16 -646.38)"/><path class="cls-3" d="M135.22,899.71a28.17,28.17,0,0,1-3,4.77,8.69,8.69,0,0,1-2.11-6.86c.24-1.7,1-3.46.34-5-.48-1.23-1.68-2.06-2.19-3.28-.71-1.7.11-3.61.91-5.27" transform="translate(-89.16 -646.38)"/><path class="cls-3" d="M133.46,885.74a34.6,34.6,0,0,1-4.38,4.18,3.08,3.08,0,0,1-1.8-3.2,7.77,7.77,0,0,1,1.52-3.6c.49-.73,1.19-1.53,2-1.39,1,.15,1.37,1.48,1.14,2.47a3.69,3.69,0,0,1-2.09,2.57,2.89,2.89,0,0,1-3.17-.64,2.37,2.37,0,0,1,0-3.13" transform="translate(-89.16 -646.38)"/><path class="cls-3" d="M132.49,878.05a36.61,36.61,0,0,1-3.27,5.17,2.85,2.85,0,0,1-1.77-1.94,5.48,5.48,0,0,1,0-2.7,5.07,5.07,0,0,1,2.51-3.76l.34,1" transform="translate(-89.16 -646.38)"/><path class="cls-3" d="M135.54,876.28a39.21,39.21,0,0,1-3.29,4.7,5.83,5.83,0,0,1,1-6.92c.56-.54,1.52-.93,2.05-.37a1.15,1.15,0,0,1,.28.76,2.09,2.09,0,0,1-2.31,1.95,2.89,2.89,0,0,1-2.33-2.23,4.81,4.81,0,0,1,.55-3.31,1.82,1.82,0,0,1,.62-.75.72.72,0,0,1,.9.1" transform="translate(-89.16 -646.38)"/><path class="cls-3" d="M136.66,866.49a34.33,34.33,0,0,1-4.49,4.45,3,3,0,0,1-2.09-3,5.28,5.28,0,0,1,1.62-3.45c.55-.58,1.52-1.08,2.09-.52a1.31,1.31,0,0,1,.33.84,3.68,3.68,0,0,1-1.44,3.39,3.13,3.13,0,0,1-3.61,0,2.76,2.76,0,0,1-.77-3.45" transform="translate(-89.16 -646.38)"/><path class="cls-3" d="M131.05,871a33,33,0,0,1-4.65,4.51,2.54,2.54,0,0,1-1.52-1.22,2,2,0,0,1-.06-1,6.14,6.14,0,0,1,2.33-4,.64.64,0,0,1,.45-.18.57.57,0,0,1,.35.26,5,5,0,0,1,.8,2.94,4.18,4.18,0,0,1-.28,2,3.94,3.94,0,0,1-2.84,1.78,5.54,5.54,0,0,1-2.29.13,2.6,2.6,0,0,1-1.83-1.28,1.68,1.68,0,0,1,.43-2.07" transform="translate(-89.16 -646.38)"/><path class="cls-3" d="M127,878.21a37.67,37.67,0,0,1-3.38,5.44,5.07,5.07,0,0,1,.67-6.11,1,1,0,0,1,.6-.35c.38,0,.68.31.87.65a4.44,4.44,0,0,1-.7,5.09,2.76,2.76,0,0,1-1.75.9,3.52,3.52,0,0,1-2.17-.85,3.38,3.38,0,0,1-1.66-2.39,3.49,3.49,0,0,1,1.45-2.53" transform="translate(-89.16 -646.38)"/><path class="cls-3" d="M125.91,883.82a31.1,31.1,0,0,1-2.5,5.95,3.33,3.33,0,0,1-1.88-.9,2.2,2.2,0,0,1-.36-2,5.29,5.29,0,0,1,1-1.81c.34-.47.83-1,1.4-.88s.88.79.95,1.38a4.14,4.14,0,0,1-1.34,3.73,3,3,0,0,1-3.8,0,4.41,4.41,0,0,1-1-1.5,19,19,0,0,1-1-2.49c-.16-.49-.21-1.17.27-1.35" transform="translate(-89.16 -646.38)"/><path class="cls-3" d="M120.77,888.18a39.63,39.63,0,0,1,2.2,7.38,7.41,7.41,0,0,1-2,1.24,2.82,2.82,0,0,1-2.26,0,2.72,2.72,0,0,1-1.29-2.58,5.58,5.58,0,0,1,1.14-2.78,2.84,2.84,0,0,1,1.84-1.36,2.16,2.16,0,0,1,2.1,1.78,6.24,6.24,0,0,1-.26,3l-.8,3.18a3.4,3.4,0,0,1-1.78,2.5,4.3,4.3,0,0,1-1.39.76,2.63,2.63,0,0,1-2.86-1.5,4.54,4.54,0,0,1,0-3.4" transform="translate(-89.16 -646.38)"/><path class="cls-3" d="M117.77,891.71a30,30,0,0,0-3.16,5.42,1.6,1.6,0,0,0,2.28,0A4.65,4.65,0,0,0,118,894.9a1.87,1.87,0,0,0,.06-1.21,1.47,1.47,0,0,0-1.66-.64,9,9,0,0,1-1.89.37,1,1,0,0,1-.81-.35,1.57,1.57,0,0,1-.2-.48,14.34,14.34,0,0,1-.1-6.92c0-.15.09-.32.23-.36a.44.44,0,0,1,.31.08c.93.5,2,1.23,2,2.29" transform="translate(-89.16 -646.38)"/><path class="cls-3" d="M118.4,886.25a51.17,51.17,0,0,0-4,5.25,1.38,1.38,0,0,0,1.52.76,3.64,3.64,0,0,0,1.61-.85,6.48,6.48,0,0,0,2.15-2.56,2.7,2.7,0,0,0-.64-3.08A6.5,6.5,0,0,0,117,885a1.66,1.66,0,0,1-1.39-2.38,7.37,7.37,0,0,1,2-3c.52-.48,1.39-.86,1.87-.34a1.52,1.52,0,0,1,.28.65l.58,2.28" transform="translate(-89.16 -646.38)"/><path class="cls-3" d="M122.39,878a33.87,33.87,0,0,1-4.59,3.86,4.4,4.4,0,0,1,4.06-7.22c-.69-.62-.47-1.85-1.14-2.49a2.28,2.28,0,0,0-2.32-.13,3,3,0,0,0-2,1.62,2.22,2.22,0,0,0,.53,2.06,6.49,6.49,0,0,0,1.79,1.32" transform="translate(-89.16 -646.38)"/><path class="cls-3" d="M125.76,870.5a50.53,50.53,0,0,1-5.85,4.67,8.12,8.12,0,0,1-2.77-1.72,3.44,3.44,0,0,1-1.09-1.63,3.81,3.81,0,0,1,.61-2.68,3.67,3.67,0,0,1,2.12-1.94c1-.22,2.15.57,2,1.54" transform="translate(-89.16 -646.38)"/><path class="cls-3" d="M120.15,870.52a4.62,4.62,0,0,0-2.15.41,2,2,0,0,0-1.1,1.78c.1,1.09,1.29,1.71,2.35,2a5,5,0,0,0,2.21.12,2.25,2.25,0,0,0,1.67-1.34,4.19,4.19,0,0,0,.11-1.58,2.38,2.38,0,0,1,.33-1.53,1,1,0,0,1,1.38-.23,4.08,4.08,0,0,1-1.34.89,1.42,1.42,0,0,1-1.5-.3,1.83,1.83,0,0,1-.27-1.52,6.85,6.85,0,0,1,2.17-4c.61-.55,1.6-1,2.18-.39a1.79,1.79,0,0,1,.39.95,13.93,13.93,0,0,1,.13,3.76" transform="translate(-89.16 -646.38)"/><path class="cls-3" d="M126.56,870.35l2.12-3.77a2.77,2.77,0,0,0,.41-1,2.88,2.88,0,0,0-.65-1.85,3,3,0,0,0-1.12-1.2,1,1,0,0,0-1.41.43" transform="translate(-89.16 -646.38)"/><path class="cls-3" d="M119.33,873.4a39.13,39.13,0,0,1-2.81,5.88,1.38,1.38,0,0,1-1-1.16,3.52,3.52,0,0,1,.19-1.6c.22-.75.63-1.62,1.41-1.7a1.45,1.45,0,0,1,1.43,1.31,4.12,4.12,0,0,1-.44,2.08,8.66,8.66,0,0,1-1.5,2.65,4.85,4.85,0,0,1-6.17.7,2.67,2.67,0,0,1-.87-.9c-.63-1.15,0-2.55.69-3.69" transform="translate(-89.16 -646.38)"/><path class="cls-3" d="M113.58,874c.2,2.06.33,4.11.39,6.17a1.9,1.9,0,0,0-1.43,2.44,4.56,4.56,0,0,0,2.11,2.38,2,2,0,0,0,1.28.44c.46-.05.88-.54.69-1s-1.12-.32-1.65,0l-1.3.81a4.65,4.65,0,0,0-1.62,1.39,1.59,1.59,0,0,0,.17,2" transform="translate(-89.16 -646.38)"/><path class="cls-3" d="M114.86,882.4a57,57,0,0,0-6,2.34,5.39,5.39,0,0,0,4,2,1.24,1.24,0,0,1,.72.16c.33.27.24.79.09,1.18a3.77,3.77,0,0,1-1.23,1.81,1.64,1.64,0,0,1-2,0,2.22,2.22,0,0,1-.47-.93,6.77,6.77,0,0,1,.08-4" transform="translate(-89.16 -646.38)"/><path class="cls-3" d="M112.92,890.57a58.09,58.09,0,0,1-1.62,6.36c-2.09-.28-3.85-1.65-5.49-3a4.12,4.12,0,0,1-1.44-1.64,2.84,2.84,0,0,1,.19-2.24,8.46,8.46,0,0,1,1.36-1.86" transform="translate(-89.16 -646.38)"/><path class="cls-3" d="M109,887.36a29.13,29.13,0,0,0,.79,5.65,3.88,3.88,0,0,0,2.53-1.3,1.62,1.62,0,0,0-.53-2.44,1.72,1.72,0,0,0-1.45.29,4,4,0,0,0-1.58,3.33,11.85,11.85,0,0,0,.79,3.73A5.72,5.72,0,0,0,111,899.3" transform="translate(-89.16 -646.38)"/><path class="cls-3" d="M113.27,892.49l.85,6.15a3.58,3.58,0,0,1-2-4.09,1.49,1.49,0,0,1,.48-.84,1.31,1.31,0,0,1,1.65.23,3.13,3.13,0,0,1,.74,1.64,12.94,12.94,0,0,1-.45,6.95.93.93,0,0,1-.43.6,1,1,0,0,1-.58,0,8.55,8.55,0,0,1-4.3-2,4.25,4.25,0,0,1-1.19-4.4" transform="translate(-89.16 -646.38)"/><path class="cls-3" d="M111.8,896.19c.91,1.67,1.75,3.38,2.52,5.11a2.09,2.09,0,0,1,.25.93,2.47,2.47,0,0,1-.26.78,11,11,0,0,0-.55,7.77" transform="translate(-89.16 -646.38)"/><path class="cls-3" d="M112.63,900.69a28.23,28.23,0,0,0-1.75,5.31c1,1,3-.17,4,.85s-.39,2.78.29,4" transform="translate(-89.16 -646.38)"/><path class="cls-3" d="M114.87,907.1a55.55,55.55,0,0,0-2.49,6.29c.8,1.06,1.87,2.23,3.18,2,1.07-.17,1.76-1.19,2.39-2.07a18.51,18.51,0,0,1,2.62-2.9c.38-.35.89-.7,1.37-.51a1.44,1.44,0,0,1,.71.94,13.38,13.38,0,0,1,.72,3.6" transform="translate(-89.16 -646.38)"/><path class="cls-3" d="M116,910.63q1.33,3.15,2.88,6.21l4-1.72a4.44,4.44,0,0,1,3.22-.47,3,3,0,0,1,1.63,1.9,8.86,8.86,0,0,1,.28,2.57,1.75,1.75,0,0,0,1.08-1" transform="translate(-89.16 -646.38)"/><path class="cls-3" d="M129.45,918c-.17.6-.53,1.23-1.14,1.33a1.69,1.69,0,0,1-1.44-.77,5.54,5.54,0,0,1-1.18-3,3,3,0,0,1,.53-2.46,1.94,1.94,0,0,1,3.14.61A8,8,0,0,1,129.45,918Z" transform="translate(-89.16 -646.38)"/><path class="cls-3" d="M129.58,908.73a26,26,0,0,0-5.69-6.19" transform="translate(-89.16 -646.38)"/><path class="cls-3" d="M125.7,899.79c1.7,2.06,3.46,4.27,3.86,6.91a27.45,27.45,0,0,1,.16,2.87c.11,2,.58,3.89.84,5.84a3.93,3.93,0,0,0,.47,1.67,1.21,1.21,0,0,0,1.5.5" transform="translate(-89.16 -646.38)"/><path class="cls-3" d="M130.58,902.61c1.16,1.64,2.28,3.32,3.35,5a3.06,3.06,0,0,1,.42.85,2.54,2.54,0,0,1,0,1,10.62,10.62,0,0,1-1.49,4.15.83.83,0,0,0-.17.49c0,.22.24.36.42.47l2.14,1.33" transform="translate(-89.16 -646.38)"/><path class="cls-3" d="M136.85,912.22c-1.34-.21-2.67-.47-4-.8a4.09,4.09,0,0,1-2.23-1.09,2.23,2.23,0,0,1,.57-3.26" transform="translate(-89.16 -646.38)"/><path class="cls-3" d="M131.24,877.43c1.2-1.52,2.87-2.59,4.2-4s2.34-3.4,1.74-5.24c-.1-.32-.25-.69-.07-1a1,1,0,0,1,.61-.35,8.43,8.43,0,0,1,2.84-.48,2.9,2.9,0,0,1,2.43,1.35,4,4,0,0,1-.18,3.24,21.13,21.13,0,0,1-1.25,2.69,8.1,8.1,0,0,0-1,2.31,2.25,2.25,0,0,0,.71,2.29" transform="translate(-89.16 -646.38)"/><path class="cls-3" d="M145,871.63a44.73,44.73,0,0,1-3,6.1,6.07,6.07,0,0,1-5.68-1.68,2.57,2.57,0,0,1-.84-2.23c.2-.84,1-1.35,1.77-1.78l3.27-1.85a10.94,10.94,0,0,1,4.82-1.79c.47,0,1,0,1.29-.42a1.29,1.29,0,0,0,.15-.7,3.67,3.67,0,0,0-.5-2.37,3.07,3.07,0,0,0-1.16-.82,8.9,8.9,0,0,0-3.17-.78" transform="translate(-89.16 -646.38)"/><path class="cls-3" d="M143.89,873.08l-.6-5.6a4.66,4.66,0,0,1,.5-3.4,2.34,2.34,0,0,1,1.69-.87c1.47-.08,2.61,1.21,4,1.85a1.33,1.33,0,0,0,.93.15c.39-.12.62-.52.93-.8a1.81,1.81,0,0,1,2.8.73c.39,1.19-.59,2.39-1.58,3.16a7.13,7.13,0,0,1-2.8,1.44,3.5,3.5,0,0,1-3-.64,2.35,2.35,0,0,1-.62-2.85" transform="translate(-89.16 -646.38)"/><path class="cls-3" d="M150.48,862.18a57.24,57.24,0,0,1,4.84,4.23c-1.54,2.2-5,2-6.91,4" transform="translate(-89.16 -646.38)"/><path class="cls-3" d="M148.7,871.23c-2.86,0-5.88,0-8.37-1.45A16.61,16.61,0,0,0,137,867.9a13.1,13.1,0,0,1-1.79-.49,1.42,1.42,0,0,1-.92-1.46,1.08,1.08,0,0,0,.07-.43c-.07-.41-.67-.38-1.05-.23a32,32,0,0,0-4.08,1.88,7.77,7.77,0,0,0-3.63,3.39c-.67,1.55-.12,3.72,1.48,4.24" transform="translate(-89.16 -646.38)"/><path class="cls-3" d="M127.21,875.33l-2.54-4.47a4.3,4.3,0,0,1-.72-1.94,2.62,2.62,0,0,1,1-2,3.3,3.3,0,0,1,2.31-.76c-.28.25-.61-.37-1-.36a.65.65,0,0,0-.37.2,45.21,45.21,0,0,0-5.63,6,14,14,0,0,0-2.23,3.7,6,6,0,0,0-.09,4.25" transform="translate(-89.16 -646.38)"/><path class="cls-3" d="M119.35,875c-2,.4-4,.89-6,1.45a7.26,7.26,0,0,0,3.87,6.64,5.93,5.93,0,0,1,1.77,1c.94,1,.76,2.56.25,3.8a5.8,5.8,0,0,1-2.34,2.9,3.31,3.31,0,0,1-3.58-.11,2.33,2.33,0,0,1-.34-3.33" transform="translate(-89.16 -646.38)"/><path class="cls-3" d="M120.4,882.23a25,25,0,0,1-1.57,8.51c-.7,1.61-1.73,3-2.38,4.68a5.73,5.73,0,0,0,0,5.06c1.36,2.2,4.43,2.43,6.66,3.75a7.36,7.36,0,0,1,3.36,7.63" transform="translate(-89.16 -646.38)"/><path class="cls-3" d="M159.79,1041.69a48.65,48.65,0,0,0,8.27.46,8.78,8.78,0,0,0,2.5-.35,6.91,6.91,0,0,0,3.31-2.81,25.14,25.14,0,0,0,3-8.07l1.76-7.12s-.18-8.89-.67-13.67c-1-10.09-2-20.24-4.82-30-2.47-8.69-6.28-16.94-10.08-25.14a25.18,25.18,0,0,0-8.67-11.07c-3.17-2.73-6.5-6.09-10.68-6.27-5.18-.21-10.63,2.75-14.8,6.06a16.22,16.22,0,0,0-6.18,12" transform="translate(-89.16 -646.38)"/><path class="cls-3" d="M131.88,1016.43a86.24,86.24,0,0,1-3.39-17.3c-.17-2.54-.13-5.09-.09-7.64l.3-21.8c.06-4.71.15-9.54,1.78-14s5.15-8.45,9.78-9.36a8.76,8.76,0,0,1,3.78,0,11,11,0,0,1,5.49,3.68c3.84,4.4,5.49,10.37,5.61,16.21s-1.15,11.59-2.57,17.25c-.65,2.57-1.32,5.14-1.77,7.75-1.66,9.54-.27,19.32,1.12,28.91l1.51,10.38a4.53,4.53,0,0,1,0,1.76,3.52,3.52,0,0,1-1.89,2c-2.72,1.45-6,1.22-9.08,1l-2.54-.21a7.32,7.32,0,0,1-2.15-.24c-.46-.19-.56-.71-.7-1.14-.27-.8-.52-1.6-.78-2.41q-1.52-4.75-2.91-9.55C132.88,1020,132.33,1018.23,131.88,1016.43Z" transform="translate(-89.16 -646.38)"/><path class="cls-3" d="M135.53,1044.89a22.48,22.48,0,0,1-10.15.42,11.28,11.28,0,0,1-3.3-1.11,9.68,9.68,0,0,1-4.27-6.06c-.65-2.46-.28-5.79-.26-8.33" transform="translate(-89.16 -646.38)"/><path class="cls-3" d="M114.05,1030.94c3.07-.58,6.27-2.13,7.44-5a12,12,0,0,0,.62-4.31q.11-4.44.2-8.88.59-27.84.35-55.69a2,2,0,0,0-.51-1.6,1.83,1.83,0,0,0-.89-.31,15.67,15.67,0,0,0-6.33.71,26.92,26.92,0,0,0-8,3.67,28.72,28.72,0,0,0-8.68,10.43,84.68,84.68,0,0,0-5,12.74,64,64,0,0,0-2.45,8.68,50.94,50.94,0,0,0-.61,9.95,56.68,56.68,0,0,0,2,15.13,48.37,48.37,0,0,0,3.38,8.24,15,15,0,0,0,2.09,3.29,13.72,13.72,0,0,0,6.14,3.6c1.79.55,3.59.09,5.41-.07C110.81,1031.34,112.45,1031.24,114.05,1030.94Z" transform="translate(-89.16 -646.38)"/><path class="cls-3" d="M91.1,989.19c2.82.71,5.85,1.56,7.63,3.86a12.42,12.42,0,0,1,1.66,3.34,105.5,105.5,0,0,1,6.53,35.72" transform="translate(-89.16 -646.38)"/><path class="cls-3" d="M111.94,957.07a60.9,60.9,0,0,0-5.6,33.93,30.14,30.14,0,0,1,.43,5.27c-.09,1.72-.44,3.75.84,4.91a2.35,2.35,0,0,0,3.83-2.39c-.57-2-3.5-2.84-3.41-4.88" transform="translate(-89.16 -646.38)"/><path class="cls-3" d="M108.11,995.66c-.28-8.92-.2-17.95,1.93-26.62A57.29,57.29,0,0,1,115,956.09" transform="translate(-89.16 -646.38)"/><path class="cls-3" d="M138.35,1035.5a19.36,19.36,0,0,0-2.71,12.25,4.72,4.72,0,0,0,.56,2,3.14,3.14,0,0,0,3,1.36,4.16,4.16,0,0,0,2.83-1.8" transform="translate(-89.16 -646.38)"/><path class="cls-3" d="M142.84,1044.78a21.64,21.64,0,0,0-.52,6.47,5.26,5.26,0,0,0,.65,2.47,2.13,2.13,0,0,0,2.17,1.06,2.27,2.27,0,0,0,.84-.41,4,4,0,0,0,1.12-1.27" transform="translate(-89.16 -646.38)"/><path class="cls-3" d="M154.33,1031.77c1,1.86,2.35,3.54,3.26,5.45a37.32,37.32,0,0,1,1.52,3.56,22.16,22.16,0,0,1,.91,3.76,1.63,1.63,0,0,1-.14,1.15,1.79,1.79,0,0,1-.55.51.93.93,0,0,1-1.34,0,7.75,7.75,0,0,1-2.16-2.53c.25.42.58.77.86,1.17a5.16,5.16,0,0,1,.69,2.21l.51,2.73a3.18,3.18,0,0,1,.09,1.06,2.12,2.12,0,0,1-1.45,1.66,3.41,3.41,0,0,1-2.29-.13,2.42,2.42,0,0,1-1.65-1.68l-.88-4.8a26.87,26.87,0,0,1,.92,4.94,8.89,8.89,0,0,1-.95,4.87c-.45.8-1.25,1.59-2.15,1.43-1.06-.17-1.5-1.43-1.67-2.49a34.08,34.08,0,0,1-.41-7.81" transform="translate(-89.16 -646.38)"/><path class="cls-3" d="M169.15,1042.37a102.28,102.28,0,0,0-1.67,14c-.14,2.79-.16,5.6-.25,8.4-.5,15.74-3,31.42-2.29,47.15.1,2.18,0,4.83-1.85,5.94a6.05,6.05,0,0,1-1.61.57l-16.71,4.09c-1.34.33-2.86.62-4-.16s-1.42-2.66-1.46-4.2c-.56-21.53-3.32-42.93-6.08-64.29-.38-2.92-.76-5.37-1.14-8.29" transform="translate(-89.16 -646.38)"/><path class="cls-3" d="M142.52,1122.81a17.42,17.42,0,0,0-1.74,10.45,5.74,5.74,0,0,0,1,2.51,6,6,0,0,0,2.38,1.65c6.3,2.85,13.58,2.84,20.36,1.47a54.35,54.35,0,0,0,14-4.92c2.37-1.22,4.74-2.69,6.18-4.94s1.7-5.44,0-7.47c-1.28-1.5-3.32-2.06-5.23-2.56l-7-1.79c-2.72-.7-5.27-1.47-8-.85" transform="translate(-89.16 -646.38)"/><path class="cls-3" d="M164.39,1116.36a28.61,28.61,0,0,0-5.4,12.72,2.89,2.89,0,0,0,.21,2.09,3.09,3.09,0,0,0,1.64,1,7.32,7.32,0,0,0,3.4.6,4.74,4.74,0,0,0,3-1.83,11.53,11.53,0,0,0,1.67-3.16,80.87,80.87,0,0,0,3-10.52" transform="translate(-89.16 -646.38)"/><path class="cls-3" d="M159.77,1126.4c2.79-1,6.52-.79,8.67,2.45" transform="translate(-89.16 -646.38)"/><path class="cls-3" d="M155,1130.44a71.38,71.38,0,0,1-10.77,2,5.54,5.54,0,0,1-2.15-.07,2,2,0,0,1-1.48-1.43" transform="translate(-89.16 -646.38)"/><path class="cls-3" d="M179.2,1119a9.49,9.49,0,0,0-3.36,7.34,26.34,26.34,0,0,0,1.47,8.17" transform="translate(-89.16 -646.38)"/><circle cx="72.45" cy="242.41" r="2.66"/></g></svg>