<svg id="Layer_2" data-name="Layer 2" xmlns="http://www.w3.org/2000/svg" viewBox="0 0 995.98 692.36"><defs><style>.cls-1{fill:none;}.cls-1,.cls-2,.cls-3{stroke:#000;stroke-linecap:round;stroke-linejoin:round;stroke-width:2px;}.cls-2{fill:#666;}</style></defs><path class="cls-1" d="M247,710.06a1.52,1.52,0,0,0,0-.21" transform="translate(-138.68 -430.25)"/><path class="cls-1" d="M398.15,619.35a97.88,97.88,0,0,1,7.8,47.9c-.94,10.35-3.54,20.52-3.88,30.92-.33,9.73,1.33,19.49.32,29.18-2.34,22.54-18.49,41-34.6,56.9-6.14,6.07-12.61,12.18-20.66,15.28-9.53,3.67-20.36,2.69-30-.64s-18.39-8.85-27-14.32c-7.89-5-15.92-10.11-22-17.22-4.67-5.45-8-11.9-10.84-18.49-.38-.92-.77-1.84-1.14-2.77" transform="translate(-138.68 -430.25)"/><path class="cls-2" d="M398.15,619.35c-1.94-3.8-5-7.22-9.12-8.27a11.12,11.12,0,0,0-5.52.26,18,18,0,0,0-4.83,2.08c-5.05,3.18-8.51,9.2-14.35,10.36-3.12.62-6.36-.32-9.19-1.75s-5.38-3.37-8.15-4.92a25.6,25.6,0,0,0-11.9-3.49,16.48,16.48,0,0,0-11.49,4.15c-4,3.75-5.4,9.44-6.45,14.81l-.59-.44c-3.13-1.48-6.84-.95-10.18.06a40.13,40.13,0,0,0-21.25,15.51c-8,11.59-9.3,26.37-13.79,39.72-.75,2.22-1.81,4.64-4,5.48a2,2,0,0,1-1.21.13c-1-.26-1.27-1.47-1.4-2.47-.56-4.31-3.17-10.39-3.17-10.39-2.67-3.85-9.1-6.52-13.5-5.43a13.26,13.26,0,0,0-9.48,8.84,11.58,11.58,0,0,0,3.78,12.19c1.25,1,2.8,1.72,3.48,3.13.85,1.78.06,3.85-.38,5.78a15.51,15.51,0,0,0,.54,8.64,6.35,6.35,0,0,0,1.72,2.78,141.8,141.8,0,0,0,8.4,30c-11.35-17.87-19.82-39.52-21.17-60.66-.23-3.54-.31-7.09-.39-10.65q-.13-6.53-.29-13c-.07-3.19-.14-6.38,0-9.57.33-9.64,1.6-20.73,5.15-29.7,0,0,5.71-11.1,10.18-16.63a90.16,90.16,0,0,1,58-32.4,111.17,111.17,0,0,1,17-.74c15.61.4,31.44,3.36,45,11.12S395.2,604,398.15,619.35Z" transform="translate(-138.68 -430.25)"/><path class="cls-1" d="M247,710.06a2.93,2.93,0,0,0,.63.43c1.78,1,4.09.11,5.44-1.4a13.69,13.69,0,0,0,2.49-5.46" transform="translate(-138.68 -430.25)"/><path class="cls-1" d="M309,650.27c2.66-5.14,7.71-8.66,13-11.06,5.12-2.33,11.31-3.73,16.24-1" transform="translate(-138.68 -430.25)"/><path class="cls-1" d="M374.43,642c4-3.21,8.38-6.18,13.38-7.3s10.78,0,14.14,3.85" transform="translate(-138.68 -430.25)"/><path class="cls-1" d="M367.31,692.7c-1.24,4.51-.47,9.33.67,13.87s2.68,9,3,13.69a8,8,0,0,1-.48,3.83,6.24,6.24,0,0,1-4.7,3.21,18.61,18.61,0,0,1-5.9-.27l-9.08-1.4" transform="translate(-138.68 -430.25)"/><path class="cls-1" d="M316.26,764.61A27.87,27.87,0,0,1,329,752.71a33.9,33.9,0,0,1,17.24-3c7.55.64,15.2,3.86,19.63,10" transform="translate(-138.68 -430.25)"/><path class="cls-1" d="M340.1,665.46a2,2,0,0,1,.66,2.43c-3,6.46-9.52,10.82-16.15,13.66-3.18,1.35-7.35.25-10.79-.06-2.13-.19-3.16-.84-5.14-1.65a26.09,26.09,0,0,1-6.05-4.23,4.37,4.37,0,0,1,.12-6.81c2.11-1.64,4.64-3.58,6.79-5.17a24.22,24.22,0,0,1,15.59-5C329.74,658.68,337.13,663.42,340.1,665.46Z" transform="translate(-138.68 -430.25)"/><path class="cls-1" d="M400.23,667.69c-3.38,5.92-9.45,11.4-16.58,11.86a18,18,0,0,1-5.69-.71,35.72,35.72,0,0,1-8.45-3.44c-2.39-1.35-4.78-2.81-5.65-5.58-.08-.25,1.12-1.55,1.27-1.75.74-1,1.52-2,2.36-3a31.85,31.85,0,0,1,6-5.43,18.72,18.72,0,0,1,10.36-3.47,23.16,23.16,0,0,1,6.06,1,14.17,14.17,0,0,1,3.45,1.33,13.32,13.32,0,0,1,4.34,4.7C398,663.76,400.5,667.23,400.23,667.69Z" transform="translate(-138.68 -430.25)"/><path class="cls-1" d="M273.38,773.33a13.44,13.44,0,0,1,.87,5.32c.31,11.63.58,23.48-2.74,34.62" transform="translate(-138.68 -430.25)"/><path class="cls-1" d="M310,796c-1.89,3.49-1.93,6.59-2.25,10.54a16.75,16.75,0,0,0-.06,2.83c.25,2.59,1.62,4.91,3,7.13" transform="translate(-138.68 -430.25)"/><path class="cls-1" d="M191.46,1027.38A446.86,446.86,0,0,1,205.75,961,220.94,220.94,0,0,1,214.5,936c2.26-5.22,4.82-10.3,6.89-15.59A184.12,184.12,0,0,0,228.08,898" transform="translate(-138.68 -430.25)"/><path class="cls-1" d="M200.48,1024.68c.52-33.37,10.42-69.05,19.63-101.13" transform="translate(-138.68 -430.25)"/><path class="cls-1" d="M416.45,1042q.33-55.44-3.13-110.83c-.51-8.08-1.08-16.2-3-24.08-2-8.12-5.26-15.84-8.68-23.46-8.92-19.9-19.23-40.16-36.56-53.38a72.33,72.33,0,0,0-52.42-14.08s-10,4.09-15.2,5.23-10.75,1.56-15.92.11a12.38,12.38,0,0,1-4.1-1.86,41.16,41.16,0,0,1-6-5.38c-2-2.51-.05-2-.73-4.61,0,0-27.28,0-37.7,3.49-23,7.61-40.58,26.93-51.45,48.55s-21.27,63.52-21.27,63.52c-9.9,33.43-19.87,67.34-20.68,102.2" transform="translate(-138.68 -430.25)"/><path class="cls-1" d="M361.19,935.49a275.81,275.81,0,0,1,2.75,76.33c-1.27,12.33-3.36,25-.12,37" transform="translate(-138.68 -430.25)"/><ellipse class="cls-2" cx="324.88" cy="669.65" rx="8.48" ry="9.34" transform="translate(-172.95 -412.51) rotate(-2.97)"/><ellipse class="cls-2" cx="388.56" cy="667.28" rx="7.74" ry="8.41" transform="translate(-172.74 -409.22) rotate(-2.97)"/><rect class="cls-1" x="371.42" y="290.75" width="183.49" height="76.26" rx="10.72"/><rect class="cls-1" x="402.57" y="298.24" width="25.87" height="19.74" rx="5.96"/><rect class="cls-1" x="428.45" y="298.24" width="25.87" height="19.74" rx="5.96"/><rect class="cls-1" x="454.32" y="298.24" width="25.87" height="19.74" rx="5.96"/><rect class="cls-1" x="480.19" y="298.24" width="25.87" height="19.74" rx="5.96"/><rect class="cls-1" x="506.06" y="298.24" width="25.87" height="19.74" rx="5.96"/><rect class="cls-1" x="423.68" y="324.79" width="78.98" height="34.72" rx="7.83"/><circle class="cls-1" cx="400.7" cy="334.73" r="12.43"/><rect class="cls-1" x="512.53" y="324.79" width="25.53" height="34.72"/><line class="cls-1" x1="512.53" y1="328.2" x2="538.06" y2="328.2"/><line class="cls-1" x1="512.53" y1="332.62" x2="538.06" y2="332.62"/><line class="cls-1" x1="512.53" y1="338.75" x2="538.06" y2="338.75"/><line class="cls-1" x1="512.53" y1="343.86" x2="538.06" y2="343.86"/><line class="cls-1" x1="512.53" y1="349.98" x2="538.06" y2="349.98"/><line class="cls-1" x1="512.53" y1="355.09" x2="538.06" y2="355.09"/><line class="cls-1" x1="517.3" y1="324.79" x2="517.3" y2="359.52"/><line class="cls-1" x1="523.42" y1="324.79" x2="523.42" y2="359.52"/><line class="cls-1" x1="529.21" y1="324.79" x2="529.21" y2="359.52"/><line class="cls-1" x1="534.32" y1="324.79" x2="534.32" y2="359.52"/><path class="cls-1" d="M512.72,282.66h24.49a3.4,3.4,0,0,1,3.4,3.4v4.43a0,0,0,0,1,0,0h-31.3a0,0,0,0,1,0,0v-4.43A3.4,3.4,0,0,1,512.72,282.66Z"/><line class="cls-3" x1="529.21" y1="282.66" x2="588.96" y2="212.45"/><line class="cls-3" x1="536.19" y1="281.22" x2="591" y2="213.81"/><path class="cls-3" d="M736.12,641.65c-1.83,2.14-4.44,3.05-6.44,2.41a3.8,3.8,0,0,1-1.27-.71c-2-1.7-1.8-5.23.45-7.88s5.71-3.41,7.71-1.71S738.38,639,736.12,641.65Z" transform="translate(-138.68 -430.25)"/><line class="cls-1" x1="314.91" y1="367.01" x2="608.28" y2="367.01"/><path class="cls-1" d="M1006,537.61a13.82,13.82,0,0,1,2.08,8.88c-.19,1.77-.36,3.54-.52,5.31-1.05,11.78-1.59,23.62-1.92,35.44-.15,5.22-.2,10.44-.31,15.66-.18,8.73.5,16.68-2.31,25.16-2.63,7.94-7,15.19-11.8,22a158.68,158.68,0,0,1-20,22.68A83.42,83.42,0,0,1,957,684.21c-12.87,7.73-28.92,9.29-43.53,5.85s-27.84-11.59-38.82-21.83a53.54,53.54,0,0,1-9.88-11.68c-5.07-8.62-6.16-18.93-7.14-28.88-1.9-19.3-3.8-38.67-2.94-58s4.56-38.87,13.35-56.15c0,0,32.84-23.42,52.85-29.31,5.58-1.64,18.34-.49,24.81,3,0,0,28.38,15.45,46.23,31.89C996.73,523.46,1002.67,532.33,1006,537.61Z" transform="translate(-138.68 -430.25)"/><path class="cls-1" d="M874.37,526.13c5.45-1.83,10.68-4.45,16.33-5.54a31.57,31.57,0,0,1,21.61,3.66" transform="translate(-138.68 -430.25)"/><path class="cls-1" d="M947.89,532.23c6.91-1.71,13.52-4.82,20.6-5.47a30.78,30.78,0,0,1,23.93,8.43" transform="translate(-138.68 -430.25)"/><path class="cls-1" d="M918.93,558.23a37.06,37.06,0,0,1-52.12,5c-.28-.27,3.15-7.69,3.49-8.4a22.76,22.76,0,0,1,7.49-8.79,24.62,24.62,0,0,1,16.46-3.87,36.29,36.29,0,0,1,25.46,14.6Z" transform="translate(-138.68 -430.25)"/><path class="cls-1" d="M941.32,561.14c5.39,8.08,15.49,12.3,25.2,12s19-4.76,26.43-11l.36-.95a78.27,78.27,0,0,0-10.17-11A26.09,26.09,0,0,0,969.77,544a24.64,24.64,0,0,0-11.56,1.7,33.44,33.44,0,0,0-16.73,14.11Z" transform="translate(-138.68 -430.25)"/><path class="cls-1" d="M919.55,585.08a158.2,158.2,0,0,0-6.16,20.41,35.21,35.21,0,0,0-1.19,9.39,4.44,4.44,0,0,0,1.32,3.44,5,5,0,0,0,3,.69l10,.19" transform="translate(-138.68 -430.25)"/><path class="cls-3" d="M904,657c-2.5,1-5.54,1.29-7.69-.31s-2.71-4.51-2.06-7a14.22,14.22,0,0,1,4.22-6.4,34.91,34.91,0,0,1,23.59-9.59,36.87,36.87,0,0,1,24,8.73c4.12,3.51,7.59,8.17,8.29,13.54a7.73,7.73,0,0,1-.61,4.66c-1.43,2.66-4.93,3.5-7.94,3.16-4.29-.49-8.16-2.75-11.75-5.16s-7.1-5-11.18-6.46a15.3,15.3,0,0,0-8.42-.61,7.71,7.71,0,0,0-3.27,1.47,12.3,12.3,0,0,1-2.4,1.77C907.22,655.55,905.65,656.37,904,657Z" transform="translate(-138.68 -430.25)"/><path class="cls-1" d="M1093.26,697.55c-9-31.18-17.16-65.55-19.11-97.95-1.28-21.19-.22-42.64-4.44-63.44l-.1.71c-4.92-23.46-10.47-48.17-26.73-65.78-9.88-10.7-23-17.87-36.26-23.79-18.88-8.4-39-14.7-59.58-15.87s-41.94,3.11-59.23,14.43l-15.27,9.61a34.85,34.85,0,0,0-5.74,4.38c-9.24,8.66-28.16,26-36.94,51.57-6.51,18.95-7.85,39.23-9,59.23q-2.48,42-4.33,84" transform="translate(-138.68 -430.25)"/><path class="cls-1" d="M934.11,719.7c15.63-13.51,34.45-26.13,53.27-34.68,7.83-3.55,15.93-6.66,24.4-8.17,8.78-1.57,17.77-1.4,26.67-.83,10.1.64,20.25,1.8,29.85,5s18.68,8.59,25,16.52" transform="translate(-138.68 -430.25)"/><path class="cls-1" d="M930.13,691.79l2.1,6.13c.74,1.75,1.37,8.32.75,10.13a26.23,26.23,0,0,1-6.62,10.42,18.36,18.36,0,0,1-9.38,5.12,11.62,11.62,0,0,1-10.05-2.8,13.58,13.58,0,0,1-3.35-6.3,23.56,23.56,0,0,1,9.24-24.84" transform="translate(-138.68 -430.25)"/><path class="cls-1" d="M912.83,724.59c-5.83,18.16-22.53,30.5-32.14,47l1.5-3.86c2-11.82-.88-24,.78-35.9,2-14.22,9.11-24.55,21.59-31.65" transform="translate(-138.68 -430.25)"/><path class="cls-1" d="M930.13,713.55c3.36,5,6.78,10.08,8.28,15.89,1.56,6,1,12.33.34,18.5l-2.26,22.71.11-.55a31.08,31.08,0,0,0-8.07-15.3c-2.81-2.9-6.17-5.23-8.88-8.22a26.88,26.88,0,0,1-6.4-22.77" transform="translate(-138.68 -430.25)"/><path class="cls-1" d="M816.79,656.59c6,1.33,10.62,6.13,14.78,10.72,7.08,7.84,14.06,15.76,20.79,23.91,4.95,6,9.79,12.15,15.59,17.34s10.31,8.89,18,10.31" transform="translate(-138.68 -430.25)"/><path class="cls-1" d="M815.61,654.79C805.14,667,798.55,682,792.56,696.9c-8.86,22-16.74,44.43-24.3,66.93-5.57,16.56-11,33.25-13.87,50.48s-3.17,35.13,1.45,52" transform="translate(-138.68 -430.25)"/><path class="cls-1" d="M755.7,865.64c3.47,12.3,10.88,23,18.17,33.53l13.6,19.56a99.16,99.16,0,0,0,7.33,9.71c11,12.37,23.77,20.47,36.68,31.49" transform="translate(-138.68 -430.25)"/><path class="cls-1" d="M844.13,720c-2.21,9.65-5.74,18.94-9.27,28.2l-7.32,19.24c-5.3,13.93-10.67,28.23-10.87,43.13s5.84,30.81,18.69,38.38" transform="translate(-138.68 -430.25)"/><path class="cls-1" d="M817.08,817.87c2.4,12.5,1.8,34.53,6.08,46.52,3.91,10.94,11.31,20.41,20.11,28,9.8,8.44,21.9,15.41,27,27.31,0,0-11.2,6.62-16,9.78-4.42,2.89-9,5.78-12.36,9.82-6.55,7.78-9,13.75-10.37,20.63" transform="translate(-138.68 -430.25)"/><path class="cls-1" d="M828,874.52c16.41,12.66,40.63,23.12,57.92,34.55a127.09,127.09,0,0,1,23,19.47" transform="translate(-138.68 -430.25)"/><path class="cls-1" d="M961.6,865.56c6.23,4.44,14,6.12,21.51,7.46,8.62,1.53,17.78,2.68,25.89-.63" transform="translate(-138.68 -430.25)"/><path class="cls-1" d="M918,934c7.59-11.45,19.18-19.22,30.78-26.58s24.26-12.84,37.08-17.71c5.76-2.19,11.65-4.28,17.8-4.66a33.16,33.16,0,0,1,17,3.52" transform="translate(-138.68 -430.25)"/><path class="cls-1" d="M1020.49,772c-4.58,40.66-2,83.42,8.08,123.09" transform="translate(-138.68 -430.25)"/><path class="cls-1" d="M1092.2,695.73c9.5,13.35,19.06,26.81,25.58,41.84,14.22,32.8,12.77,69.89,14.4,105.6,1,23,3.44,46.37-1.69,68.81" transform="translate(-138.68 -430.25)"/><path class="cls-1" d="M1131.06,909.6a846.67,846.67,0,0,0-.4,158.64" transform="translate(-138.68 -430.25)"/><path class="cls-1" d="M1131.58,1065.81a216.47,216.47,0,0,1-2.65,55.8" transform="translate(-138.68 -430.25)"/><path class="cls-1" d="M957.65,701.76c-2.59,5-4.12,12.46-5.8,20.43-2.3,10.92-4.37,22.25-1.94,33.14a81.84,81.84,0,0,0,3.91,11.79c5.41,14,13.19,27.12,18.61,41.08,3.09-17.44,6.2-35,12.05-51.68s14.59-32.74,27.52-44.84c6-5.58,12.93-10.35,20.8-12.54a32.86,32.86,0,0,1,12.28-1,20.37,20.37,0,0,1,14.86,9.5c5.75,9.13,17.17,27.38,23.6,38.52a187.24,187.24,0,0,1,11,21c3.8,9.06,6.16,18.65,8.16,28.27,4.91,23.56,7.77,47.49,10.47,71.4a112.68,112.68,0,0,1,.46,19.95c-.44,6.7-1,14.67-2.35,19.74-2.09,7.62-4.47,15.07-4.47,15.07-3.88,7.7-11.59,12.6-19,17-14.77,8.88-29.8,17.47-45.81,23.87-7.33,2.93-14.84,5.4-22.34,7.86L993.33,979c-4,1.29-7.93,2.47-12,3.47-7,1.74-14.59,3.06-21.68,1.23S946.43,976.9,942,971s-7.5-12.78-10.33-19.63a25.49,25.49,0,0,1-1.91-6.05,21.19,21.19,0,0,1,.47-6.11,11.42,11.42,0,0,1,5.52-7.78c14.14-8.2,29.38-11.8,42.74-20.61,14.72-9.72,31-19.06,48.6-18.71" transform="translate(-138.68 -430.25)"/><path class="cls-1" d="M990.07,979.93a103,103,0,0,1,59.21,24.66" transform="translate(-138.68 -430.25)"/><path class="cls-1" d="M869.08,921.63c5.39,1.19,10.42,2.48,14.73,5.93,3.51,2.8,3.78,4.07,5.55,8.21.58,1.34-.45,6.9-1.56,7.86" transform="translate(-138.68 -430.25)"/><path class="cls-1" d="M887.8,943.63c-1.33,2-3.43,3.39-4.27,5.6a7.47,7.47,0,0,0-.06,4.63,20.06,20.06,0,0,0,1.93,4.28" transform="translate(-138.68 -430.25)"/><path class="cls-1" d="M834.82,949.74c.26,5.39,3.06,11.61,6.38,15.85a42.43,42.43,0,0,0,4.62,4.86c5.27,4.91,11.72,9.57,18.9,9.08a4.12,4.12,0,0,0,3.07-1.22,3.76,3.76,0,0,0,.39-3.37,3.93,3.93,0,0,1-.41-1.31c.15.42.3.87.41,1.31a5.4,5.4,0,0,0,3.87,2.81,8.68,8.68,0,0,0,6-1.46,5.38,5.38,0,0,0,1.79-1.66c1-1.62.43-3.58-.41-5.35a3.68,3.68,0,0,1-.63-1.23c.22.39.44.81.63,1.23a3.88,3.88,0,0,0,5.68.65" transform="translate(-138.68 -430.25)"/><path class="cls-1" d="M929.22,938.36l-18-6.26c-4-1.38-8.07-2.78-12.17-2.33s-7.08,2.29-9.18,7.27" transform="translate(-138.68 -430.25)"/><path class="cls-1" d="M884.9,957.59c-.44,2.33-2,5.13-1.76,7.5.19,1.9,3,7,4.66,8" transform="translate(-138.68 -430.25)"/><path class="cls-1" d="M887.8,973.14c-1.36,2.17-2.84,2.55-2.66,5.32a9,9,0,0,0,4.05,6.5,15.15,15.15,0,0,0,9,2.93,29.18,29.18,0,0,0,8.76-2,52.86,52.86,0,0,0,8.07-3.23c3.9-2.07,7.44-5.14,11.24-7.49A36.27,36.27,0,0,1,940.43,970" transform="translate(-138.68 -430.25)"/><path class="cls-1" d="M817.08,1024.5c1-9.63,6.11-18.28,11.07-26.6,2.85-4.77,5.72-9.59,9.47-13.7a41.77,41.77,0,0,1,13.11-9.63" transform="translate(-138.68 -430.25)"/><path class="cls-1" d="M837.53,1021.15c3.38-7,6.87-14.15,12.35-19.67,5.18-5.21,18.89-12.54,18.89-12.54-.28-1.48-1.14-6.9-.74-8.84.26-1.28.84-2.51,1.21-3.76" transform="translate(-138.68 -430.25)"/><path class="cls-1" d="M876.43,977.15a11.84,11.84,0,0,0,.55,3.39,14.65,14.65,0,0,0,1.69,3.55,19.09,19.09,0,0,0,16.11,8.62" transform="translate(-138.68 -430.25)"/><path class="cls-1" d="M798.11,932.12a1226.75,1226.75,0,0,0-15.34,176.1" transform="translate(-138.68 -430.25)"/><path class="cls-1" d="M923.2,977.73c6.37,3.29,12.78,6.61,18.4,11.06s10.46,10.17,12.73,17" transform="translate(-138.68 -430.25)"/><circle class="cls-3" cx="749.25" cy="128.24" r="11.87"/><circle class="cls-3" cx="822.88" cy="129.57" r="11.87"/></svg>