<svg xmlns="http://www.w3.org/2000/svg" viewBox="0 0 1114.63 947.63"><defs><style>.cls-1,.cls-3{fill:none;}.cls-1,.cls-2,.cls-4,.cls-5{stroke:#000;stroke-width:2px;}.cls-1,.cls-2,.cls-4{stroke-linecap:round;stroke-linejoin:round;}.cls-4,.cls-5{fill:#666;}.cls-5{stroke-miterlimit:10;}</style></defs><g id="Layer_2" data-name="Layer 2"><path class="cls-1" d="M528.8,753.55a15.34,15.34,0,0,0-2-3.89,5.08,5.08,0,0,0-3.68-2.11c-1.78-.07-3.38,1.13-4.52,2.5a13.45,13.45,0,0,0-3,9.92c.46,4.26,3,8.11,3.33,12.38.1,1.08.06,2.17.24,3.24a8.15,8.15,0,0,0,2.45,4.61c.91.85,2.6,1.36,3.21.28" transform="translate(-75.75 -469.15)"/><path class="cls-1" d="M577.32,760.36c-1.44,6.84.68,13.87,2.62,20.59a8.86,8.86,0,0,1,.52,3.25,3.1,3.1,0,0,1-1.71,2.64,4.23,4.23,0,0,1-2.82-.16,25.48,25.48,0,0,1-5.46-2.45" transform="translate(-75.75 -469.15)"/><path class="cls-1" d="M592.24,803.25c-1.41,1.46-3.86,1-5.67,0-2.62-1.33-4.89-3.26-7.51-4.58-.32-.16-.66-.31-1-.45-4.81-2-10.11-1.52-15.25,0h0a82.26,82.26,0,0,0-13.38,5.84c-.52.26-1.64.73-2.2.37-.89-.56-.22-1.75.06-2.55a20.48,20.48,0,0,1,3.28-5.88,25.85,25.85,0,0,1,9.71-7.86c3.76-1.62,9.34-2.85,12.57.46a2.4,2.4,0,0,1,1.71-1.17l5.67-.6a11.73,11.73,0,0,1,10.28,4.76C592.38,794.12,594.83,800.54,592.24,803.25Z" transform="translate(-75.75 -469.15)"/><path class="cls-2" d="M580.13,803.33a2.91,2.91,0,0,1-2.54.39l-3.46-.56c-1.93-.31-3.88-.63-5.79-1a9.29,9.29,0,0,0-2.28-.27,11.08,11.08,0,0,0-1.88.34,20.1,20.1,0,0,1-4.3.48c-.11-.94,2-3.94,2.92-4.38h0c5.14-1.56,10.44-2.08,15.25,0,.33.14.67.29,1,.45C579.71,799.79,581,802.44,580.13,803.33Z" transform="translate(-75.75 -469.15)"/><path class="cls-1" d="M548.35,749.39a29.35,29.35,0,0,0,2.93,3.64,5.13,5.13,0,0,0,.88.8,4.76,4.76,0,0,0,1.84.68,11.84,11.84,0,0,0,11.64-4.71" transform="translate(-75.75 -469.15)"/><path class="cls-1" d="M581.07,746.35c1.5,2,3.13,4.06,5.47,4.91a6.76,6.76,0,0,0,8.58-4.29" transform="translate(-75.75 -469.15)"/><path class="cls-1" d="M538.94,743.15a26,26,0,0,1,12.35-7.73,15.55,15.55,0,0,1,3.24-.6,11.61,11.61,0,0,1,5.6,1" transform="translate(-75.75 -469.15)"/><path class="cls-1" d="M581.65,731.57a41.43,41.43,0,0,1,9.24,1.68,7.81,7.81,0,0,1,1.62.64,9.58,9.58,0,0,1,1.16.85l2.52,2.07" transform="translate(-75.75 -469.15)"/><path class="cls-1" d="M550.18,773.41c-.18.82-.22,1.92.57,2.23.61.24,1.28-.26,1.61-.83a3.16,3.16,0,0,0,.39-2,5.82,5.82,0,0,0-.66-1.8c-.12-.24-.56-1.53-.83-1.57S550.28,773,550.18,773.41Z" transform="translate(-75.75 -469.15)"/><path class="cls-1" d="M595.69,714.43c-1.49,6.83.61,13.86,2,20.7,4.43,21,2.67,42.9-1.84,63.87a31.71,31.71,0,0,1-2.46,7.83c-1.64,3.22-4.26,5.82-6.83,8.36-4.25,4.18-8.66,8.47-14.21,10.64-7.62,3-16.55,1.38-23.49-3s-12.06-11.15-15.64-18.5-5.78-15.31-7.94-23.2" transform="translate(-75.75 -469.15)"/><path class="cls-1" d="M526.7,731.45a53.06,53.06,0,0,0-8.45,17.74" transform="translate(-75.75 -469.15)"/><path class="cls-1" d="M524.6,727.83c-3.25,6.64-8.67,12.18-11,19.2a46.73,46.73,0,0,0-1.73,9.41c-.55,4.78-1.1,9.57-1.2,14.38" transform="translate(-75.75 -469.15)"/><path class="cls-1" d="M520.59,716.42c-7,6.49-11.46,15.44-13.63,24.76s-2.18,19-1.37,28.53" transform="translate(-75.75 -469.15)"/><path class="cls-1" d="M508.74,734.65a112.63,112.63,0,0,0-6.52,53.44" transform="translate(-75.75 -469.15)"/><path class="cls-1" d="M511.22,748.6a96.65,96.65,0,0,0-2.71,32.58" transform="translate(-75.75 -469.15)"/><path class="cls-1" d="M516.55,767.8a64.24,64.24,0,0,0-1.48,21.05" transform="translate(-75.75 -469.15)"/><path class="cls-1" d="M517.64,773.87l4.26,23.25" transform="translate(-75.75 -469.15)"/><path class="cls-1" d="M523.81,784.75a100.17,100.17,0,0,1,1.84,20.3" transform="translate(-75.75 -469.15)"/><path class="cls-1" d="M527.83,795.65q1.71,4.89,3.11,9.88" transform="translate(-75.75 -469.15)"/><path class="cls-1" d="M574.91,711.9c-9,4.15-18.35,7.45-27.69,10.74-6.51,2.3-13.19,4.62-20.09,4.48" transform="translate(-75.75 -469.15)"/><path class="cls-1" d="M570.55,711.88c-16.35,1.94-31.48,9.64-45.24,18.69-3.08,2-6.17,4.18-8.37,7.14" transform="translate(-75.75 -469.15)"/><path class="cls-1" d="M565.07,707.89a26.2,26.2,0,0,0-8.68-1.11,24.14,24.14,0,0,0-5.64,1.46c-7.3,2.59-14.45,5.8-20.65,10.44s-11.43,10.8-14,18.09" transform="translate(-75.75 -469.15)"/><path class="cls-1" d="M557.54,702.94a62.36,62.36,0,0,0-42.8,31.13" transform="translate(-75.75 -469.15)"/><path class="cls-1" d="M564.17,697.64a38.61,38.61,0,0,0-10.76-2,29.76,29.76,0,0,0-5.56.68,66.24,66.24,0,0,0-40.14,25.88" transform="translate(-75.75 -469.15)"/><path class="cls-1" d="M527.86,713.05a58.3,58.3,0,0,0-19.28,40.54" transform="translate(-75.75 -469.15)"/><path class="cls-1" d="M517.51,717.79c-5.3,2.75-9.21,7.64-12,12.9s-4.75,10.95-7.1,16.45" transform="translate(-75.75 -469.15)"/><path class="cls-1" d="M588.34,709.42c-8.69-3.73-17.85-6.23-27-8.71" transform="translate(-75.75 -469.15)"/><path class="cls-1" d="M580,710.53c-6.38-3.47-13.11-7-20.37-7A37.9,37.9,0,0,0,547.81,706" transform="translate(-75.75 -469.15)"/><path class="cls-1" d="M590,707.32c-1.41-3.36-1.88-7.19-4.11-10.08a15,15,0,0,0-2.66-2.56,26.42,26.42,0,0,0-11.47-5.08" transform="translate(-75.75 -469.15)"/><path class="cls-1" d="M589.07,708.8a22.28,22.28,0,0,0-14.68-9.94c-5.61-1-11.36.18-16.93,1.37" transform="translate(-75.75 -469.15)"/><path class="cls-1" d="M583.46,698.77a31.61,31.61,0,0,0-18.24-6.39,48.16,48.16,0,0,0-10.22,1c-5.64,1.07-11.18,2.57-16.71,4.1s-10.92,3.08-15.76,6" transform="translate(-75.75 -469.15)"/><path class="cls-1" d="M557,698.2a39.46,39.46,0,0,0-26.78,8.36" transform="translate(-75.75 -469.15)"/><path class="cls-1" d="M594.56,716.5a28,28,0,0,0-14.28-4.19c-5.58-.07-11,1.53-16.38,3.12" transform="translate(-75.75 -469.15)"/><path class="cls-1" d="M596.72,714.08c-4.31-2.61-8.75-5.27-13.7-6.2a30.66,30.66,0,0,0-9.37-.08,57,57,0,0,0-15.32,4.07" transform="translate(-75.75 -469.15)"/><path class="cls-1" d="M596,713.77a51.2,51.2,0,0,1,0-6.67,11.23,11.23,0,0,0-1.5-6.4,9.87,9.87,0,0,0-3-2.72,17.32,17.32,0,0,0-8.63-2.69" transform="translate(-75.75 -469.15)"/><path class="cls-1" d="M593.7,719.66a70.45,70.45,0,0,0-33.83-4.73" transform="translate(-75.75 -469.15)"/><path class="cls-1" d="M580.59,712.27c3.14,1.47,6.8,1.82,9.67,3.78a11.85,11.85,0,0,1,2,1.71,14.36,14.36,0,0,1,3.58,11.91" transform="translate(-75.75 -469.15)"/><path class="cls-1" d="M587.87,705.66c2.42,2.59,4.89,5.23,6.43,8.43,2.36,4.9,2.31,10.59,3.7,15.85" transform="translate(-75.75 -469.15)"/><path class="cls-1" d="M584.76,699.34c5.06,2.41,10.38,5,13.38,9.79a15.15,15.15,0,0,1,2,11.24" transform="translate(-75.75 -469.15)"/><path class="cls-1" d="M547.26,821.77c3.46,6,2.26,14.42.63,21.13" transform="translate(-75.75 -469.15)"/><path class="cls-1" d="M568.65,826.91a38.81,38.81,0,0,0,.49,9.39,29.88,29.88,0,0,0,1.84,5.45" transform="translate(-75.75 -469.15)"/><path class="cls-1" d="M513,914.67q-11,51.86-18,104.47c-.21,1.56-.53,3.31-1.83,4.2a5.92,5.92,0,0,1-3.15.71,49.24,49.24,0,0,0-19.77,5.3c-1.54.79-3.35,1.67-4.9.91s-1.91-2.43-2.2-4c-2.44-12.91-1.19-26,.12-39,1.29-12.76,3.24-25.51,5.36-38.17,3.82-22.74,8-46.66,18.37-67.45l2.23-4.47c1.11-2.22,2.22-4.44,3.49-6.58a71.81,71.81,0,0,1,14.76-17,61.61,61.61,0,0,1,8.51-6.42,42,42,0,0,1,28.3-5.43c2.47.4,4.56,1.7,7,2.24a21.57,21.57,0,0,0,7.89.1c4-.58,7.88-1.77,11.89-2,0,0,8.14-3.88,13.07-4.56,6-.83,12.17.36,17.85,2.5a110.83,110.83,0,0,1,16.22,8.24" transform="translate(-75.75 -469.15)"/><path class="cls-1" d="M493.12,1023.56a96.42,96.42,0,0,1,4.42,11.62,13.49,13.49,0,0,1,.76,3.86,5,5,0,0,1-1.35,3.6,3.1,3.1,0,0,1-3.62.56l-2.09-6.91,3.74,13.42a3.52,3.52,0,0,1-.51,3.15c-.2.25-.63.38-1.9.6-1.66.29-3.34-1.45-3.79-2.89a3.33,3.33,0,0,1-1.67,3.64,4.87,4.87,0,0,1-2.1.45,4.52,4.52,0,0,1-4.08-1.89c.24,2.09-2.2,3.27-4,3.3a4.47,4.47,0,0,1-3.62-2.12c.07,1.72-2.19,2.76-3.79,2.11s-2.51-2.32-3.1-3.93c-2.37-6.51-1.14-14.75-.1-21.6" transform="translate(-75.75 -469.15)"/><path class="cls-1" d="M498,1041.06a5.25,5.25,0,0,0,3.4,2.93,13.91,13.91,0,0,0,4.6.44c8.9-.18,17.75-1.52,26.65-1.75,2.93-.08,5.86,0,8.79,0l31.61.49a202.18,202.18,0,0,1,21.31,1.06" transform="translate(-75.75 -469.15)"/><path class="cls-1" d="M501.35,1044c-1.46,31.84-3.85,62.81-6.79,94.55-.6,6.42-1.22,12.83-1.64,19.26-.34,5.16-.54,10.33-.75,15.51-1,25.44-3.36,75.61-3.36,75.61,9.36,2.07,18.53-1.28,28.1-1.74,9.92-.47,19.21-3.39,28.1-1.64l-.16-.83c-2-5.62-1.3-11.79-.62-17.72q5.67-48.95,8-98.22" transform="translate(-75.75 -469.15)"/><path class="cls-1" d="M544,1241.57c6.43.82,14.57,2,21,1.54,2.87-.18,5.72-.6,8.57-1,1.76-.26,2.78-.52,4.53-.78" transform="translate(-75.75 -469.15)"/><path class="cls-1" d="M498,1249.5c-3.64,4.92-6.37,12.23-2.66,17.1,2.68,3.52,7.52,4.32,11.86,5.19s9.55.3,14-.16c9.61-1,19.18,1.24,28.39-1.72,2.21-.71,4.78-1.91,5-4.22a5,5,0,0,0-.52-2.57,12.83,12.83,0,0,0-4.32-5.3c-3.66-2.59-8.36-3.07-12.53-4.73s-12-2.47-11.08-6.86" transform="translate(-75.75 -469.15)"/><path class="cls-1" d="M551,1242.7c-1.85,3.68-2.16,4.24-4.34,9a30.55,30.55,0,0,0-.75,3.62" transform="translate(-75.75 -469.15)"/><path class="cls-1" d="M575.55,1242.25c1.32,2.24,1.36,3.5,2.69,5.74a17.79,17.79,0,0,0,2.58,2.7c1.44,1.16,3.55.91,5.26,1.19l6.44,1.08c3.2.54,6.41,1,9.22,2.8a8.39,8.39,0,0,1,4.09,8.77c-.81,3.71-4.14,5.61-7.83,6.53-7.08,1.78-14.32-.06-21.62-.32-8.24-.29-16.12.52-24-2.09" transform="translate(-75.75 -469.15)"/><path class="cls-1" d="M787.25,875.94a6.26,6.26,0,0,1-.15,5.83c-.25.43-.53.85-.81,1.25a7.27,7.27,0,0,1-4.19,2.83c-1.46.35-2.94.64-4.42.85a12,12,0,0,1-4.73,0,5,5,0,0,1-3.54-2.9c-.75-2.08.49-4.41,2.15-5.88a11.91,11.91,0,0,1,3.52-1.79,19.07,19.07,0,0,1,8-1.29A12,12,0,0,1,787.25,875.94Z" transform="translate(-75.75 -469.15)"/><path class="cls-1" d="M778.64,863.23a6.31,6.31,0,0,1,1.79.06,7.71,7.71,0,0,1,2.82.61,5.31,5.31,0,0,1,1.56,7.83l0,.06a5.75,5.75,0,0,1-4.71,2.29,25.84,25.84,0,0,1-5.9,0,7.86,7.86,0,0,1-5-3.93,3.13,3.13,0,0,1-.24-1.93,4.24,4.24,0,0,1,.92-2c1.11-1,2.49-1.42,3.6-2.41Z" transform="translate(-75.75 -469.15)"/><path class="cls-1" d="M783.59,855.31a4.47,4.47,0,0,0-.49-3.23A6,6,0,0,0,782,851a4.06,4.06,0,0,0-1.08-.76,3.89,3.89,0,0,0-1.86-.14c-1.64.13-3.48.48-3.48.48-3.46,1.14-7,2.34-9.74,4.76a6,6,0,0,0-1.77,2.42c-.76,2.23.82,4.76,3,5.74a10.73,10.73,0,0,0,6.95.19c.83-.2,1.65-.44,2.47-.68a10,10,0,0,0,7-7C783.5,855.73,783.55,855.52,783.59,855.31Z" transform="translate(-75.75 -469.15)"/><path class="cls-1" d="M781.74,885.93a22,22,0,0,0,1.48,4c4.52,21.17,8.74,42.53,9.29,64.17.22,8.62-.14,17.24,0,25.86a228.17,228.17,0,0,0,4.75,43s12.21,154.4,17.26,225.45c-14.64,2.89-38.51-2.12-54.7,0-39.52,5.19-73.27,5.62-113.07,7.88-13.45.77-30.45.81-43,1.2" transform="translate(-75.75 -469.15)"/><path class="cls-1" d="M776.66,806.31c.28,12,.77,31.71,1.08,43.69" transform="translate(-75.75 -469.15)"/><path class="cls-1" d="M699.83,819.23c-6.14-13.88-5.06-30.29.88-44.25,4.39-10.31,11.83-19.91,22.28-24,6.83-2.66,14.39-2.75,21.7-2.18,4.61.36,9.29,1,13.48,3,6.78,3.19,11.61,9.64,14.28,16.65s3.4,14.58,3.81,22.06q.32,5.84.39,11.68a36.63,36.63,0,0,1-.83,9.81,33.34,33.34,0,0,1-4.74,9.58c-4.28,6.49-9.33,12.62-15.76,17a34.07,34.07,0,0,1-14.08,5.65,26.62,26.62,0,0,1-6.43.26c-1.78-.18-3.54-.65-5.29-1a37.9,37.9,0,0,1-11.77-4.36,42.74,42.74,0,0,1-10-7.93,43.33,43.33,0,0,1-7.27-10.52C700.26,820.19,700,819.72,699.83,819.23Z" transform="translate(-75.75 -469.15)"/><path class="cls-1" d="M774.47,775.3c-.89-5.77-3.88-16.76-5.24-21.64a13.07,13.07,0,0,0-2.39-4.66c-10.12-12.69-24.59-22.08-40.56-24.9a45.36,45.36,0,0,0-11.86-.64c-6.23.56-12.22,2.72-17.93,5.27-26.5,11.82-49.26,33.17-59.85,60.19-2.14,5.44-3.78,11.07-5.42,16.68l-12.31,42.26s-4.32,16.84-6.06,25.8c-1.41,7.25-2.66,14.53-3.91,21.81l-3.25,19c-1.31,7.6-2.61,15.19-3.7,22.82-1.63,11.45-2.77,23-3.92,34.47l-4.13,41.65c-1.19,11.91.39,32.88.39,32.88,0,24.48,0,49-1.51,73.41-.43,7.09-1,14.18-1.55,21.26-.42,5.41-.85,10.82-1.35,16.22q-1.83,19.9-5,39.67c-2.08,12.88-4.59,25.69-6,38.66-.34,3.22-.61,6.54.3,9.65s3.28,6,6.46,6.61" transform="translate(-75.75 -469.15)"/><path class="cls-1" d="M707.3,773.53a26.93,26.93,0,0,1,8.11-6.11,16.77,16.77,0,0,1,9.94-1.52" transform="translate(-75.75 -469.15)"/><path class="cls-1" d="M748.81,764.82c5.18-1,10.66-2,15.62-.16a5.57,5.57,0,0,1,2.62,1.69" transform="translate(-75.75 -469.15)"/><path class="cls-1" d="M742.4,785A106.55,106.55,0,0,1,746,800a3.08,3.08,0,0,1,.06,1,2.59,2.59,0,0,1-.72,1.3c-1.79,2-4.59,2.61-7.2,3.15" transform="translate(-75.75 -469.15)"/><path class="cls-1" d="M725.33,829.09a22.78,22.78,0,0,1,13.08-10.21,13.34,13.34,0,0,1,5.5-.57c3,.42,5.59,2.23,8.05,4" transform="translate(-75.75 -469.15)"/><path class="cls-1" d="M769.71,796.64a4,4,0,0,1,.31,2,2.2,2.2,0,0,1-.5,1.08,1.67,1.67,0,0,1-.68.47,2,2,0,0,1-2.09-.75,3.37,3.37,0,0,1-.38-3.6c.36-.69,1.26-1.73,2.13-1.2A4.23,4.23,0,0,1,769.71,796.64Z" transform="translate(-75.75 -469.15)"/><path class="cls-1" d="M719.14,803a3.66,3.66,0,0,1-.34,1.5,2.2,2.2,0,0,1-4.11-.61,4,4,0,0,1,.74-2.7c.42-.71.9-1.38,1.32-2.09.2-.36.4-.71.57-1.09s.21-.89.48-1a5.07,5.07,0,0,1,.53,1.39c.17.5.32,1,.45,1.51A11.12,11.12,0,0,1,719.14,803Z" transform="translate(-75.75 -469.15)"/><path class="cls-1" d="M715.05,822.33a1.91,1.91,0,0,1-2.25-1,3.61,3.61,0,0,1,.07-3.14c.27-.56.93-1.47,1.67-1.38.4,0,.55.41.69.74.23.58.49,1.16.67,1.76C716.21,820.34,716.21,821.83,715.05,822.33Z" transform="translate(-75.75 -469.15)"/><path class="cls-1" d="M728.26,777.77A18.07,18.07,0,0,1,716,786.05a18.61,18.61,0,0,1-2.59.24,38.09,38.09,0,0,1-7.1-1.16c1.86-4.57,6.39-7.58,11.08-9.12a14.87,14.87,0,0,1,5.35-.87,7.36,7.36,0,0,1,4.92,2.05Z" transform="translate(-75.75 -469.15)"/><circle cx="646.03" cy="310.29" r="3.47"/><path class="cls-1" d="M768.55,773.28a18.09,18.09,0,0,1-12.27,8.28,17.47,17.47,0,0,1-2.6.25,37.93,37.93,0,0,1-7.09-1.16c1.86-4.58,6.39-7.58,11.08-9.12a14.66,14.66,0,0,1,5.35-.88,7.39,7.39,0,0,1,4.92,2.06Z" transform="translate(-75.75 -469.15)"/><circle cx="686.32" cy="305.8" r="3.47"/><path class="cls-1" d="M663.47,1255.34c-1.08,2.18-1.59,5.94,1,7.27a8,8,0,0,0,3.29.67c6.16.29,12.33-.43,18.48-.9a33.22,33.22,0,0,0,6.37-.87c2.59-.71,8.7-4.11,5.82-7.53" transform="translate(-75.75 -469.15)"/><path class="cls-1" d="M699.09,1255.91c1,3.94,6.69,2.94,9.64,2.78,6.56-.37,13.13-1,19.68-1.52,2.28-.19,4.83-.45,6.75-1.81,1.62-1.15,2.88-2.19,2.53-4.52" transform="translate(-75.75 -469.15)"/><path class="cls-1" d="M975.89,780.19a11.77,11.77,0,0,1-4.39-.26,4,4,0,0,1-2.88-3c-.25-1.82,1.31-3.48,3.06-4a11.86,11.86,0,0,1,5.46.07c-2.62-6.38-1.72-13.68.23-20.3a30.55,30.55,0,0,1,4.38-9.58c3.73-5.07,9.6-8,15.25-10.78a39.61,39.61,0,0,1,18.34-5.39,63.48,63.48,0,0,1,12.55-.29c13.77,1.52,25.27,12.23,30.94,24.87,2.47,5.48,4,11.56,3.2,17.52,2-.66,4.33-1,6.16.12s2.63,3.91,1.08,5.35a5.41,5.41,0,0,1-3.4,1l-26.6,1.76-17.49,1.15c-2.69.17-5.38.35-8.07.39-5.38.07-10.74-.41-16.12-.41a58.16,58.16,0,0,0-7.92.46c-1.61.21-3.19.58-4.8.75C981.89,779.88,978.88,780,975.89,780.19Z" transform="translate(-75.75 -469.15)"/><path class="cls-1" d="M1056.17,776.11c1.46,5.5.92,13,.92,13a110.28,110.28,0,0,0-15.53-.88L1025,788c-8.75-.08-17.54-.16-26.18,1.22a83.27,83.27,0,0,0-18.94,5.45c-.87-5.72-1.24-8.79,0-14.44" transform="translate(-75.75 -469.15)"/><path class="cls-1" d="M1061.47,786.28a3.8,3.8,0,0,0,1.82,1c2.75.62,5.7.77,8.49,1.15a5.71,5.71,0,0,0,2.57,0,2,2,0,0,0,1.47-1.9c-.08-1-1-1.55-1.9-1.91-.22-.1-.47-.21-.55-.43-.17-.4.28-.81.24-1.23-.08-.84-1.55-.52-2.06-1.18a1.3,1.3,0,0,1,0-1.28,16.67,16.67,0,0,1,2.69-3.5c.06-.07.11-.14.17-.2,1.11-1.19,1.88-2.11.32-2.57a15.83,15.83,0,0,0-3,.77c-1.44.63-3.22,1.41-4.59,2.18-1.91,1-4.51.91-5.78,2.76a6.29,6.29,0,0,0-.52.91" transform="translate(-75.75 -469.15)"/><path class="cls-1" d="M1057.09,780.34a8,8,0,0,1,3.76.44,7.49,7.49,0,0,1,1,1.27,3.7,3.7,0,0,1,.26,1.51,4.65,4.65,0,0,1-.4,2.37,3.1,3.1,0,0,1-1.8,1.43,5.11,5.11,0,0,1-2.33.15" transform="translate(-75.75 -469.15)"/><path class="cls-1" d="M979.85,794.38a98.65,98.65,0,0,0,2.52,24,51.66,51.66,0,0,0,4.54,12.88c5.23,9.69,14.71,16.28,24.16,21.92a21.6,21.6,0,0,0,5.7,2.66c5.31,1.33,10.74-1.31,15.45-4.11,5.21-3.09,10.34-6.56,14.1-11.32a55.36,55.36,0,0,0,6-10.26,66.47,66.47,0,0,0,5.49-14c2.08-9,.61-18.34-.87-27.42" transform="translate(-75.75 -469.15)"/><path class="cls-1" d="M1057.3,791c.79-1.82,3.07-2.42,4.77-2.54a2.41,2.41,0,0,1,1.9,1.28,4.13,4.13,0,0,1,.36,1.81,15.67,15.67,0,0,1-.58,4.52c-.4,1.41-1,2.91-.49,4.28.26.69.79,1.27,1,2a4.8,4.8,0,0,1-.14,2.75,4.18,4.18,0,0,1-1.67,2.7c-1,.52-3.71-.56-3.63-1.65" transform="translate(-75.75 -469.15)"/><path class="cls-1" d="M979.85,794.71c-1.18-1.18-4.19.41-4.8,2.64-.26,1.76,1.49,3.14,2.06,4.83.63,1.85-.2,3.85-.32,5.8a8,8,0,0,0,1.26,4.79,2.64,2.64,0,0,0,1.23,1.13,1.15,1.15,0,0,0,1.45-.52" transform="translate(-75.75 -469.15)"/><path class="cls-1" d="M1016.93,815.44c-.33,2.49-.57,5-.71,7.51-.1,1.65-.07,3.51,1.11,4.65a4.34,4.34,0,0,0,4.42.6,30.93,30.93,0,0,0,4.12-2.22" transform="translate(-75.75 -469.15)"/><path class="cls-1" d="M1010.45,834a8.86,8.86,0,0,0,4.89,2.33,14.69,14.69,0,0,0,2.57,0,51.25,51.25,0,0,0,14.09-2.65" transform="translate(-75.75 -469.15)"/><path class="cls-1" d="M1025.56,807.27a19.94,19.94,0,0,0,22.47,2.79c1.48-.8,3-1.93,3.35-3.57l0-.41a48.34,48.34,0,0,0-6.74-4.43,14.12,14.12,0,0,0-4.9-1.82,14.88,14.88,0,0,0-4.1.22,16.14,16.14,0,0,0-5.58,1.65,18,18,0,0,0-4.92,4.81Z" transform="translate(-75.75 -469.15)"/><circle cx="958.91" cy="336.94" r="4.68"/><path class="cls-1" d="M988.22,805.72a20,20,0,0,0,22.48,2.8c1.47-.8,2.94-1.94,3.35-3.57l.05-.42a48.75,48.75,0,0,0-6.75-4.43,14.1,14.1,0,0,0-4.9-1.81,14.8,14.8,0,0,0-4.09.21,16.23,16.23,0,0,0-5.58,1.65,18.19,18.19,0,0,0-4.92,4.82Z" transform="translate(-75.75 -469.15)"/><circle cx="921.58" cy="335.4" r="4.68"/><path class="cls-3" d="M1013.13,854.25c2.65,3.84,2.61,9.16,1.07,13.57" transform="translate(-75.75 -469.15)"/><path class="cls-1" d="M1013.13,854.25c1.26,1.38.91,3.18,1.1,5a17.55,17.55,0,0,1-.25,4.09l-.58,4.23" transform="translate(-75.75 -469.15)"/><path class="cls-1" d="M1032.33,852.24a30.62,30.62,0,0,0-1.75,7,11,11,0,0,0,.8,6.23" transform="translate(-75.75 -469.15)"/><path class="cls-1" d="M1070.63,931q6.52,12.15,14.09,23.72a73.89,73.89,0,0,0,6,8.24c1.86,2.13,3.92,4.07,5.66,6.29,4.36,5.57,6.71,13,12.61,16.87" transform="translate(-75.75 -469.15)"/><path class="cls-1" d="M1083.25,952.46c4,13,5.21,28.61,6,42.2q.62,10.37,1.24,20.72" transform="translate(-75.75 -469.15)"/><path class="cls-1" d="M977.86,1011.25c-.32,5.56-.7,10.58-3.11,15.23a20.24,20.24,0,0,1-11.49,10.12c-5.61,1.77-11.74.51-17.23-1.58a11.13,11.13,0,0,1-4.07-2.32,11.66,11.66,0,0,1-2.4-4.5c-8.39-24.56-4.75-51.43-.48-77,1.11-6.64,2.25-13.29,3.71-19.87a215.77,215.77,0,0,1,9.4-31.16c2-5.25,8-13.64,8-13.64,5-5.75,10.28-11.63,17.1-15.09,4.48-2.27,9.45-3.39,14.38-4.32,7.44-1.41,21.11.27,21.11.27a11.39,11.39,0,0,0,9.59,3,15.69,15.69,0,0,0,9-4.9s14-1.49,20.93-.13c2,.38,3.88.89,5.85,1.22,3.76.62,7.68.54,11.29,1.8a29.14,29.14,0,0,1,3.65,1.65c7.35,3.8,19.17,14.39,19.17,14.39,9.07,10.87,18,21.95,25.36,34s17,38.67,17,38.67c.6,15.29.56,30.71-2.34,45.74s-8.83,29.72-18.88,41.26a4.36,4.36,0,0,1-2.21,1.62,4.51,4.51,0,0,1-2.23-.28l-17.3-5.23c-1.93-.58-4.08-1.35-4.92-3.19a6.8,6.8,0,0,1-.34-3.3,59.56,59.56,0,0,1,2-11.48c1.42-5.24,3.54-10.26,5.12-15.45,2.6-8.55,4.65-19.79,9.22-27.47" transform="translate(-75.75 -469.15)"/><path class="cls-1" d="M944.4,1034.34c.21,2.42-.12,8.75.1,8.65a14.71,14.71,0,0,1,2,0,37.88,37.88,0,0,0,4.17.1,117.79,117.79,0,0,1,16.27.06c.12-2.67-.23-5.72,0-8.22" transform="translate(-75.75 -469.15)"/><path class="cls-1" d="M946,1043.55c-3.05,5.81-6.15,11.8-6.84,18.33-.13,1.24.06,2.85,1.26,3.2,1,.3,2-.52,2.59-1.35a17,17,0,0,0,2.73-6.82,57.71,57.71,0,0,0-2.93,16.26,2.29,2.29,0,0,0,1.13,2.12c1.14.6,2.19-.29,2.84-1.21,2.23-3.16,2.46-7.26,2.6-11.12a66.8,66.8,0,0,0,.77,10.85,14,14,0,0,0,1.51,4.87,1.7,1.7,0,0,0,3.08-.32,33.12,33.12,0,0,0,1.12-15.09l1.58,6.71c.26,1.12.54,3.88,1.92,4.32,2,.65,2.68.19,3.25-.9,1.16-2.24,0-6.5-.24-8.8a28.06,28.06,0,0,1-.19-5.8l3.07,5.53c.51.92,1.27,2,2.38,1.67a1.91,1.91,0,0,0,1.28-2.16c-1.34-8-4.3-13-4.2-20.84" transform="translate(-75.75 -469.15)"/><path class="cls-2" d="M1000.68,1017.41c.29-4.65,1.5-5.76,2.54-10.31v-.47c-1.29-1.07-2.16-.8-3.72-1.4-.36,1.12-.76,1.87-1.13,3.09a39,39,0,0,0-1.29,7.68" transform="translate(-75.75 -469.15)"/><path class="cls-1" d="M1054.94,1039.32c1.38-2.58,2.91-5,3.6-7.71-9.54-3.77-20.45-8.25-30.89-10.13a19.78,19.78,0,0,0-2,5.86" transform="translate(-75.75 -469.15)"/><path class="cls-1" d="M1054.64,1064l3.07-7.07c.11-.24,12.52,4.51,13.66,4.88,2.65.85,5.81,2.12,5.05,5.5-.48,2.1-1,3.58-1.43,5.69" transform="translate(-75.75 -469.15)"/><path class="cls-1" d="M1055.39,1064.25c2.55-1.14,7-3.56,9.56-4.74" transform="translate(-75.75 -469.15)"/><path class="cls-2" d="M1075,1073.63a83.75,83.75,0,0,0,7,27.49,36.51,36.51,0,0,0,6.32,10.55,7.51,7.51,0,0,0,3.11,2.22,8.78,8.78,0,0,0,2.75.27l12.15,0a44.17,44.17,0,0,1-14.61-32.93" transform="translate(-75.75 -469.15)"/><path class="cls-1" d="M1081.16,1050.65q-13-5.84-26.21-11.33c-9.74-4.08-19.51-8-29.31-12q-13.8-5.53-27.68-11c-.39-.16-1.42-.54-1.42-.54a14.65,14.65,0,0,0-2.19,5.09l-3.6,12.62.08.82,40.84,17.34" transform="translate(-75.75 -469.15)"/><path class="cls-1" d="M1149.85,1085.35c.76.38.5,1.65-.26,2a3.33,3.33,0,0,1-2.46-.06c-11.74-3.51-21.72-11.85-33.68-14.49a2,2,0,0,0-1.1,0,2.06,2.06,0,0,0-1,1.24c-1.3,2.92-2.48,8.29-5.63,9.75a7.53,7.53,0,0,1-4.33.46c-4.17-.66-8.54-2.54-12.34-4.33-4.71-2.21-7.16-3.62-12-5.89q-12-5.79-24.46-10.55" transform="translate(-75.75 -469.15)"/><path class="cls-1" d="M1088.43,1039.32l-.53,4.16a12.65,12.65,0,0,0,3.94,1.82l7.43,2.45a33.66,33.66,0,0,0,7.17,1.81,1.79,1.79,0,0,0,.89-.07,1.54,1.54,0,0,0,.65-.64,4.76,4.76,0,0,0,.61-3.73" transform="translate(-75.75 -469.15)"/><path class="cls-1" d="M1088.74,1044l-7.58,6.62" transform="translate(-75.75 -469.15)"/><path class="cls-1" d="M1081.16,1050.65c2.42.49,4.33,1.58,6.75,2.07" transform="translate(-75.75 -469.15)"/><path class="cls-1" d="M1088.61,1050.3c.17,5.21-2.75,10-3.47,15.19a2.44,2.44,0,0,0,.49,2.24,1.92,1.92,0,0,0,2.1,0c1.66-.89,2.31-2.9,2.8-4.72l1.41-5.17" transform="translate(-75.75 -469.15)"/><path class="cls-1" d="M1089.88,1065.15a34.39,34.39,0,0,0-1.33,4.87c-.23,1.36-.12,3.07,1.11,3.68a2.44,2.44,0,0,0,2.72-.69,7,7,0,0,0,1.35-2.67c1.19-3.63,2.24-7.32,3.14-11" transform="translate(-75.75 -469.15)"/><path class="cls-1" d="M1105.79,1049.49a46.4,46.4,0,0,0,1.72,4.84,9.27,9.27,0,0,1,.6,5,26,26,0,0,1-1,2.81,16.82,16.82,0,0,1-1.34,3.76c-.71,1.12-2.22,1.92-3.39,1.28s-1.31-2-1.41-3.28l1-4.92a34.41,34.41,0,0,1-3.1,9.44,6.6,6.6,0,0,1-1.18,1.8,2.56,2.56,0,0,1-1.93.8,3.87,3.87,0,0,1-1.6-.66" transform="translate(-75.75 -469.15)"/><path class="cls-1" d="M1107.5,1061a25.25,25.25,0,0,1,7,2.3s25.86,12.07,39.82,18.39l9.75,4.42,25.3,11.46-1.59,4a644.83,644.83,0,0,1-72.06-33.09" transform="translate(-75.75 -469.15)"/><path class="cls-1" d="M1010.31,1042.6l-12.66,1.91a38.78,38.78,0,0,1-10.13.61,42.57,42.57,0,0,1-8.5-2.47c-2.7-6.38-2.36-13.58-1.87-20.48,1.06-15.1,2.59-30.16,4.12-45.22l1-10.05,3.56-35" transform="translate(-75.75 -469.15)"/><path class="cls-1" d="M1044.25,1143.46c-2.64,9.48-3.94,20.78-5.54,30.49s-4,19.49-9,27.91a14.89,14.89,0,0,1-3.94,4.62c-2.59,1.8-5.91,2-9.05,2.24l-12,.74a22.87,22.87,0,0,1-7.25-.32,15,15,0,0,1-8.6-6.82,36.16,36.16,0,0,1-4-10.46c-3.27-12.93-3.73-41.55-3.78-42.21-1.93-25.34-2.36-51-2.14-76.36.09-10.2.35-20.09.61-30.29" transform="translate(-75.75 -469.15)"/><path class="cls-1" d="M1098.31,1114.16c2.66,21.53,2.81,42.12,3.17,63.81a199.59,199.59,0,0,1-.42,21.88,22.67,22.67,0,0,1-2,8.35s-9.36,1.28-14.17,1.76c-4.21.43-8.29,1.83-12.51,2a27.13,27.13,0,0,1-13.12-3.1,17.79,17.79,0,0,1-5.22-3.69c-2.52-2.75-3.56-6.53-4.37-10.17-3.66-16.38-4.48-33.24-5.28-50,0,0-2.85-28.7-3-43.75,0-4.45.28-8.91.21-13.37" transform="translate(-75.75 -469.15)"/><path class="cls-1" d="M1097.44,1102.25l-2.64-19.83" transform="translate(-75.75 -469.15)"/><path class="cls-1" d="M1057.35,1040.33c3.51.25,11.14.52,14.66.77a24.64,24.64,0,0,0,2.72.1,22.92,22.92,0,0,0,4.85-.84,71.28,71.28,0,0,0,7.3-2.2" transform="translate(-75.75 -469.15)"/><path class="cls-1" d="M995.09,1222.05a63,63,0,0,0,.29-7.89,35.71,35.71,0,0,1,.09-5.73" transform="translate(-75.75 -469.15)"/><path class="cls-1" d="M1022.82,1220.21a29.25,29.25,0,0,1-.39-12.25" transform="translate(-75.75 -469.15)"/><path class="cls-1" d="M1065.86,1225.39a127.2,127.2,0,0,1-1.7-14.57" transform="translate(-75.75 -469.15)"/><path class="cls-1" d="M1096.41,1223.85a64.16,64.16,0,0,1-1.07-15.15" transform="translate(-75.75 -469.15)"/><path class="cls-1" d="M1027.88,1277.23a148.42,148.42,0,0,1-18.41,4.14c-2.88.48-5.83.62-8.69,1.11-3.06.52-6.14.93-9.23,1.27-6.24.68-12.51,1.08-18.78,1.46-3.48.22-7,.47-10.45.63-3.32.15-6.82.8-10.11.05a19.94,19.94,0,0,1-3.86-1.44,17.36,17.36,0,0,1-3.72-2.2c-2.27-1.89-2.61-4.28-2.7-7.09a38.12,38.12,0,0,1,.1-5.45,23.28,23.28,0,0,1,8.45-15.11,30.57,30.57,0,0,1,16.22-6.54c3-.32,6.06-.27,9-.79s6-1.7,7.93-4c0,0,.23-4.33.14-6.76-.17-4.37-.33-8.81.59-13.09l.88-.32,11.05-.73a64.88,64.88,0,0,0,7.11-.74c2.06-.38,4.08-1,6.15-1.21a39.18,39.18,0,0,1,5-.19l12.39,0,.91,0c-1.88,3.88-2.2,8.34-2,12.65s1,8.58,1.18,12.89c.18,4.75-.37,9.5-.27,14.25a52.29,52.29,0,0,0,1,9.17" transform="translate(-75.75 -469.15)"/><path class="cls-1" d="M1064.86,1250.22c-7,1.12-14.09,2.26-20.8,4.61-6.18,2.17-12.39,5.79-15,11.79a25.4,25.4,0,0,0-.08,15.81,3.78,3.78,0,0,0,1.57,2,14.27,14.27,0,0,0,4,1.87,17.87,17.87,0,0,0,3.51.37c2.84.1,5.72.15,8.53.41a76.82,76.82,0,0,0,9.1-.16l18.85-.5a105.65,105.65,0,0,0,13.65-1,87.69,87.69,0,0,0,13.2-3.52,17,17,0,0,0,4.81-2.83,2.5,2.5,0,0,0,.84-2.49c-1.19-5.22-1.07-8-1.63-13.87l-1.1-11.49a205.76,205.76,0,0,1-1.37-23.92c0-1.21,0-2.58-.83-3.45a3.74,3.74,0,0,0-3.23-.75c-3.47.5-6.4,2.84-9.77,3.81a29.44,29.44,0,0,1-8.33.66l-6.84,0a19.43,19.43,0,0,1-3.81-.26,16.08,16.08,0,0,1-5.43-2.7l-.52.08a122.17,122.17,0,0,0,1.13,25Z" transform="translate(-75.75 -469.15)"/><path class="cls-1" d="M1054,1252.14c1.35.78,3.4,2,4.74,2.82a3.83,3.83,0,0,1,1.1.84c.51.64.51,1.45.62,3.21" transform="translate(-75.75 -469.15)"/><path class="cls-1" d="M1061,1250.85c1.6,1.6,4,1.92,5.17,3.86a7.69,7.69,0,0,1,.86,2.94" transform="translate(-75.75 -469.15)"/><path class="cls-1" d="M1065.34,1249.72c3,0,4.18,1.2,4.87,2.57l.36,1.33" transform="translate(-75.75 -469.15)"/><path class="cls-1" d="M1064.67,1245.31a29.43,29.43,0,0,1,4.2-.75,5.26,5.26,0,0,1,2.73.55,15.63,15.63,0,0,1,1.82,1" transform="translate(-75.75 -469.15)"/><path class="cls-1" d="M1064.51,1238.57l5.6-.31a10.68,10.68,0,0,1,1.6,0,9.18,9.18,0,0,1,3.73,1.65" transform="translate(-75.75 -469.15)"/><path class="cls-1" d="M1064,1232.77c2.36-.19,4.68-1.57,7-1,1.44.38,2.59,1.5,4,1.89" transform="translate(-75.75 -469.15)"/><path class="cls-1" d="M983.74,1228.75a22.6,22.6,0,0,1,4-.33,11.85,11.85,0,0,1,2.38.14,14.79,14.79,0,0,1,5.48,2.26" transform="translate(-75.75 -469.15)"/><path class="cls-1" d="M983.74,1233.59c1.59.14,4.15.28,6,.41a6.82,6.82,0,0,1,3.6,1.62,21.41,21.41,0,0,1,1.77,1.92" transform="translate(-75.75 -469.15)"/><path class="cls-1" d="M984.25,1239.9a39.76,39.76,0,0,1,5.61,0,5,5,0,0,1,1.44.62,26.54,26.54,0,0,1,3.55,2.48" transform="translate(-75.75 -469.15)"/><path class="cls-1" d="M982.82,1244.32a15.72,15.72,0,0,1,7.12,7.53" transform="translate(-75.75 -469.15)"/><path class="cls-1" d="M976.09,1247.47l4,3.72a4,4,0,0,1,1.42,2.22l1.18,3.57" transform="translate(-75.75 -469.15)"/><path class="cls-1" d="M964.69,1248.33c1.83,1.79,4.71,4.77,5.78,7.1a18.75,18.75,0,0,1,1.29,4.79" transform="translate(-75.75 -469.15)"/><path class="cls-1" d="M942.12,1277.79a16.26,16.26,0,0,0,8.07,4.27,32,32,0,0,0,7.51-.24c13-1.45,26-2.55,38.92-4.38q8.45-1.2,16.86-2.69c2.8-.5,5.59-1,8.39-1.57a8.43,8.43,0,0,0,5.74-3.35" transform="translate(-75.75 -469.15)"/><path class="cls-1" d="M1028.63,1280c10.45,3,21,2.48,31.86,2.08l7.36-.27c3.84-.14,7.67-.28,11.5-.53a102.72,102.72,0,0,0,17.12-2.31c4.07-1,8.14-1.92,9.69-5.8" transform="translate(-75.75 -469.15)"/><path class="cls-2" d="M1052.54,1063.49l-.75-.28c-7.51,9.56-19,16.7-30.51,20.62l-3.29-1.76a16.35,16.35,0,0,1-6.55-5.67q-3.23-4.11-6.38-8.29A32.78,32.78,0,0,0,1022,1061a58.33,58.33,0,0,0,9.68-9.29Z" transform="translate(-75.75 -469.15)"/><path class="cls-2" d="M806.2,629.53a27.13,27.13,0,1,0,27.13,27.13A27.13,27.13,0,0,0,806.2,629.53Zm0,41.86a14.73,14.73,0,1,1,14.73-14.73A14.72,14.72,0,0,1,806.2,671.39Z" transform="translate(-75.75 -469.15)"/><path class="cls-1" d="M820.93,656.66a14.73,14.73,0,1,1-14.73-14.73A14.73,14.73,0,0,1,820.93,656.66Z" transform="translate(-75.75 -469.15)"/><path class="cls-1" d="M820.93,656.66a14.73,14.73,0,1,1-14.73-14.73A14.73,14.73,0,0,1,820.93,656.66Z" transform="translate(-75.75 -469.15)"/><path class="cls-2" d="M1001.38,629.53a27.13,27.13,0,1,0,27.13,27.13A27.13,27.13,0,0,0,1001.38,629.53Zm0,41.86a14.73,14.73,0,1,1,14.73-14.73A14.72,14.72,0,0,1,1001.38,671.39Z" transform="translate(-75.75 -469.15)"/><path class="cls-1" d="M1016.11,656.66a14.73,14.73,0,1,1-14.73-14.73A14.72,14.72,0,0,1,1016.11,656.66Z" transform="translate(-75.75 -469.15)"/><path class="cls-1" d="M1016.11,656.66a14.73,14.73,0,1,1-14.73-14.73A14.72,14.72,0,0,1,1016.11,656.66Z" transform="translate(-75.75 -469.15)"/><line class="cls-1" x1="757.58" y1="187.51" x2="898.5" y2="187.51"/><path class="cls-1" d="M779.08,656.66H698.69a40.85,40.85,0,0,1-40.86-40.85V511a40.86,40.86,0,0,1,40.86-40.86h430.19A40.85,40.85,0,0,1,1169.73,511v104.8a40.85,40.85,0,0,1-40.85,40.85H1028.51" transform="translate(-75.75 -469.15)"/><line class="cls-1" x1="898.5" y1="187.51" x2="757.58" y2="187.51"/><path class="cls-1" d="M582.08,105.56h6.29a7,7,0,0,1,7,7v30.5a7,7,0,0,1-7,7h-6.29a0,0,0,0,1,0,0V105.56A0,0,0,0,1,582.08,105.56Z"/><rect class="cls-1" x="830.65" y="24.72" width="82.29" height="63.41" rx="9.8"/><rect class="cls-1" x="724.15" y="24.72" width="82.29" height="63.41" rx="9.8"/><rect class="cls-1" x="616.93" y="25.69" width="82.29" height="63.41" rx="9.8"/><path class="cls-1" d="M1169.73,511v66.6H1146a8.22,8.22,0,0,1-8.22-8.23v-62a8.22,8.22,0,0,1,8.22-8.22h22" transform="translate(-75.75 -469.15)"/><path class="cls-1" d="M1169.73,615.81v-8.18H1149a6.41,6.41,0,0,0-6.42,6.41v9.08a6.41,6.41,0,0,0,6.42,6.41h18.33" transform="translate(-75.75 -469.15)"/><path class="cls-1" d="M1105.84,499.2h-56.16a17.18,17.18,0,0,0-17.18,17.18V620a17.18,17.18,0,0,0,17.18,17.18h56.16a13.06,13.06,0,0,0,13.06-13.07V512.27A13.07,13.07,0,0,0,1105.84,499.2ZM1093,576.4h-38a4.11,4.11,0,0,1-4.11-4.12V527.51a4.11,4.11,0,0,1,4.11-4.11h2.18a4.11,4.11,0,0,1,4.11,4.11v36.55a4.12,4.12,0,0,0,4.12,4.11H1093a4.11,4.11,0,0,1,4.11,4.11h0A4.11,4.11,0,0,1,1093,576.4Z" transform="translate(-75.75 -469.15)"/><path class="cls-1" d="M1047.51,637.15c3.06-7.34,6.85-15.89,9.92-23.23h43.33c3.22,7.1,6.45,15.3,9.68,22.4" transform="translate(-75.75 -469.15)"/><path class="cls-1" d="M1059.22,613.92c2-4.73,4.41-10.24,6.39-15h27.9c2.08,4.58,4.16,9.86,6.23,14.43" transform="translate(-75.75 -469.15)"/><path class="cls-1" d="M1097.12,572.28h0a4.11,4.11,0,0,1-4.11,4.12h-38a4.11,4.11,0,0,1-4.11-4.12V527.51a4.11,4.11,0,0,1,4.11-4.11h2.18a4.11,4.11,0,0,1,4.11,4.11v36.55a4.12,4.12,0,0,0,4.12,4.11H1093A4.11,4.11,0,0,1,1097.12,572.28Z" transform="translate(-75.75 -469.15)"/><polyline class="cls-1" points="981.43 118.87 1012.41 118.87 1012.41 107.25"/><line class="cls-1" x1="1017.76" y1="129.8" x2="1043.15" y2="129.8"/><polyline class="cls-1" points="956.74 124.68 981.43 124.68 981.43 107.25"/><rect class="cls-2" x="1030.45" y="62.96" width="2.05" height="18.88" rx="1.02"/><path class="cls-1" d="M1061.3,538.77c1.23-2.59,4.83-4.11,7.65-4.59a9.88,9.88,0,0,1,3-.11,8.91,8.91,0,0,1,6.08,4.17,16.8,16.8,0,0,1,2.29,7.19" transform="translate(-75.75 -469.15)"/><path class="cls-1" d="M1071.16,548.61a5.86,5.86,0,0,0,1.55,2.35c1.48,1.2,3.63.9,5.5.53l19.86-3.85a10.56,10.56,0,0,0,4.12-1.4,16.28,16.28,0,0,1-1.35-4.69s-15.62,4.41-23.78,4a1.92,1.92,0,0,1-1-.24,1.87,1.87,0,0,1-.53-.74l-1-2a8.62,8.62,0,0,0-1.46-2.28,2.83,2.83,0,0,0-2.44-.9,1.74,1.74,0,0,0-1.44,1.95A42.64,42.64,0,0,0,1071.16,548.61Z" transform="translate(-75.75 -469.15)"/><path class="cls-1" d="M1100.84,541.55a4.16,4.16,0,0,1,1.73-3,5.14,5.14,0,0,1,3-.58" transform="translate(-75.75 -469.15)"/><path class="cls-1" d="M1102.32,546.16a10.44,10.44,0,0,0,4.24.09" transform="translate(-75.75 -469.15)"/><path class="cls-1" d="M1081,550.87a15,15,0,0,1,.55,5.16,2.13,2.13,0,0,1-.26,1c-.36.56-1.11.67-1.76.8a8.45,8.45,0,0,0-4.12,2.17,7.1,7.1,0,0,1-1.13,1,5.67,5.67,0,0,1-1.91.59,55.11,55.11,0,0,0-10.46,3.48" transform="translate(-75.75 -469.15)"/><path class="cls-1" d="M1081.32,557c4.74-.09,10-.24,14.78-.33a13.76,13.76,0,0,1,4.58.42,9.26,9.26,0,0,1,5.18,5,27.52,27.52,0,0,1,1.89,7.16l2.66,15.77" transform="translate(-75.75 -469.15)"/><path class="cls-1" d="M1097.54,571.67a22.45,22.45,0,0,1,.64,5.68,49.47,49.47,0,0,0,1.71,10.94,1.67,1.67,0,0,0,.56,1c.52.36,1.22.07,1.77-.22l8.56-4.5" transform="translate(-75.75 -469.15)"/><path class="cls-1" d="M1108,585.66a2.31,2.31,0,0,0,1.84,1.29,8.81,8.81,0,0,0,1.84-.22,10,10,0,0,1,1.73,0,4.65,4.65,0,0,1,2.56.61,3.64,3.64,0,0,1,1.23,3,10.61,10.61,0,0,1-2.48,1.7,25.94,25.94,0,0,1-8.13,1.47,3.26,3.26,0,0,1-1.08-.11,2.38,2.38,0,0,1-1.47-2.06,10.22,10.22,0,0,1,0-3.17" transform="translate(-75.75 -469.15)"/><path class="cls-1" d="M1109,594.78a53.82,53.82,0,0,0,9-3.26" transform="translate(-75.75 -469.15)"/><path class="cls-1" d="M1115.32,592.66l1.3,2.74" transform="translate(-75.75 -469.15)"/><path class="cls-1" d="M1069,534.18a4,4,0,0,0,.94-2.92" transform="translate(-75.75 -469.15)"/><path class="cls-1" d="M1072.68,533.56a3.15,3.15,0,0,1,1.17-1.5" transform="translate(-75.75 -469.15)"/><path class="cls-1" d="M1073.72,532.34a9.78,9.78,0,0,0,3.57.85,20.4,20.4,0,0,0,2.21-.07,3.45,3.45,0,0,0,.9-.14,3.38,3.38,0,0,0,.83-.46,7.29,7.29,0,0,0,2.37-2.18,3.77,3.77,0,0,0,.4-2.69" transform="translate(-75.75 -469.15)"/><path class="cls-1" d="M1080.58,515.61a7.64,7.64,0,0,1,2.88,3,6.72,6.72,0,0,1,.39,1.59q.2,1.31.3,2.61a8.68,8.68,0,0,0,.32,2,6.31,6.31,0,0,1,.4,1.18,1.05,1.05,0,0,1-.41,1.09c-.35.21-.93-.07-.88-.48" transform="translate(-75.75 -469.15)"/><path class="cls-1" d="M1076,519.4a6.15,6.15,0,0,1,3.77.05" transform="translate(-75.75 -469.15)"/><path class="cls-1" d="M1076.24,522.33a2.08,2.08,0,0,0,1.12,1,2.53,2.53,0,0,0,1.75.2,1.53,1.53,0,0,0,1.12-1.27l-.27-.5a2.41,2.41,0,0,0-3.06.25Z" transform="translate(-75.75 -469.15)"/><path class="cls-1" d="M1072.28,524.72a.25.25,0,0,1,0,.12c-.09.34-.73.41-1,.09a1.52,1.52,0,0,1-.17-1.29.94.94,0,0,0,0-.41c-.14-.3-.57-.3-.8-.52a.69.69,0,0,1,.27-1,1.86,1.86,0,0,1,1.19-.09.77.77,0,0,1,.35.13.2.2,0,0,1,.1.23" transform="translate(-75.75 -469.15)"/><path class="cls-2" d="M1080.74,515.71a1,1,0,0,1-.59.55c-.64.2-1.3-.34-2-.29a2.17,2.17,0,0,0-.66.19c-1.58.61-3.15,1.24-4.74,1.85a2.85,2.85,0,0,0-.73.39c-.85.72-.43,2.09,0,3.09a.73.73,0,0,1-.34.11,1.86,1.86,0,0,0-1.19.09.69.69,0,0,0-.27,1c.23.22.66.22.8.52a.94.94,0,0,1,0,.41,1.52,1.52,0,0,0,.17,1.29c.25.32,1,.2,1,.2a9.1,9.1,0,0,0,.9,5,2.25,2.25,0,0,1,.31.79.68.68,0,0,1-.37.7c-.23.08-.5,0-.73,0a2.05,2.05,0,0,0-.46.25,1.69,1.69,0,0,1-1.75-.17,2.17,2.17,0,0,1-.3-.23,5.66,5.66,0,0,1-.93-1.14s-.87-1.69-1.42-2.71a11,11,0,0,1-1.23-7.6c.56-2.42,2.66-4.13,4.62-5.66A5,5,0,0,1,1074,513a7.58,7.58,0,0,0,2,.19c.46-.11.85-.42,1.3-.49a2.75,2.75,0,0,1,1.61.4,3.77,3.77,0,0,1,1.7,1.33A1.5,1.5,0,0,1,1080.74,515.71Z" transform="translate(-75.75 -469.15)"/><path class="cls-1" d="M1079.46,529.79a11.55,11.55,0,0,1,3.75.85" transform="translate(-75.75 -469.15)"/><path class="cls-1" d="M1078.49,522.55v.12" transform="translate(-75.75 -469.15)"/><path class="cls-1" d="M1078.61,522.46c.1,0-.06.19-.13.11s0-.2,0-.3.06-.24,0-.29l-.13,1.17" transform="translate(-75.75 -469.15)"/></g><g id="Layer_3" data-name="Layer 3"><path class="cls-4" d="M289.73,1006.78l-2.91.55-.62.63h0l-.36.36c0-.08,0-.16,0-.24-.73-9.69-2.36-19.78-8.3-27.45a10.31,10.31,0,0,1-1.85-2.89,9.78,9.78,0,0,1-.37-2.48c-.47-6.32-2.66-12.87-7.58-16.88s-13-4.48-17.28.17c-2.76,3-3.67,7.45-6.88,9.9-3.94,3-9.81,1.69-13.78-1.29s-6.73-7.22-10.22-10.74a13.84,13.84,0,0,0-6.32-4,12.34,12.34,0,0,0-8.26,1.33C196.55,957.9,194,977,194,977c-2.83.54-5.75-.54-8.61-.19a16.54,16.54,0,0,0-5,1.67,57.37,57.37,0,0,0-8.11,4.34c-7,4.66-12,11.81-15.23,19.57-3.11,7.5-4.59,15.59-5.48,23.67a17.11,17.11,0,0,0-2.21-4.62,6.11,6.11,0,0,0-4.57-2.62,9.07,9.07,0,0,0-3.86,1.17,19.9,19.9,0,0,0-5.82,3.65c-1.9-10.62-5.35-23-3.83-33.67s6.57-20.93,13.12-29.68c20.18-27,55.91-41.35,89.13-35.89a59.81,59.81,0,0,1,19,6.09c11.81,6.44,20.05,17.94,26.1,29.94C286,974.75,290.66,990.73,289.73,1006.78Z" transform="translate(-75.75 -469.15)"/><path class="cls-1" d="M285.7,1008.11c1.67-.45,2.4-1.26,4.1-1a3.71,3.71,0,0,1,2.34,2.09c1.89,3.47,1.9,7.67,1.35,11.59s-1.58,7.79-1.6,11.74c0,3.48.76,6.94.71,10.42,0,2.47-.64,5.17-2.58,6.7a3.41,3.41,0,0,1-3.41.65" transform="translate(-75.75 -469.15)"/><path class="cls-1" d="M151.76,1026.3c0-.1-.06-.19-.1-.29a17.11,17.11,0,0,0-2.21-4.62,6.11,6.11,0,0,0-4.57-2.62,9.07,9.07,0,0,0-3.86,1.17,19.9,19.9,0,0,0-5.82,3.65,7.87,7.87,0,0,0-1.14,1.43,13.89,13.89,0,0,0-1.72,5.74,4.23,4.23,0,0,0,0,1.94,5.52,5.52,0,0,0,1.29,1.73c3.5,3.82,3.86,9.5,3.61,14.68s-.91,10.59,1.12,15.35a6,6,0,0,0,3.07,3.48c1.49.57,3.52-.14,3.84-1.7l.39.85c-.71,20.49,9.57,42.63,25.39,56.21,5,4.29,9.71,7.86,15,11.7,5,3.59,8.63,7.08,14.57,8.68,8.66,2.33,18.44,2.59,27-.49,8.14-2.94,21.68-10.5,27.77-16.46,16.68-16.39,23-33.35,27.42-56.68,1.39-7.31,2.78-14.65,3.11-22.08.14-3,.1-5.91.08-8.87l-.35-31" transform="translate(-75.75 -469.15)"/><path class="cls-1" d="M228.36,1041.31a280.41,280.41,0,0,1,8.14,27.45c.48,2.15.75,4.79-.95,6.18a6,6,0,0,1-2.63,1,76.47,76.47,0,0,1-13.23,1.49" transform="translate(-75.75 -469.15)"/><path class="cls-1" d="M174.36,1001.72a21.59,21.59,0,0,1,9.51-7.2,51.35,51.35,0,0,1,11.7-2.95c1.94-.31,13.16,3.38,14.79,4.47" transform="translate(-75.75 -469.15)"/><path class="cls-1" d="M245.39,994c5.92-3.54,13.24-5.65,16.74-5.81,4.77-.22,9.22,1.73,13.26,4.27" transform="translate(-75.75 -469.15)"/><path class="cls-1" d="M210.38,1019.5a14.23,14.23,0,0,1-4.46,8.83,27.21,27.21,0,0,1-8.53,5.31c-5.53,2.33-11.64,3.64-17.56,2.66s-11.61-4.49-14.23-9.88c0,0,7.8-6.14,12.52-8.63a42.79,42.79,0,0,1,6.54-3,22,22,0,0,1,8.53-1,44,44,0,0,1,10.89,2.76A67.93,67.93,0,0,1,210.38,1019.5Z" transform="translate(-75.75 -469.15)"/><path class="cls-1" d="M190.57,1102.6c7.34-2.33,15.21-3.39,22.78-2,2.46.47,4.87,1.19,7.36,1.48,6.33.72,12.59-1.43,18.58-3.57" transform="translate(-75.75 -469.15)"/><circle class="cls-5" cx="121.35" cy="554.99" r="8.49"/><path class="cls-1" d="M279.88,1012.41a14.26,14.26,0,0,1-4.46,8.83,27.1,27.1,0,0,1-8.53,5.31c-5.53,2.32-11.64,3.64-17.56,2.66s-11.6-4.49-14.22-9.89c0,0,7.79-6.14,12.52-8.62a41.75,41.75,0,0,1,6.53-3,21.87,21.87,0,0,1,8.54-1,43.91,43.91,0,0,1,10.88,2.76A66.64,66.64,0,0,1,279.88,1012.41Z" transform="translate(-75.75 -469.15)"/><circle class="cls-5" cx="190.66" cy="547.5" r="8.49"/><path class="cls-1" d="M189.21,1137.29c1.08,4,1.7,10.38.73,14.4s-3.16,6.72-5.14,10.35" transform="translate(-75.75 -469.15)"/><path class="cls-1" d="M217.26,1146.28a17,17,0,0,0-.9,8.94,15.25,15.25,0,0,0,4.16,9.6" transform="translate(-75.75 -469.15)"/><path class="cls-1" d="M304.2,1267.59q6.23,42.86,14.51,85c1,4.88,1.94,9.75,3.09,14.55,3.55,14.93,8.69,29.26,10.23,44.88" transform="translate(-75.75 -469.15)"/><path class="cls-1" d="M316.71,1342.57c3.31,35.94,1,38,4,68.3" transform="translate(-75.75 -469.15)"/><path class="cls-1" d="M132,1366.43c-.13,3.94.11,7.87.22,11.81.31,11.84-.63,23.67-1.6,35.47" transform="translate(-75.75 -469.15)"/><path class="cls-1" d="M127,1413.67q1.4-17.58,3.89-34.94s.49-11.07.94-16.74c.33-4.17.66-8.35,1.18-12.49.42-3.37,1-6.72,1.34-10.1.41-3.75.59-7.54.83-11.31a331.85,331.85,0,0,1,5-40.36c.9-4.76,1.9-9.56,1.77-14.47" transform="translate(-75.75 -469.15)"/><path class="cls-1" d="M76.75,1415.78q5.23-59.12,12.18-118.06c.11,1,4.77-35.66,10-54.74s12.27-37.46,23.25-54.07c4.91-7.43,10.67-14.57,18.35-19.08,10.35-6.09,22.35-6.33,33.95-7.62,3.87-.44,7.88-.85,11.57.41l-1.27-.58c5.6,2.73,11.48,5,17.65,5.85s12.68,0,18.07-3.07l-.09.35c1.09-4.07,44.93-1.85,49.29-1a87.06,87.06,0,0,1,37.64,18.21c13.46,11.4,18.31,29.61,25.05,45.91,16.07,38.85,28,79.33,36.68,120.44,4.24,20.06,7.84,40.25,11.44,60.44" transform="translate(-75.75 -469.15)"/></g></svg>