<svg id="Layer_1" data-name="Layer 1" xmlns="http://www.w3.org/2000/svg" viewBox="0 0 1255.53 527.69"><defs><style>.cls-1{stroke:#000;stroke-miterlimit:10;stroke-width:0.61px;}</style></defs><path class="cls-1" d="M1254.92,896.94c0,57.24-37.78,103.64-84.38,103.64-18,0-34.65-6.91-48.34-18.69-15.08,19.55-50.72,33.28-92.28,33.28-55.23,0-100-24.25-100-54.17h0a187.52,187.52,0,0,1-27.5-17.06A73.52,73.52,0,0,1,875,960.55c9.44,3.78,15,8.49,15,13.6,0,12.43-33.18,22.52-74.12,22.52a219.83,219.83,0,0,1-34.53-2.6c-23.26,31.79-83.21,54.43-153.51,54.43-64.62,0-120.52-19.13-147.18-46.93-47.93-3.74-93.14-11.16-134.24-21.61-20.16,24.62-59.18,41.31-104,41.31-65.5,0-118.59-35.63-118.59-79.58A56.37,56.37,0,0,1,130,916.27C55.86,906,0,861,0,807c0-44.43,37.78-82.8,92.45-100.72a118.6,118.6,0,0,1-7.72-42.05c0-78.85,78.34-142.76,175-142.76,77,0,142.4,40.59,165.78,97,23.85-3.42,48.6-5.9,74-7.35q1.88-2.47,3.92-4.92c44.38-53.16,123.47-70.26,176.64-38.2,17,10.26,29.31,24.31,36.72,40.42A626,626,0,0,1,791.73,604c37.34,0,72.57,3.13,103.61,8.67,21.86-12.15,49-19.34,78.33-19.34,32.13,0,61.56,8.61,84.38,22.93a117.12,117.12,0,0,1,70.36-22.93c61,0,110.42,44.77,110.42,100,0,30.32-14.9,57.49-38.43,75.82a166.78,166.78,0,0,1,4,32.88C1234.15,818,1254.92,854.5,1254.92,896.94Z" transform="translate(0.31 -521.11)"/></svg>