<svg id="Layer_1" data-name="Layer 1" xmlns="http://www.w3.org/2000/svg" viewBox="0 0 689.73 699.93"><defs><style>.cls-1,.cls-2{stroke:#000;stroke-miterlimit:10;}.cls-1{stroke-width:1.25px;}.cls-2{stroke-width:1.27px;}</style></defs><path class="cls-1" d="M783.26,1076.19a97.45,97.45,0,0,1-177.11,30.53,306.38,306.38,0,0,1-145.57-64,315.61,315.61,0,0,1-30.44-27.74c-32.72-.4-64.45-10.7-90.73-31.68C270,927.8,264.85,818.71,328,739.58a206.78,206.78,0,0,1,41.45-39.38A258,258,0,0,1,402.76,646C475.55,554.8,598.58,525.55,709,563.16c39.57-43.74,114.64-43.69,170.8,1.15C902,582,918,604.15,927.2,627.43c68.4,67.2,57.6,196.89-23.28,302.94a258.7,258.7,0,0,1-120.66,145.82Z" transform="translate(-283.16 -452.47)"/><path class="cls-2" d="M665.7,453.69q-3.8-.4-7.63-.58" transform="translate(-283.16 -452.47)"/><path class="cls-2" d="M836.51,705q.3,13.27-.34,26.87" transform="translate(-283.16 -452.47)"/></svg>