<svg xmlns="http://www.w3.org/2000/svg" viewBox="0 0 74.85 86.18"><defs><style>.cls-1,.cls-3{fill:#fff;}.cls-2{fill:none;}.cls-2,.cls-3{stroke:#000;stroke-miterlimit:10;stroke-width:1.03px;}</style></defs><g id="Layer_2" data-name="Layer 2"><g id="Layer_2-2" data-name="Layer 2"><polygon points="63.32 9.7 63.07 6.19 60.59 3.68 63.21 3.19 63.78 0 65.65 3.21 68.48 3.74 67.01 6.21 68.19 9.73 65.42 8.05 63.32 9.7"/><ellipse class="cls-1" cx="64.18" cy="5.66" rx="1.24" ry="1.93" transform="translate(2.24 23.4) rotate(-21.02)"/><path class="cls-2" d="M64.34,5.64a17.77,17.77,0,0,0-9.82,5.67"/><path class="cls-2" d="M51.14,23.5a13.3,13.3,0,0,1,.08-5.86"/><path class="cls-3" d="M46,15.05l-1.44-.72a9.63,9.63,0,0,1,.33-1.56c.71.14,1.1.26,1.1.26S46,13.86,46,15.05Z"/><path class="cls-3" d="M72.86,38.39c-.39.23-4.4,2.55-6.85,3.8-7.6-2-10.17-4.46-10.17-4.46s-.51-2.46.13-11.56c2.43-1.33,4.62-2.68,7.05-4a35.62,35.62,0,0,0-2.7-2.36c1-1.14,2.12-2.55,1.86-3.05-.92-1.75-4-3.82-7.66-5.44a35.54,35.54,0,0,0-7.69-2.5A13.27,13.27,0,0,0,45,12.62l-1.4-.26a36.88,36.88,0,1,0,29.29,26ZM46,20.94C40.47,26.6,37,27.62,37,27.62s-2.4-.77-10-5.84c0-2.81-.07-5.41,0-8.21.92-.88,6.89-1.3,9.67-1.41a34.74,34.74,0,0,1,8.3.61c.71.14,1.1.26,1.1.26s0,.83,0,2C46.05,16.77,46,19.22,46,20.94Z"/><path class="cls-3" d="M46,20.94C40.47,26.6,37,27.62,37,27.62s-2.4-.77-10-5.84c0-2.81-.07-5.41,0-8.21.92-.88,6.89-1.3,9.67-1.41a34.74,34.74,0,0,1,8.3.61c.71.14,1.1.26,1.1.26s0,.83,0,2C46.05,16.77,46,19.22,46,20.94Z"/><path class="cls-3" d="M72.86,38.39c-.39.23-4.4,2.55-6.85,3.8-7.6-2-10.17-4.46-10.17-4.46s-.51-2.46.13-11.56c2.43-1.33,4.62-2.68,7.05-4a36.41,36.41,0,0,1,3.79,4.26s0,0,0,0a36,36,0,0,1,3.65,5.88l.39.78A37.08,37.08,0,0,1,72.86,38.39Z"/><path d="M13.43,48.56l4.07-2.73.2-1.95L17.65,43l.18-.28.49,0,1.22-1.07.13-.54,1-.07,1.17.64.41-.36.51.13.23.4.23-.25.41.1.9,1.69,1.2.33,0,.36-.43.23v.31l.23.33L25,45.7l-.16,1.15-.28.15.21.85.51.53-.08.36,1.18.9.71.2,1.36,1.38-.26.85.44.38L29,54.34l-.25.56-.69-.58-.92-.11L26,55.83l-3.32-.36-1.56-.85V53.7l-.54-.2L20.26,53l-4.47-2L14,50.71Z"/><path d="M25.88,36.84l.37.06.07-.57,1.27,1.18.64.29.85,0,2.19-1.5.39.1-.21,1.06.16.36,1,.47.21,1.42.83.67.51-.18.31.07.34.6,1,.59,1.06.15.41.18,1.83-.56.88.13.51-.49-.23-.7.7-.34.54-.92.67-.16.36-.26h.67l.18-.41,1.44.59,1.06.49.62.16h1l.51.23.34.75.92.33,1.42.88.72,1.06-.59.54.18,1.08-.57.41,0,1.68.39.34v.82l.52.62.18,1.7,1.11.26.25.41L52,51.85l0,.72.26.49.62.31.41.93,1.55.8.41,0,.15,1.86.26.13.52-.31.15.57-.28.39-1.09.15-.54.52-.51,2.16-.57.13-1.16-.49-1.37.21-1.13,0-.7-.33-.85.26a1,1,0,0,0-.62-.52,1,1,0,0,0-.62,0l-.33-.82,0-.7-.82-.77-.93,0-2,1.39-.74,0-.34-.44-.93.23-.41-.46-1-.31-.49-.57L37.33,57l-.9-1.83L35,53l-.67,0-1.11-.29-.74.52L32,51.49l-.29-.28.08-.78-.26-.56L30.4,48.71l-.47,0-1-.77-.36-.85-.36-.24L28,46l.25-.21,0-1,.85-.77-.44-.41.65-.83-1-.1-1-1.34-.1-.57-.54-1.42-.31-.31.2-.46-.28-.75Z"/><path d="M46,20.94C40.47,26.6,37,27.62,37,27.62s-2.4-.77-10-5.84c0-2.81-.07-5.41,0-8.21.92-.88,6.89-1.3,9.67-1.41a34.74,34.74,0,0,1,8.3.61c.71.14,1.1.26,1.1.26s0,.83,0,2C46.05,16.77,46,19.22,46,20.94Z"/><path d="M19.19,38s-2,1.6-10.6,5.21c-2.35-1.62-4.6-3-6.95-4.61-.22-1.27,2.78-6.55,4.25-9a33,33,0,0,1,6-7.45s4.27,2.76,6.65,4.5C20.27,34.49,19.19,38,19.19,38Z"/><path d="M18.66,58.4s.46,2.47-.41,11.56c-2.48,1.27-4.71,2.59-7.19,3.86-1.2-.39-4.37-5.43-5.79-7.82a32.47,32.47,0,0,1-3.64-8.66s4.37-2.4,7-3.65C16.16,55.86,18.66,58.4,18.66,58.4Z"/><path d="M36.36,70.18s2.38.83,9.89,6.11c-.13,2.81-.09,5.41-.22,8.21-.94.85-6.92,1.11-9.71,1.15A32.54,32.54,0,0,1,27,84.52s.08-5,.28-7.9C32.89,71.1,36.36,70.18,36.36,70.18Z"/><path d="M55.68,59.16s1.85-1.7,10-5.79c2.39,1.43,4.69,2.62,7.08,4,.31,1.23-2.28,6.59-3.55,9.06a32.1,32.1,0,0,1-5.4,7.67s-4.35-2.42-6.79-4C54.85,62.63,55.68,59.16,55.68,59.16Z"/><path d="M72.89,38.37l0,0c-.39.23-4.4,2.55-6.85,3.8-7.6-2-10.17-4.46-10.17-4.46s-.51-2.46.13-11.56c2.43-1.33,4.62-2.68,7.05-4l0,0c.75.23,2.31,2.24,3.74,4.29,0,0,0,0,0,0,.86,1.24,1.67,2.49,2.22,3.37s1,1.71,1.43,2.51l.39.78A29.26,29.26,0,0,1,72.89,38.37Z"/></g></g></svg>