<svg width="484" height="630" viewBox="0 0 484 630" fill="none" xmlns="http://www.w3.org/2000/svg">
<g id="Frame" clip-path="url(#clip0_0:1)">
<g id="body">
<path id="Vector" d="M162.6 355.5C164 359.1 165.3 362.7 165.6 366.5C165.9 370.3 165 374.4 162.3 377.1" stroke="black" stroke-width="2" stroke-miterlimit="10" stroke-linecap="round"/>
<path id="Vector_2" d="M244.5 335C244.6 341.1 243.8 347.2 244.3 353.2C244.8 359.2 245.4 364.2 250.1 368.1" stroke="black" stroke-width="2" stroke-miterlimit="10" stroke-linecap="round"/>
<path id="Vector_3" d="M466.2 569.1C468.9 575.5 470.8 582.3 471.8 589.2C472.7 595.9 472.8 602.6 472.6 609.4" stroke="black" stroke-width="2" stroke-miterlimit="10" stroke-linecap="round"/>
<path id="Vector_4" d="M410.4 579.3C409.5 589.3 409.5 599.4 410.3 609.4" stroke="black" stroke-width="2" stroke-miterlimit="10" stroke-linecap="round"/>
<path id="Vector_5" d="M1 628.8C4.3 612.1 9.5 595.8 16.5 580.4" stroke="black" stroke-width="2" stroke-miterlimit="10" stroke-linecap="round"/>
<path id="Vector_6" d="M66.5 594.6C63.8 604.8 60.1 614.7 55.5 624.1" stroke="black" stroke-width="2" stroke-miterlimit="10" stroke-linecap="round"/>
<path id="Vector_7" d="M367.7 612.5C370.6 592.4 369.5 571.8 364.6 552.2C371.2 554.7 376.7 559.7 379.9 566C382.7 571.6 384.3 578.8 390.1 581.1C393.2 582.3 396.6 581.7 399.9 581C427.6 575.4 455.2 568.9 482.6 561.7L482.7 562C468.1 503.3 440.7 446.7 397.1 404.8C391.3 399.2 385.2 393.9 378.6 389.2C365.1 379.6 349.8 372.8 333.8 368.5C306.9 361.3 278.1 361.3 251.2 368.6C251.2 368.6 221.8 383.7 207.1 385.7C192.3 387.7 176.6 385.6 164.1 377.6C164.1 377.6 127.5 375.5 112.6 385.4C107 389.1 102.1 393.8 96.8 397.9C90.3 403 83.3 407.2 77 412.5C64.7 422.9 56 437 48.3 451.1C28.2 488 13 527.5 3.30001 568.4C2.70001 570.9 2.20001 573.8 3.80001 575.8C4.90001 577.2 6.80001 577.7 8.60001 578.2C25 582.5 41.5 586.8 57.9 591C67.1 593.4 78.3 595.3 84.9 588.4C86.8 586.4 88.1 583.9 89.3 581.4C95 569.7 100.8 558 106.5 546.3C108.8 572 95 598.4 102.7 623.1" stroke="black" stroke-width="2" stroke-miterlimit="10" stroke-linecap="round" stroke-linejoin="round"/>
</g>
<g id="Head">
<path id="Vector_8" d="M294.6 170C294.5 168.4 293.5 160.7 293.1 158C293.1 157.9 293.1 157.8 293.1 157.8C293.1 157.7 293.1 157.6 293.1 157.6C291.1 144.4 288.2 131.7 284.5 119.7C282 111.9 274.5 106 267.7 101.4C266.7 100.7 265.5 100 265.1 98.8C264.7 97.7 264.9 96.4 265.1 95.3C266.2 86 264 78.8 257.3 72.3C254.5 69.6 249.4 67.5 246.4 65.1C245.3 64.2 227.5 62.6 224.6 63.1C214.8 64.9 208.3 69.6 199.3 73.9C193.8 76.5 187.9 78.3 181.8 79.2C177.2 79.9 172.3 80 168.1 77.8C163.4 75.4 160.4 70.6 155.9 67.8C151.5 65 146.1 64.4 141 65.3C135.9 66.1 131.1 68.3 126.6 70.9C124.7 72 122.8 73.1 121.5 74.9C118.7 78.5 119.3 82.7 119.7 87.2C119.4 87.9 119 88.5 118.6 89.1C115.6 93.7 107.5 95.8 102.9 100.5C96.6 107 92.8 112.5 86.6 122.6C80.4 132.5 74.1 166 74.1 166C73.9 167.3 73.7 168.6 73.5 169.9C73.6 170.1 73.5 170.5 73.4 170.6C73.4 170.7 73.4 170.8 73.4 170.9C72 180.4 70.2 191.2 70.2 200.5C70.2 244.5 78.7 271.6 97.4 302C110.9 323.7 129.3 337.8 148.8 347.3C160.5 353 169.7 361.9 182.7 361.9C202.4 361.9 216.9 354.3 233.2 342.1C244.3 333.9 263.6 317.9 272.7 305.3C289.9 281.5 294.4 256.7 295.5 224.4C295.8 215.9 295.9 206.8 295.9 197.1C295.9 188 295.5 178.9 294.6 170ZM129.5 177.2C123.8 178.7 117.9 178.5 112.1 177.8C106.8 177.2 101.6 176.3 96.7 174C94.5 173 92.4 171.7 90.6 170.1C88.9 168.6 86.8 166.6 86 164.4C85.2 162.3 87.6 160.2 88.9 158.9C90.6 157.1 92.6 155.6 94.7 154.2C97.1 152.7 102.1 149.4 104.7 148.5C111.3 146.3 113.4 146 120.4 146C123.9 146 129.9 147.9 133.3 148.5C141.5 149.9 149.2 154.1 154.9 160.2C147.5 167.3 139.5 174.6 129.5 177.2ZM228.5 292.3C226.7 295 223.2 295.7 220.1 296.1C216.3 296.7 212.4 297.2 208.6 297.8C199.6 299.1 190.5 300.5 181.4 300.6C178.2 300.6 175 300.5 172 299.5C169.3 298.6 167 297 164.6 295.5C162.1 293.8 159.6 292.2 157 290.5C157 290.5 166.8 283.7 172.9 281.8C175.1 281.1 177.4 280.3 179.7 279.6C182.2 278.8 184.7 278 187.2 277.4C194.7 275.5 202.8 275.3 210.2 277.5C217.7 279.7 224.5 284.3 228.7 290.9L228.5 292.3ZM248.7 171.6C243 173.1 237.1 172.9 231.3 172.2C226 171.6 220.8 170.7 216 168.4C213.8 167.4 211.7 166.1 209.9 164.5C208.2 163 206.1 161 205.3 158.8C204.5 156.7 206.9 154.6 208.2 153.3C209.9 151.5 211.9 150 214 148.6C216.4 147.1 219 145.9 221.6 145C228.2 142.8 235.2 142.1 242.1 142.1C245.6 142.1 249.2 142.2 252.6 142.8C260.8 144.2 268.5 148.4 274.2 154.5C266.7 161.7 258.7 169 248.7 171.6Z" fill="#E6E6E6" stroke="black" stroke-width="2" stroke-miterlimit="10"/>
<path id="Vector_9" d="M73.6 169.9C73.6 170.1 73.5 170.4 73.5 170.6" stroke="black" stroke-width="2" stroke-miterlimit="10"/>
<path id="Vector_10" d="M293 157.6C293 157.5 293 157.5 293 157.4" stroke="black" stroke-width="2" stroke-miterlimit="10"/>
<path id="Vector_11" d="M326.7 186.3C323.5 197.5 323.2 209.3 323.8 220.9C323.9 223.5 324.1 226.2 323.4 228.8C322.2 233.1 318.4 236.6 314 237.5C309.8 238.3 305.4 236.7 302.2 234C299.2 231.5 297.1 228.1 295.6 224.5C295.9 216 296 206.9 296 197.2C296 188 295.5 179 294.7 170.1C295.6 168.5 296.7 167.1 298.1 165.9C299.8 164.4 301.8 163.2 303.9 162.4C305.2 161.9 306.5 161.6 307.8 161.5C308.4 161.4 309.1 161.4 309.8 161.4C316.1 161.5 322.2 165.2 325.8 170.4C327.1 172.2 328.1 174.2 328.4 176.4C328.8 179.8 327.6 183.1 326.7 186.3Z" stroke="black" stroke-width="2" stroke-miterlimit="10"/>
<path id="Vector_12" d="M295.6 224.5C295.5 224.2 295.3 223.8 295.2 223.5" stroke="black" stroke-width="2" stroke-miterlimit="10"/>
<path id="Vector_13" d="M294.6 170C294.5 170.1 294.5 170.2 294.4 170.3" stroke="black" stroke-width="2" stroke-miterlimit="10"/>
<path id="Vector_14" d="M72.7 171.4C70.6 168.9 68.5 166.4 65.8 164.5C63.1 162.6 59.8 161.4 56.6 161.9C52.8 162.5 49.7 165.3 47.9 168.6C46.1 171.9 45.2 175.7 44.4 179.4C42.7 187.1 41.1 195.2 43.1 202.8C44.3 207.3 46.7 211.4 49.3 215.3C51.2 218 53.3 220.8 53.8 224.1C54.1 225.9 53.9 227.7 54 229.5C54.2 233.1 55.6 236.6 57.9 239.4C59.6 241.5 61.9 243.2 64.6 243.5C67.3 243.8 70.2 242.2 70.9 239.7" stroke="black" stroke-width="2" stroke-miterlimit="10"/>
<path id="Vector_15" d="M166.5 179.7C170.4 190.8 167.9 202.9 166.8 214.5C166.2 221.3 166 228.2 166.1 235.1C166.1 237.9 166.2 240.8 167 243.5C167.8 246.2 169.5 248.7 172.1 250C176.1 252 180.9 250.2 185.3 249.3C189 248.5 192.9 248.3 196.7 248.7" stroke="black" stroke-width="2" stroke-miterlimit="10"/>
<path id="Vector_16" d="M274.2 154.5C266.7 161.6 258.7 168.9 248.7 171.5C243 173 237.1 172.8 231.3 172.1C226 171.5 220.8 170.6 216 168.3C213.8 167.3 211.7 166 209.9 164.4C208.2 162.9 206.1 160.9 205.3 158.7C204.5 156.6 206.9 154.5 208.2 153.2C209.9 151.4 211.9 149.9 214 148.5C216.4 147 219 145.8 221.6 144.9C228.2 142.7 235.2 142 242.1 142C245.6 142 249.2 142.1 252.6 142.7C260.8 144.3 268.5 148.5 274.2 154.5Z" stroke="black" stroke-width="2" stroke-miterlimit="10"/>
<path id="Vector_17" d="M155 160.2C147.5 167.3 139.5 174.6 129.5 177.2C123.8 178.7 117.9 178.5 112.1 177.8C106.8 177.2 101.6 176.3 96.7 174C94.5 173 92.4 171.7 90.6 170.1C88.9 168.6 86.8 166.6 86 164.4C85.2 162.3 87.6 160.2 88.9 158.9C90.6 157.1 92.6 155.6 94.7 154.2C97.1 152.7 102.1 149.4 104.7 148.5C111.3 146.3 113.4 146 120.4 146C123.9 146 129.9 147.9 133.3 148.5C141.6 149.9 149.3 154.1 155 160.2Z" stroke="black" stroke-width="2" stroke-miterlimit="10"/>
<path id="Vector_18" d="M118.1 175.2C125.445 175.2 131.4 169.245 131.4 161.9C131.4 154.555 125.445 148.6 118.1 148.6C110.755 148.6 104.8 154.555 104.8 161.9C104.8 169.245 110.755 175.2 118.1 175.2Z" fill="#666666" stroke="black" stroke-width="2" stroke-miterlimit="10"/>
<path id="Vector_19" d="M239.6 170.7C246.945 170.7 252.9 164.745 252.9 157.4C252.9 150.055 246.945 144.1 239.6 144.1C232.255 144.1 226.3 150.055 226.3 157.4C226.3 164.745 232.255 170.7 239.6 170.7Z" fill="#666666" stroke="black" stroke-width="2" stroke-miterlimit="10"/>
<path id="Vector_20" d="M218.1 112.3C224.2 108.1 232.2 107.1 239.5 108.4C241.5 108.8 243.6 109.3 245.4 110.2C246.8 110.9 248.2 111.8 249.5 112.6C253.3 115.1 257.1 117.6 260.2 120.9" stroke="black" stroke-width="2" stroke-miterlimit="10" stroke-linecap="round"/>
<path id="Vector_21" d="M96.8 127.1C103.9 120.6 112.1 114.9 121.3 112.2C130.5 109.5 141.2 110.4 149 116.1" stroke="black" stroke-width="2" stroke-miterlimit="10" stroke-linecap="round"/>
<path id="Vector_22" d="M228.6 290.9L228.4 292.3C226.6 295 223.1 295.7 220 296.1C216.2 296.7 212.3 297.2 208.5 297.8C199.5 299.1 190.4 300.5 181.3 300.6C178.1 300.6 174.9 300.5 171.9 299.5C169.2 298.6 166.9 297 164.5 295.5C162 293.8 159.5 292.2 156.9 290.5C156.9 290.5 166.7 283.7 172.8 281.8C175 281.1 177.3 280.3 179.6 279.6C182.1 278.8 184.6 278 187.1 277.4C194.6 275.5 202.7 275.3 210.1 277.5C217.6 279.6 224.5 284.3 228.6 290.9Z" fill="black" stroke="black" stroke-width="2" stroke-miterlimit="10" stroke-linecap="round" stroke-linejoin="round"/>
<path id="Vector_23" d="M309.9 158C309.9 157.6 309.9 157.3 309.9 156.9C309.4 139.4 310.7 121.9 309.8 104.4C308.9 86.6 305.8 68.4 297 52.9C289.1 39 277 27.8 263.8 18.8C252.2 10.9 239.2 4.40001 225.2 3.20001C220 2.70001 214.7 3.10001 209.5 2.80001C204 2.50001 198.6 1.50001 193.1 1.20001C178.6 0.300014 164.3 3.80001 150.5 8.20001C137.9 12.1 125.4 16.9 114.3 24C104.7 30.2 96.4 38.1 88.5 46.3C83.3 51.7 78.2 57.3 74.6 63.9C70 72.2 68 81.7 66.8 91.1C63.8 114.5 65.1 138.4 70.6 161.3C71.1 163.6 71.7 165.8 72.4 168.1" stroke="black" stroke-width="2" stroke-miterlimit="10"/>
<path id="Vector_24" d="M309.6 162.1C309.6 161.9 309.6 161.6 309.6 161.4C309.6 161.2 309.6 160.9 309.7 160.7C309.8 159.5 309.8 158.2 309.8 156.9C309.8 155.2 309.8 153.5 309.7 151.9" stroke="black" stroke-width="2" stroke-miterlimit="10"/>
<path id="Vector_25" d="M309.8 156.9C309.8 158.1 309.7 159.4 309.7 160.7C307.8 160.9 305.8 161 304.2 162C304 162.1 303.9 162.2 303.8 162.3C302.7 163.1 301.8 164.3 300.6 165C299.8 165.5 298.9 165.7 298 165.8C296.7 165.9 295.3 165.5 294 164.8C293.7 162.5 293.4 160.3 293.1 158C293.1 157.9 293.1 157.8 293.1 157.8C293.1 157.7 293.1 157.6 293.1 157.6C291.1 144.4 288.2 131.7 284.5 119.7C282 111.9 274.5 106 267.7 101.4C266.7 100.7 265.5 100 265.1 98.8C264.7 97.7 264.9 96.4 265.1 95.3C266.2 86 264 78.8 257.3 72.3C254.5 69.6 249.4 67.5 246.4 65.1C245.3 64.2 227.5 62.6 224.6 63.1C214.8 64.9 208.3 69.6 199.3 73.9C193.8 76.5 187.9 78.3 181.8 79.2C177.2 79.9 172.3 80 168.1 77.8C163.4 75.4 160.4 70.6 155.9 67.8C151.5 65 146.1 64.4 141 65.3C135.9 66.1 131.1 68.3 126.6 70.9C124.7 72 122.8 73.1 121.5 74.9C118.7 78.5 119.3 82.7 119.7 87.2C119.4 87.9 119 88.5 118.6 89.1C115.6 93.7 107.5 95.8 102.9 100.5C96.6 107 92.8 112.5 86.6 122.6C80.4 132.5 74.1 166 74.1 166C72.9 164.5 71.8 162.9 70.6 161.4C65.1 138.5 63.8 114.6 66.8 91.2C68 81.8 70 72.2 74.6 63.9C78.2 57.3 83.3 51.7 88.5 46.3C96.4 38.1 104.7 30.2 114.3 24C125.4 16.8 137.9 12.1 150.5 8.20001C164.3 3.90001 178.7 0.300007 193.1 1.20001C198.6 1.60001 204 2.50001 209.5 2.90001C214.7 3.20001 220 2.90001 225.2 3.30001C239.2 4.50001 252.2 11 263.8 18.9C277 27.9 289 39.1 296.9 53C305.7 68.5 308.9 86.7 309.7 104.5C310.6 121.9 309.4 139.4 309.8 156.9Z" fill="#666666" stroke="black" stroke-width="2" stroke-miterlimit="10"/>
<path id="Vector_26" d="M73.5 171.2C73.4 171.1 73.4 171 73.4 170.9C73.4 170.8 73.4 170.8 73.4 170.7C73.4 170.7 73.4 170.6 73.5 170.6" stroke="black" stroke-width="2" stroke-miterlimit="10"/>
<path id="Vector_27" d="M73.6 169.9C73.1 168.3 72.6 166.6 72.2 165" stroke="black" stroke-width="2" stroke-miterlimit="10"/>
</g>
</g>
<defs>
<clipPath id="clip0_0:1">
<rect width="483.7" height="629.8" fill="white"/>
</clipPath>
</defs>
</svg>
