<svg id="Layer_1" data-name="Layer 1" xmlns="http://www.w3.org/2000/svg" viewBox="0 0 832.69 452.85"><defs><style>.cls-1{font-size:60px;font-family:MyriadPro-Regular, Myriad Pro;}.cls-2{letter-spacing:0em;}.cls-3{letter-spacing:0em;}.cls-4{letter-spacing:0.01em;}.cls-5{letter-spacing:0em;}.cls-6{letter-spacing:-0.01em;}.cls-7{letter-spacing:-0.01em;}.cls-8{letter-spacing:-0.01em;}.cls-9{letter-spacing:0em;}.cls-10{letter-spacing:0em;}.cls-11{letter-spacing:0.02em;}.cls-12{letter-spacing:-0.04em;}.cls-13{letter-spacing:-0.07em;}.cls-14{fill:none;stroke:#000;stroke-linecap:round;stroke-linejoin:round;stroke-width:2px;}</style></defs><text class="cls-1" transform="translate(208.01 123.19)">Last nig<tspan class="cls-2" x="194.46" y="0">h</tspan><tspan class="cls-3" x="227.52" y="0">t</tspan><tspan x="247.2" y="0">, the </tspan><tspan class="cls-4" x="368.27" y="0">I</tspan><tspan class="cls-5" x="383.21" y="0">r</tspan><tspan x="402.53" y="0">aqi </tspan><tspan class="cls-6" x="0" y="72">f</tspan><tspan x="16.74" y="72">o</tspan><tspan class="cls-7" x="49.68" y="72">r</tspan><tspan class="cls-8" x="68.7" y="72">c</tspan><tspan x="95.22" y="72">es </tspan><tspan class="cls-9" x="161.76" y="72">a</tspan><tspan x="190.44" y="72">ttacked the </tspan><tspan x="0" y="144">ai</tspan><tspan class="cls-10" x="42.96" y="144">r</tspan><tspan x="62.82" y="144">po</tspan><tspan class="cls-11" x="129.9" y="144">r</tspan><tspan x="150.96" y="144">ts in</tspan><tspan class="cls-12" x="254.63" y="144"> </tspan><tspan class="cls-13" x="264.9" y="144">T</tspan><tspan x="290.45" y="144">eh</tspan><tspan class="cls-5" x="353.81" y="144">r</tspan><tspan x="373.13" y="144">an....</tspan></text><g id="speach_bubble" data-name="speach bubble"><path id="Path_375" data-name="Path 375" class="cls-14" d="M355.44,964.72a5,5,0,0,0-5-3.86c-32.61-26.13-51.28-56.51-51.28-88.9,0-97.84,170.09-177.13,379.91-177.13S1059,774.14,1059,872s-170.1,177.1-379.92,177.1a765.36,765.36,0,0,1-149.49-14.25c-65.12,39-144.86,110.87-301.28,110.87C290.06,1145.68,364.79,991.3,355.44,964.72Z" transform="translate(-227.34 -693.83)"/></g></svg>