<svg xmlns="http://www.w3.org/2000/svg" viewBox="0 0 1027.78 3543.73"><defs><style>.cls-1{opacity:0.8;}.cls-2{fill:#202020;}</style></defs><g id="Layer_2" data-name="Layer 2"><g id="Layer_1-2" data-name="Layer 1"><g class="cls-1"><path class="cls-2" d="M351.18,47a78.91,78.91,0,0,1,16-25A74.12,74.12,0,0,1,391.22,5.15l.84-.39.87-.31,1.74-.63c1.16-.4,2.3-.86,3.49-1.2l3.57-.92,1.79-.45L405.34,1,409,.39c1.22-.18,2.46-.22,3.68-.33a62.42,62.42,0,0,1,7.37.1,66.2,66.2,0,0,1,27.62,8.51,67.9,67.9,0,0,1,21.4,19,58.56,58.56,0,0,1,7,12.56,53.82,53.82,0,0,1,3.67,13.94,53,53,0,0,1-.26,14.41,57.83,57.83,0,0,1-4,13.71A63.1,63.1,0,0,1,459,105a55.21,55.21,0,0,1-25.11,12.65,47.41,47.41,0,0,1-14.27.72,46.74,46.74,0,0,1-13.78-3.66A45,45,0,0,1,393.77,107,36.63,36.63,0,0,1,385,95.44c-.26-.56-.55-1.11-.77-1.68L383.64,92a24.31,24.31,0,0,1-1-3.58,24.87,24.87,0,0,1-.55-7.56,30.67,30.67,0,0,1,4.81-14,31.89,31.89,0,0,1,10.52-10.27,24.36,24.36,0,0,1,14.77-3.53,23.14,23.14,0,0,1,7.47,2.12A25,25,0,0,1,426,59.48,31,31,0,0,1,433.88,72a56.68,56.68,0,0,1,2.84,13.75,102.59,102.59,0,0,1,.21,13.68c-.11,2.26-.29,4.51-.51,6.75l-.62,6.57q-.63,6.56-1.25,13.12c-4.9,54.39-7.16,107.67-7.12,160.45q0,39.6,1.82,78.89l1,19.67,1.23,19.65q.74,9.83,1.46,19.66c.49,6.61.94,13.23,1.2,19.85,1.18,26.51.6,53.09-.36,79.77q-.39,10-.79,20c-.26,6.67-.59,13.45-1,20.17-.86,13.48-2.1,27-3.3,40.48s-2.38,27.1-3.13,40.76-1,27.41-.52,41.22c1.05,27.66,4.91,55.84,4.57,85a206.13,206.13,0,0,1-4.6,42.71,147.78,147.78,0,0,1-6.14,20.46,144.2,144.2,0,0,1-9.18,19.17,73.18,73.18,0,0,1-13,17.09c-.68.62-1.37,1.22-2.09,1.81s-1.51,1.17-2.31,1.69a27.64,27.64,0,0,1-5.1,2.63,24.86,24.86,0,0,1-11.42,1.62,21.36,21.36,0,0,1-10.83-4.39,23.68,23.68,0,0,1-7-9.16,36.88,36.88,0,0,1-2.81-10.67,70.6,70.6,0,0,1-.39-10.64,38.25,38.25,0,0,1,1.59-10.87,20.88,20.88,0,0,1,2.62-5.32,16.8,16.8,0,0,1,4.45-4.24,15.35,15.35,0,0,1,5.77-2.23,16.24,16.24,0,0,1,6.14.21,19,19,0,0,1,2.89.9,20.18,20.18,0,0,1,2.65,1.39,21.6,21.6,0,0,1,4.5,3.71,32.63,32.63,0,0,1,5.91,9.4,48.11,48.11,0,0,1,1.86,5.06c.28.84.55,1.7.76,2.57l.66,2.59a69,69,0,0,1,1.41,10.6,74,74,0,0,1-.33,10.64,86.54,86.54,0,0,1-4.9,20.57,97.41,97.41,0,0,1-4.11,9.69l-2.29,4.71-2.48,4.6c-.42.77-.82,1.55-1.26,2.3l-1.34,2.26c-.9,1.49-1.76,3-2.69,4.49-1.9,2.93-3.77,5.89-5.81,8.73s-4.11,5.67-6.2,8.48c-1.07,1.39-2.18,2.75-3.27,4.12l-1.64,2.06-1.7,2a362.7,362.7,0,0,1-29.43,30.71c-10.39,9.74-21.17,19.12-32.09,28.42-21.85,18.63-44.44,36.79-66.83,55.59s-44.55,38.29-65.4,59.47l-7.72,8c-1.3,1.34-2.55,2.71-3.8,4.09l-3.75,4.15c-5.08,5.45-9.81,11.24-14.68,16.92q-3.53,4.38-7,8.78c-1.17,1.47-2.36,2.92-3.5,4.41l-3.38,4.51c-2.24,3-4.56,6-6.73,9.06l-6.51,9.25A549.78,549.78,0,0,0,12.58,1538c.14,1.7.3,3.6.47,5.67s.33,4.33.63,6.7.56,4.89.86,7.5.55,5.34,1,8.11.82,5.62,1.24,8.5l.63,4.34c.24,1.45.51,2.9.77,4.35.52,2.91,1,5.81,1.55,8.68l.76,4.31c.24,1.42.48,2.83.72,4.22,3.78,22.25,6.87,40.19,6.5,36.39,5,30.42,9.83,60.78,13.7,91.19,1.93,15.2,3.63,30.41,5,45.64l1,11.39c.33,3.76.78,7.52,1.25,11.28.95,7.54,2,15.09,2.81,22.7a212,212,0,0,1,1.35,23A98.58,98.58,0,0,1,50.26,1865,53.28,53.28,0,0,1,40,1886.17a27.72,27.72,0,0,1-9.72,7.34,21.92,21.92,0,0,1-12.2,1.9,18.59,18.59,0,0,1-11-5.87,25.3,25.3,0,0,1-5.86-10.71A38.79,38.79,0,0,1,0,1867a63.05,63.05,0,0,1,1.54-11.59,44.48,44.48,0,0,1,4.11-11.08,35.46,35.46,0,0,1,3.35-5,30.44,30.44,0,0,1,4.31-4.26,31.3,31.3,0,0,1,10.5-5.82,17.66,17.66,0,0,1,6.29-.7,16.07,16.07,0,0,1,6.13,1.81,25.23,25.23,0,0,1,8.77,8.39,55.7,55.7,0,0,1,5.37,10.36,119.44,119.44,0,0,1,6.23,22,159.51,159.51,0,0,1,2.74,22.61c.44,7.52.73,15,1,22.53s.58,15,1,22.43,1.1,14.9,1.78,22.35c1.39,14.89,3.13,29.73,5.31,44.49a624.09,624.09,0,0,0,18.94,87.3,460.64,460.64,0,0,0,33.17,82.59c5.81,11,12.12,21.86,19,32.39l5.25,7.85c.85,1.32,1.77,2.61,2.7,3.88l2.77,3.83,2.77,3.84,1.39,1.93L156,2231l5.82,7.49,1.46,1.87,1.52,1.83,3,3.65,3.05,3.65c1,1.22,2,2.43,3.1,3.6,4.24,4.73,8.42,9.52,12.88,14.06,8.71,9.26,18,18,27.46,26.54a563.73,563.73,0,0,0,60.47,46.58c10.5,7.14,21.28,13.8,32.07,20.33l8.16,4.78,4.08,2.38,4.11,2.32,8.21,4.61,8.27,4.46c35.86,19.24,72.76,36.14,109.93,52,18.6,7.92,37.27,15.57,56,23.11s37.4,15,56,22.62c37.2,15.25,74.09,31.11,110.06,48.75s71,37.08,104.09,59.54c9.25,6.14,23.55,16.35,37,27,3.35,2.67,6.7,5.28,9.82,8s6.23,5.17,9,7.66l7.73,6.92c1.19,1,2.27,2.05,3.26,3l2.77,2.65A434.37,434.37,0,0,1,899.1,2702c7.85,11,15.1,22.43,21.85,34s12.79,23.57,18.53,35.6,10.91,24.27,15.89,36.54,9.52,24.65,14,37,8.62,24.81,12.77,37.22q3.07,9.32,6.16,18.61c2.1,6.17,3.85,12.49,6.63,18.12a29.79,29.79,0,0,0,5.21,7.6,18.75,18.75,0,0,0,3.44,2.84,15.76,15.76,0,0,0,4,1.71,17.93,17.93,0,0,0,4.37.56,15.39,15.39,0,0,0,4.29-.68,10.25,10.25,0,0,0,3.64-2,8.39,8.39,0,0,0,1.37-1.49l1.23-1.94.68-1.08a3.52,3.52,0,0,0,.35-.7,2.88,2.88,0,0,0,.07-1.52,6.2,6.2,0,0,0-2-3.14,9.38,9.38,0,0,0-7.45-2.54,5.07,5.07,0,0,0-1.73.59,11.9,11.9,0,0,0-1.6,1.2,12.89,12.89,0,0,0-2.53,3.39,17.3,17.3,0,0,0-1.5,4.14,28,28,0,0,0-.69,4.53,67.89,67.89,0,0,0,0,9.46l.47,9.69q.45,9.7.9,19.38.88,19.38,1.42,38.77t.44,38.79q-.08,19.41-1.15,38.82a567.93,567.93,0,0,1-9.29,77.31,669.84,669.84,0,0,1-30.25,108.73c-6.22,16.79-13,33.24-20.72,49.76a464.07,464.07,0,0,1-26.51,49.85c-1.68,3.14-5.25,8.56-9.83,15.58-2.38,3.45-5.11,7.24-8,11.33s-6.28,8.26-9.66,12.69l-9.14,10.94-6.22,6.86-3.43,3.78-3.81,3.87a307.79,307.79,0,0,1-39.83,34.67l-6.24,4.34-3.18,2.21-1.6,1.11-1.66,1-6.74,4.2c-1.14.71-2.28,1.41-3.42,2.13s-2.36,1.32-3.55,2c-4.77,2.6-9.55,5.41-14.66,7.74l-7.62,3.68q-3.87,1.77-7.94,3.35a74.63,74.63,0,0,1-17.13,4.64,48.14,48.14,0,0,1-9.15.34,36.42,36.42,0,0,1-9.18-1.74,32.78,32.78,0,0,1-15.54-10.46,24.6,24.6,0,0,1-4.44-8.61,20.37,20.37,0,0,1-.23-9.87,24.3,24.3,0,0,1,4-8.8,28.6,28.6,0,0,1,6.72-6.68,30.31,30.31,0,0,1,4.07-2.42,28.18,28.18,0,0,1,4.46-1.68,21.45,21.45,0,0,1,11.92,0,20.68,20.68,0,0,1,2.27.85,19.08,19.08,0,0,1,4.15,2.46,21.2,21.2,0,0,1,3.41,3.35,22.72,22.72,0,0,1,2.52,4,27.58,27.58,0,0,1,2.1,17.68,26.11,26.11,0,0,1-3.17,8.26,21.24,21.24,0,0,1-6,6.5,19.31,19.31,0,0,1-3.89,2.11,14.36,14.36,0,0,1-4.48,1,18.42,18.42,0,0,1-8.5-1.6,17.49,17.49,0,0,1-6.77-5.14,11.52,11.52,0,0,1-2-4,8.9,8.9,0,0,1,0-4.72,10.15,10.15,0,0,1,2.22-3.95,8.88,8.88,0,0,1,3.83-2.5,12,12,0,0,1,8.21.56,17,17,0,0,1,6.15,4.36,14.6,14.6,0,0,1,3.49,6.54l.17.93.09.94c0,.59,0,1.16,0,1.73a20.7,20.7,0,0,1-.39,3.36,25.73,25.73,0,0,1-2,6,50.27,50.27,0,0,1-6.23,9.47c-2.18,2.74-4.35,5.14-6.12,7.43-3.58,4.59-5.88,9-6.72,12.57a14.64,14.64,0,0,0,.12,7.89c.16.47,0,.22-.13-.45a9.89,9.89,0,0,1-.33-1.44c0-.31-.1-.65-.15-1s0-.8-.05-1.24a18.15,18.15,0,0,1,1.43-6.86,38.93,38.93,0,0,1,5.28-9c2.4-3.22,5.65-6.66,8.73-10.94a40.89,40.89,0,0,0,4.26-7.22,22.44,22.44,0,0,0,2-9.13,12.33,12.33,0,0,0-.21-2.59,12,12,0,0,0-.79-2.57,14.89,14.89,0,0,0-2.95-4.45,16.88,16.88,0,0,0-4.31-3.29,13.91,13.91,0,0,0-5.46-1.68,9.32,9.32,0,0,0-6.06,1.46,8.72,8.72,0,0,0-2.32,2.29,9.69,9.69,0,0,0-1.41,2.95,8.93,8.93,0,0,0,.79,6.54,14.18,14.18,0,0,0,4.19,4.73,18.53,18.53,0,0,0,11.95,3.59,13.66,13.66,0,0,0,3.3-.64,11.36,11.36,0,0,0,1.55-.61,11.82,11.82,0,0,0,1.47-.73,19.8,19.8,0,0,0,5.14-4.12,24.47,24.47,0,0,0,5.62-11.92,27.79,27.79,0,0,0-.83-13.49,21.07,21.07,0,0,0-8.38-11.3,18.82,18.82,0,0,0-6.8-2.75,21.22,21.22,0,0,0-7.37-.05,26.46,26.46,0,0,0-13.09,6.46,25.54,25.54,0,0,0-7.91,12.64,19.9,19.9,0,0,0-.36,7.77,22.18,22.18,0,0,0,2.61,7.32,28.26,28.26,0,0,0,11,10.66,36,36,0,0,0,14.72,4.46,51.19,51.19,0,0,0,15.31-1.36,92.59,92.59,0,0,0,14.5-4.89c4.71-1.93,9.2-4.29,13.8-6.48l3.43-1.67,3.35-1.85,6.69-3.71c1.11-.64,2.26-1.2,3.33-1.9l3.25-2,6.5-4.06,1.63-1,1.57-1.09,3.14-2.19,6.28-4.39c4.1-3,8.1-6.21,12.13-9.31,3.86-3.31,7.78-6.55,11.57-9.9l5.55-5.17,2.76-2.58,1.39-1.28,1.32-1.35a359.87,359.87,0,0,0,38.33-44.72A412.11,412.11,0,0,0,933,3349.34c8.22-15.4,15.13-30.31,21.16-44.19s11-26.75,15.17-38.17c2-5.73,4-11.05,5.56-16,.83-2.48,1.61-4.84,2.36-7.09l2-6.46c.63-2,1.23-4,1.78-5.74l1.47-5c.89-3.1,1.64-5.69,2.23-7.73,1.1-4.08,1.59-5.94,1.38-5.25-.25.91-.93,3.33-2,7.08l-1.94,6.57c-.72,2.51-1.56,5.33-2.55,8.4-3.82,12.35-9.42,29.13-17.12,48.58A644,644,0,0,1,933,3348.7c-1.51,2.86-3.16,5.67-4.75,8.54l-2.43,4.31c-.81,1.44-1.71,2.84-2.56,4.27l-5.22,8.58-5.58,8.48c-.94,1.41-1.85,2.85-2.82,4.25s-2,2.78-3,4.18l-3,4.19c-1,1.4-2,2.82-3.05,4.17l-6.32,8.21-1.59,2-1.67,2-3.33,4-3.34,4c-1.09,1.35-2.31,2.59-3.46,3.89l-7,7.72c-4.9,4.91-9.62,10-14.76,14.59l-3.77,3.51-1.89,1.76-2,1.66-7.79,6.63c-1.27,1.13-2.65,2.12-4,3.16l-4,3.1-4,3.07c-1.33,1-2.73,1.93-4.08,2.89l-8.13,5.66-8.28,5.18c-1.38.85-2.73,1.72-4.1,2.54l-4.18,2.32-8.25,4.55q-4.2,2-8.3,4l-4.08,2c-1.36.64-2.73,1.23-4.1,1.82a88.82,88.82,0,0,1-16.55,5.46,46.61,46.61,0,0,1-16.51.71,35.06,35.06,0,0,1-14.3-5.61,26.63,26.63,0,0,1-9.21-10.66,20.34,20.34,0,0,1-1.82-6.35,19.08,19.08,0,0,1,.34-6.21,23.7,23.7,0,0,1,4.82-9.78,28,28,0,0,1,6.72-6,24.48,24.48,0,0,1,11.11-3.84,26.18,26.18,0,0,0-16.63,8.49,25.13,25.13,0,0,0-5,8,19.9,19.9,0,0,0-1.26,9.36,24.05,24.05,0,0,0,9.32,15.65,34.54,34.54,0,0,0,16.56,6.92,48.52,48.52,0,0,0,17.6-1.23,98.67,98.67,0,0,0,16.3-5.75c2.62-1.12,5.13-2.44,7.68-3.66l7.6-3.71,7.34-4.09c2.43-1.37,4.91-2.65,7.23-4.18A302.84,302.84,0,0,0,861,3444a350.71,350.71,0,0,0,40.62-46.31,407.74,407.74,0,0,0,31.09-49.51c2.16-4.22,4.37-8.38,6.46-12.57s4.11-8.37,6-12.57c3.9-8.36,7.61-16.68,11-25a679.91,679.91,0,0,0,32.16-96.39,602.22,602.22,0,0,0,15.77-88.6c1.39-14,2.27-27.58,2.72-40.72s.66-25.83.56-38.08c0-6.12-.15-12.14-.23-18s-.26-11.69-.47-17.37c-.34-11.36-.82-22.28-1.28-32.78s-1-20.57-1.39-30.23c-.05-4.81.26-9.66,2.17-13.93a14.38,14.38,0,0,1,4.19-5.4,7.11,7.11,0,0,1,3-1.46,8.78,8.78,0,0,1,3.35,0,12.09,12.09,0,0,1,5.87,2.86,9.54,9.54,0,0,1,2,2.52,5.72,5.72,0,0,1,.72,3.13,4.57,4.57,0,0,1-.42,1.55,11.35,11.35,0,0,1-.81,1.36c-.56.87-1.09,1.77-1.69,2.63a11.44,11.44,0,0,1-4.92,3.6,17.27,17.27,0,0,1-11.65.11,19.6,19.6,0,0,1-8.92-6.67,39.54,39.54,0,0,1-5.24-9.25c-1.34-3.18-2.39-6.37-3.41-9.46q-3.06-9.27-5.78-17.47c-7.25-21.89-12.92-38.13-17-49.39-1-2.81-1.94-5.32-2.75-7.53s-1.56-4.1-2.17-5.72c-1.23-3.23-2-5.31-2.42-6.32-.78-2,.07.25,2.32,6.24.56,1.49,1.21,3.22,1.95,5.17l2.37,6.54c1.76,4.78,3.76,10.46,6,16.92,4.5,12.94,9.9,29.09,16.06,47.85,1.58,4.67,3,9.6,5.16,14.45a39.44,39.44,0,0,0,4,7.06,23.67,23.67,0,0,0,5.92,5.89,17.54,17.54,0,0,0,8.11,2.8,17.11,17.11,0,0,0,4.4-.14,16.66,16.66,0,0,0,2.18-.48,14.46,14.46,0,0,0,2.08-.86,12.4,12.4,0,0,0,1.94-1.18,10.85,10.85,0,0,0,1.66-1.59,11.79,11.79,0,0,0,1.31-1.89c.4-.62.8-1.24,1.19-1.86a5.11,5.11,0,0,0,.5-4.66,9.18,9.18,0,0,0-2.8-3.79,11.28,11.28,0,0,0-8.92-2.68,7.48,7.48,0,0,0-2.32.82,14.16,14.16,0,0,0-2,1.46,15.24,15.24,0,0,0-2.94,3.87,19.45,19.45,0,0,0-1.69,4.57,29.4,29.4,0,0,0-.78,4.84,72.24,72.24,0,0,0,0,9.87c.64,13.22,1.29,26.88,1.85,40.9,1.13,28,1.83,57.57.88,87.91-.49,15.16-1.46,30.52-3.05,45.94s-3.85,30.91-6.74,46.33a678.73,678.73,0,0,1-58.66,175.45,413.88,413.88,0,0,1-31.36,52.84l-5,7c-.82,1.18-1.71,2.32-2.6,3.48l-2.67,3.48L894,3407c-.91,1.18-1.81,2.38-2.79,3.52q-2.88,3.48-5.84,7c-1.93,2.4-4,4.7-6.14,7s-4.21,4.72-6.42,7.05c-4.53,4.55-9,9.37-14,13.84l-3.69,3.45-1.85,1.73c-.63.58-1.29,1.12-1.94,1.67l-7.88,6.72c-1.3,1.16-2.72,2.19-4.1,3.28l-4.19,3.25-4.24,3.28-4.43,3.1-4.48,3.13c-1.5,1.05-3,2.12-4.58,3.07l-9.49,5.94c-6.55,3.7-13.19,7.57-20.29,10.85l-5.3,2.58c-1.78.84-3.6,1.63-5.44,2.4a98.15,98.15,0,0,1-11.42,4,56.34,56.34,0,0,1-12.2,2,36.5,36.5,0,0,1-12.55-1.44,32.81,32.81,0,0,1-11.42-6,24.66,24.66,0,0,1-7.73-10.62,18.76,18.76,0,0,1,.1-13.34,25.29,25.29,0,0,1,8.11-10.9,26.82,26.82,0,0,0-5.71,6.22,22.33,22.33,0,0,0-3.36,8.31,18.34,18.34,0,0,0,.81,9.37,23.39,23.39,0,0,0,5.09,8.33,30.36,30.36,0,0,0,8.07,6,33.75,33.75,0,0,0,9.81,3.33c7,1.23,14.25.33,21.23-1.63a95.62,95.62,0,0,0,10.35-3.64c1.7-.71,3.39-1.44,5.08-2.21s3.33-1.62,5-2.42l5-2.47c1.67-.83,3.38-1.6,5-2.55l9.84-5.5a308.49,308.49,0,0,0,36.78-25.81,345.41,345.41,0,0,0,31.14-29.41c4.55-5.09,9.07-9.94,13.06-14.93l3-3.65c1-1.21,2-2.39,2.9-3.62l5.45-7.12a392.65,392.65,0,0,0,28.36-43.55l4.25-7.57q1.95-3.79,3.84-7.44c2.57-4.85,4.84-9.62,7.06-14.21s4.21-9.09,6.22-13.39,3.73-8.54,5.51-12.59c6.91-16.26,12.25-30.48,16.67-43.31,1.15-3.2,2.15-6.34,3.17-9.38s2-6,2.88-8.93,1.79-5.76,2.65-8.55,1.62-5.56,2.4-8.27c.4-1.35.78-2.69,1.17-4s.72-2.68,1.08-4c.72-2.66,1.43-5.28,2.13-7.89s1.31-5.23,2-7.84,1.32-5.21,1.9-7.84a615.63,615.63,0,0,0,12.81-73.31c3.37-30.27,5-68.85,3.19-122.64-.34-11-.81-22.56-1.34-34.51q-.42-9-.84-18.23c-.13-3.09-.35-6.22-.26-9.42a41.27,41.27,0,0,1,.35-4.82,25.32,25.32,0,0,1,1-4.82,17.38,17.38,0,0,1,2.15-4.58,15.23,15.23,0,0,1,3.57-3.73,8.51,8.51,0,0,1,5.19-1.52,12,12,0,0,1,5.12,1.38,12.4,12.4,0,0,1,4.13,3.37,6.93,6.93,0,0,1,1.57,5.4,5.52,5.52,0,0,1-.47,1.44,6.84,6.84,0,0,1-.37.65l-.32.52-1.34,2.11a11.77,11.77,0,0,1-3.93,3.76,16.83,16.83,0,0,1-10.42,1.86,18,18,0,0,1-9.74-4.32,29.62,29.62,0,0,1-6.5-8.4,65,65,0,0,1-4.12-9.71c-4.41-13.23-8.77-26.65-13.35-40.18s-9.35-27.15-14.4-40.76-10.48-27.15-16.31-40.54-12.07-26.62-19-39.45-14.29-25.31-22.27-37.27-16.71-23.27-25.67-34.12c-9.12-10.73-18.54-20.94-28.24-30.53-2.42-2.4-4.92-4.7-7.36-7q-1.83-1.76-3.66-3.48l-3.74-3.36-7.44-6.64q-3.78-3.21-7.53-6.36c-1.25-1.05-2.48-2.13-3.74-3.14l-3.8-3c-2.52-2-5-4-7.52-6l-7.55-5.72c-1.26-.95-2.49-1.91-3.75-2.82l-3.78-2.72-7.46-5.37-7.46-5.1c-4.9-3.43-9.87-6.56-14.67-9.72-19.35-12.49-37.82-22.93-54.39-31.86,17.3,9.16,40.07,22,65.07,38.52s52,37,77.08,61.43a436.44,436.44,0,0,1,35.71,39.06,401,401,0,0,1,30.29,43.05c18,29.56,31.47,59.92,41.9,86.78-11.31-29.27-23.24-54.65-35.8-76.78-6.36-11-12.69-21.33-19.38-30.76-1.67-2.36-3.25-4.75-4.93-7l-5-6.71-2.48-3.3c-.82-1.1-1.71-2.14-2.55-3.2l-5.06-6.26a433,433,0,0,0-41-43.25,519.17,519.17,0,0,0-42.37-34.93c-14.54-10.79-29.64-21-45.92-31s-33.76-20-53.18-30.15c-38.82-20.36-85.51-41.31-146.13-65.88-22.55-9.18-48.89-19.44-77.17-31-26.9-11.18-52.26-22-83.52-36.69-48.78-22.9-94.77-48.23-136.56-78.26l-7.75-5.72c-1.29-1-2.6-1.89-3.86-2.87l-3.8-3L232,2313l-7.4-6.08c-1.23-1-2.48-2-3.69-3l-3.61-3.13-7.21-6.28q-3.51-3.22-7-6.46l-3.5-3.23-3.41-3.33-6.8-6.66-6.58-6.86-3.28-3.43-3.18-3.54-6.34-7.06-6.1-7.26-3.05-3.63c-1-1.23-1.95-2.49-2.92-3.73l-5.83-7.47c-1.9-2.53-3.72-5.11-5.58-7.66l-2.78-3.83c-.94-1.27-1.77-2.61-2.67-3.91l-5.26-7.87c-1.75-2.63-3.36-5.35-5.05-8s-3.25-5.41-4.85-8.13c-6.32-10.93-12.2-22.13-17.49-33.62a485.41,485.41,0,0,1-26.23-71.41,624.6,624.6,0,0,1-16.27-75.3q-3-19.21-5-38.75-1-9.76-1.87-19.61c-.57-6.56-1.05-13.18-1.38-19.81.47,9.13,1,16.58,1.64,24s1.28,15,2.33,24.22c5.19,45.45,13.95,88.93,27.86,130.1s32.94,80,58.55,114.78a419.29,419.29,0,0,0,42.3,49.32,514.66,514.66,0,0,0,49.84,43.58l3.31,2.58,3.38,2.5,6.79,5c4.56,3.31,9.23,6.51,13.87,9.78s9.44,6.38,14.27,9.47,9.66,6.24,14.62,9.21q29.63,18.14,62,34.56c16.52,8.47,36.58,17.95,57.1,27s41.48,17.85,59.62,25.32c18.43,7.59,36.41,14.77,54,21.85s34.87,14.11,51.89,21.25c34,14.29,67.15,29,100.29,45.73-33-16.52-68.37-32.08-105-47.23s-74.59-29.78-112.52-45.6-75.87-32.65-112.48-51.62-71.87-40.06-104-64c-13.35-9.92-27.65-21.46-40.6-33.15l-4.8-4.37c-1.59-1.44-3.16-2.88-4.65-4.36-3-2.93-6-5.79-8.81-8.56l-8-8.21-1.87-2-1.77-1.94-3.37-3.73c24.71,27.68,53,52.09,83.2,73.7s62.44,40.51,95.57,57.61q21.69,11.19,44.64,21.81t46.78,20.74q23.83,10.17,48.36,20l49.33,19.73c33,13.26,66.27,27,98.83,41.8s64.46,30.89,94.72,48.62a630.54,630.54,0,0,1,84.49,58.71,453.15,453.15,0,0,1,67.48,69.14,422.81,422.81,0,0,1,25.65,37.25c7.69,12.51,14.36,25.15,20.43,37.54,3.09,6.16,5.84,12.36,8.62,18.41s5.28,12.08,7.66,18,4.7,11.76,6.93,17.47l3.18,8.5c1,2.81,2.08,5.58,3,8.33l3.1,8.46,4.42,12.47c.9,2.66,2.12,6.3,3.49,10.38,2.92,8.6,5.92,17.64,9,27q2.28,7,4.63,14.15a72.73,72.73,0,0,0,6,14.42,29.58,29.58,0,0,0,5.07,6.49,19.19,19.19,0,0,0,7.28,4.54,20.72,20.72,0,0,0,8.53,1,16.16,16.16,0,0,0,8.26-3.16,11.63,11.63,0,0,0,1.68-1.61c.25-.3.53-.58.75-.9l.63-1,.53-.82.46-.71.23-.36.29-.46a7.51,7.51,0,0,0,.63-1.27,7.17,7.17,0,0,0,.42-2.82,8.33,8.33,0,0,0-.63-2.61,11.38,11.38,0,0,0-2.82-3.85,14.11,14.11,0,0,0-8.15-3.61,10.25,10.25,0,0,0-4.76.68,9.08,9.08,0,0,0-2.13,1.22,14.88,14.88,0,0,0-1.65,1.42,11.56,11.56,0,0,1,1.39-1.22,8.33,8.33,0,0,1,1.7-1.11,9.87,9.87,0,0,1,4-1.05,13.44,13.44,0,0,1,7.33,1.94,12.38,12.38,0,0,1,5.21,5.69,7.42,7.42,0,0,1,.4,4.55,7.25,7.25,0,0,1-.92,2.17l-.8,1.24-.38.59-.51.81c-.17.27-.34.55-.53.82l-.63.74a10.35,10.35,0,0,1-1.38,1.35,11.77,11.77,0,0,1-1.54,1.11,16.42,16.42,0,0,1-6.92,2.31,19.86,19.86,0,0,1-13.58-3.46,29.69,29.69,0,0,1-8.6-10.45,77.86,77.86,0,0,1-4.81-12l-7.83-23.86c-10.38-31-21.3-62.41-34.67-93.31s-29.3-61.21-49.47-89.13a444.52,444.52,0,0,0-70.86-76.28q-20-17.16-41.77-32.45c-14.48-10.19-29.45-19.8-44.77-28.91a1018,1018,0,0,0-95.31-49.51c-32.67-15-66-28.87-99.39-42.35-66.92-26.74-134.1-53.31-197.22-86.43-14-7.33-30.09-16.22-46.92-26.47s-34.35-21.89-51.21-34.47a532.59,532.59,0,0,1-47.4-39.65,450.37,450.37,0,0,1-37-39.38c-3.83-4.4-7.32-9.09-10.95-13.68-1.84-2.27-3.48-4.69-5.22-7.05l-5.15-7.12-4.9-7.31c-1.64-2.44-3.29-4.87-4.81-7.38s-3.13-5-4.65-7.5l-4.44-7.64q-8.7-15.37-16.17-31.47t-13.58-32.79c-16.44-44.49-26.38-91.36-32.15-138.53q-2.16-17.7-3.61-35.47c-1-11.86-1.53-23.77-2-35.59-.23-5.92-.46-11.81-.76-17.7-.15-2.93-.32-5.89-.51-8.79s-.53-5.76-.91-8.63A157.81,157.81,0,0,0,50.1,1864a91.86,91.86,0,0,0-5.53-16.21,43.82,43.82,0,0,0-4.12-7.18A20.59,20.59,0,0,0,35,1835.2a11.08,11.08,0,0,0-6.69-1.85,16.64,16.64,0,0,0-7.13,2.23,31,31,0,0,0-3.39,2.19c-.56.39-1.09.83-1.64,1.25s-1,.84-1.46,1.31a27,27,0,0,0-4.76,6.33,44.33,44.33,0,0,0-4.67,15.76c-.68,5.58-.68,11.2.94,16.22s5,9.38,9.49,11.19,9.94,1,14.43-1.6a22.54,22.54,0,0,0,6-4.9l.63-.74.61-.82c.4-.55.83-1.09,1.21-1.65.73-1.16,1.51-2.29,2.14-3.51a49.55,49.55,0,0,0,3.09-6.79,62.58,62.58,0,0,0,2.11-7.23,84.57,84.57,0,0,0,2-15.12,193.17,193.17,0,0,0-1.49-31c-1.16-10.37-2.8-20.73-3.76-31.32s-1.82-20.86-3-31.28c-4.48-41.64-11.1-83-18-124.38l-5.18-31c-.84-5.11-1.81-10.32-2.71-15.48-.5-2.58-.86-5.19-1.24-7.79l-1.13-7.81a525.41,525.41,0,0,1-4.72-62.89,549.75,549.75,0,0,1,12.63-125.15c17.87-82,54.21-160,106.51-225.46a536.1,536.1,0,0,1,42-46.57c14.84-14.73,30.43-28.65,46.27-42.23,31.68-27.16,64.5-52.85,95.74-80.32,15.59-13.73,30.77-28,44.22-43.78a228.18,228.18,0,0,0,18.55-24.9c2.8-4.35,5.38-8.84,7.8-13.41A139.35,139.35,0,0,0,387,888.64a78.24,78.24,0,0,0,5.5-30.16A56.35,56.35,0,0,0,390,843.34c-.41-1.22-.76-2.45-1.23-3.64s-1-2.37-1.53-3.51a27.41,27.41,0,0,0-4.18-6.32,17.81,17.81,0,0,0-6-4.43,13.36,13.36,0,0,0-7.24-1,12.13,12.13,0,0,0-6.5,3.27,14.86,14.86,0,0,0-3.79,6.35,30.45,30.45,0,0,0-1.29,7.5c-.16,2.56-.19,5.15-.1,7.72a37.84,37.84,0,0,0,3.11,14.9,19.16,19.16,0,0,0,10.68,10.15,20.76,20.76,0,0,0,14.81-.77c4.68-2,8.49-5.64,11.83-9.53a83.66,83.66,0,0,0,8.72-12.74,145.54,145.54,0,0,0,6.88-13.88,134.49,134.49,0,0,0,5.21-14.58,168,168,0,0,0,5.83-30.41c2.14-20.59,1.09-41.36-.4-62-.75-10.31-1.6-20.62-2.25-30.94s-1-20.67-.89-31c.4-41.39,6.8-82.34,8.25-123.6,1.73-41.19,3.27-82.49-.16-123.59a1753.68,1753.68,0,0,1-1.58-246.11c.43-7.62,1-15.24,1.55-22.84s1.22-15.16,1.83-22.67c-.6,6.63-1.25,13.08-1.77,19.51.55-7.13,1.23-14.25,1.84-21.36s1.4-14.2,2.1-21.27a118.7,118.7,0,0,0,.65-15.89,63.32,63.32,0,0,0-2.31-15.8,36.42,36.42,0,0,0-3.1-7.45,25.78,25.78,0,0,0-5.08-6.37,22.74,22.74,0,0,0-7-4.21,19.49,19.49,0,0,0-8.11-1.24,24.42,24.42,0,0,0-14.6,6.62,30.11,30.11,0,0,0-8.54,13.53,25.3,25.3,0,0,0-1,8c0,.68.06,1.36.17,2l.14,1,.22,1,.46,2c.18.65.43,1.28.65,1.91a27.61,27.61,0,0,0,1.59,3.71,15.05,15.05,0,0,0,1,1.74c.35.57.67,1.17,1.06,1.71a37.84,37.84,0,0,0,2.49,3.15l1.34,1.49,1.45,1.37a41.54,41.54,0,0,0,13.52,8.28,43.26,43.26,0,0,0,15.54,3,45.48,45.48,0,0,0,7.91-.65,49.51,49.51,0,0,0,7.68-2,53.25,53.25,0,0,0,13.91-7.39,60.45,60.45,0,0,0,19.46-24.33A52.15,52.15,0,0,0,477,50.89c-.23-1-.43-2-.61-2.79L475.77,46c-.3-1.15-.58-1.83-.66-2.13a10.58,10.58,0,0,1,.82,2.49,49,49,0,0,1,1.88,10,51.5,51.5,0,0,1-1.09,15.27,60.57,60.57,0,0,1-18.51,31.2,55.67,55.67,0,0,1-14.07,9.28A48.74,48.74,0,0,1,431.92,116a51.54,51.54,0,0,0,13.42-4.29,56,56,0,0,0,10.37-6.54,61.34,61.34,0,0,0,6.39-5.86l1.63-1.8c.37-.42.55-.66.55-.66l-.38.5c-.26.3-.63.73-1.07,1.26-.86,1-2.11,2.38-3.39,3.67a64.42,64.42,0,0,0,11.49-14.5,58.58,58.58,0,0,0,5.89-14.12,60.69,60.69,0,0,1-18.39,29.77,56.37,56.37,0,0,1-14.9,9.6,52.38,52.38,0,0,1-8.48,2.82,49.93,49.93,0,0,1-8.88,1.21,45.78,45.78,0,0,1-25.67-6.88,39.47,39.47,0,0,1-3.68-2.61,36.8,36.8,0,0,1-3.4-3,34.88,34.88,0,0,1-5.6-7.16l-.59-1-.5-1c-.33-.69-.67-1.38-1-2.08a31.8,31.8,0,0,1-1.38-4.38c-.17-.76-.38-1.49-.49-2.26a18.39,18.39,0,0,1-.25-2.34,23.4,23.4,0,0,1,.16-4.66,28,28,0,0,1,2.69-8.82,30.61,30.61,0,0,1,12.4-13.27,23.3,23.3,0,0,1,8.88-2.9,20.28,20.28,0,0,1,9.39,1.16,23.44,23.44,0,0,1,8,4.93,26.92,26.92,0,0,1,5.48,7.47,48.59,48.59,0,0,1,4.52,17.29,103,103,0,0,1,0,17.56l-1.63,17.17c-.58,5.71-1,11.43-1.52,17.15l-.72,8.58-.62,8.58a1764.47,1764.47,0,0,0,1.43,276c-.31-5.32-.81-12.67-1.41-21.16-.33-4.24-.59-8.77-.87-13.45s-.63-9.53-.86-14.41c-1.1-19.53-1.79-39.69-2.12-52.65a1712.43,1712.43,0,0,1,4.35-177.87c.33-4.85.76-9.68,1.16-14.53s.79-9.7,1.28-14.55.93-9.7,1.4-14.56a127.25,127.25,0,0,0,.77-14.91,71.44,71.44,0,0,0-1.62-15.07,35.23,35.23,0,0,0-6.4-14.25,23.47,23.47,0,0,0-13.57-8.54,22.48,22.48,0,0,0-15.82,2.85A31,31,0,0,0,387.2,68.74a28.18,28.18,0,0,0-4,15.41,31.57,31.57,0,0,0,5.18,15,39.14,39.14,0,0,0,11.19,10.91,45.67,45.67,0,0,0,29.72,7.21,52.78,52.78,0,0,0,27.94-12.18,62,62,0,0,0,17.9-24.52,57.2,57.2,0,0,0,3.73-14.88,51.38,51.38,0,0,0-.72-15.36,58.18,58.18,0,0,0-13.71-27A67.9,67.9,0,0,0,459.13,18a70.75,70.75,0,0,0-5.91-4.73,68,68,0,0,0-13.17-7.36,62,62,0,0,0-29.56-4.83,66.07,66.07,0,0,0-28.18,9.6,76.73,76.73,0,0,0-21.46,20.17,74.74,74.74,0,0,0-12,26.65,23.64,23.64,0,0,0-.54,2.66l-.44,2.68c-.15.89-.3,1.79-.37,2.69s-.17,1.81-.22,2.72a57.84,57.84,0,0,0,.37,10.92,39.69,39.69,0,0,0,8.43,20.4,29,29,0,0,0,4.09,4c.75.64,1.59,1.12,2.38,1.68s1.68.94,2.53,1.41a28.89,28.89,0,0,0,11,2.83,25.73,25.73,0,0,0,11.34-1.87,20.34,20.34,0,0,0,9.16-7.47c4.62-7,5.72-8.6,4.29-6.29L397,100.05a21,21,0,0,1-12.2,8.92,27.35,27.35,0,0,1-9.27,1,29.68,29.68,0,0,1-9.91-2.46,27.1,27.1,0,0,1-4.77-2.71,27.69,27.69,0,0,1-4.25-3.75,34,34,0,0,1-6.21-9.52A50.46,50.46,0,0,1,346.47,69,70.08,70.08,0,0,1,351.18,47ZM34,1699.25c-3.61-25.25-7.62-50.08-11.72-75q-1.53-9.33-3.07-18.69c-.52-3.12-1-6.24-1.55-9.37s-1.08-6.24-1.63-9.37c-2.27-12.52-3.82-25.24-5.2-38.09a542.16,542.16,0,0,1-2.55-54.52,569.39,569.39,0,0,1,4.88-71.7,558.36,558.36,0,0,1,14.68-71.4,551.71,551.71,0,0,1,23.74-68.8,558.4,558.4,0,0,1,32.59-65l2.29-3.94,2.39-3.87,4.79-7.74,1.2-1.93,1.25-1.9,2.51-3.8,5-7.59,5.24-7.44c1.78-2.47,3.45-5,5.31-7.41l5.47-7.28,2.75-3.64,2.84-3.55-2.86,3.55-2.75,3.64-5.52,7.3-1.38,1.83-1.33,1.87-2.66,3.75-5.32,7.52-5.13,7.71c-1.69,2.58-3.46,5.13-5.07,7.79-3.25,5.29-6.66,10.52-9.74,16l-4.75,8.15c-1.54,2.75-3,5.54-4.55,8.33-3.09,5.53-5.92,11.25-8.82,17-1.49,2.85-2.84,5.77-4.21,8.7s-2.76,5.86-4.14,8.8l-3.92,9c-1.3,3-2.65,6-3.84,9.09l-3.71,9.23-.93,2.32-.86,2.34L42,1305.79c-1.14,3.15-2.37,6.29-3.44,9.49l-3.25,9.66c-1.12,3.22-2.1,6.5-3.1,9.8s-2,6.58-3,9.92l-2.77,10.09c-.45,1.69-.94,3.38-1.37,5.08L23.82,1365c-.82,3.44-1.69,6.89-2.49,10.37s-1.49,7-2.24,10.52c-.36,1.77-.78,3.53-1.1,5.31s-.65,3.57-1,5.36c-.64,3.58-1.36,7.17-1.93,10.8-1.11,7.28-2.32,14.61-3.15,22.08-1,7.44-1.64,15-2.37,22.65a554.59,554.59,0,0,1,21.7-114.71,564.61,564.61,0,0,1,19.17-53.78,552.59,552.59,0,0,1,24.34-50.79,545.15,545.15,0,0,1,29-47.47,516.1,516.1,0,0,1,33.52-43.66c23.69-27.85,50.4-52.47,77.72-75.87s55.45-45.6,82.63-68.81c13.57-11.62,27-23.37,39.68-36s24.47-26.13,34.42-41A176.28,176.28,0,0,0,385,896.58a91.89,91.89,0,0,0,8.08-25.68A63.49,63.49,0,0,0,391.63,844a43.05,43.05,0,0,0-5.52-12.47,23.26,23.26,0,0,0-4.71-5.1,17.39,17.39,0,0,0-6.29-3.1,14.07,14.07,0,0,0-7.06.06A13.85,13.85,0,0,0,362,827a16.28,16.28,0,0,0-3.63,6,29.1,29.1,0,0,0-1.42,6.8,68.34,68.34,0,0,0-.28,6.85,63.13,63.13,0,0,0,.33,6.86,32.92,32.92,0,0,0,4,13.24,22.45,22.45,0,0,0,4.5,5.46,20.69,20.69,0,0,0,6.18,3.51,21.66,21.66,0,0,0,14-.25A24.91,24.91,0,0,0,392,872.3a38.19,38.19,0,0,0,5.28-4.6,68.94,68.94,0,0,0,8.5-11,134.21,134.21,0,0,0,14.06-30.28,167.27,167.27,0,0,0,6.73-32.8c2.43-22.29,1.06-44.78-.62-67.14-.85-11.19-1.78-22.39-2.38-33.62s-.71-22.48-.37-33.77c.65-22.58,2.86-45.22,4.84-68q1-12.06,1.88-24.07c.53-8,.94-16,1.23-24,.62-15.95,1.21-31.83,1.49-47.66s.22-31.6-.39-47.31c-.33-7.85-.78-15.69-1.41-23.5s-1.22-15.56-1.74-23.33c.79,12.23,1.88,24.43,2.57,36.72s.93,24.55.94,36.82c0,24.54-1,49-2,73.5s-3.64,48.88-5.63,73.25-3.29,48.8-1.84,73.18,4.19,48.71,4.16,73.21a222.92,222.92,0,0,1-2.84,36.58,144,144,0,0,1-10.35,35.15,130.9,130.9,0,0,1-8.57,16.23A62.8,62.8,0,0,1,393.81,870a23.84,23.84,0,0,1-17,6.09,18.75,18.75,0,0,1-8.76-2.81,19.49,19.49,0,0,1-6.35-6.64,27.66,27.66,0,0,1-3.32-8.57A48.39,48.39,0,0,1,357.3,849a78,78,0,0,1,.25-9.17,24.88,24.88,0,0,1,2.38-8.86,13.86,13.86,0,0,1,2.72-3.73,12.27,12.27,0,0,1,3.8-2.61,12.61,12.61,0,0,1,4.48-1.1,14.18,14.18,0,0,1,4.58.51,17.69,17.69,0,0,1,7.72,4.86,28.45,28.45,0,0,1,5,7.63A57.8,57.8,0,0,1,393,854.13a68.45,68.45,0,0,1-.7,18.25,88,88,0,0,1-5,17.58c-1.09,2.85-2.38,5.62-3.73,8.35-.68,1.36-1.32,2.75-2,4.1l-2.18,4a205,205,0,0,1-20.57,30.19,318.14,318.14,0,0,1-24.73,26.92c-8.7,8.55-17.77,16.71-27,24.72s-18.51,15.88-27.87,23.7c-18.75,15.61-37.71,31-56.36,46.71-9.32,7.88-18.58,15.84-27.65,24s-18,16.5-26.71,25.07a519.5,519.5,0,0,0-48.58,54.86,540.79,540.79,0,0,0-72.34,127.26A553.46,553.46,0,0,0,11.15,1432l-.57,4.56c-.18,1.53-.3,3.06-.45,4.58l-.88,9.17c-.33,3-.46,6.12-.68,9.18L8,1468.64l-.34,9.21-.17,4.6-.08,2.3,0,2.31-.06,9.21,0,4.61.11,4.6a532.14,532.14,0,0,0,6.36,73.46l3.17,18.14,3,18.16,6,36.33c3.94,24.24,7.65,48.52,10.83,72.89q2.34,18.27,4.26,36.6c.6,6.12,1.2,12.23,1.71,18.36l.39,4.59c.14,1.55.28,3.1.44,4.64.33,3.09.7,6.16,1.09,9.22,1.56,12.23,3.31,24.39,3.83,36.58a129.63,129.63,0,0,1-.38,18.18,88.18,88.18,0,0,1-1.34,8.91,69.88,69.88,0,0,1-2.45,8.6,53.78,53.78,0,0,1-3.78,8c-.8,1.23-1.55,2.5-2.46,3.66a23.77,23.77,0,0,1-2.78,3.25,24,24,0,0,1-7,4.73,18.49,18.49,0,0,1-8,1.6,13.85,13.85,0,0,1-7.52-2.5,18.2,18.2,0,0,1-5.42-6.15,23.93,23.93,0,0,1-2.66-8,39.31,39.31,0,0,1-.33-8.76,56.79,56.79,0,0,1,1.21-8.84,41.3,41.3,0,0,1,2.69-8.37,28.64,28.64,0,0,1,4.55-7.27,24.19,24.19,0,0,1,3-3,39.3,39.3,0,0,1,3.55-2.56,20.29,20.29,0,0,1,7.66-3.09,11.67,11.67,0,0,1,7.53,1.37,19.86,19.86,0,0,1,6.07,5.6,42.79,42.79,0,0,1,4.44,7.58,94.47,94.47,0,0,1,5.8,17.14,160.51,160.51,0,0,1,3.29,18c.37,3,.67,6,.84,9.1s.35,6.16.5,9.25l.76,18.56c.24,6.2.49,12.41.86,18.63s.86,12.44,1.4,18.63q1.62,18.6,4,37.14a677.18,677.18,0,0,0,13.54,73.63c3,12.14,6.29,24.22,10.09,36.16s8,23.74,12.71,35.39,9.9,23.08,15.58,34.29,11.82,22.21,18.62,32.82c.81,1.35,1.69,2.66,2.57,4l2.62,3.92,2.62,3.93,1.32,2,1.37,1.91c3.71,5.1,7.31,10.27,11.26,15.18,7.64,10,16,19.51,24.47,28.84a435.27,435.27,0,0,1-31-37.66A377.39,377.39,0,0,1,122,2187.3a458.1,458.1,0,0,1-37.25-89.07,627.35,627.35,0,0,1-20.43-93.87c-2.26-15.84-4-31.73-5.41-47.64-.7-7.94-1.3-15.94-1.67-23.92s-.65-16-1-23.91c-.16-4-.33-8-.53-11.91l-.34-6c-.12-2-.29-3.91-.5-5.88a157.5,157.5,0,0,0-4.23-23.22A98.78,98.78,0,0,0,47,1850.78a52.48,52.48,0,0,0-5.3-10.24c-2.15-3.1-4.82-5.87-8-7.28a11.84,11.84,0,0,0-5.07-1,15.58,15.58,0,0,0-5.23,1.09,25,25,0,0,0-4.95,2.62,35.85,35.85,0,0,0-4.46,3.5,29,29,0,0,0-6.32,9.28,45.93,45.93,0,0,0-3.19,11.08,55.66,55.66,0,0,0-.72,11.58,27.67,27.67,0,0,0,2.7,10.9,18.27,18.27,0,0,0,7.39,7.94,15.47,15.47,0,0,0,10.57,1.39,23,23,0,0,0,10-4.94,23.29,23.29,0,0,0,3.86-4.13,41.34,41.34,0,0,0,3.2-4.84A51.92,51.92,0,0,0,46,1867a86,86,0,0,0,3.23-23.38c.27-15.92-2.2-31.84-4.19-47.85-.5-4-1-8-1.28-12.09l-1-12.05-1.17-12q-.65-6-1.3-12.06C38.4,1731.41,36.29,1715.34,34,1699.25Zm11.25,93.87c1.57,12.9,3.56,25.69,4.31,38.56a140.5,140.5,0,0,1-.07,19.25,83.69,83.69,0,0,1-1.26,9.5,62,62,0,0,1-2.43,9.23,50.19,50.19,0,0,1-3.92,8.64c-.36.71-.83,1.35-1.24,2l-.64,1-.7,1a26,26,0,0,1-3,3.59,24.63,24.63,0,0,1-7.68,5.17,23,23,0,0,1-4.42,1.36,19.05,19.05,0,0,1-4.58.25,15.53,15.53,0,0,1-8.37-3.26,20.38,20.38,0,0,1-5.65-7.19,27.35,27.35,0,0,1-2.44-9,47.08,47.08,0,0,1,0-9.42,47.59,47.59,0,0,1,5-18,28.33,28.33,0,0,1,5.65-7.33,34.23,34.23,0,0,1,7.68-5.24,16.25,16.25,0,0,1,8.78-1.75,14.41,14.41,0,0,1,8,3.8,30.32,30.32,0,0,1,5.73,7.26,60.16,60.16,0,0,1,4.06,8.49,115.28,115.28,0,0,1,5.25,18.18,162.77,162.77,0,0,1,2.81,18.75c.94,12.61,1.27,25.31,1.83,38,.67,17.24,2.22,34.54,4.12,51.84s4.38,34.62,7.5,51.84c6.28,34.43,15.16,68.58,27.75,101.22a436.53,436.53,0,0,0,21.51,47.6c4.11,7.65,8.34,15.21,12.9,22.54l3.42,5.5c1.16,1.81,2.39,3.59,3.57,5.38,2.42,3.57,4.72,7.2,7.3,10.63,19.8,28.06,43.2,52.84,68,74.69l4.68,4c1.55,1.36,3.09,2.72,4.7,4l9.5,7.8,9.64,7.49c3.19,2.49,6.49,4.83,9.72,7.24,13,9.49,26.21,18.35,39.44,26.64s26.55,15.94,39.74,23.19,26.33,13.94,39.24,20.34,25.69,12.31,38.17,18,24.7,11,36.6,16c23.79,10.1,46.26,19.1,67,27.3-56.36-22.53-113.1-46-167.87-74.85q-20.5-10.86-40.56-22.75t-39.28-25.29Q245.45,2323,227.27,2308c-12.1-10-23.9-20.39-35-31.57a452.32,452.32,0,0,1-31.71-35.16A410.45,410.45,0,0,1,133,2202.49a431.17,431.17,0,0,1-40.87-86.4c-10.58-30.28-18.16-61.67-23.65-93.5-2.74-15.92-4.92-32-6.67-48.09s-3.16-32.33-3.79-48.61c.6,15.48,1.82,29.27,3,41.42s2.51,22.7,3.74,31.7c2.5,18,4.72,29.84,5.91,36.16s1.43,7.13.57,3-2.57-13.3-4.68-27S62,1979.27,60.07,1957c-.49-5.57-1-11.39-1.35-17.47s-.66-12.4-.92-19-.5-13.33-.85-20.32c-.16-3.5-.37-7-.61-10.65s-.68-7.21-1.23-10.87a144.7,144.7,0,0,0-5-22.28,77.4,77.4,0,0,0-4.38-11,35.37,35.37,0,0,0-6.84-9.76,16.93,16.93,0,0,0-4.89-3.34,12.92,12.92,0,0,0-5.8-1c-4,.19-7.89,2.15-11.31,4.61a30.24,30.24,0,0,0-4.79,4.17,28.29,28.29,0,0,0-3.72,5.23A42.42,42.42,0,0,0,4,1857.69a57.36,57.36,0,0,0-1.08,13.43,27.44,27.44,0,0,0,3.6,12.94c2.32,3.86,6,7.13,10.42,8.2a19.09,19.09,0,0,0,13.44-2,24.85,24.85,0,0,0,5.74-4.15,32.64,32.64,0,0,0,4.49-5.64,50.38,50.38,0,0,0,6.08-13.38c2.82-9.56,3.45-19.83,3.14-30.14-.12-3.79-.45-9.76-1.27-17.27S46.47,1803.15,45.23,1793.12Z"/><path class="cls-2" d="M428.65,562.94l.35-5.35.27-5.35.48-10.73.87-21.47c.52-14.34.91-28.7,1-43.07,0-7.19-.07-14.39-.22-21.58s-.47-14.39-.91-21.57c-.94-14.38-2.14-28.72-2.92-43.1-3.4-57.49-3.87-115.14-1.56-172.19-.94,21.72-1.56,42.16-1.7,63.56s0,43.77.88,69.34q.24,6.48.48,13t.62,13.09c.38,8.76,1,17.57,1.52,26.45s1.27,17.78,1.91,26.75,1,18,1.16,27.06c.42,18.15.09,36.47-.49,54.9q-.44,13.82-1,27.71c-.35,9.26-.8,18.52-1.46,27.8-2.61,37.07-7.61,74.31-6.9,111.65.38,18.65,2.22,37.14,3.45,55.51s2,36.68.26,54.68a164.87,164.87,0,0,1-7.78,38,129.93,129.93,0,0,1-7.63,17.86,94.51,94.51,0,0,1-10.32,16.37,49.2,49.2,0,0,1-6.66,6.87,23.26,23.26,0,0,1-8.11,4.45,19.75,19.75,0,0,1-9.09.63,16.86,16.86,0,0,1-8.15-3.8,20.39,20.39,0,0,1-5.27-7.47,33.53,33.53,0,0,1-2.31-9.14,68.61,68.61,0,0,1-.35-9.64,37.06,37.06,0,0,1,1.22-9.39c.23-.73.48-1.46.78-2.16a15.33,15.33,0,0,1,1.05-2,11.49,11.49,0,0,1,6.82-5.13,11.07,11.07,0,0,1,4.33-.26,12.43,12.43,0,0,1,4.2,1.3,16,16,0,0,1,3.69,2.57,25,25,0,0,1,5.39,7.53,48.34,48.34,0,0,1,3.24,9,55.45,55.45,0,0,1,1.66,9.49,66.11,66.11,0,0,1,.11,9.65,79.8,79.8,0,0,1-1.3,9.61c-2.56,12.75-8.4,24.68-15.08,36a221.6,221.6,0,0,1-23.3,31.89c-17.37,20-37.4,37.58-57.7,54.9s-41.17,34.14-61.8,51.35-41.09,34.82-60.52,53.66c-2.46,2.32-4.81,4.76-7.22,7.14l-3.59,3.59c-1.2,1.19-2.35,2.43-3.53,3.65-2.33,2.46-4.71,4.87-7,7.37l-6.83,7.54c-1.14,1.26-2.3,2.5-3.41,3.79l-3.3,3.87-6.6,7.76-6.37,8-3.18,4c-1.06,1.33-2,2.71-3.08,4.06-65.92,86.65-105.13,194.27-111,304.68-.61,13.81-1,27.65-.55,41.49.08,6.92.53,13.84.89,20.76l.14,2.59.22,2.59.43,5.19.44,5.18c.14,1.73.28,3.45.5,5.18.81,6.88,1.5,13.79,2.59,20.65.53,3.43,1,6.88,1.56,10.3l1.82,10.23c2.35,13.57,4.6,27.26,6.9,40.89,4.55,27.3,9,54.66,12.73,82.13q2.84,20.6,5.06,41.29c.39,3.45.73,6.9,1.07,10.35s.68,6.91,1,10.37l.93,10.43c.34,3.51.77,7,1.21,10.46.68,5.47,1.68,12.54,2.57,20.64a200,200,0,0,1,1.42,26.72c-.26,9.45-1.65,19.35-5.5,28-.5,1.06-1,2.14-1.56,3.15l-.84,1.53-.93,1.46c-.59,1-1.33,1.89-2,2.82a22.8,22.8,0,0,1-2.14,2.43,21.65,21.65,0,0,1-10.75,5.81A21.46,21.46,0,0,0,34,1885.07a25.08,25.08,0,0,0,3.86-4.46c.63-.8,1.12-1.71,1.69-2.56s1-1.79,1.51-2.68c3.79-7.33,5.57-15.7,6.29-24.15a153.39,153.39,0,0,0-.34-25.7c-.74-8.61-1.91-17.22-3-25.89-.56-4.33-1.11-8.68-1.53-13.08l-1.14-13q-.61-6.49-1.25-13t-1.4-12.94c-2-17.24-4.26-34.42-6.77-51.55-5-34.25-10.85-68.35-16.54-102.3L13.06,1581c-.69-4.26-1.27-8.56-1.9-12.83s-1.09-8.58-1.6-12.87l-.73-6.44c-.22-2.15-.37-4.31-.56-6.46L7.73,1536l-.27-3.23-.18-3.23-.68-12.92-.3-12.93-.07-3.23,0-3.23,0-6.46.06-6.46.23-6.45c.18-4.3.24-8.61.58-12.9s.54-8.58.87-12.86l1.21-12.84Q12,1413.59,17,1388.34c3.35-16.81,7.56-33.42,12.4-49.81,1.27-4.09,2.43-8.2,3.78-12.26l4.06-12.15c2.91-8,5.76-16.08,9-24a550.94,550.94,0,0,1,46.51-90.85q13.78-21.46,29.44-41.59c10.4-13.42,21.65-26.16,33.3-38.47,23.41-24.54,48.92-46.83,74.79-68.46s52.21-42.65,77.48-64.82c12.65-11.07,25-22.43,36.47-34.67,5.71-6.12,11.23-12.42,16.37-19a213.09,213.09,0,0,0,14.22-20.61c2.19-3.56,4.16-7.24,6.1-10.93l2.75-5.62c.86-1.89,1.69-3.79,2.44-5.73a81.88,81.88,0,0,0,5.72-24.07A59.75,59.75,0,0,0,388.69,841a32.49,32.49,0,0,0-5.84-10.59,15.56,15.56,0,0,0-10-5.56,11.49,11.49,0,0,0-5.62.84,12,12,0,0,0-4.54,3.44c-2.47,3-3.48,7.08-3.85,11.12-.19,2-.24,4.12-.25,6.2s.07,4.15.25,6.2a33.54,33.54,0,0,0,3.07,11.76,23,23,0,0,0,3.37,5,17.58,17.58,0,0,0,16.35,5.22l.74-.12.73-.19c.48-.13,1-.24,1.45-.39a23.46,23.46,0,0,0,2.8-1.14,24.69,24.69,0,0,0,5.11-3.25,49.75,49.75,0,0,0,4.45-4.27c1.38-1.54,2.7-3.13,3.94-4.8a117.72,117.72,0,0,0,12.27-21.76,125.25,125.25,0,0,0,4.5-11.69c1.32-4,2.44-8,3.4-12.07,3.85-16.31,5.11-33.16,5-49.95-.21-33.61-5.66-67.13-4.64-101C422,630.21,426.47,596.67,428.65,562.94Z"/><path class="cls-2" d="M299.85,2362.66c35.12,21.2,71.79,39.53,108.61,56.21s73.86,31.69,110.09,46.18c-32.87-13.29-71.75-29-110.76-46.81-19.5-8.89-39-18.3-57.83-28.08s-36.88-19.95-53.55-30.18c-5.91-3.53-11.65-7.32-17.47-11l-8.58-5.73-4.29-2.88-4.22-3c-11.33-7.82-22.3-16.17-33-24.79l-8-6.56c-2.63-2.22-5.21-4.5-7.81-6.75l-3.9-3.4-3.8-3.5c-2.52-2.34-5.09-4.64-7.57-7-4.91-4.83-9.89-9.58-14.59-14.62s-9.36-10.1-14-15.21c-2.25-2.6-4.43-5.27-6.65-7.9l-3.31-3.95-3.18-4.07c-2.1-2.72-4.26-5.41-6.32-8.16l-6-8.36c-2.06-2.75-3.91-5.65-5.84-8.5l-2.86-4.28-1.43-2.14L132.2,2206c-1.8-2.93-3.67-5.81-5.4-8.77l-5.17-8.91a450.57,450.57,0,0,1-33.06-74.95,450.27,450.27,0,0,0,33,75.09,407.24,407.24,0,0,0,47.8,67.69c9.15,10.48,18.86,20.51,28.93,30.23S219,2305.27,230,2314.11c2.73,2.22,5.54,4.35,8.31,6.53l4.18,3.25,4.26,3.16c2.85,2.09,5.67,4.23,8.55,6.29l8.69,6.12c2.89,2.07,5.88,4,8.82,6s5.9,4,8.91,5.87l9,5.76Z"/><path class="cls-2" d="M23.85,1890.25A14.93,14.93,0,0,1,17,1890a13.84,13.84,0,0,1-5.83-3.57,19.36,19.36,0,0,1-4-6,26,26,0,0,1-1.82-7.28,42.9,42.9,0,0,1-.07-7.86,56.87,56.87,0,0,1,1.14-7.94,35.21,35.21,0,0,1,6.18-14.19c.41-.6.93-1.1,1.38-1.66s1-1,1.54-1.5l.8-.7.9-.7c.59-.48,1.21-.88,1.81-1.33a20.87,20.87,0,0,1,7.69-3.41,10.67,10.67,0,0,1,7.39,1.17,19.41,19.41,0,0,1,6.08,5.71c3.48,4.84,5.9,10.77,7.82,16.81a139.42,139.42,0,0,1,4.36,18.74c.53,3.18,1,6.38,1.3,9.59.17,1.6.31,3.19.41,4.8l.29,4.9c.37,6.55.63,13.14.88,19.74s.51,13.24.87,19.9.86,13.34,1.43,20c2.3,26.57,5.69,53.21,10.68,79.69a578.77,578.77,0,0,0,20.37,78.54,579.17,579.17,0,0,1-21.07-83.21A828.29,828.29,0,0,1,57,1945.3c-1-14.27-1.33-28.5-2-42.66q-.24-5.31-.55-10.6c-.19-3.52-.53-6.94-1-10.42a151.66,151.66,0,0,0-4.07-20.54c-1.87-6.68-4.22-13.29-7.79-18.93a23.32,23.32,0,0,0-6.43-7,11.41,11.41,0,0,0-8.3-1.87,21.13,21.13,0,0,0-8.6,3.82c-.69.47-1.36,1-2,1.49s-1.24,1-1.83,1.6a25.86,25.86,0,0,0-3.13,3.69c-3.74,5.37-5.63,12.11-6.41,18.9.07,0,0,1.09-.11,3.17a42.57,42.57,0,0,0,.47,8.71A25.07,25.07,0,0,0,7,1880.31a19.64,19.64,0,0,0,3.54,5.56,14.28,14.28,0,0,0,5.79,3.91A14.43,14.43,0,0,0,23.85,1890.25Z"/></g></g></g></svg>